G75*
G70*
%OFA0B0*%
%FSLAX24Y24*%
%IPPOS*%
%LPD*%
%AMOC8*
5,1,8,0,0,1.08239X$1,22.5*
%
%ADD10C,0.0000*%
%ADD11R,0.2126X0.2441*%
%ADD12R,0.0394X0.0630*%
%ADD13C,0.0055*%
%ADD14R,0.1000X0.2000*%
%ADD15R,0.0295X0.0827*%
%ADD16R,0.0315X0.0472*%
D10*
X016013Y005469D02*
X016013Y023186D01*
X016014Y023186D02*
X016016Y023248D01*
X016022Y023309D01*
X016031Y023370D01*
X016045Y023431D01*
X016062Y023490D01*
X016083Y023548D01*
X016108Y023605D01*
X016136Y023660D01*
X016167Y023713D01*
X016202Y023764D01*
X016240Y023813D01*
X016281Y023860D01*
X016324Y023903D01*
X016371Y023944D01*
X016420Y023982D01*
X016471Y024017D01*
X016524Y024048D01*
X016579Y024076D01*
X016636Y024101D01*
X016694Y024122D01*
X016753Y024139D01*
X016814Y024153D01*
X016875Y024162D01*
X016936Y024168D01*
X016998Y024170D01*
X026840Y024170D01*
X026902Y024168D01*
X026963Y024162D01*
X027024Y024153D01*
X027085Y024139D01*
X027144Y024122D01*
X027202Y024101D01*
X027259Y024076D01*
X027314Y024048D01*
X027367Y024017D01*
X027418Y023982D01*
X027467Y023944D01*
X027514Y023903D01*
X027557Y023860D01*
X027598Y023813D01*
X027636Y023764D01*
X027671Y023713D01*
X027702Y023660D01*
X027730Y023605D01*
X027755Y023548D01*
X027776Y023490D01*
X027793Y023431D01*
X027807Y023370D01*
X027816Y023309D01*
X027822Y023248D01*
X027824Y023186D01*
X027824Y005469D01*
X027822Y005407D01*
X027816Y005346D01*
X027807Y005285D01*
X027793Y005224D01*
X027776Y005165D01*
X027755Y005107D01*
X027730Y005050D01*
X027702Y004995D01*
X027671Y004942D01*
X027636Y004891D01*
X027598Y004842D01*
X027557Y004795D01*
X027514Y004752D01*
X027467Y004711D01*
X027418Y004673D01*
X027367Y004638D01*
X027314Y004607D01*
X027259Y004579D01*
X027202Y004554D01*
X027144Y004533D01*
X027085Y004516D01*
X027024Y004502D01*
X026963Y004493D01*
X026902Y004487D01*
X026840Y004485D01*
X016998Y004485D01*
X016936Y004487D01*
X016875Y004493D01*
X016814Y004502D01*
X016753Y004516D01*
X016694Y004533D01*
X016636Y004554D01*
X016579Y004579D01*
X016524Y004607D01*
X016471Y004638D01*
X016420Y004673D01*
X016371Y004711D01*
X016324Y004752D01*
X016281Y004795D01*
X016240Y004842D01*
X016202Y004891D01*
X016167Y004942D01*
X016136Y004995D01*
X016108Y005050D01*
X016083Y005107D01*
X016062Y005165D01*
X016045Y005224D01*
X016031Y005285D01*
X016022Y005346D01*
X016016Y005407D01*
X016014Y005469D01*
D11*
X021765Y020583D03*
X018281Y021146D03*
D12*
X017383Y018272D03*
X019179Y018272D03*
X020868Y017709D03*
X022663Y017709D03*
D13*
X022852Y016070D02*
X022852Y015848D01*
X022852Y016070D02*
X023506Y016070D01*
X023506Y015848D01*
X022852Y015848D01*
X022852Y015902D02*
X023506Y015902D01*
X023506Y015956D02*
X022852Y015956D01*
X022852Y016010D02*
X023506Y016010D01*
X023506Y016064D02*
X022852Y016064D01*
X022852Y015570D02*
X022852Y015348D01*
X022852Y015570D02*
X023506Y015570D01*
X023506Y015348D01*
X022852Y015348D01*
X022852Y015402D02*
X023506Y015402D01*
X023506Y015456D02*
X022852Y015456D01*
X022852Y015510D02*
X023506Y015510D01*
X023506Y015564D02*
X022852Y015564D01*
X022852Y015070D02*
X022852Y014848D01*
X022852Y015070D02*
X023506Y015070D01*
X023506Y014848D01*
X022852Y014848D01*
X022852Y014902D02*
X023506Y014902D01*
X023506Y014956D02*
X022852Y014956D01*
X022852Y015010D02*
X023506Y015010D01*
X023506Y015064D02*
X022852Y015064D01*
X022852Y014570D02*
X022852Y014348D01*
X022852Y014570D02*
X023506Y014570D01*
X023506Y014348D01*
X022852Y014348D01*
X022852Y014402D02*
X023506Y014402D01*
X023506Y014456D02*
X022852Y014456D01*
X022852Y014510D02*
X023506Y014510D01*
X023506Y014564D02*
X022852Y014564D01*
X022852Y014070D02*
X022852Y013848D01*
X022852Y014070D02*
X023506Y014070D01*
X023506Y013848D01*
X022852Y013848D01*
X022852Y013902D02*
X023506Y013902D01*
X023506Y013956D02*
X022852Y013956D01*
X022852Y014010D02*
X023506Y014010D01*
X023506Y014064D02*
X022852Y014064D01*
X022852Y013570D02*
X022852Y013348D01*
X022852Y013570D02*
X023506Y013570D01*
X023506Y013348D01*
X022852Y013348D01*
X022852Y013402D02*
X023506Y013402D01*
X023506Y013456D02*
X022852Y013456D01*
X022852Y013510D02*
X023506Y013510D01*
X023506Y013564D02*
X022852Y013564D01*
X022852Y013070D02*
X022852Y012848D01*
X022852Y013070D02*
X023506Y013070D01*
X023506Y012848D01*
X022852Y012848D01*
X022852Y012902D02*
X023506Y012902D01*
X023506Y012956D02*
X022852Y012956D01*
X022852Y013010D02*
X023506Y013010D01*
X023506Y013064D02*
X022852Y013064D01*
X022852Y012570D02*
X022852Y012348D01*
X022852Y012570D02*
X023506Y012570D01*
X023506Y012348D01*
X022852Y012348D01*
X022852Y012402D02*
X023506Y012402D01*
X023506Y012456D02*
X022852Y012456D01*
X022852Y012510D02*
X023506Y012510D01*
X023506Y012564D02*
X022852Y012564D01*
D14*
X025265Y005902D03*
X026840Y005902D03*
X026840Y022713D03*
D15*
X020570Y010804D03*
X020070Y010804D03*
X019570Y010804D03*
X019070Y010804D03*
X018570Y010804D03*
X018570Y009268D03*
X019070Y009268D03*
X019570Y009268D03*
X020070Y009268D03*
X020570Y009268D03*
D16*
X021958Y016926D03*
X022667Y016926D03*
X019478Y017438D03*
X018769Y017438D03*
M02*
