G75*
G70*
%OFA0B0*%
%FSLAX24Y24*%
%IPPOS*%
%LPD*%
%AMOC8*
5,1,8,0,0,1.08239X$1,22.5*
%
%ADD10C,0.0000*%
%ADD11R,0.2126X0.2441*%
%ADD12R,0.0394X0.0630*%
%ADD13R,0.0240X0.0870*%
%ADD14R,0.0315X0.0472*%
%ADD15R,0.0472X0.0315*%
%ADD16R,0.0217X0.0472*%
%ADD17R,0.0236X0.0354*%
%ADD18R,0.0354X0.0276*%
%ADD19R,0.0669X0.0276*%
%ADD20C,0.0059*%
%ADD21R,0.0380X0.0400*%
%ADD22R,0.0354X0.0315*%
%ADD23R,0.0240X0.1024*%
%ADD24R,0.0276X0.0354*%
%ADD25R,0.0579X0.0500*%
%ADD26R,0.0630X0.2244*%
%ADD27R,0.1004X0.0984*%
%ADD28R,0.1004X0.1063*%
D10*
X016013Y005469D02*
X016013Y023186D01*
X016014Y023186D02*
X016016Y023248D01*
X016022Y023309D01*
X016031Y023370D01*
X016045Y023431D01*
X016062Y023490D01*
X016083Y023548D01*
X016108Y023605D01*
X016136Y023660D01*
X016167Y023713D01*
X016202Y023764D01*
X016240Y023813D01*
X016281Y023860D01*
X016324Y023903D01*
X016371Y023944D01*
X016420Y023982D01*
X016471Y024017D01*
X016524Y024048D01*
X016579Y024076D01*
X016636Y024101D01*
X016694Y024122D01*
X016753Y024139D01*
X016814Y024153D01*
X016875Y024162D01*
X016936Y024168D01*
X016998Y024170D01*
X026840Y024170D01*
X026902Y024168D01*
X026963Y024162D01*
X027024Y024153D01*
X027085Y024139D01*
X027144Y024122D01*
X027202Y024101D01*
X027259Y024076D01*
X027314Y024048D01*
X027367Y024017D01*
X027418Y023982D01*
X027467Y023944D01*
X027514Y023903D01*
X027557Y023860D01*
X027598Y023813D01*
X027636Y023764D01*
X027671Y023713D01*
X027702Y023660D01*
X027730Y023605D01*
X027755Y023548D01*
X027776Y023490D01*
X027793Y023431D01*
X027807Y023370D01*
X027816Y023309D01*
X027822Y023248D01*
X027824Y023186D01*
X027824Y005469D01*
X027822Y005407D01*
X027816Y005346D01*
X027807Y005285D01*
X027793Y005224D01*
X027776Y005165D01*
X027755Y005107D01*
X027730Y005050D01*
X027702Y004995D01*
X027671Y004942D01*
X027636Y004891D01*
X027598Y004842D01*
X027557Y004795D01*
X027514Y004752D01*
X027467Y004711D01*
X027418Y004673D01*
X027367Y004638D01*
X027314Y004607D01*
X027259Y004579D01*
X027202Y004554D01*
X027144Y004533D01*
X027085Y004516D01*
X027024Y004502D01*
X026963Y004493D01*
X026902Y004487D01*
X026840Y004485D01*
X016998Y004485D01*
X016936Y004487D01*
X016875Y004493D01*
X016814Y004502D01*
X016753Y004516D01*
X016694Y004533D01*
X016636Y004554D01*
X016579Y004579D01*
X016524Y004607D01*
X016471Y004638D01*
X016420Y004673D01*
X016371Y004711D01*
X016324Y004752D01*
X016281Y004795D01*
X016240Y004842D01*
X016202Y004891D01*
X016167Y004942D01*
X016136Y004995D01*
X016108Y005050D01*
X016083Y005107D01*
X016062Y005165D01*
X016045Y005224D01*
X016031Y005285D01*
X016022Y005346D01*
X016016Y005407D01*
X016014Y005469D01*
D11*
X018285Y020575D03*
X021773Y020575D03*
D12*
X020876Y023449D03*
X019183Y023449D03*
X017387Y023449D03*
X022671Y023449D03*
D13*
X025027Y018310D03*
X025527Y018310D03*
X026027Y018310D03*
X026527Y018310D03*
X026527Y016250D03*
X026027Y016250D03*
X025527Y016250D03*
X025027Y016250D03*
X022118Y014452D03*
X021618Y014452D03*
X021118Y014452D03*
X020618Y014452D03*
X020618Y012392D03*
X021118Y012392D03*
X021618Y012392D03*
X022118Y012392D03*
X022862Y008428D03*
X023362Y008428D03*
X023862Y008428D03*
X024362Y008428D03*
X024362Y006368D03*
X023862Y006368D03*
X023362Y006368D03*
X022862Y006368D03*
D14*
X026250Y007831D03*
X026958Y007831D03*
X026958Y008894D03*
X026250Y008894D03*
X026250Y009682D03*
X026958Y009682D03*
X022628Y015941D03*
X021919Y015941D03*
D15*
X021250Y015823D03*
X021250Y016532D03*
X020777Y017674D03*
X020777Y018382D03*
X019557Y018422D03*
X019557Y017713D03*
X023809Y015193D03*
X023809Y014485D03*
X026958Y010902D03*
X026958Y010193D03*
D16*
X025442Y009918D03*
X025068Y009918D03*
X024694Y009918D03*
X024694Y010941D03*
X025068Y010941D03*
X025442Y010941D03*
X026230Y011808D03*
X026604Y011808D03*
X026978Y011808D03*
X026978Y012831D03*
X026230Y012831D03*
D17*
X023631Y010764D03*
X023257Y010764D03*
X022883Y010764D03*
X022883Y009859D03*
X023257Y009859D03*
X023631Y009859D03*
D18*
X024163Y010607D03*
X024163Y011119D03*
X023533Y011945D03*
X023533Y012457D03*
D19*
X020895Y010784D03*
X020895Y010312D03*
X020895Y009839D03*
D20*
X020885Y008984D02*
X020885Y008766D01*
X020885Y008984D02*
X020945Y008984D01*
X020945Y008766D01*
X020885Y008766D01*
X020885Y008824D02*
X020945Y008824D01*
X020945Y008882D02*
X020885Y008882D01*
X020885Y008940D02*
X020945Y008940D01*
X021082Y008984D02*
X021082Y008766D01*
X021082Y008984D02*
X021142Y008984D01*
X021142Y008766D01*
X021082Y008766D01*
X021082Y008824D02*
X021142Y008824D01*
X021142Y008882D02*
X021082Y008882D01*
X021082Y008940D02*
X021142Y008940D01*
X021279Y008984D02*
X021279Y008766D01*
X021279Y008984D02*
X021339Y008984D01*
X021339Y008766D01*
X021279Y008766D01*
X021279Y008824D02*
X021339Y008824D01*
X021339Y008882D02*
X021279Y008882D01*
X021279Y008940D02*
X021339Y008940D01*
X021475Y008984D02*
X021475Y008766D01*
X021475Y008984D02*
X021535Y008984D01*
X021535Y008766D01*
X021475Y008766D01*
X021475Y008824D02*
X021535Y008824D01*
X021535Y008882D02*
X021475Y008882D01*
X021475Y008940D02*
X021535Y008940D01*
X021633Y008668D02*
X021633Y008608D01*
X021633Y008668D02*
X021851Y008668D01*
X021851Y008608D01*
X021633Y008608D01*
X021633Y008666D02*
X021851Y008666D01*
X021633Y008471D02*
X021633Y008411D01*
X021633Y008471D02*
X021851Y008471D01*
X021851Y008411D01*
X021633Y008411D01*
X021633Y008469D02*
X021851Y008469D01*
X021633Y008275D02*
X021633Y008215D01*
X021633Y008275D02*
X021851Y008275D01*
X021851Y008215D01*
X021633Y008215D01*
X021633Y008273D02*
X021851Y008273D01*
X021633Y008078D02*
X021633Y008018D01*
X021633Y008078D02*
X021851Y008078D01*
X021851Y008018D01*
X021633Y008018D01*
X021633Y008076D02*
X021851Y008076D01*
X021633Y007881D02*
X021633Y007821D01*
X021633Y007881D02*
X021851Y007881D01*
X021851Y007821D01*
X021633Y007821D01*
X021633Y007879D02*
X021851Y007879D01*
X021633Y007684D02*
X021633Y007624D01*
X021633Y007684D02*
X021851Y007684D01*
X021851Y007624D01*
X021633Y007624D01*
X021633Y007682D02*
X021851Y007682D01*
X021633Y007487D02*
X021633Y007427D01*
X021633Y007487D02*
X021851Y007487D01*
X021851Y007427D01*
X021633Y007427D01*
X021633Y007485D02*
X021851Y007485D01*
X021633Y007290D02*
X021633Y007230D01*
X021633Y007290D02*
X021851Y007290D01*
X021851Y007230D01*
X021633Y007230D01*
X021633Y007288D02*
X021851Y007288D01*
X021475Y007133D02*
X021475Y006915D01*
X021475Y007133D02*
X021535Y007133D01*
X021535Y006915D01*
X021475Y006915D01*
X021475Y006973D02*
X021535Y006973D01*
X021535Y007031D02*
X021475Y007031D01*
X021475Y007089D02*
X021535Y007089D01*
X021279Y007133D02*
X021279Y006915D01*
X021279Y007133D02*
X021339Y007133D01*
X021339Y006915D01*
X021279Y006915D01*
X021279Y006973D02*
X021339Y006973D01*
X021339Y007031D02*
X021279Y007031D01*
X021279Y007089D02*
X021339Y007089D01*
X021082Y007133D02*
X021082Y006915D01*
X021082Y007133D02*
X021142Y007133D01*
X021142Y006915D01*
X021082Y006915D01*
X021082Y006973D02*
X021142Y006973D01*
X021142Y007031D02*
X021082Y007031D01*
X021082Y007089D02*
X021142Y007089D01*
X020885Y007133D02*
X020885Y006915D01*
X020885Y007133D02*
X020945Y007133D01*
X020945Y006915D01*
X020885Y006915D01*
X020885Y006973D02*
X020945Y006973D01*
X020945Y007031D02*
X020885Y007031D01*
X020885Y007089D02*
X020945Y007089D01*
X020688Y007133D02*
X020688Y006915D01*
X020688Y007133D02*
X020748Y007133D01*
X020748Y006915D01*
X020688Y006915D01*
X020688Y006973D02*
X020748Y006973D01*
X020748Y007031D02*
X020688Y007031D01*
X020688Y007089D02*
X020748Y007089D01*
X020491Y007133D02*
X020491Y006915D01*
X020491Y007133D02*
X020551Y007133D01*
X020551Y006915D01*
X020491Y006915D01*
X020491Y006973D02*
X020551Y006973D01*
X020551Y007031D02*
X020491Y007031D01*
X020491Y007089D02*
X020551Y007089D01*
X020294Y007133D02*
X020294Y006915D01*
X020294Y007133D02*
X020354Y007133D01*
X020354Y006915D01*
X020294Y006915D01*
X020294Y006973D02*
X020354Y006973D01*
X020354Y007031D02*
X020294Y007031D01*
X020294Y007089D02*
X020354Y007089D01*
X020098Y007133D02*
X020098Y006915D01*
X020098Y007133D02*
X020158Y007133D01*
X020158Y006915D01*
X020098Y006915D01*
X020098Y006973D02*
X020158Y006973D01*
X020158Y007031D02*
X020098Y007031D01*
X020098Y007089D02*
X020158Y007089D01*
X019782Y007230D02*
X019782Y007290D01*
X020000Y007290D01*
X020000Y007230D01*
X019782Y007230D01*
X019782Y007288D02*
X020000Y007288D01*
X019782Y007427D02*
X019782Y007487D01*
X020000Y007487D01*
X020000Y007427D01*
X019782Y007427D01*
X019782Y007485D02*
X020000Y007485D01*
X019782Y007624D02*
X019782Y007684D01*
X020000Y007684D01*
X020000Y007624D01*
X019782Y007624D01*
X019782Y007682D02*
X020000Y007682D01*
X019782Y007821D02*
X019782Y007881D01*
X020000Y007881D01*
X020000Y007821D01*
X019782Y007821D01*
X019782Y007879D02*
X020000Y007879D01*
X019782Y008018D02*
X019782Y008078D01*
X020000Y008078D01*
X020000Y008018D01*
X019782Y008018D01*
X019782Y008076D02*
X020000Y008076D01*
X019782Y008215D02*
X019782Y008275D01*
X020000Y008275D01*
X020000Y008215D01*
X019782Y008215D01*
X019782Y008273D02*
X020000Y008273D01*
X019782Y008411D02*
X019782Y008471D01*
X020000Y008471D01*
X020000Y008411D01*
X019782Y008411D01*
X019782Y008469D02*
X020000Y008469D01*
X019782Y008608D02*
X019782Y008668D01*
X020000Y008668D01*
X020000Y008608D01*
X019782Y008608D01*
X019782Y008666D02*
X020000Y008666D01*
X020098Y008766D02*
X020098Y008984D01*
X020158Y008984D01*
X020158Y008766D01*
X020098Y008766D01*
X020098Y008824D02*
X020158Y008824D01*
X020158Y008882D02*
X020098Y008882D01*
X020098Y008940D02*
X020158Y008940D01*
X020294Y008984D02*
X020294Y008766D01*
X020294Y008984D02*
X020354Y008984D01*
X020354Y008766D01*
X020294Y008766D01*
X020294Y008824D02*
X020354Y008824D01*
X020354Y008882D02*
X020294Y008882D01*
X020294Y008940D02*
X020354Y008940D01*
X020491Y008984D02*
X020491Y008766D01*
X020491Y008984D02*
X020551Y008984D01*
X020551Y008766D01*
X020491Y008766D01*
X020491Y008824D02*
X020551Y008824D01*
X020551Y008882D02*
X020491Y008882D01*
X020491Y008940D02*
X020551Y008940D01*
X020688Y008984D02*
X020688Y008766D01*
X020688Y008984D02*
X020748Y008984D01*
X020748Y008766D01*
X020688Y008766D01*
X020688Y008824D02*
X020748Y008824D01*
X020748Y008882D02*
X020688Y008882D01*
X020688Y008940D02*
X020748Y008940D01*
D21*
X020777Y006001D03*
X020226Y006001D03*
X019635Y006001D03*
X019635Y005331D03*
X020226Y005331D03*
X020777Y005331D03*
D22*
X019045Y005331D03*
X019045Y006001D03*
D23*
X018496Y007253D03*
X017996Y007253D03*
X017496Y007253D03*
X016996Y007253D03*
X016996Y009834D03*
X017496Y009834D03*
X017996Y009834D03*
X018496Y009834D03*
D24*
X023828Y005193D03*
X024340Y005193D03*
D25*
X024084Y016434D03*
X024084Y018127D03*
D26*
X025029Y021690D03*
X026919Y021690D03*
D27*
X026850Y014721D03*
X024862Y014721D03*
D28*
X023897Y019445D03*
X026397Y019445D03*
M02*
