G75*
G70*
%OFA0B0*%
%FSLAX24Y24*%
%IPPOS*%
%LPD*%
%AMOC8*
5,1,8,0,0,1.08239X$1,22.5*
%
%ADD10C,0.0000*%
%ADD11R,0.2206X0.2521*%
%ADD12R,0.0474X0.0710*%
%ADD13R,0.0320X0.0950*%
%ADD14R,0.0395X0.0552*%
%ADD15R,0.0552X0.0395*%
%ADD16R,0.0297X0.0552*%
%ADD17R,0.0316X0.0434*%
%ADD18R,0.0434X0.0356*%
%ADD19R,0.0749X0.0356*%
%ADD20C,0.0099*%
%ADD21R,0.0460X0.0480*%
%ADD22R,0.0434X0.0395*%
%ADD23R,0.0320X0.1104*%
%ADD24R,0.0356X0.0434*%
%ADD25R,0.0659X0.0580*%
%ADD26R,0.0710X0.2324*%
%ADD27R,0.1084X0.1064*%
%ADD28R,0.1084X0.1143*%
%ADD29C,0.0500*%
%ADD30C,0.0474*%
%ADD31C,0.0437*%
%ADD32C,0.0358*%
D10*
X016013Y005469D02*
X016013Y023186D01*
X016014Y023186D02*
X016016Y023248D01*
X016022Y023309D01*
X016031Y023370D01*
X016045Y023431D01*
X016062Y023490D01*
X016083Y023548D01*
X016108Y023605D01*
X016136Y023660D01*
X016167Y023713D01*
X016202Y023764D01*
X016240Y023813D01*
X016281Y023860D01*
X016324Y023903D01*
X016371Y023944D01*
X016420Y023982D01*
X016471Y024017D01*
X016524Y024048D01*
X016579Y024076D01*
X016636Y024101D01*
X016694Y024122D01*
X016753Y024139D01*
X016814Y024153D01*
X016875Y024162D01*
X016936Y024168D01*
X016998Y024170D01*
X026840Y024170D01*
X026902Y024168D01*
X026963Y024162D01*
X027024Y024153D01*
X027085Y024139D01*
X027144Y024122D01*
X027202Y024101D01*
X027259Y024076D01*
X027314Y024048D01*
X027367Y024017D01*
X027418Y023982D01*
X027467Y023944D01*
X027514Y023903D01*
X027557Y023860D01*
X027598Y023813D01*
X027636Y023764D01*
X027671Y023713D01*
X027702Y023660D01*
X027730Y023605D01*
X027755Y023548D01*
X027776Y023490D01*
X027793Y023431D01*
X027807Y023370D01*
X027816Y023309D01*
X027822Y023248D01*
X027824Y023186D01*
X027824Y005469D01*
X027822Y005407D01*
X027816Y005346D01*
X027807Y005285D01*
X027793Y005224D01*
X027776Y005165D01*
X027755Y005107D01*
X027730Y005050D01*
X027702Y004995D01*
X027671Y004942D01*
X027636Y004891D01*
X027598Y004842D01*
X027557Y004795D01*
X027514Y004752D01*
X027467Y004711D01*
X027418Y004673D01*
X027367Y004638D01*
X027314Y004607D01*
X027259Y004579D01*
X027202Y004554D01*
X027144Y004533D01*
X027085Y004516D01*
X027024Y004502D01*
X026963Y004493D01*
X026902Y004487D01*
X026840Y004485D01*
X016998Y004485D01*
X016936Y004487D01*
X016875Y004493D01*
X016814Y004502D01*
X016753Y004516D01*
X016694Y004533D01*
X016636Y004554D01*
X016579Y004579D01*
X016524Y004607D01*
X016471Y004638D01*
X016420Y004673D01*
X016371Y004711D01*
X016324Y004752D01*
X016281Y004795D01*
X016240Y004842D01*
X016202Y004891D01*
X016167Y004942D01*
X016136Y004995D01*
X016108Y005050D01*
X016083Y005107D01*
X016062Y005165D01*
X016045Y005224D01*
X016031Y005285D01*
X016022Y005346D01*
X016016Y005407D01*
X016014Y005469D01*
D11*
X018285Y020575D03*
X021773Y020575D03*
D12*
X020876Y023449D03*
X019183Y023449D03*
X017387Y023449D03*
X022671Y023449D03*
D13*
X025027Y018310D03*
X025527Y018310D03*
X026027Y018310D03*
X026527Y018310D03*
X026527Y016250D03*
X026027Y016250D03*
X025527Y016250D03*
X025027Y016250D03*
X022118Y014452D03*
X021618Y014452D03*
X021118Y014452D03*
X020618Y014452D03*
X020618Y012392D03*
X021118Y012392D03*
X021618Y012392D03*
X022118Y012392D03*
X022862Y008428D03*
X023362Y008428D03*
X023862Y008428D03*
X024362Y008428D03*
X024362Y006368D03*
X023862Y006368D03*
X023362Y006368D03*
X022862Y006368D03*
D14*
X026250Y007831D03*
X026958Y007831D03*
X026958Y008894D03*
X026250Y008894D03*
X026250Y009682D03*
X026958Y009682D03*
X022628Y015941D03*
X021919Y015941D03*
D15*
X021250Y015823D03*
X021250Y016532D03*
X020777Y017674D03*
X020777Y018382D03*
X019557Y018422D03*
X019557Y017713D03*
X023809Y015193D03*
X023809Y014485D03*
X026958Y010902D03*
X026958Y010193D03*
D16*
X025442Y009918D03*
X025068Y009918D03*
X024694Y009918D03*
X024694Y010941D03*
X025068Y010941D03*
X025442Y010941D03*
X026230Y011808D03*
X026604Y011808D03*
X026978Y011808D03*
X026978Y012831D03*
X026230Y012831D03*
D17*
X023631Y010764D03*
X023257Y010764D03*
X022883Y010764D03*
X022883Y009859D03*
X023257Y009859D03*
X023631Y009859D03*
D18*
X024163Y010607D03*
X024163Y011119D03*
X023533Y011945D03*
X023533Y012457D03*
D19*
X020895Y010784D03*
X020895Y010312D03*
X020895Y009839D03*
D20*
X020865Y009004D02*
X020865Y008746D01*
X020865Y009004D02*
X020965Y009004D01*
X020965Y008746D01*
X020865Y008746D01*
X020865Y008844D02*
X020965Y008844D01*
X020965Y008942D02*
X020865Y008942D01*
X020668Y009004D02*
X020668Y008746D01*
X020668Y009004D02*
X020768Y009004D01*
X020768Y008746D01*
X020668Y008746D01*
X020668Y008844D02*
X020768Y008844D01*
X020768Y008942D02*
X020668Y008942D01*
X020471Y009004D02*
X020471Y008746D01*
X020471Y009004D02*
X020571Y009004D01*
X020571Y008746D01*
X020471Y008746D01*
X020471Y008844D02*
X020571Y008844D01*
X020571Y008942D02*
X020471Y008942D01*
X020274Y009004D02*
X020274Y008746D01*
X020274Y009004D02*
X020374Y009004D01*
X020374Y008746D01*
X020274Y008746D01*
X020274Y008844D02*
X020374Y008844D01*
X020374Y008942D02*
X020274Y008942D01*
X020078Y009004D02*
X020078Y008746D01*
X020078Y009004D02*
X020178Y009004D01*
X020178Y008746D01*
X020078Y008746D01*
X020078Y008844D02*
X020178Y008844D01*
X020178Y008942D02*
X020078Y008942D01*
X019762Y008688D02*
X019762Y008588D01*
X019762Y008688D02*
X020020Y008688D01*
X020020Y008588D01*
X019762Y008588D01*
X019762Y008686D02*
X020020Y008686D01*
X019762Y008491D02*
X019762Y008391D01*
X019762Y008491D02*
X020020Y008491D01*
X020020Y008391D01*
X019762Y008391D01*
X019762Y008489D02*
X020020Y008489D01*
X019762Y008295D02*
X019762Y008195D01*
X019762Y008295D02*
X020020Y008295D01*
X020020Y008195D01*
X019762Y008195D01*
X019762Y008293D02*
X020020Y008293D01*
X019762Y008098D02*
X019762Y007998D01*
X019762Y008098D02*
X020020Y008098D01*
X020020Y007998D01*
X019762Y007998D01*
X019762Y008096D02*
X020020Y008096D01*
X019762Y007901D02*
X019762Y007801D01*
X019762Y007901D02*
X020020Y007901D01*
X020020Y007801D01*
X019762Y007801D01*
X019762Y007899D02*
X020020Y007899D01*
X019762Y007704D02*
X019762Y007604D01*
X019762Y007704D02*
X020020Y007704D01*
X020020Y007604D01*
X019762Y007604D01*
X019762Y007702D02*
X020020Y007702D01*
X019762Y007507D02*
X019762Y007407D01*
X019762Y007507D02*
X020020Y007507D01*
X020020Y007407D01*
X019762Y007407D01*
X019762Y007505D02*
X020020Y007505D01*
X019762Y007310D02*
X019762Y007210D01*
X019762Y007310D02*
X020020Y007310D01*
X020020Y007210D01*
X019762Y007210D01*
X019762Y007308D02*
X020020Y007308D01*
X020078Y007153D02*
X020078Y006895D01*
X020078Y007153D02*
X020178Y007153D01*
X020178Y006895D01*
X020078Y006895D01*
X020078Y006993D02*
X020178Y006993D01*
X020178Y007091D02*
X020078Y007091D01*
X020274Y007153D02*
X020274Y006895D01*
X020274Y007153D02*
X020374Y007153D01*
X020374Y006895D01*
X020274Y006895D01*
X020274Y006993D02*
X020374Y006993D01*
X020374Y007091D02*
X020274Y007091D01*
X020471Y007153D02*
X020471Y006895D01*
X020471Y007153D02*
X020571Y007153D01*
X020571Y006895D01*
X020471Y006895D01*
X020471Y006993D02*
X020571Y006993D01*
X020571Y007091D02*
X020471Y007091D01*
X020668Y007153D02*
X020668Y006895D01*
X020668Y007153D02*
X020768Y007153D01*
X020768Y006895D01*
X020668Y006895D01*
X020668Y006993D02*
X020768Y006993D01*
X020768Y007091D02*
X020668Y007091D01*
X020865Y007153D02*
X020865Y006895D01*
X020865Y007153D02*
X020965Y007153D01*
X020965Y006895D01*
X020865Y006895D01*
X020865Y006993D02*
X020965Y006993D01*
X020965Y007091D02*
X020865Y007091D01*
X021062Y007153D02*
X021062Y006895D01*
X021062Y007153D02*
X021162Y007153D01*
X021162Y006895D01*
X021062Y006895D01*
X021062Y006993D02*
X021162Y006993D01*
X021162Y007091D02*
X021062Y007091D01*
X021259Y007153D02*
X021259Y006895D01*
X021259Y007153D02*
X021359Y007153D01*
X021359Y006895D01*
X021259Y006895D01*
X021259Y006993D02*
X021359Y006993D01*
X021359Y007091D02*
X021259Y007091D01*
X021455Y007153D02*
X021455Y006895D01*
X021455Y007153D02*
X021555Y007153D01*
X021555Y006895D01*
X021455Y006895D01*
X021455Y006993D02*
X021555Y006993D01*
X021555Y007091D02*
X021455Y007091D01*
X021613Y007210D02*
X021613Y007310D01*
X021871Y007310D01*
X021871Y007210D01*
X021613Y007210D01*
X021613Y007308D02*
X021871Y007308D01*
X021613Y007407D02*
X021613Y007507D01*
X021871Y007507D01*
X021871Y007407D01*
X021613Y007407D01*
X021613Y007505D02*
X021871Y007505D01*
X021613Y007604D02*
X021613Y007704D01*
X021871Y007704D01*
X021871Y007604D01*
X021613Y007604D01*
X021613Y007702D02*
X021871Y007702D01*
X021613Y007801D02*
X021613Y007901D01*
X021871Y007901D01*
X021871Y007801D01*
X021613Y007801D01*
X021613Y007899D02*
X021871Y007899D01*
X021613Y007998D02*
X021613Y008098D01*
X021871Y008098D01*
X021871Y007998D01*
X021613Y007998D01*
X021613Y008096D02*
X021871Y008096D01*
X021613Y008195D02*
X021613Y008295D01*
X021871Y008295D01*
X021871Y008195D01*
X021613Y008195D01*
X021613Y008293D02*
X021871Y008293D01*
X021613Y008391D02*
X021613Y008491D01*
X021871Y008491D01*
X021871Y008391D01*
X021613Y008391D01*
X021613Y008489D02*
X021871Y008489D01*
X021613Y008588D02*
X021613Y008688D01*
X021871Y008688D01*
X021871Y008588D01*
X021613Y008588D01*
X021613Y008686D02*
X021871Y008686D01*
X021455Y008746D02*
X021455Y009004D01*
X021555Y009004D01*
X021555Y008746D01*
X021455Y008746D01*
X021455Y008844D02*
X021555Y008844D01*
X021555Y008942D02*
X021455Y008942D01*
X021259Y009004D02*
X021259Y008746D01*
X021259Y009004D02*
X021359Y009004D01*
X021359Y008746D01*
X021259Y008746D01*
X021259Y008844D02*
X021359Y008844D01*
X021359Y008942D02*
X021259Y008942D01*
X021062Y009004D02*
X021062Y008746D01*
X021062Y009004D02*
X021162Y009004D01*
X021162Y008746D01*
X021062Y008746D01*
X021062Y008844D02*
X021162Y008844D01*
X021162Y008942D02*
X021062Y008942D01*
D21*
X020777Y006001D03*
X020226Y006001D03*
X019635Y006001D03*
X019635Y005331D03*
X020226Y005331D03*
X020777Y005331D03*
D22*
X019045Y005331D03*
X019045Y006001D03*
D23*
X018496Y007253D03*
X017996Y007253D03*
X017496Y007253D03*
X016996Y007253D03*
X016996Y009834D03*
X017496Y009834D03*
X017996Y009834D03*
X018496Y009834D03*
D24*
X023828Y005193D03*
X024340Y005193D03*
D25*
X024084Y016434D03*
X024084Y018127D03*
D26*
X025029Y021690D03*
X026919Y021690D03*
D27*
X026850Y014721D03*
X024862Y014721D03*
D28*
X023897Y019445D03*
X026397Y019445D03*
D29*
X023533Y023186D02*
X023535Y023223D01*
X023541Y023260D01*
X023550Y023295D01*
X023564Y023330D01*
X023580Y023363D01*
X023601Y023394D01*
X023624Y023423D01*
X023650Y023449D01*
X023679Y023472D01*
X023710Y023493D01*
X023743Y023509D01*
X023778Y023523D01*
X023813Y023532D01*
X023850Y023538D01*
X023887Y023540D01*
X023924Y023538D01*
X023961Y023532D01*
X023996Y023523D01*
X024031Y023509D01*
X024064Y023493D01*
X024095Y023472D01*
X024124Y023449D01*
X024150Y023423D01*
X024173Y023394D01*
X024194Y023363D01*
X024210Y023330D01*
X024224Y023295D01*
X024233Y023260D01*
X024239Y023223D01*
X024241Y023186D01*
X024239Y023149D01*
X024233Y023112D01*
X024224Y023077D01*
X024210Y023042D01*
X024194Y023009D01*
X024173Y022978D01*
X024150Y022949D01*
X024124Y022923D01*
X024095Y022900D01*
X024064Y022879D01*
X024031Y022863D01*
X023996Y022849D01*
X023961Y022840D01*
X023924Y022834D01*
X023887Y022832D01*
X023850Y022834D01*
X023813Y022840D01*
X023778Y022849D01*
X023743Y022863D01*
X023710Y022879D01*
X023679Y022900D01*
X023650Y022923D01*
X023624Y022949D01*
X023601Y022978D01*
X023580Y023009D01*
X023564Y023042D01*
X023550Y023077D01*
X023541Y023112D01*
X023535Y023149D01*
X023533Y023186D01*
X016840Y005666D02*
X016842Y005703D01*
X016848Y005740D01*
X016857Y005775D01*
X016871Y005810D01*
X016887Y005843D01*
X016908Y005874D01*
X016931Y005903D01*
X016957Y005929D01*
X016986Y005952D01*
X017017Y005973D01*
X017050Y005989D01*
X017085Y006003D01*
X017120Y006012D01*
X017157Y006018D01*
X017194Y006020D01*
X017231Y006018D01*
X017268Y006012D01*
X017303Y006003D01*
X017338Y005989D01*
X017371Y005973D01*
X017402Y005952D01*
X017431Y005929D01*
X017457Y005903D01*
X017480Y005874D01*
X017501Y005843D01*
X017517Y005810D01*
X017531Y005775D01*
X017540Y005740D01*
X017546Y005703D01*
X017548Y005666D01*
X017546Y005629D01*
X017540Y005592D01*
X017531Y005557D01*
X017517Y005522D01*
X017501Y005489D01*
X017480Y005458D01*
X017457Y005429D01*
X017431Y005403D01*
X017402Y005380D01*
X017371Y005359D01*
X017338Y005343D01*
X017303Y005329D01*
X017268Y005320D01*
X017231Y005314D01*
X017194Y005312D01*
X017157Y005314D01*
X017120Y005320D01*
X017085Y005329D01*
X017050Y005343D01*
X017017Y005359D01*
X016986Y005380D01*
X016957Y005403D01*
X016931Y005429D01*
X016908Y005458D01*
X016887Y005489D01*
X016871Y005522D01*
X016857Y005557D01*
X016848Y005592D01*
X016842Y005629D01*
X016840Y005666D01*
D30*
X017194Y005666D03*
X023887Y023186D03*
D31*
X023651Y022477D03*
X023651Y021690D03*
X023651Y020902D03*
X024320Y020902D03*
X024163Y019682D03*
X023690Y019682D03*
X023690Y019209D03*
X024163Y019209D03*
X023100Y018697D03*
X023257Y018186D03*
X023257Y017477D03*
X024084Y017201D03*
X024753Y017241D03*
X025383Y017241D03*
X024439Y015705D03*
X023887Y015705D03*
X024596Y014957D03*
X024596Y014485D03*
X024675Y013816D03*
X025502Y013816D03*
X025895Y014288D03*
X024714Y012989D03*
X024714Y012241D03*
X025502Y012241D03*
X024714Y011453D03*
X023454Y011650D03*
X022824Y011217D03*
X022155Y011571D03*
X021683Y011650D03*
X022706Y010312D03*
X023218Y010312D03*
X024163Y009918D03*
X023021Y009367D03*
X024753Y008776D03*
X025187Y008776D03*
X025187Y008264D03*
X024753Y008264D03*
X024753Y007792D03*
X025187Y007792D03*
X024950Y007280D03*
X024517Y007280D03*
X024045Y007280D03*
X023572Y007280D03*
X022352Y007319D03*
X022352Y006808D03*
X022352Y006256D03*
X021446Y006020D03*
X021446Y006493D03*
X020305Y006532D03*
X019793Y006414D03*
X019439Y006729D03*
X019124Y007083D03*
X018415Y006217D03*
X018336Y005115D03*
X020226Y005469D03*
X020974Y005430D03*
X023887Y005705D03*
X024360Y005705D03*
X026053Y006847D03*
X026053Y007280D03*
X026053Y008343D03*
X027076Y008422D03*
X025344Y009327D03*
X018966Y013028D03*
X019202Y013461D03*
X019005Y013894D03*
X019793Y014367D03*
X021013Y015272D03*
X019872Y016650D03*
X019517Y017004D03*
X018376Y018186D03*
X018021Y018501D03*
X018376Y018816D03*
X017628Y018816D03*
X016840Y018816D03*
X016840Y018186D03*
X020187Y018540D03*
X021604Y018186D03*
X021879Y017831D03*
X022116Y018186D03*
X022116Y017477D03*
X021604Y017477D03*
X020187Y020115D03*
X020187Y020902D03*
X020187Y021690D03*
X020187Y022477D03*
X020187Y023264D03*
X016761Y023264D03*
X016761Y022477D03*
X016761Y021690D03*
X016761Y020902D03*
X016761Y020115D03*
X026643Y019721D03*
X026643Y019209D03*
X017588Y008894D03*
X017391Y008461D03*
X017509Y008028D03*
D32*
X020265Y008264D03*
X020344Y007910D03*
X020620Y008343D03*
X020895Y008579D03*
X021171Y008186D03*
X021407Y008461D03*
X021053Y007831D03*
X020305Y007477D03*
X020856Y009288D03*
X021840Y009249D03*
X021565Y010312D03*
X021565Y010627D03*
X020797Y011532D03*
X019084Y011532D03*
X018809Y011847D03*
X018690Y009918D03*
M02*
