%
M48
M72
T01C0.0118
T02C0.0197
%
T01
X18809Y11847
X19084Y11532
X20797Y11532
X21565Y10627
X21565Y10312
X21840Y9249
X20856Y9288
X20895Y8579
X20620Y8343
X20265Y8264
X20344Y7910
X21053Y7831
X20305Y7477
X21171Y8186
X21407Y8461
X18690Y9918
T02
X16761Y23264
X18336Y5115
X18415Y6217
X19124Y7083
X19439Y6729
X19793Y6414
X20305Y6532
X21446Y6493
X21446Y6020
X20974Y5430
X20226Y5469
X22352Y6256
X22352Y6808
X22352Y7319
X23572Y7280
X24045Y7280
X24517Y7280
X24950Y7280
X24753Y7792
X25187Y7792
X25187Y8264
X24753Y8264
X24753Y8776
X25187Y8776
X25344Y9327
X24163Y9918
X23218Y10312
X22706Y10312
X22824Y11217
X22155Y11571
X21683Y11650
X23454Y11650
X24714Y11453
X24714Y12241
X25502Y12241
X24714Y12989
X24675Y13816
X24596Y14485
X24596Y14957
X24439Y15705
X23887Y15705
X24084Y17201
X24753Y17241
X25383Y17241
X23257Y17477
X23257Y18186
X23100Y18697
X23690Y19209
X24163Y19209
X24163Y19682
X23690Y19682
X23651Y20902
X24320Y20902
X23651Y21690
X23651Y22477
X20187Y22477
X20187Y23264
X20187Y21690
X20187Y20902
X20187Y20115
X18376Y18816
X18021Y18501
X17628Y18816
X16840Y18816
X16840Y18186
X18376Y18186
X20187Y18540
X21604Y18186
X21879Y17831
X22116Y18186
X22116Y17477
X21604Y17477
X19872Y16650
X19517Y17004
X21013Y15272
X19793Y14367
X19005Y13894
X19202Y13461
X18966Y13028
X23021Y9367
X26053Y8343
X27076Y8422
X26053Y7280
X26053Y6847
X24360Y5705
X23887Y5705
X17509Y8028
X17391Y8461
X17588Y8894
X25502Y13816
X25895Y14288
X26643Y19209
X26643Y19721
X16761Y20115
X16761Y20902
X16761Y21690
X16761Y22477
M30
