G75*
G70*
%OFA0B0*%
%FSLAX24Y24*%
%IPPOS*%
%LPD*%
%AMOC8*
5,1,8,0,0,1.08239X$1,22.5*
%
%ADD10R,0.0720X0.0018*%
%ADD11R,0.0252X0.0018*%
%ADD12R,0.0270X0.0018*%
%ADD13R,0.0342X0.0018*%
%ADD14R,0.0378X0.0018*%
%ADD15R,0.0198X0.0018*%
%ADD16R,0.0414X0.0018*%
%ADD17R,0.0630X0.0018*%
%ADD18R,0.1980X0.0018*%
%ADD19R,0.1998X0.0018*%
%ADD20R,0.0558X0.0018*%
%ADD21R,0.0684X0.0018*%
%ADD22R,0.2016X0.0018*%
%ADD23R,0.2034X0.0018*%
%ADD24R,0.2034X0.0018*%
%ADD25R,0.0450X0.0018*%
%ADD26R,0.0594X0.0018*%
%ADD27R,0.0936X0.0018*%
%ADD28R,0.2124X0.0018*%
%ADD29R,0.2142X0.0018*%
%ADD30R,0.0486X0.0018*%
%ADD31R,0.0666X0.0018*%
%ADD32R,0.0972X0.0018*%
%ADD33R,0.2160X0.0018*%
%ADD34R,0.2178X0.0018*%
%ADD35R,0.0234X0.0018*%
%ADD36R,0.0702X0.0018*%
%ADD37R,0.1170X0.0018*%
%ADD38R,0.2250X0.0018*%
%ADD39R,0.0180X0.0018*%
%ADD40R,0.0162X0.0018*%
%ADD41R,0.0774X0.0018*%
%ADD42R,0.1188X0.0018*%
%ADD43R,0.2286X0.0018*%
%ADD44R,0.2268X0.0018*%
%ADD45R,0.0810X0.0018*%
%ADD46R,0.1332X0.0018*%
%ADD47R,0.2340X0.0018*%
%ADD48R,0.2358X0.0018*%
%ADD49R,0.0846X0.0018*%
%ADD50R,0.1368X0.0018*%
%ADD51R,0.0900X0.0018*%
%ADD52R,0.1476X0.0018*%
%ADD53R,0.2412X0.0018*%
%ADD54R,0.2430X0.0018*%
%ADD55R,0.0144X0.0018*%
%ADD56R,0.0918X0.0018*%
%ADD57R,0.1530X0.0018*%
%ADD58R,0.0144X0.0018*%
%ADD59R,0.1602X0.0018*%
%ADD60R,0.2466X0.0018*%
%ADD61R,0.2502X0.0018*%
%ADD62R,0.2484X0.0018*%
%ADD63R,0.0990X0.0018*%
%ADD64R,0.1656X0.0018*%
%ADD65R,0.1044X0.0018*%
%ADD66R,0.1728X0.0018*%
%ADD67R,0.2520X0.0018*%
%ADD68R,0.2556X0.0018*%
%ADD69R,0.2538X0.0018*%
%ADD70R,0.1062X0.0018*%
%ADD71R,0.1764X0.0018*%
%ADD72R,0.2574X0.0018*%
%ADD73R,0.1080X0.0018*%
%ADD74R,0.1854X0.0018*%
%ADD75R,0.2592X0.0018*%
%ADD76R,0.2592X0.0018*%
%ADD77R,0.0504X0.0018*%
%ADD78R,0.1890X0.0018*%
%ADD79R,0.2610X0.0018*%
%ADD80R,0.1944X0.0018*%
%ADD81R,0.2628X0.0018*%
%ADD82R,0.2646X0.0018*%
%ADD83R,0.2682X0.0018*%
%ADD84R,0.2664X0.0018*%
%ADD85R,0.0396X0.0018*%
%ADD86R,0.0342X0.0018*%
%ADD87R,0.2682X0.0018*%
%ADD88R,0.2700X0.0018*%
%ADD89R,0.0216X0.0018*%
%ADD90R,0.0288X0.0018*%
%ADD91R,0.2088X0.0018*%
%ADD92R,0.2718X0.0018*%
%ADD93R,0.0252X0.0018*%
%ADD94R,0.2736X0.0018*%
%ADD95R,0.0468X0.0018*%
%ADD96R,0.0360X0.0018*%
%ADD97R,0.2754X0.0018*%
%ADD98R,0.2754X0.0018*%
%ADD99R,0.0432X0.0018*%
%ADD100R,0.2196X0.0018*%
%ADD101R,0.2772X0.0018*%
%ADD102R,0.0126X0.0018*%
%ADD103R,0.2790X0.0018*%
%ADD104R,0.2808X0.0018*%
%ADD105R,0.2826X0.0018*%
%ADD106R,0.0306X0.0018*%
%ADD107R,0.0090X0.0018*%
%ADD108R,0.2322X0.0018*%
%ADD109R,0.2844X0.0018*%
%ADD110R,0.2844X0.0018*%
%ADD111R,0.2862X0.0018*%
%ADD112R,0.2394X0.0018*%
%ADD113R,0.2862X0.0018*%
%ADD114R,0.2880X0.0018*%
%ADD115R,0.0324X0.0018*%
%ADD116R,0.2898X0.0018*%
%ADD117R,0.2916X0.0018*%
%ADD118R,0.2934X0.0018*%
%ADD119R,0.2934X0.0018*%
%ADD120R,0.2952X0.0018*%
%ADD121R,0.2952X0.0018*%
%ADD122R,0.2970X0.0018*%
%ADD123R,0.2988X0.0018*%
%ADD124R,0.3006X0.0018*%
%ADD125R,0.3024X0.0018*%
%ADD126R,0.3024X0.0018*%
%ADD127R,0.0738X0.0018*%
%ADD128R,0.1278X0.0018*%
%ADD129R,0.1296X0.0018*%
%ADD130R,0.1206X0.0018*%
%ADD131R,0.1224X0.0018*%
%ADD132R,0.1134X0.0018*%
%ADD133R,0.1134X0.0018*%
%ADD134R,0.1116X0.0018*%
%ADD135R,0.1098X0.0018*%
%ADD136R,0.0018X0.0018*%
%ADD137R,0.0108X0.0018*%
%ADD138R,0.1026X0.0018*%
%ADD139R,0.0324X0.0018*%
%ADD140R,0.1008X0.0018*%
%ADD141R,0.0972X0.0018*%
%ADD142R,0.0954X0.0018*%
%ADD143R,0.0954X0.0018*%
%ADD144R,0.0882X0.0018*%
%ADD145R,0.0882X0.0018*%
%ADD146R,0.0864X0.0018*%
%ADD147R,0.0864X0.0018*%
%ADD148R,0.0072X0.0018*%
%ADD149R,0.0828X0.0018*%
%ADD150R,0.0432X0.0018*%
%ADD151R,0.0792X0.0018*%
%ADD152R,0.0792X0.0018*%
%ADD153R,0.0414X0.0018*%
%ADD154R,0.0756X0.0018*%
%ADD155R,0.0774X0.0018*%
%ADD156R,0.0576X0.0018*%
%ADD157R,0.1062X0.0018*%
%ADD158R,0.1152X0.0018*%
%ADD159R,0.1152X0.0018*%
%ADD160R,0.2574X0.0018*%
%ADD161R,0.2502X0.0018*%
%ADD162R,0.2448X0.0018*%
%ADD163R,0.2376X0.0018*%
%ADD164R,0.2322X0.0018*%
%ADD165R,0.2304X0.0018*%
%ADD166R,0.2214X0.0018*%
%ADD167R,0.2142X0.0018*%
%ADD168R,0.2070X0.0018*%
%ADD169R,0.2052X0.0018*%
%ADD170R,0.1962X0.0018*%
%ADD171R,0.1872X0.0018*%
%ADD172R,0.1764X0.0018*%
%ADD173R,0.1746X0.0018*%
%ADD174R,0.1620X0.0018*%
%ADD175R,0.1512X0.0018*%
%ADD176R,0.1494X0.0018*%
%ADD177R,0.1386X0.0018*%
%ADD178R,0.1350X0.0018*%
%ADD179R,0.1332X0.0018*%
%ADD180C,0.0070*%
%ADD181C,0.0060*%
%ADD182R,0.1360X0.0010*%
%ADD183R,0.1370X0.0010*%
%ADD184R,0.0020X0.0010*%
%ADD185R,0.0030X0.0010*%
%ADD186R,0.0910X0.0010*%
%ADD187R,0.0010X0.0010*%
%ADD188R,0.0110X0.0010*%
%ADD189R,0.0050X0.0010*%
%ADD190R,0.0100X0.0010*%
%ADD191R,0.0060X0.0010*%
%ADD192R,0.0070X0.0010*%
%ADD193R,0.0040X0.0010*%
%ADD194R,0.0080X0.0010*%
%ADD195R,0.0090X0.0010*%
%ADD196R,0.0160X0.0010*%
%ADD197R,0.0210X0.0010*%
%ADD198R,0.0250X0.0010*%
%ADD199R,0.0280X0.0010*%
%ADD200R,0.0300X0.0010*%
%ADD201R,0.0900X0.0010*%
%ADD202R,0.0320X0.0010*%
%ADD203R,0.0330X0.0010*%
%ADD204R,0.0340X0.0010*%
%ADD205R,0.0350X0.0010*%
%ADD206R,0.0360X0.0010*%
%ADD207R,0.0370X0.0010*%
%ADD208R,0.0380X0.0010*%
%ADD209R,0.0400X0.0010*%
%ADD210R,0.0410X0.0010*%
%ADD211R,0.0420X0.0010*%
%ADD212R,0.0430X0.0010*%
%ADD213R,0.0440X0.0010*%
%ADD214R,0.0140X0.0010*%
%ADD215R,0.0450X0.0010*%
%ADD216R,0.0460X0.0010*%
%ADD217R,0.0170X0.0010*%
%ADD218R,0.0200X0.0010*%
%ADD219R,0.0470X0.0010*%
%ADD220R,0.0190X0.0010*%
%ADD221R,0.0220X0.0010*%
%ADD222R,0.0480X0.0010*%
%ADD223R,0.0240X0.0010*%
%ADD224R,0.0490X0.0010*%
%ADD225R,0.0120X0.0010*%
%ADD226R,0.0310X0.0010*%
%ADD227R,0.0290X0.0010*%
%ADD228R,0.0270X0.0010*%
%ADD229R,0.0260X0.0010*%
%ADD230R,0.0180X0.0010*%
%ADD231R,0.0150X0.0010*%
%ADD232R,0.0230X0.0010*%
%ADD233R,0.0130X0.0010*%
%ADD234R,0.0550X0.0010*%
%ADD235R,0.0560X0.0010*%
%ADD236R,0.0510X0.0010*%
%ADD237R,0.0540X0.0010*%
%ADD238R,0.0500X0.0010*%
%ADD239R,0.0640X0.0010*%
%ADD240R,0.0390X0.0010*%
%ADD241R,0.0680X0.0010*%
%ADD242R,0.0690X0.0010*%
%ADD243R,0.0650X0.0010*%
%ADD244R,0.0660X0.0010*%
%ADD245C,0.0080*%
%ADD246C,0.0020*%
%ADD247C,0.0040*%
%ADD248C,0.0050*%
D10*
X017176Y036661D03*
X017176Y036679D03*
X017176Y036697D03*
X017176Y036715D03*
X017176Y036733D03*
X017176Y036751D03*
X017176Y036769D03*
X017176Y036787D03*
X017176Y036805D03*
X017176Y036823D03*
X017176Y036841D03*
X017176Y036859D03*
X017176Y036877D03*
X017176Y036895D03*
X017176Y036913D03*
X017176Y036931D03*
X017176Y036949D03*
X017176Y036967D03*
X017176Y036985D03*
X017176Y037003D03*
X017176Y037021D03*
X017176Y037039D03*
X017176Y037057D03*
X017176Y037075D03*
X017176Y037093D03*
X017176Y037111D03*
X017176Y037129D03*
X017176Y037147D03*
X017176Y037165D03*
X017176Y037183D03*
X017176Y037201D03*
X017176Y037219D03*
X017176Y037237D03*
X017176Y037255D03*
X017176Y037273D03*
X017176Y037291D03*
X017176Y037309D03*
X017176Y037327D03*
X017176Y037345D03*
X017176Y037363D03*
X017176Y037381D03*
X017176Y037399D03*
X017176Y037417D03*
X017176Y037435D03*
X017176Y037453D03*
X017176Y037471D03*
X017176Y037489D03*
X017176Y037507D03*
X017176Y037525D03*
X017176Y037543D03*
X017176Y037561D03*
X017176Y037579D03*
X017176Y037597D03*
X017176Y037615D03*
X017176Y037633D03*
X017176Y037651D03*
X017176Y037669D03*
X017176Y037687D03*
X017176Y037705D03*
X017176Y037723D03*
X017176Y037741D03*
X017176Y037759D03*
X017176Y037777D03*
X017176Y037795D03*
X017176Y037813D03*
X017176Y037831D03*
X017176Y037849D03*
X017176Y037867D03*
X017176Y037885D03*
X017176Y037903D03*
X017176Y037921D03*
X017176Y037939D03*
X017176Y037957D03*
X017176Y038695D03*
X017176Y038713D03*
X017176Y038731D03*
X017176Y038749D03*
X017176Y038767D03*
X017176Y038785D03*
X017176Y038803D03*
X017176Y038821D03*
X017176Y038839D03*
X017176Y038857D03*
X017176Y038875D03*
X017176Y038893D03*
X017176Y038911D03*
X017176Y038929D03*
X017176Y038947D03*
X017176Y038965D03*
X017176Y038983D03*
X017176Y039001D03*
X017176Y039019D03*
X017176Y039037D03*
X017176Y039055D03*
X017176Y039073D03*
X017176Y039091D03*
X017176Y039109D03*
X017176Y039127D03*
X017176Y039145D03*
X017176Y039163D03*
X017176Y039181D03*
X017176Y039199D03*
X017176Y039217D03*
X017176Y039235D03*
X017176Y039253D03*
X017176Y039271D03*
X017176Y039289D03*
X017176Y039307D03*
X017176Y039325D03*
X017176Y039343D03*
X017176Y039361D03*
X017176Y039379D03*
X017176Y039397D03*
X017176Y039415D03*
X017176Y039433D03*
X017176Y039451D03*
X017176Y039469D03*
X017176Y039487D03*
X017176Y039505D03*
X017176Y039523D03*
X017176Y039541D03*
X017176Y039559D03*
X017176Y039577D03*
X017176Y039595D03*
X017176Y039613D03*
X017176Y039631D03*
X017176Y039649D03*
X017176Y039667D03*
X017176Y039685D03*
X017176Y039703D03*
X017194Y039775D03*
X017194Y039793D03*
X017194Y039811D03*
X017194Y039829D03*
X017194Y039847D03*
X017194Y039865D03*
X017194Y039883D03*
X015394Y039109D03*
X019804Y039631D03*
X019804Y039649D03*
X020668Y039811D03*
X020668Y039829D03*
X023260Y039829D03*
X023260Y039847D03*
X023260Y039865D03*
X023260Y039883D03*
X023260Y039901D03*
X023260Y039919D03*
X023278Y039793D03*
X023278Y039775D03*
X023296Y039703D03*
X023296Y039685D03*
X023296Y039667D03*
X023296Y039649D03*
X023296Y039631D03*
X023296Y039613D03*
X023296Y039595D03*
X023296Y039577D03*
X023296Y039559D03*
X023278Y039505D03*
X023278Y039487D03*
X023278Y039469D03*
X023260Y039451D03*
X023260Y039433D03*
X023260Y039415D03*
X023260Y039397D03*
X023260Y039379D03*
X023260Y039361D03*
X023260Y039343D03*
X024160Y039523D03*
X024160Y039541D03*
X024160Y039559D03*
X024160Y039577D03*
X024160Y039595D03*
X024160Y039613D03*
X024160Y039649D03*
X024160Y039667D03*
X024160Y039685D03*
X024160Y039703D03*
X024160Y039721D03*
X024160Y039739D03*
X024160Y039757D03*
X026734Y039955D03*
X026734Y039973D03*
X026770Y039847D03*
X026770Y039829D03*
X026770Y039811D03*
X026770Y039793D03*
X026770Y039775D03*
X026770Y039757D03*
X026770Y039739D03*
X026770Y039721D03*
X026770Y039703D03*
X026770Y039685D03*
X026770Y039667D03*
X026770Y039649D03*
X026770Y039631D03*
X026770Y039613D03*
X026770Y039595D03*
X026770Y039577D03*
X026770Y039559D03*
X026770Y039541D03*
X026770Y039523D03*
X026770Y039505D03*
X026770Y039487D03*
X026770Y039469D03*
X026770Y039451D03*
X026770Y039433D03*
X026770Y039415D03*
X026770Y039397D03*
X026770Y039379D03*
X026770Y039361D03*
X026770Y039343D03*
X026770Y039325D03*
X026770Y039307D03*
X026770Y039289D03*
X026770Y039271D03*
X026770Y039253D03*
X026770Y039235D03*
X026770Y039217D03*
X026770Y039199D03*
X026770Y039181D03*
X026770Y039163D03*
X026770Y039145D03*
X026770Y039127D03*
X026770Y039109D03*
X026770Y039091D03*
X026770Y039073D03*
X026770Y039055D03*
X026770Y039037D03*
X026770Y039019D03*
X026770Y039001D03*
X026770Y038983D03*
X026770Y038965D03*
X026770Y038947D03*
X026770Y038929D03*
X026770Y038911D03*
X026770Y038893D03*
X026770Y038875D03*
X026770Y038857D03*
X026770Y038839D03*
X026770Y038821D03*
X026770Y038803D03*
X026770Y038785D03*
X026770Y038767D03*
X026770Y038749D03*
X026770Y038731D03*
X026770Y038713D03*
X026770Y038695D03*
X026770Y038677D03*
X026770Y037957D03*
X026770Y037939D03*
X026770Y037921D03*
X026770Y037903D03*
X026770Y037885D03*
X026770Y037867D03*
X026770Y037849D03*
X026770Y037831D03*
X026770Y037813D03*
X026770Y037795D03*
X026770Y037777D03*
X026770Y037759D03*
X026770Y037741D03*
X026770Y037723D03*
X026770Y037705D03*
X026770Y037687D03*
X026770Y037669D03*
X026770Y037651D03*
X026770Y037633D03*
X026770Y037615D03*
X026770Y037597D03*
X026770Y037579D03*
X026770Y037561D03*
X026770Y037543D03*
X026770Y037525D03*
X026770Y037507D03*
X026770Y037489D03*
X026770Y037471D03*
X026770Y037453D03*
X026770Y037435D03*
X026770Y037417D03*
X026770Y037399D03*
X026770Y037381D03*
X026770Y037363D03*
X026770Y037345D03*
X026770Y037327D03*
X026770Y037309D03*
X026770Y037291D03*
X026770Y037273D03*
X026770Y037255D03*
X026770Y037237D03*
X026770Y037219D03*
X026770Y037201D03*
X026770Y037183D03*
X026770Y037165D03*
X026770Y037147D03*
X026770Y037129D03*
X026770Y037111D03*
X026770Y037093D03*
X026770Y037075D03*
X026770Y037057D03*
X026770Y037039D03*
X026770Y037021D03*
X026770Y037003D03*
X026770Y036985D03*
X026770Y036967D03*
X026770Y036949D03*
X026770Y036931D03*
X026770Y036913D03*
X026770Y036895D03*
X026770Y036877D03*
X026770Y036859D03*
X026770Y036841D03*
X026770Y036823D03*
X026770Y036805D03*
X026770Y036787D03*
X026770Y036769D03*
X026770Y036751D03*
X026770Y036733D03*
X026770Y036715D03*
X026770Y036697D03*
X026770Y036679D03*
X026770Y036661D03*
X027706Y039307D03*
X027706Y039325D03*
X027706Y039343D03*
X027670Y039433D03*
X027670Y039451D03*
X027670Y039469D03*
X027670Y039487D03*
X027670Y039505D03*
X027670Y039523D03*
X027670Y039541D03*
X027670Y039559D03*
X027670Y039577D03*
X027670Y039595D03*
X027670Y039613D03*
X027670Y039631D03*
X027670Y039649D03*
X027670Y039667D03*
X027670Y039685D03*
X027670Y039703D03*
X027670Y039721D03*
X027670Y039739D03*
X027670Y039757D03*
X027670Y039775D03*
X027670Y039793D03*
X027670Y039811D03*
X027670Y039829D03*
X027706Y039937D03*
X027706Y039955D03*
X030298Y039775D03*
X030298Y039757D03*
X030298Y039739D03*
X030298Y039721D03*
X030298Y039703D03*
X030298Y039685D03*
X030298Y039667D03*
X030298Y039649D03*
X030298Y039631D03*
X030298Y039613D03*
X030298Y039595D03*
X030298Y039577D03*
X030298Y039559D03*
X030298Y039541D03*
X030298Y039523D03*
X030298Y039505D03*
D11*
X016384Y037903D03*
D12*
X016375Y037921D03*
X016375Y038425D03*
X014485Y039181D03*
D13*
X015835Y038785D03*
X015835Y038767D03*
X015835Y038371D03*
X015835Y038353D03*
X016375Y037939D03*
D14*
X016375Y037957D03*
X016375Y038389D03*
X015817Y038317D03*
X015799Y038299D03*
X015817Y038821D03*
X015799Y038839D03*
X015403Y039199D03*
X015061Y038875D03*
X015061Y038263D03*
X015403Y037939D03*
D15*
X014449Y037939D03*
X014449Y037957D03*
X014449Y037975D03*
X014449Y037993D03*
X014449Y038011D03*
X014449Y038029D03*
X014449Y038047D03*
X014449Y038065D03*
X014449Y038083D03*
X014449Y038101D03*
X014449Y038119D03*
X014449Y038137D03*
X014449Y038155D03*
X014449Y038173D03*
X014449Y038191D03*
X014449Y038209D03*
X014449Y038227D03*
X014449Y038245D03*
X014449Y038263D03*
X014449Y038281D03*
X014449Y038299D03*
X014449Y038317D03*
X014449Y038335D03*
X014449Y038353D03*
X014449Y038371D03*
X014449Y038389D03*
X014449Y038407D03*
X014449Y038425D03*
X014449Y038443D03*
X014449Y038461D03*
X014449Y038479D03*
X014449Y038497D03*
X014449Y038515D03*
X014449Y038533D03*
X014449Y038551D03*
X014449Y038569D03*
X014449Y038587D03*
X014449Y038605D03*
X014449Y038623D03*
X014449Y038641D03*
X014449Y038659D03*
X014449Y038677D03*
X014449Y038695D03*
X014449Y038713D03*
X014449Y038731D03*
X014449Y038749D03*
X014449Y038767D03*
X014449Y038785D03*
X014449Y038803D03*
X014449Y038821D03*
X014449Y038839D03*
X014449Y038857D03*
X014449Y038875D03*
X014449Y038893D03*
X014449Y038911D03*
X014449Y038929D03*
X014449Y038947D03*
X014449Y038965D03*
X014449Y038983D03*
X014449Y039217D03*
X014449Y039235D03*
X016375Y038443D03*
D16*
X016375Y037975D03*
X015763Y038263D03*
X015403Y037957D03*
D17*
X015403Y039127D03*
X015403Y039145D03*
X028975Y037975D03*
D18*
X028984Y038281D03*
X028984Y040981D03*
X026140Y037975D03*
X025474Y040981D03*
X018490Y040981D03*
D19*
X017815Y037975D03*
X021289Y037975D03*
X021973Y040981D03*
D20*
X015655Y038227D03*
X015403Y037975D03*
D21*
X028984Y037993D03*
D22*
X028984Y038299D03*
X026122Y037993D03*
D23*
X021307Y037993D03*
D24*
X021973Y040963D03*
X025465Y040963D03*
X017833Y037993D03*
D25*
X016375Y037993D03*
X015745Y038875D03*
X015079Y038893D03*
X015079Y038245D03*
X014575Y039037D03*
X014575Y039055D03*
X014575Y039073D03*
X014575Y039091D03*
D26*
X015385Y037993D03*
D27*
X017482Y040423D03*
X018490Y041251D03*
X018490Y041269D03*
X019498Y040423D03*
X019516Y040405D03*
X020956Y040405D03*
X021964Y041251D03*
X024448Y040423D03*
X025474Y041251D03*
X026482Y040423D03*
X027958Y040405D03*
X027958Y038857D03*
X027976Y038839D03*
X027994Y038821D03*
X028966Y038011D03*
X029992Y038839D03*
X019516Y038857D03*
X019498Y038839D03*
D28*
X018490Y040927D03*
X026068Y038011D03*
X028984Y038335D03*
X028984Y040927D03*
D29*
X021973Y040927D03*
X021361Y038011D03*
X017887Y038011D03*
D30*
X016375Y038011D03*
X016375Y038317D03*
X015727Y038245D03*
X015727Y038893D03*
D31*
X015403Y038011D03*
D32*
X015394Y038137D03*
X015394Y039001D03*
X022954Y040459D03*
X028984Y041233D03*
X029974Y040441D03*
X028984Y038029D03*
D33*
X028984Y038353D03*
X026050Y038029D03*
X021964Y040909D03*
X018490Y040909D03*
D34*
X017905Y038029D03*
X021379Y038029D03*
X025465Y040909D03*
X028975Y040909D03*
D35*
X016501Y038029D03*
X016249Y038029D03*
X015061Y038821D03*
D36*
X015403Y038029D03*
X017167Y038677D03*
X023287Y039523D03*
X023287Y039541D03*
X023287Y039721D03*
X023287Y039739D03*
X023287Y039757D03*
X024151Y039631D03*
D37*
X025465Y041215D03*
X028183Y040567D03*
X028975Y041215D03*
X028975Y038047D03*
X022783Y040567D03*
D38*
X021973Y040873D03*
X021415Y038047D03*
X018499Y040873D03*
X017941Y038047D03*
X025465Y040873D03*
X026005Y038065D03*
X026005Y038047D03*
X028975Y038389D03*
X028975Y040873D03*
D39*
X016564Y038281D03*
X016564Y038065D03*
X016546Y038047D03*
X016204Y038065D03*
X016204Y038281D03*
X015052Y038353D03*
X014692Y038983D03*
D40*
X014701Y038965D03*
X015061Y038785D03*
X016177Y038263D03*
X016177Y038245D03*
X016177Y038227D03*
X016177Y038209D03*
X016177Y038119D03*
X016177Y038101D03*
X016177Y038083D03*
X016213Y038047D03*
X016573Y038083D03*
X016573Y038101D03*
X016573Y038245D03*
X016573Y038263D03*
D41*
X015403Y038047D03*
X015403Y039091D03*
X017275Y040099D03*
X017275Y040117D03*
X019705Y040117D03*
X019705Y040099D03*
X019723Y040081D03*
X019741Y040063D03*
X019741Y040045D03*
X019741Y040027D03*
X019705Y040135D03*
X019741Y039253D03*
X019741Y039235D03*
X019741Y039217D03*
X019705Y039163D03*
X019705Y039145D03*
X020713Y039991D03*
X020713Y040009D03*
X020749Y040063D03*
X020749Y040081D03*
X020749Y040099D03*
X020785Y040171D03*
X023179Y040153D03*
X023179Y040135D03*
X023179Y039127D03*
X023161Y039109D03*
X024223Y039199D03*
X024223Y039217D03*
X024223Y039235D03*
X024241Y039181D03*
X024259Y039163D03*
X024259Y039145D03*
X024259Y039127D03*
X024223Y040027D03*
X024223Y040045D03*
X024223Y040063D03*
X024223Y040081D03*
X024241Y040099D03*
X024259Y040117D03*
X024259Y040135D03*
X026671Y040135D03*
X027733Y040063D03*
X027751Y040081D03*
X027769Y040117D03*
X027769Y040135D03*
X027733Y039217D03*
X027769Y039145D03*
X030181Y039145D03*
X030181Y039127D03*
X030181Y039109D03*
X030199Y040117D03*
X030181Y040135D03*
X030181Y040153D03*
D42*
X028984Y041197D03*
X028984Y038065D03*
X025474Y041197D03*
X021982Y041197D03*
X021172Y040567D03*
X018490Y041197D03*
D43*
X018499Y040855D03*
X021433Y038065D03*
X022189Y038659D03*
X021973Y040855D03*
X025465Y040855D03*
X028975Y038407D03*
D44*
X017950Y038065D03*
D45*
X019651Y039037D03*
X019651Y039055D03*
X019687Y039109D03*
X019687Y040153D03*
X019687Y040171D03*
X019651Y040207D03*
X019651Y040225D03*
X020767Y040135D03*
X020803Y040189D03*
X020803Y040207D03*
X023125Y040243D03*
X023143Y040207D03*
X024277Y040189D03*
X024277Y040171D03*
X024295Y040207D03*
X024313Y040225D03*
X024313Y040243D03*
X024277Y039091D03*
X024313Y039037D03*
X024313Y039019D03*
X023143Y039055D03*
X023125Y039037D03*
X023125Y039019D03*
X023107Y039001D03*
X026617Y040243D03*
X026635Y040207D03*
X027823Y040225D03*
X027805Y039073D03*
X027823Y039037D03*
X030127Y039019D03*
X030163Y039073D03*
X030163Y040189D03*
X030163Y040207D03*
X030145Y040225D03*
X030127Y040243D03*
X017347Y040243D03*
X017329Y040225D03*
X017329Y040207D03*
X015403Y038065D03*
D46*
X018490Y041179D03*
X028984Y041179D03*
X028984Y038083D03*
D47*
X028984Y038443D03*
X025960Y038083D03*
X017986Y038083D03*
D48*
X017995Y038101D03*
X018499Y040819D03*
X021469Y038101D03*
X021469Y038083D03*
X021973Y040819D03*
X025465Y040819D03*
X025951Y038101D03*
D49*
X024367Y038947D03*
X024367Y038965D03*
X024331Y039001D03*
X023089Y038965D03*
X023071Y038947D03*
X023089Y040297D03*
X024331Y040279D03*
X024331Y040261D03*
X024349Y040297D03*
X024367Y040315D03*
X026563Y040315D03*
X026581Y040297D03*
X026599Y040279D03*
X027877Y040315D03*
X027877Y038947D03*
X030073Y038947D03*
X030091Y038965D03*
X030109Y038983D03*
X030109Y040279D03*
X030073Y040315D03*
X020857Y040297D03*
X020821Y040243D03*
X019633Y040261D03*
X019597Y040297D03*
X019597Y040315D03*
X019597Y038965D03*
X019597Y038947D03*
X017383Y040297D03*
X017383Y040315D03*
X015403Y039055D03*
X015403Y038083D03*
D50*
X018490Y041161D03*
X021964Y041161D03*
X028984Y041161D03*
X028984Y038101D03*
D51*
X027940Y038875D03*
X027940Y040387D03*
X030028Y040387D03*
X030046Y040369D03*
X024412Y040369D03*
X023026Y040369D03*
X023026Y040387D03*
X023026Y038893D03*
X023008Y038875D03*
X024412Y038893D03*
X019534Y038875D03*
X019552Y040369D03*
X019534Y040387D03*
X017446Y040387D03*
X017428Y040369D03*
X015394Y038101D03*
D52*
X028984Y038119D03*
X028984Y041143D03*
D53*
X028984Y038479D03*
X025924Y038119D03*
D54*
X025915Y038137D03*
X025465Y040783D03*
X021973Y040783D03*
X021505Y038137D03*
X021505Y038119D03*
X018499Y040783D03*
X018031Y038137D03*
X018031Y038119D03*
D55*
X016582Y038119D03*
X016582Y038137D03*
X016582Y038155D03*
X016582Y038173D03*
X016582Y038191D03*
X016582Y038209D03*
X016582Y038227D03*
X015052Y038767D03*
D56*
X015403Y039019D03*
X015403Y039037D03*
X015403Y038119D03*
X017473Y040405D03*
X020929Y040387D03*
X020965Y040423D03*
X021973Y041269D03*
X022981Y040423D03*
X022999Y040405D03*
X024439Y040405D03*
X025465Y041269D03*
X026491Y040405D03*
X024439Y038857D03*
X022999Y038857D03*
X022981Y038839D03*
X028975Y041269D03*
X030001Y040423D03*
X030001Y040405D03*
X030001Y038857D03*
D57*
X028975Y038137D03*
X028975Y041125D03*
X025465Y041125D03*
D58*
X016168Y038191D03*
X016168Y038173D03*
X016168Y038155D03*
X016168Y038137D03*
X014710Y038947D03*
D59*
X028993Y038155D03*
D60*
X028975Y038497D03*
X028975Y040765D03*
X025897Y038155D03*
X025465Y040765D03*
X021973Y040765D03*
X018499Y040765D03*
D61*
X018067Y038173D03*
X021541Y038173D03*
X021541Y038155D03*
X021973Y040747D03*
D62*
X018490Y040747D03*
X018058Y038155D03*
X025888Y038173D03*
X028984Y038515D03*
D63*
X028057Y038767D03*
X029929Y038785D03*
X029929Y040477D03*
X025465Y041233D03*
X022927Y040477D03*
X021973Y041233D03*
X021001Y040459D03*
X019435Y038785D03*
X017545Y040477D03*
X018499Y041233D03*
X015403Y038983D03*
X015403Y038155D03*
D64*
X018490Y041089D03*
X021964Y041089D03*
X025474Y041089D03*
X028984Y041089D03*
X028984Y038173D03*
D65*
X028084Y038749D03*
X028084Y040513D03*
X026356Y040513D03*
X024574Y040513D03*
X024574Y038749D03*
X022864Y038749D03*
X029884Y040513D03*
X015394Y038965D03*
X015394Y038173D03*
D66*
X018490Y041071D03*
X025474Y041071D03*
X028984Y038191D03*
D67*
X028984Y038533D03*
X025870Y038191D03*
D68*
X028984Y040711D03*
X021568Y038191D03*
X018490Y040711D03*
X018094Y038209D03*
D69*
X018085Y038191D03*
X018499Y040729D03*
X021973Y040729D03*
X025465Y040729D03*
X025465Y040711D03*
X025861Y038209D03*
X028975Y038551D03*
X028975Y040729D03*
D70*
X028093Y040531D03*
X026347Y040531D03*
X024583Y040531D03*
X022873Y040513D03*
X021091Y040531D03*
X021073Y040513D03*
X019381Y040513D03*
X019381Y038749D03*
X017617Y040531D03*
X015403Y038947D03*
X015403Y038191D03*
X029857Y040531D03*
D71*
X028984Y041053D03*
X028984Y038209D03*
X025474Y041053D03*
X018490Y041053D03*
D72*
X021577Y038209D03*
D73*
X022846Y038731D03*
X022846Y040531D03*
X019372Y040531D03*
X015394Y038929D03*
X015394Y038209D03*
D74*
X018499Y041035D03*
X021973Y041035D03*
X025465Y041035D03*
X028975Y041035D03*
X028975Y038227D03*
D75*
X028984Y038569D03*
X025834Y038227D03*
X018490Y040693D03*
D76*
X018112Y038227D03*
X021586Y038227D03*
D77*
X015106Y038227D03*
D78*
X025465Y041017D03*
X028975Y041017D03*
X028975Y038245D03*
D79*
X028975Y038587D03*
X028975Y040675D03*
X028975Y040693D03*
X025825Y038245D03*
X025465Y040675D03*
X025465Y040693D03*
X021973Y040675D03*
X021595Y038245D03*
X018121Y038245D03*
D80*
X018490Y040999D03*
X025474Y040999D03*
X028984Y040999D03*
X028984Y038263D03*
D81*
X028984Y038605D03*
X025816Y038263D03*
X018490Y040675D03*
D82*
X018139Y038263D03*
X021613Y038263D03*
X021973Y040657D03*
X025465Y040657D03*
X025807Y038281D03*
D83*
X021973Y040639D03*
X021631Y038281D03*
D84*
X018490Y040657D03*
X018148Y038281D03*
X028984Y038623D03*
X028984Y040657D03*
D85*
X016384Y038371D03*
X015772Y038281D03*
X015772Y038857D03*
X014548Y039127D03*
D86*
X014521Y039145D03*
X015061Y038281D03*
X015853Y038389D03*
X015871Y038407D03*
X015871Y038425D03*
X015871Y038443D03*
X015871Y038695D03*
X015871Y038713D03*
X015871Y038731D03*
D87*
X018499Y040639D03*
X025465Y040639D03*
X025465Y040621D03*
X025789Y038299D03*
X028975Y038641D03*
X028975Y040639D03*
D88*
X028984Y040621D03*
X025780Y038317D03*
X021640Y038299D03*
X018490Y040621D03*
X018166Y038299D03*
D89*
X016510Y038299D03*
X016240Y038299D03*
X015052Y038335D03*
X015052Y038803D03*
D90*
X015052Y038839D03*
X015052Y038299D03*
D91*
X018490Y040945D03*
X025474Y040945D03*
X028984Y040945D03*
X028984Y038317D03*
D92*
X025771Y038335D03*
X021973Y040603D03*
X021973Y040621D03*
X021649Y038317D03*
X018175Y038317D03*
D93*
X015052Y038317D03*
X014476Y039199D03*
D94*
X018184Y038335D03*
X018490Y040603D03*
X021658Y038335D03*
X025456Y040603D03*
X028984Y040603D03*
X028984Y038659D03*
D95*
X016384Y038335D03*
D96*
X015826Y038335D03*
X015826Y038803D03*
D97*
X018193Y038353D03*
X025753Y038353D03*
X025753Y038371D03*
D98*
X021667Y038353D03*
D99*
X016384Y038353D03*
X015394Y039181D03*
D100*
X018490Y040891D03*
X028984Y038371D03*
D101*
X021676Y038371D03*
X018202Y038371D03*
D102*
X015043Y038371D03*
X015043Y038389D03*
X015043Y038749D03*
D103*
X018211Y038389D03*
X021685Y038389D03*
X025735Y038389D03*
D104*
X025726Y038407D03*
X018220Y038407D03*
D105*
X021703Y038407D03*
X025717Y038425D03*
D106*
X016375Y038407D03*
X015889Y038479D03*
X015889Y038497D03*
X015889Y038515D03*
X015889Y038533D03*
X015889Y038551D03*
X015889Y038569D03*
X015889Y038587D03*
X015889Y038605D03*
X015889Y038623D03*
X015889Y038641D03*
X015889Y038659D03*
D107*
X015061Y038407D03*
X014737Y038929D03*
D108*
X018499Y040837D03*
X025465Y040837D03*
X028975Y040837D03*
X028975Y038425D03*
D109*
X021712Y038425D03*
D110*
X018238Y038425D03*
X018238Y038443D03*
X025708Y038443D03*
D111*
X021721Y038443D03*
D112*
X021973Y040801D03*
X018499Y040801D03*
X025465Y040801D03*
X028975Y040801D03*
X028975Y038461D03*
D113*
X025699Y038461D03*
X025699Y038479D03*
D114*
X021730Y038461D03*
X018256Y038461D03*
X018256Y038479D03*
D115*
X015880Y038461D03*
X015880Y038677D03*
X015070Y038857D03*
D116*
X018265Y038497D03*
X021739Y038479D03*
X025681Y038497D03*
X025681Y038515D03*
D117*
X021748Y038497D03*
X018274Y038515D03*
D118*
X021757Y038515D03*
X021757Y038533D03*
D119*
X018283Y038533D03*
X025663Y038533D03*
X025663Y038551D03*
D120*
X021766Y038551D03*
X018292Y038551D03*
D121*
X025654Y038569D03*
D122*
X025645Y038587D03*
X021775Y038569D03*
X018301Y038569D03*
D123*
X018310Y038587D03*
X018310Y038605D03*
X021784Y038587D03*
X025636Y038605D03*
D124*
X025627Y038623D03*
X025627Y038641D03*
X021793Y038623D03*
X021793Y038605D03*
X018319Y038623D03*
D125*
X021802Y038641D03*
D126*
X018328Y038641D03*
X018328Y038659D03*
X025618Y038659D03*
D127*
X024205Y039271D03*
X024205Y039289D03*
X024205Y039307D03*
X024187Y039343D03*
X024169Y039379D03*
X024169Y039397D03*
X024169Y039415D03*
X024169Y039433D03*
X024169Y039451D03*
X024169Y039469D03*
X024169Y039487D03*
X024169Y039505D03*
X024169Y039775D03*
X024169Y039793D03*
X024169Y039811D03*
X024169Y039829D03*
X024169Y039847D03*
X024169Y039865D03*
X024169Y039883D03*
X024169Y039901D03*
X024205Y039973D03*
X024205Y039991D03*
X023269Y039811D03*
X023251Y039937D03*
X023233Y040009D03*
X023251Y039325D03*
X023233Y039271D03*
X023233Y039253D03*
X023215Y039235D03*
X020659Y039235D03*
X020659Y039217D03*
X020659Y039199D03*
X020659Y039181D03*
X020659Y039163D03*
X020659Y039145D03*
X020659Y039127D03*
X020659Y039109D03*
X020659Y039091D03*
X020659Y039073D03*
X020659Y039055D03*
X020659Y039037D03*
X020659Y039019D03*
X020659Y039001D03*
X020659Y038983D03*
X020659Y038965D03*
X020659Y038947D03*
X020659Y038929D03*
X020659Y038911D03*
X020659Y038893D03*
X020659Y038875D03*
X020659Y038857D03*
X020659Y038839D03*
X020659Y038821D03*
X020659Y038803D03*
X020659Y038785D03*
X020659Y038767D03*
X020659Y038749D03*
X020659Y038731D03*
X020659Y038713D03*
X020659Y038695D03*
X020659Y038677D03*
X020659Y038659D03*
X020659Y039253D03*
X020659Y039271D03*
X020659Y039289D03*
X020659Y039307D03*
X020659Y039325D03*
X020659Y039343D03*
X020659Y039361D03*
X020659Y039379D03*
X020659Y039397D03*
X020659Y039415D03*
X020659Y039433D03*
X020659Y039451D03*
X020659Y039469D03*
X020659Y039487D03*
X020659Y039505D03*
X020659Y039523D03*
X020659Y039541D03*
X020659Y039559D03*
X020659Y039577D03*
X020659Y039595D03*
X020659Y039613D03*
X020659Y039631D03*
X020659Y039649D03*
X020659Y039667D03*
X020659Y039685D03*
X020659Y039703D03*
X020659Y039721D03*
X020659Y039739D03*
X020659Y039757D03*
X020659Y039775D03*
X020659Y039793D03*
X020677Y039847D03*
X020695Y039865D03*
X020695Y039883D03*
X020695Y039901D03*
X020695Y039919D03*
X020695Y039937D03*
X020695Y039955D03*
X019795Y039883D03*
X019795Y039865D03*
X019795Y039847D03*
X019795Y039829D03*
X019795Y039811D03*
X019795Y039793D03*
X019795Y039775D03*
X019795Y039757D03*
X019795Y039739D03*
X019795Y039721D03*
X019795Y039703D03*
X019795Y039685D03*
X019795Y039667D03*
X019795Y039613D03*
X019795Y039595D03*
X019795Y039577D03*
X019795Y039559D03*
X019795Y039541D03*
X019795Y039523D03*
X019795Y039505D03*
X019795Y039487D03*
X019795Y039469D03*
X019795Y039451D03*
X019795Y039433D03*
X019795Y039415D03*
X019795Y039397D03*
X019777Y039379D03*
X019759Y039343D03*
X019759Y039325D03*
X019759Y039307D03*
X019759Y039289D03*
X019777Y039901D03*
X019759Y039937D03*
X019759Y039955D03*
X019759Y039973D03*
X019759Y039991D03*
X017239Y040009D03*
X017221Y039991D03*
X017221Y039973D03*
X017221Y039955D03*
X017221Y039937D03*
X017203Y039901D03*
X017185Y039757D03*
X017185Y039739D03*
X017185Y039721D03*
X026725Y039991D03*
X026743Y039937D03*
X026743Y039919D03*
X026761Y039883D03*
X026761Y039865D03*
X027679Y039865D03*
X027679Y039847D03*
X027697Y039901D03*
X027697Y039919D03*
X027715Y039973D03*
X027679Y039415D03*
X027679Y039397D03*
X027697Y039379D03*
X027697Y039361D03*
X027715Y039289D03*
X030235Y039289D03*
X030235Y039271D03*
X030235Y039253D03*
X030235Y039235D03*
X030253Y039307D03*
X030289Y039451D03*
X030289Y039469D03*
X030289Y039487D03*
X030289Y039793D03*
X030289Y039811D03*
X030289Y039829D03*
X030253Y039955D03*
X030235Y039991D03*
X030235Y040009D03*
X030235Y040027D03*
D128*
X029713Y040585D03*
X029713Y038677D03*
X026203Y040585D03*
X022711Y040585D03*
D129*
X021244Y040585D03*
X022702Y038677D03*
X024736Y038677D03*
X024736Y040585D03*
X028246Y040585D03*
X028246Y038677D03*
X019228Y038677D03*
X019228Y040585D03*
X017770Y040585D03*
D130*
X029749Y038695D03*
D131*
X028210Y038695D03*
X024700Y038695D03*
X022738Y038695D03*
X019264Y038695D03*
D132*
X017653Y040549D03*
X021145Y040549D03*
X024655Y040567D03*
X026275Y040567D03*
X026311Y040549D03*
X029821Y040549D03*
X029821Y038713D03*
D133*
X028147Y038713D03*
X028147Y040549D03*
X024637Y038713D03*
X019327Y038713D03*
X019327Y040549D03*
D134*
X019354Y038731D03*
X022810Y038713D03*
X024610Y038731D03*
X022810Y040549D03*
X029830Y038731D03*
D135*
X028111Y038731D03*
X015403Y038911D03*
D136*
X015277Y038875D03*
X022279Y038731D03*
X022171Y040567D03*
X028579Y038767D03*
D137*
X015052Y038731D03*
D138*
X022891Y038767D03*
X024529Y040495D03*
X029911Y040495D03*
X029875Y038749D03*
D139*
X015862Y038749D03*
X014512Y039163D03*
D140*
X017554Y040495D03*
X019426Y040495D03*
X019444Y040477D03*
X021028Y040477D03*
X021046Y040495D03*
X019408Y038767D03*
X022900Y040495D03*
X024520Y040477D03*
X024520Y038785D03*
X024538Y038767D03*
X026392Y040495D03*
X026410Y040477D03*
X028030Y040477D03*
X028048Y040495D03*
X028030Y038785D03*
X029902Y038767D03*
D141*
X028012Y038803D03*
X022936Y038803D03*
X022918Y038785D03*
X019462Y038803D03*
X019462Y040459D03*
X017518Y040459D03*
D142*
X024457Y038839D03*
X026437Y040459D03*
X027967Y040423D03*
X029947Y040459D03*
X029947Y038803D03*
D143*
X029965Y038821D03*
X028003Y040459D03*
X027985Y040441D03*
X028975Y041251D03*
X026455Y040441D03*
X024493Y040459D03*
X024475Y040441D03*
X022963Y040441D03*
X022963Y038821D03*
X024493Y038821D03*
X024493Y038803D03*
X020983Y040441D03*
X019471Y040441D03*
X019471Y038821D03*
X017509Y040441D03*
D144*
X017419Y040351D03*
X019579Y040351D03*
X019579Y040333D03*
X019579Y038929D03*
X024385Y038929D03*
X024385Y038911D03*
X024385Y040351D03*
X026509Y040387D03*
X026545Y040351D03*
X027895Y040351D03*
X030055Y040351D03*
X030055Y038911D03*
X030019Y038875D03*
D145*
X030037Y038893D03*
X027913Y040369D03*
X026527Y040369D03*
X024421Y040387D03*
X024421Y038875D03*
X020911Y040369D03*
X019561Y038911D03*
X019543Y038893D03*
D146*
X020902Y040351D03*
X023062Y040333D03*
X023062Y038929D03*
X027922Y038893D03*
D147*
X027904Y038911D03*
X027886Y038929D03*
X027886Y040333D03*
X026554Y040333D03*
X024376Y040333D03*
X023080Y040315D03*
X023044Y040351D03*
X023044Y038911D03*
X020884Y040333D03*
X020866Y040315D03*
X017410Y040333D03*
X030064Y040333D03*
X030100Y040297D03*
X030064Y038929D03*
D148*
X014728Y038911D03*
D149*
X015394Y039073D03*
X017356Y040261D03*
X017356Y040279D03*
X019624Y040279D03*
X019642Y040243D03*
X020812Y040225D03*
X020830Y040261D03*
X020848Y040279D03*
X019642Y039019D03*
X019624Y039001D03*
X019606Y038983D03*
X023098Y038983D03*
X024340Y038983D03*
X023134Y040225D03*
X023116Y040261D03*
X023098Y040279D03*
X026608Y040261D03*
X027832Y040261D03*
X027832Y040243D03*
X027850Y040279D03*
X027868Y040297D03*
X027832Y039019D03*
X027832Y039001D03*
X027850Y038983D03*
X027868Y038965D03*
X030118Y039001D03*
X030118Y040261D03*
D150*
X014566Y039019D03*
X014566Y039001D03*
D151*
X017302Y040153D03*
X017302Y040171D03*
X017302Y040189D03*
X019678Y040189D03*
X019696Y039127D03*
X019678Y039091D03*
X020758Y040117D03*
X020776Y040153D03*
X023152Y040171D03*
X023152Y040189D03*
X023188Y040117D03*
X023188Y039145D03*
X023152Y039091D03*
X023152Y039073D03*
X024268Y039109D03*
X024286Y039073D03*
X024268Y040153D03*
X026626Y040225D03*
X026662Y040171D03*
X026662Y040153D03*
X027778Y040153D03*
X027778Y040171D03*
X027796Y040189D03*
X027778Y039127D03*
X027778Y039109D03*
X027796Y039091D03*
X030136Y039037D03*
X030172Y039091D03*
X030172Y040171D03*
D152*
X030154Y039055D03*
X027814Y039055D03*
X027814Y040207D03*
X026644Y040189D03*
X024304Y039055D03*
X019660Y039073D03*
D153*
X014557Y039109D03*
D154*
X017212Y039919D03*
X017248Y040027D03*
X017248Y040045D03*
X017248Y040063D03*
X017284Y040135D03*
X019750Y040009D03*
X019768Y039919D03*
X019768Y039361D03*
X019750Y039271D03*
X019732Y039199D03*
X019714Y039181D03*
X020704Y039973D03*
X020722Y040027D03*
X020722Y040045D03*
X023206Y040045D03*
X023206Y040063D03*
X023206Y040081D03*
X023224Y040027D03*
X023242Y039991D03*
X023242Y039973D03*
X023242Y039955D03*
X023242Y039307D03*
X023242Y039289D03*
X023206Y039217D03*
X023206Y039199D03*
X023206Y039181D03*
X024178Y039361D03*
X024196Y039325D03*
X024214Y039253D03*
X024178Y039919D03*
X024196Y039937D03*
X024196Y039955D03*
X024214Y040009D03*
X026680Y040099D03*
X026680Y040117D03*
X026698Y040081D03*
X026716Y040045D03*
X026716Y040027D03*
X026716Y040009D03*
X026752Y039901D03*
X027688Y039883D03*
X027724Y039991D03*
X027724Y040009D03*
X027724Y040027D03*
X027724Y040045D03*
X027760Y040099D03*
X027724Y039271D03*
X027724Y039253D03*
X027724Y039235D03*
X027742Y039199D03*
X027760Y039181D03*
X027760Y039163D03*
X030208Y039163D03*
X030226Y039217D03*
X030262Y039325D03*
X030280Y039343D03*
X030280Y039361D03*
X030280Y039379D03*
X030280Y039397D03*
X030280Y039415D03*
X030280Y039433D03*
X030280Y039847D03*
X030280Y039865D03*
X030280Y039883D03*
X030280Y039901D03*
X030280Y039919D03*
X030280Y039937D03*
X030244Y039973D03*
X030226Y040045D03*
D155*
X030217Y040063D03*
X030217Y040081D03*
X030217Y040099D03*
X030217Y039199D03*
X030217Y039181D03*
X026707Y040063D03*
X023197Y040099D03*
X023197Y039163D03*
X017257Y040081D03*
D156*
X015394Y039163D03*
D157*
X017599Y040513D03*
D158*
X024628Y040549D03*
D159*
X021964Y041215D03*
X019300Y040567D03*
X018490Y041215D03*
X017680Y040567D03*
X029794Y040567D03*
D160*
X021973Y040693D03*
X021973Y040711D03*
D161*
X025465Y040747D03*
X028975Y040747D03*
D162*
X028984Y040783D03*
D163*
X028984Y040819D03*
D164*
X021973Y040837D03*
D165*
X028984Y040855D03*
D166*
X028975Y040891D03*
X025465Y040891D03*
X021973Y040891D03*
D167*
X025465Y040927D03*
D168*
X021973Y040945D03*
D169*
X018490Y040963D03*
X028984Y040963D03*
D170*
X021973Y040999D03*
D171*
X021964Y041017D03*
X018490Y041017D03*
D172*
X021982Y041053D03*
D173*
X021973Y041071D03*
X028975Y041071D03*
D174*
X028984Y041107D03*
X025474Y041107D03*
X021982Y041107D03*
X018490Y041107D03*
D175*
X018490Y041125D03*
X018490Y041143D03*
X021964Y041125D03*
D176*
X021973Y041143D03*
X025465Y041143D03*
D177*
X025465Y041161D03*
D178*
X025465Y041179D03*
D179*
X021982Y041179D03*
D180*
X024329Y037756D02*
X024329Y037701D01*
X024329Y037591D02*
X024329Y037370D01*
X024384Y037370D02*
X024274Y037370D01*
X024139Y037425D02*
X024084Y037370D01*
X023918Y037370D01*
X023918Y037315D02*
X023918Y037591D01*
X024084Y037591D01*
X024139Y037536D01*
X024139Y037425D01*
X024029Y037260D02*
X023973Y037260D01*
X023918Y037315D01*
X023770Y037370D02*
X023770Y037701D01*
X023715Y037591D02*
X023605Y037591D01*
X023550Y037536D01*
X023550Y037370D01*
X023347Y037425D02*
X023292Y037370D01*
X023347Y037425D02*
X023347Y037646D01*
X023402Y037591D02*
X023292Y037591D01*
X023715Y037591D02*
X023770Y037536D01*
X023845Y037024D02*
X023790Y036969D01*
X023790Y036859D01*
X023845Y036804D01*
X024010Y036804D01*
X024010Y036694D02*
X024010Y037024D01*
X023845Y037024D01*
X023642Y036859D02*
X023642Y036749D01*
X023586Y036694D01*
X023476Y036694D01*
X023421Y036804D02*
X023642Y036804D01*
X023642Y036859D02*
X023586Y036914D01*
X023476Y036914D01*
X023421Y036859D01*
X023421Y036804D01*
X023273Y036749D02*
X023273Y036859D01*
X023218Y036914D01*
X023053Y036914D01*
X023053Y037024D02*
X023053Y036694D01*
X023218Y036694D01*
X023273Y036749D01*
X022905Y036694D02*
X022905Y036914D01*
X022905Y036804D02*
X022795Y036914D01*
X022740Y036914D01*
X022598Y036859D02*
X022598Y036749D01*
X022543Y036694D01*
X022433Y036694D01*
X022378Y036749D01*
X022378Y036859D01*
X022433Y036914D01*
X022543Y036914D01*
X022598Y036859D01*
X022678Y037370D02*
X022788Y037480D01*
X022788Y037591D01*
X022678Y037701D01*
X022543Y037646D02*
X022543Y037425D01*
X022488Y037370D01*
X022377Y037370D01*
X022322Y037425D01*
X022174Y037370D02*
X022064Y037480D01*
X022064Y037591D01*
X022174Y037701D01*
X022322Y037646D02*
X022377Y037701D01*
X022488Y037701D01*
X022543Y037646D01*
X021560Y037646D02*
X021505Y037701D01*
X021395Y037701D01*
X021340Y037646D01*
X021340Y037591D01*
X021560Y037370D01*
X021340Y037370D01*
X021192Y037425D02*
X020972Y037646D01*
X020972Y037425D01*
X021027Y037370D01*
X021137Y037370D01*
X021192Y037425D01*
X021192Y037646D01*
X021137Y037701D01*
X021027Y037701D01*
X020972Y037646D01*
X020824Y037591D02*
X020714Y037701D01*
X020714Y037370D01*
X020824Y037370D02*
X020604Y037370D01*
X020455Y037425D02*
X020400Y037370D01*
X020290Y037370D01*
X020235Y037425D01*
X020235Y037480D01*
X020290Y037536D01*
X020455Y037536D01*
X020455Y037425D01*
X020455Y037536D02*
X020345Y037646D01*
X020235Y037701D01*
X024329Y037591D02*
X024384Y037591D01*
X024526Y037591D02*
X024581Y037591D01*
X024691Y037480D01*
X024691Y037370D02*
X024691Y037591D01*
X024839Y037591D02*
X024839Y037315D01*
X024894Y037260D01*
X024949Y037260D01*
X025004Y037370D02*
X024839Y037370D01*
X025004Y037370D02*
X025059Y037425D01*
X025059Y037591D01*
X025208Y037536D02*
X025208Y037425D01*
X025263Y037370D01*
X025428Y037370D01*
X025428Y037260D02*
X025428Y037591D01*
X025263Y037591D01*
X025208Y037536D01*
X025576Y037536D02*
X025631Y037591D01*
X025741Y037591D01*
X025796Y037536D01*
X025796Y037425D01*
X025741Y037370D01*
X025631Y037370D01*
X025576Y037425D01*
X025576Y037536D01*
X025944Y037646D02*
X025999Y037701D01*
X026109Y037701D01*
X026164Y037646D01*
X026164Y037425D01*
X026109Y037370D01*
X025999Y037370D01*
X025944Y037425D01*
X026048Y037024D02*
X025938Y036914D01*
X025938Y036694D01*
X025790Y036694D02*
X025790Y036914D01*
X025625Y036914D01*
X025570Y036859D01*
X025570Y036694D01*
X025422Y036749D02*
X025422Y036859D01*
X025367Y036914D01*
X025202Y036914D01*
X025202Y037024D02*
X025202Y036694D01*
X025367Y036694D01*
X025422Y036749D01*
X025053Y036694D02*
X025053Y036914D01*
X024943Y036914D02*
X024888Y036914D01*
X024943Y036914D02*
X025053Y036804D01*
X024746Y036804D02*
X024526Y036804D01*
X024526Y036859D01*
X024581Y036914D01*
X024691Y036914D01*
X024746Y036859D01*
X024746Y036749D01*
X024691Y036694D01*
X024581Y036694D01*
X024691Y037024D02*
X024581Y037079D01*
X025938Y036859D02*
X026158Y036859D01*
X026158Y036914D02*
X026048Y037024D01*
X026158Y036914D02*
X026158Y036694D01*
D181*
X025961Y012319D02*
X025961Y011979D01*
X026131Y011979D01*
X026188Y012036D01*
X026188Y012149D01*
X026131Y012206D01*
X025961Y012206D01*
X026329Y012149D02*
X026329Y012092D01*
X026556Y012092D01*
X026556Y012036D02*
X026556Y012149D01*
X026500Y012206D01*
X026386Y012206D01*
X026329Y012149D01*
X026386Y011979D02*
X026500Y011979D01*
X026556Y012036D01*
X026698Y012036D02*
X026754Y012092D01*
X026868Y012092D01*
X026925Y012149D01*
X026868Y012206D01*
X026698Y012206D01*
X026698Y012036D02*
X026754Y011979D01*
X026925Y011979D01*
X027066Y011979D02*
X027236Y011979D01*
X027293Y012036D01*
X027236Y012092D01*
X027066Y012092D01*
X027066Y012149D02*
X027066Y011979D01*
X027066Y012149D02*
X027123Y012206D01*
X027236Y012206D01*
X027434Y012149D02*
X027434Y012092D01*
X027661Y012092D01*
X027661Y012036D02*
X027661Y012149D01*
X027604Y012206D01*
X027491Y012206D01*
X027434Y012149D01*
X027491Y011979D02*
X027604Y011979D01*
X027661Y012036D01*
X027793Y011979D02*
X027907Y011979D01*
X027850Y011979D02*
X027850Y012319D01*
X027907Y012319D01*
X028048Y012149D02*
X028048Y012092D01*
X028275Y012092D01*
X028275Y012036D02*
X028275Y012149D01*
X028218Y012206D01*
X028105Y012206D01*
X028048Y012149D01*
X028105Y011979D02*
X028218Y011979D01*
X028275Y012036D01*
X028416Y011979D02*
X028530Y012092D01*
X028473Y012092D02*
X028643Y012092D01*
X028643Y011979D02*
X028643Y012319D01*
X028473Y012319D01*
X028416Y012263D01*
X028416Y012149D01*
X028473Y012092D01*
X028473Y011719D02*
X028587Y011719D01*
X028643Y011663D01*
X028643Y011436D01*
X028587Y011379D01*
X028473Y011379D01*
X028416Y011436D01*
X028275Y011492D02*
X028162Y011606D01*
X028105Y011606D01*
X027968Y011549D02*
X027911Y011606D01*
X027798Y011606D01*
X027741Y011549D01*
X027741Y011492D01*
X027968Y011492D01*
X027968Y011436D02*
X027968Y011549D01*
X027968Y011436D02*
X027911Y011379D01*
X027798Y011379D01*
X027600Y011436D02*
X027543Y011492D01*
X027373Y011492D01*
X027373Y011549D02*
X027373Y011379D01*
X027543Y011379D01*
X027600Y011436D01*
X027543Y011606D02*
X027430Y011606D01*
X027373Y011549D01*
X027231Y011606D02*
X027118Y011606D01*
X027175Y011663D02*
X027175Y011436D01*
X027118Y011379D01*
X026986Y011379D02*
X026872Y011379D01*
X026929Y011379D02*
X026929Y011606D01*
X026986Y011606D01*
X026929Y011719D02*
X026929Y011776D01*
X026740Y011606D02*
X026627Y011379D01*
X026514Y011606D01*
X026372Y011549D02*
X026315Y011606D01*
X026202Y011606D01*
X026145Y011549D01*
X026145Y011492D01*
X026372Y011492D01*
X026372Y011436D02*
X026372Y011549D01*
X026372Y011436D02*
X026315Y011379D01*
X026202Y011379D01*
X026193Y011176D02*
X026193Y011119D01*
X026193Y011006D02*
X026193Y010779D01*
X026249Y010779D02*
X026136Y010779D01*
X026004Y010836D02*
X025947Y010779D01*
X025834Y010779D01*
X025777Y010836D01*
X025777Y010949D01*
X025834Y011006D01*
X025947Y011006D01*
X026004Y010949D01*
X026004Y010836D01*
X026193Y011006D02*
X026249Y011006D01*
X026381Y011006D02*
X026495Y011006D01*
X026438Y011063D02*
X026438Y010836D01*
X026381Y010779D01*
X026636Y010779D02*
X026636Y011006D01*
X026636Y010779D02*
X026806Y010779D01*
X026863Y010836D01*
X026863Y011006D01*
X027005Y010949D02*
X027061Y011006D01*
X027231Y011006D01*
X027231Y011119D02*
X027231Y010779D01*
X027061Y010779D01*
X027005Y010836D01*
X027005Y010949D01*
X027364Y010779D02*
X027477Y010779D01*
X027420Y010779D02*
X027420Y011006D01*
X027477Y011006D01*
X027420Y011119D02*
X027420Y011176D01*
X027614Y011006D02*
X027671Y011006D01*
X027784Y010892D01*
X027784Y010779D02*
X027784Y011006D01*
X027916Y011006D02*
X028029Y011006D01*
X027973Y011063D02*
X027973Y010836D01*
X027916Y010779D01*
X028162Y010779D02*
X028218Y010836D01*
X028218Y011063D01*
X028162Y011006D02*
X028275Y011006D01*
X028416Y011006D02*
X028416Y010779D01*
X028416Y010949D02*
X028643Y010949D01*
X028643Y011006D02*
X028530Y011119D01*
X028416Y011006D01*
X028643Y011006D02*
X028643Y010779D01*
X028275Y011379D02*
X028275Y011606D01*
X028416Y011663D02*
X028473Y011719D01*
X025635Y011663D02*
X025635Y011436D01*
X025579Y011379D01*
X025465Y011379D01*
X025409Y011436D01*
X025267Y011436D02*
X025210Y011379D01*
X025097Y011379D01*
X025040Y011436D01*
X025040Y011549D01*
X025097Y011606D01*
X025210Y011606D01*
X025267Y011549D01*
X025267Y011436D01*
X025409Y011663D02*
X025465Y011719D01*
X025579Y011719D01*
X025635Y011663D01*
X025395Y011979D02*
X025224Y011979D01*
X025224Y012206D01*
X025083Y012206D02*
X024913Y012206D01*
X024856Y012149D01*
X024856Y011979D01*
X024715Y012036D02*
X024715Y012149D01*
X024658Y012206D01*
X024488Y012206D01*
X024488Y012319D02*
X024488Y011979D01*
X024658Y011979D01*
X024715Y012036D01*
X024346Y012036D02*
X024346Y012149D01*
X024290Y012206D01*
X024176Y012206D01*
X024119Y012149D01*
X024119Y012092D01*
X024346Y012092D01*
X024346Y012036D02*
X024290Y011979D01*
X024176Y011979D01*
X023978Y011979D02*
X023978Y012206D01*
X023865Y012206D02*
X023808Y012206D01*
X023865Y012206D02*
X023978Y012092D01*
X023992Y011606D02*
X024105Y011606D01*
X024162Y011549D01*
X024162Y011436D01*
X024105Y011379D01*
X023992Y011379D01*
X023935Y011436D01*
X023935Y011549D01*
X023992Y011606D01*
X023794Y011606D02*
X023624Y011606D01*
X023567Y011549D01*
X023567Y011379D01*
X023426Y011379D02*
X023255Y011379D01*
X023199Y011436D01*
X023255Y011492D01*
X023369Y011492D01*
X023426Y011549D01*
X023369Y011606D01*
X023199Y011606D01*
X023189Y011979D02*
X023246Y012036D01*
X023246Y012263D01*
X023303Y012206D02*
X023189Y012206D01*
X023057Y012149D02*
X023001Y012206D01*
X022887Y012206D01*
X022830Y012149D01*
X022830Y011979D01*
X022689Y012036D02*
X022689Y012149D01*
X022632Y012206D01*
X022519Y012206D01*
X022462Y012149D01*
X022462Y012092D01*
X022689Y012092D01*
X022689Y012036D02*
X022632Y011979D01*
X022519Y011979D01*
X023057Y011979D02*
X023057Y012319D01*
X023794Y011606D02*
X023794Y011379D01*
X023794Y011006D02*
X023794Y010779D01*
X023794Y010892D02*
X023680Y011006D01*
X023624Y011006D01*
X023487Y010949D02*
X023430Y011006D01*
X023317Y011006D01*
X023260Y010949D01*
X023260Y010892D01*
X023487Y010892D01*
X023487Y010836D02*
X023487Y010949D01*
X023487Y010836D02*
X023430Y010779D01*
X023317Y010779D01*
X023119Y010949D02*
X022892Y010949D01*
X022750Y010949D02*
X022523Y010949D01*
X022523Y011006D02*
X022523Y010779D01*
X022382Y010779D02*
X022269Y010779D01*
X022325Y010779D02*
X022325Y011119D01*
X022382Y011119D01*
X022523Y011006D02*
X022637Y011119D01*
X022750Y011006D01*
X022750Y010779D01*
X022136Y010779D02*
X022023Y010779D01*
X022080Y010779D02*
X022080Y011006D01*
X022136Y011006D01*
X022080Y011119D02*
X022080Y011176D01*
X021891Y011119D02*
X021891Y010779D01*
X021891Y010892D02*
X021721Y011006D01*
X021584Y010949D02*
X021527Y011006D01*
X021414Y011006D01*
X021357Y010949D01*
X021357Y010892D01*
X021584Y010892D01*
X021584Y010836D02*
X021584Y010949D01*
X021584Y010836D02*
X021527Y010779D01*
X021414Y010779D01*
X021721Y010779D02*
X021891Y010892D01*
X020847Y010949D02*
X020620Y010949D01*
X020677Y010779D02*
X020677Y011119D01*
X020847Y010949D01*
X020479Y010836D02*
X020422Y010836D01*
X020422Y010779D01*
X020479Y010779D01*
X020479Y010836D01*
X020295Y010836D02*
X020068Y011063D01*
X020068Y010836D01*
X020125Y010779D01*
X020238Y010779D01*
X020295Y010836D01*
X020295Y011063D01*
X020238Y011119D01*
X020125Y011119D01*
X020068Y011063D01*
X019558Y011119D02*
X019558Y010779D01*
X019331Y010779D01*
X019190Y010779D02*
X019077Y010779D01*
X019133Y010779D02*
X019133Y011006D01*
X019190Y011006D01*
X019133Y011119D02*
X019133Y011176D01*
X018944Y010949D02*
X018944Y010836D01*
X018888Y010779D01*
X018718Y010779D01*
X018576Y010836D02*
X018576Y010949D01*
X018519Y011006D01*
X018406Y011006D01*
X018349Y010949D01*
X018349Y010892D01*
X018576Y010892D01*
X018576Y010836D02*
X018519Y010779D01*
X018406Y010779D01*
X018208Y010779D02*
X018208Y011006D01*
X018038Y011006D01*
X017981Y010949D01*
X017981Y010779D01*
X017839Y010779D02*
X017669Y010779D01*
X017613Y010836D01*
X017669Y010892D01*
X017783Y010892D01*
X017839Y010949D01*
X017783Y011006D01*
X017613Y011006D01*
X017471Y010949D02*
X017414Y011006D01*
X017301Y011006D01*
X017244Y010949D01*
X017244Y010892D01*
X017471Y010892D01*
X017471Y010836D02*
X017471Y010949D01*
X017471Y010836D02*
X017414Y010779D01*
X017301Y010779D01*
X018718Y011006D02*
X018888Y011006D01*
X018944Y010949D01*
X018956Y008586D02*
X019070Y008529D01*
X019183Y008415D01*
X019013Y008415D01*
X018956Y008359D01*
X018956Y008302D01*
X019013Y008245D01*
X019127Y008245D01*
X019183Y008302D01*
X019183Y008415D01*
X019325Y008245D02*
X019552Y008245D01*
X019438Y008245D02*
X019438Y008586D01*
X019552Y008472D01*
X019693Y008529D02*
X019920Y008302D01*
X019863Y008245D01*
X019750Y008245D01*
X019693Y008302D01*
X019693Y008529D01*
X019750Y008586D01*
X019863Y008586D01*
X019920Y008529D01*
X019920Y008302D01*
X020061Y008245D02*
X020288Y008245D01*
X020061Y008472D01*
X020061Y008529D01*
X020118Y008586D01*
X020232Y008586D01*
X020288Y008529D01*
X020430Y008586D02*
X020657Y008245D01*
X020855Y008245D02*
X020855Y008586D01*
X021025Y008415D01*
X020798Y008415D01*
X021166Y008302D02*
X021223Y008245D01*
X021336Y008245D01*
X021393Y008302D01*
X021166Y008529D01*
X021166Y008302D01*
X021166Y008529D02*
X021223Y008586D01*
X021336Y008586D01*
X021393Y008529D01*
X021393Y008302D01*
X021535Y008586D02*
X021762Y008245D01*
X021903Y008529D02*
X022130Y008302D01*
X022130Y008245D01*
X022271Y008245D02*
X022498Y008245D01*
X022271Y008472D01*
X022271Y008529D01*
X022328Y008586D01*
X022441Y008586D01*
X022498Y008529D01*
X022130Y008586D02*
X021903Y008586D01*
X021903Y008529D01*
X023008Y008245D02*
X023235Y008245D01*
X023121Y008245D02*
X023121Y008586D01*
X023235Y008472D01*
X023362Y008302D02*
X023362Y008245D01*
X023419Y008245D01*
X023419Y008302D01*
X023362Y008302D01*
X023560Y008245D02*
X023787Y008245D01*
X023674Y008245D02*
X023674Y008586D01*
X023787Y008472D01*
X024297Y008415D02*
X024297Y008245D01*
X024297Y008415D02*
X024354Y008472D01*
X024524Y008472D01*
X024524Y008245D01*
X024665Y008302D02*
X024665Y008415D01*
X024722Y008472D01*
X024835Y008472D01*
X024892Y008415D01*
X024892Y008302D01*
X024835Y008245D01*
X024722Y008245D01*
X024665Y008302D01*
X025024Y008245D02*
X025138Y008245D01*
X025081Y008245D02*
X025081Y008472D01*
X025138Y008472D01*
X025081Y008586D02*
X025081Y008642D01*
X025279Y008472D02*
X025449Y008472D01*
X025506Y008415D01*
X025449Y008359D01*
X025336Y008359D01*
X025279Y008302D01*
X025336Y008245D01*
X025506Y008245D01*
X025643Y008472D02*
X025700Y008472D01*
X025813Y008359D01*
X025813Y008472D02*
X025813Y008245D01*
X025954Y008359D02*
X026181Y008359D01*
X026181Y008415D02*
X026125Y008472D01*
X026011Y008472D01*
X025954Y008415D01*
X025954Y008359D01*
X026011Y008245D02*
X026125Y008245D01*
X026181Y008302D01*
X026181Y008415D01*
X026323Y008359D02*
X026323Y008586D01*
X026550Y008586D02*
X026550Y008359D01*
X026436Y008245D01*
X026323Y008359D01*
X027059Y008472D02*
X027230Y008472D01*
X027286Y008415D01*
X027286Y008302D01*
X027230Y008245D01*
X027059Y008245D01*
X027059Y008586D01*
X027423Y008472D02*
X027480Y008472D01*
X027593Y008359D01*
X027593Y008472D02*
X027593Y008245D01*
X027735Y008245D02*
X027905Y008245D01*
X027961Y008302D01*
X027905Y008359D01*
X027735Y008359D01*
X027735Y008415D02*
X027735Y008245D01*
X027735Y008415D02*
X027791Y008472D01*
X027905Y008472D01*
X028103Y008415D02*
X028160Y008472D01*
X028273Y008472D01*
X028330Y008415D01*
X028330Y008302D01*
X028273Y008245D01*
X028160Y008245D01*
X028103Y008302D01*
X028103Y008415D01*
X028471Y008359D02*
X028471Y008302D01*
X028528Y008245D01*
X028698Y008245D01*
X028698Y008586D01*
X028528Y008586D01*
X028471Y008529D01*
X028471Y008472D01*
X028528Y008415D01*
X028698Y008415D01*
X028528Y008415D02*
X028471Y008359D01*
X025635Y010779D02*
X025635Y011006D01*
X025465Y011006D01*
X025409Y010949D01*
X025409Y010779D01*
X024899Y010836D02*
X024842Y010779D01*
X024729Y010779D01*
X024672Y010836D01*
X024672Y010892D01*
X024729Y010949D01*
X024842Y010949D01*
X024899Y011006D01*
X024899Y011063D01*
X024842Y011119D01*
X024729Y011119D01*
X024672Y011063D01*
X024530Y011119D02*
X024530Y010779D01*
X024530Y010949D02*
X024474Y011006D01*
X024360Y011006D01*
X024304Y010949D01*
X024304Y010779D01*
X024162Y010836D02*
X024105Y010892D01*
X023935Y010892D01*
X023935Y010949D02*
X023935Y010779D01*
X024105Y010779D01*
X024162Y010836D01*
X024105Y011006D02*
X023992Y011006D01*
X023935Y010949D01*
X024304Y011379D02*
X024304Y011549D01*
X024360Y011606D01*
X024417Y011549D01*
X024417Y011379D01*
X024530Y011379D02*
X024530Y011606D01*
X024474Y011606D01*
X024417Y011549D01*
X024672Y011549D02*
X024672Y011379D01*
X024785Y011379D02*
X024785Y011549D01*
X024729Y011606D01*
X024672Y011549D01*
X024785Y011549D02*
X024842Y011606D01*
X024899Y011606D01*
X024899Y011379D01*
X025083Y011979D02*
X025083Y012206D01*
X025451Y012206D02*
X025451Y012036D01*
X025395Y011979D01*
D182*
X024028Y010429D03*
X024028Y008829D03*
D183*
X024023Y008839D03*
X024023Y010409D03*
X024023Y010419D03*
D184*
X023498Y010269D03*
X023488Y010279D03*
X023478Y010289D03*
X024138Y009439D03*
X024008Y009059D03*
X024008Y009049D03*
X024018Y009029D03*
X024018Y009019D03*
X024018Y009009D03*
X024028Y008999D03*
X024028Y008989D03*
X024028Y008979D03*
X024038Y008959D03*
X024038Y008949D03*
X024038Y008939D03*
X024048Y008929D03*
X024048Y008919D03*
X024048Y008909D03*
X023938Y009069D03*
X023718Y009009D03*
X023718Y008999D03*
X023718Y008989D03*
X023728Y008979D03*
X023728Y008969D03*
X023728Y008959D03*
X023728Y008949D03*
X023738Y008939D03*
X023738Y008929D03*
X023738Y008919D03*
X023748Y008909D03*
X023708Y009019D03*
X023708Y009029D03*
X023708Y009039D03*
X023698Y009059D03*
X023698Y009069D03*
X024698Y009069D03*
X024698Y009059D03*
X024698Y009049D03*
X024698Y009039D03*
X024698Y009029D03*
X024698Y009019D03*
X024698Y009009D03*
X024698Y008999D03*
X024698Y008989D03*
X024698Y008979D03*
X024698Y008969D03*
X024698Y008959D03*
X024698Y008949D03*
X024698Y008939D03*
X024698Y008929D03*
X024698Y008919D03*
X024698Y008909D03*
X024698Y008899D03*
X024698Y008889D03*
X024698Y008879D03*
X024698Y008869D03*
X024698Y008859D03*
X024698Y008849D03*
X024698Y009079D03*
X024698Y009089D03*
X024698Y009099D03*
X024698Y009109D03*
X024698Y009119D03*
X024698Y009129D03*
X024698Y009139D03*
X024698Y009149D03*
X024698Y009159D03*
X024698Y009169D03*
X024698Y009179D03*
X024698Y009189D03*
X024698Y009199D03*
X024698Y009209D03*
X024698Y009219D03*
X024698Y009229D03*
X024698Y009239D03*
X024698Y009249D03*
X024698Y009259D03*
X024698Y009269D03*
X024698Y009279D03*
X024698Y009289D03*
X024698Y009299D03*
X024698Y009309D03*
X024698Y009319D03*
X024698Y009329D03*
X024698Y009339D03*
X024698Y009349D03*
X024698Y009359D03*
X024698Y009369D03*
X024698Y009379D03*
X024698Y009389D03*
X024698Y009399D03*
X024698Y009409D03*
X024698Y009419D03*
X024698Y009429D03*
X024698Y009439D03*
X024698Y009449D03*
X024698Y009459D03*
X024698Y009469D03*
X024698Y009479D03*
X024698Y009489D03*
X024698Y009499D03*
X024698Y009509D03*
X024698Y009519D03*
X024698Y009529D03*
X024698Y009539D03*
X024698Y009549D03*
X024698Y009559D03*
X024698Y009569D03*
X024698Y009579D03*
X024698Y009589D03*
X024698Y009599D03*
X024698Y009609D03*
X024698Y009619D03*
X024698Y009629D03*
X024698Y009639D03*
X024698Y009649D03*
X024698Y009659D03*
X024698Y009669D03*
X024698Y009679D03*
X024698Y009689D03*
X024698Y009699D03*
X024698Y009709D03*
X024698Y009719D03*
X024698Y009729D03*
X024698Y009739D03*
X024698Y009749D03*
X024698Y009759D03*
X024698Y009769D03*
X024698Y009779D03*
X024698Y009789D03*
X024698Y009799D03*
X024698Y009809D03*
X024698Y009819D03*
X024698Y009829D03*
X024698Y009839D03*
X024698Y009849D03*
X024698Y009859D03*
X024698Y009869D03*
X024698Y009879D03*
X024698Y009889D03*
X024698Y009899D03*
X024698Y009909D03*
X024698Y009919D03*
X024698Y009929D03*
X024698Y009939D03*
X024698Y009949D03*
X024698Y009959D03*
X024698Y009969D03*
X024698Y009979D03*
X024698Y009989D03*
X024698Y009999D03*
X024698Y010009D03*
X024698Y010019D03*
X024698Y010029D03*
X024698Y010039D03*
X024698Y010049D03*
X024698Y010059D03*
X024698Y010069D03*
X024698Y010079D03*
X024698Y010089D03*
X024698Y010099D03*
X024698Y010109D03*
X024698Y010119D03*
X024698Y010129D03*
X024698Y010139D03*
X024698Y010149D03*
X024698Y010159D03*
X024698Y010169D03*
X024698Y010179D03*
X024698Y010189D03*
X024698Y010199D03*
X024698Y010209D03*
X024698Y010219D03*
X024698Y010229D03*
X024698Y010239D03*
X024698Y010249D03*
X024698Y010259D03*
X024698Y010269D03*
X024698Y010279D03*
X024698Y010289D03*
X024698Y010299D03*
X024698Y010309D03*
X024698Y010319D03*
X024698Y010329D03*
X024698Y010339D03*
X024698Y010349D03*
X024698Y010359D03*
X024698Y010369D03*
X024698Y010379D03*
X024698Y010389D03*
X024698Y010399D03*
X024558Y009839D03*
X025298Y010349D03*
X026058Y009759D03*
X026048Y009649D03*
X026048Y009639D03*
X026038Y009539D03*
X026038Y009529D03*
X026028Y009439D03*
X026028Y009429D03*
X026028Y009419D03*
X026348Y009249D03*
X026388Y010349D03*
X026388Y010359D03*
X025338Y009249D03*
D185*
X025343Y009259D03*
X026023Y009409D03*
X026033Y009449D03*
X026033Y009459D03*
X026033Y009469D03*
X026033Y009479D03*
X026033Y009489D03*
X026033Y009499D03*
X026033Y009509D03*
X026033Y009519D03*
X026043Y009629D03*
X026053Y009659D03*
X026053Y009669D03*
X026053Y009679D03*
X026053Y009689D03*
X026053Y009699D03*
X026053Y009709D03*
X026053Y009719D03*
X026053Y009729D03*
X026053Y009739D03*
X026053Y009749D03*
X026063Y009769D03*
X026063Y009779D03*
X026063Y009789D03*
X026063Y009799D03*
X026063Y009809D03*
X026063Y009819D03*
X026063Y009829D03*
X026063Y009839D03*
X026063Y009849D03*
X026063Y009859D03*
X026063Y009869D03*
X026073Y009879D03*
X026073Y009889D03*
X026073Y009899D03*
X026073Y009909D03*
X026073Y009919D03*
X026073Y009929D03*
X026073Y009939D03*
X026073Y009949D03*
X026073Y009959D03*
X026073Y009969D03*
X026083Y010079D03*
X026083Y010089D03*
X026093Y010109D03*
X026093Y010119D03*
X026383Y010339D03*
X025583Y010119D03*
X025303Y010339D03*
X024503Y009069D03*
X024413Y008999D03*
X024413Y008989D03*
X024373Y009069D03*
X024233Y009059D03*
X024103Y009059D03*
X024113Y008919D03*
X024233Y008919D03*
X023973Y008959D03*
X023903Y009029D03*
X023663Y009019D03*
X023663Y008969D03*
X023533Y009069D03*
X023453Y009069D03*
X023353Y009069D03*
X023353Y009059D03*
X023353Y009049D03*
X023353Y009039D03*
X023353Y009029D03*
X023353Y009019D03*
X023353Y009009D03*
X023353Y008999D03*
X023353Y008989D03*
X023353Y008979D03*
X023353Y008969D03*
X023353Y008959D03*
X023353Y008949D03*
X023353Y008939D03*
X023353Y008929D03*
X023353Y008919D03*
X023353Y008909D03*
X023353Y008899D03*
X023353Y008889D03*
X023353Y008879D03*
X023353Y008869D03*
X023353Y008859D03*
X023353Y008849D03*
X023353Y009079D03*
X023353Y009089D03*
X023353Y009099D03*
X023353Y009109D03*
X023353Y009119D03*
X023353Y009129D03*
X023353Y009139D03*
X023353Y009149D03*
X023353Y009159D03*
X023353Y009169D03*
X023353Y009179D03*
X023353Y009189D03*
X023353Y009199D03*
X023353Y009209D03*
X023353Y009219D03*
X023353Y009229D03*
X023353Y009239D03*
X023353Y009249D03*
X023353Y009259D03*
X023353Y009269D03*
X023353Y009279D03*
X023353Y009289D03*
X023353Y009299D03*
X023353Y009309D03*
X023353Y009319D03*
X023353Y009329D03*
X023353Y009339D03*
X023353Y009349D03*
X023353Y009359D03*
X023353Y009369D03*
X023353Y009379D03*
X023353Y009389D03*
X023353Y009399D03*
X023353Y009409D03*
X023353Y009419D03*
X023353Y009429D03*
X023353Y009439D03*
X023353Y009449D03*
X023353Y009459D03*
X023353Y009469D03*
X023353Y009479D03*
X023353Y009489D03*
X023353Y009499D03*
X023353Y009509D03*
X023353Y009519D03*
X023353Y009529D03*
X023353Y009539D03*
X023353Y009549D03*
X023353Y009559D03*
X023353Y009569D03*
X023353Y009579D03*
X023353Y009589D03*
X023353Y009599D03*
X023353Y009609D03*
X023353Y009619D03*
X023353Y009629D03*
X023353Y009639D03*
X023353Y009649D03*
X023353Y009659D03*
X023353Y009669D03*
X023353Y009679D03*
X023353Y009689D03*
X023353Y009699D03*
X023353Y009709D03*
X023353Y009719D03*
X023353Y009729D03*
X023353Y009739D03*
X023353Y009749D03*
X023353Y009759D03*
X023353Y009769D03*
X023353Y009779D03*
X023353Y009789D03*
X023353Y009799D03*
X023353Y009809D03*
X023353Y009819D03*
X023353Y009829D03*
X023353Y009839D03*
X023353Y009849D03*
X023353Y009859D03*
X023353Y009869D03*
X023353Y009879D03*
X023353Y009889D03*
X023353Y009899D03*
X023353Y009909D03*
X023353Y009919D03*
X023353Y009929D03*
X023353Y009939D03*
X023353Y009949D03*
X023353Y009959D03*
X023353Y009969D03*
X023353Y009979D03*
X023353Y009989D03*
X023353Y009999D03*
X023353Y010009D03*
X023353Y010019D03*
X023353Y010029D03*
X023353Y010039D03*
X023353Y010049D03*
X023353Y010059D03*
X023353Y010069D03*
X023353Y010079D03*
X023353Y010089D03*
X023353Y010099D03*
X023353Y010109D03*
X023353Y010119D03*
X023353Y010129D03*
X023353Y010139D03*
X023353Y010149D03*
X023353Y010159D03*
X023353Y010169D03*
X023353Y010179D03*
X023353Y010189D03*
X023353Y010199D03*
X023353Y010209D03*
X023353Y010219D03*
X023353Y010229D03*
X023353Y010239D03*
X023353Y010249D03*
X023353Y010259D03*
X023353Y010269D03*
X023353Y010279D03*
X023353Y010289D03*
X023353Y010299D03*
X023353Y010309D03*
X023353Y010319D03*
X023353Y010329D03*
X023353Y010339D03*
X023353Y010349D03*
X023353Y010359D03*
X023353Y010369D03*
X023353Y010379D03*
X023353Y010389D03*
X023353Y010399D03*
X023513Y010259D03*
X023523Y010249D03*
D186*
X025833Y009069D03*
X025833Y009059D03*
X025833Y009049D03*
X025833Y009039D03*
X025833Y009029D03*
X025833Y009019D03*
X025833Y009009D03*
X025833Y008999D03*
X025833Y008989D03*
X025833Y008979D03*
X025833Y008969D03*
X025833Y008959D03*
X025833Y008949D03*
X025833Y008939D03*
X025833Y008929D03*
X025833Y008919D03*
X025833Y008909D03*
X025833Y008899D03*
D187*
X025663Y009449D03*
X025293Y010359D03*
X024003Y009069D03*
X024013Y009039D03*
X024033Y008969D03*
X024053Y008899D03*
X023743Y008899D03*
X023703Y009049D03*
X023593Y008979D03*
X023473Y010299D03*
X023463Y010309D03*
D188*
X024143Y009489D03*
X024343Y009319D03*
X024373Y009039D03*
X024373Y008949D03*
X024503Y008939D03*
X024503Y008929D03*
X024503Y008919D03*
X023943Y008999D03*
X023813Y008999D03*
X023813Y008949D03*
X023623Y008949D03*
X023623Y008939D03*
X023623Y008929D03*
X023623Y009049D03*
X023623Y009059D03*
X023623Y009069D03*
X025663Y009319D03*
X025563Y010039D03*
X025563Y010049D03*
X025563Y010059D03*
X025563Y010069D03*
X025563Y010079D03*
X025563Y010089D03*
X025563Y010099D03*
X025663Y010239D03*
D189*
X025583Y010109D03*
X025513Y010129D03*
X025653Y009979D03*
X025603Y009909D03*
X025603Y009899D03*
X025603Y009889D03*
X025613Y009789D03*
X025733Y009899D03*
X025763Y009869D03*
X025773Y009859D03*
X025843Y009789D03*
X025843Y009779D03*
X025923Y009699D03*
X025933Y009689D03*
X025943Y009679D03*
X025953Y009669D03*
X025963Y009659D03*
X025973Y009649D03*
X025983Y009639D03*
X025993Y009629D03*
X026033Y009589D03*
X026043Y009579D03*
X026053Y009569D03*
X026083Y009539D03*
X026093Y009529D03*
X026103Y009519D03*
X026113Y009509D03*
X026123Y009499D03*
X026133Y009489D03*
X026143Y009479D03*
X026153Y009469D03*
X026163Y009459D03*
X026173Y009449D03*
X026183Y009439D03*
X026193Y009429D03*
X026243Y009369D03*
X026253Y009359D03*
X026263Y009349D03*
X026273Y009339D03*
X026293Y009319D03*
X026303Y009309D03*
X026313Y009299D03*
X026323Y009289D03*
X026333Y009279D03*
X026343Y009269D03*
X025993Y009939D03*
X026003Y009949D03*
X026013Y009959D03*
X026023Y009969D03*
X026073Y010019D03*
X026083Y010029D03*
X026093Y010039D03*
X026133Y010079D03*
X025883Y009949D03*
X025743Y009679D03*
X025733Y009669D03*
X025723Y009659D03*
X025713Y009649D03*
X025703Y009639D03*
X025693Y009629D03*
X025683Y009619D03*
X025633Y009569D03*
X025623Y009559D03*
X025583Y009519D03*
X025583Y009429D03*
X025583Y009419D03*
X025583Y009409D03*
X025583Y009399D03*
X025663Y009389D03*
X025663Y009439D03*
X025743Y009429D03*
X025663Y009309D03*
X025503Y009439D03*
X025493Y009429D03*
X025483Y009419D03*
X025423Y009349D03*
X025413Y009339D03*
X025403Y009329D03*
X025393Y009319D03*
X025383Y009309D03*
X025373Y009299D03*
X025363Y009289D03*
X025353Y009279D03*
X025343Y009269D03*
X024533Y009029D03*
X024513Y008969D03*
X024483Y008989D03*
X024473Y008999D03*
X024373Y008919D03*
X024243Y009039D03*
X024113Y009039D03*
X023973Y008989D03*
X023903Y008989D03*
X023903Y008949D03*
X023933Y008919D03*
X023843Y008989D03*
X023783Y008989D03*
X023813Y008919D03*
X023523Y008949D03*
X023573Y010189D03*
X023563Y010199D03*
X028033Y010229D03*
D190*
X026028Y010229D03*
X025558Y010209D03*
X025548Y010199D03*
X025548Y010189D03*
X024478Y009799D03*
X024148Y009309D03*
X024348Y009219D03*
X024498Y009039D03*
X024498Y008949D03*
X023948Y009009D03*
X023938Y009039D03*
X023628Y009039D03*
X023628Y009009D03*
X023628Y008999D03*
X023628Y008989D03*
X023628Y008919D03*
X023488Y008939D03*
X023498Y009199D03*
X023648Y009199D03*
X023658Y009209D03*
X023648Y009299D03*
X023718Y010039D03*
X023708Y010049D03*
X023698Y010059D03*
X023688Y010069D03*
D191*
X023598Y010169D03*
X023588Y010179D03*
X024138Y009459D03*
X024518Y009819D03*
X024498Y008979D03*
X024518Y008959D03*
X025588Y009389D03*
X025588Y009439D03*
X025588Y009449D03*
X025598Y009459D03*
X025618Y009549D03*
X025638Y009579D03*
X025738Y009449D03*
X025738Y009439D03*
X025748Y009419D03*
X025748Y009409D03*
X025668Y009399D03*
X026028Y009599D03*
X026058Y009559D03*
X025878Y009939D03*
X025698Y009939D03*
X025688Y009949D03*
X026068Y010009D03*
X026098Y010049D03*
X026988Y010229D03*
X026948Y009209D03*
X027998Y009209D03*
X023488Y008919D03*
D192*
X023823Y009019D03*
X023933Y009059D03*
X024123Y009029D03*
X024123Y009019D03*
X024123Y009009D03*
X024253Y009009D03*
X024253Y009019D03*
X024253Y009029D03*
X024373Y009059D03*
X024373Y008929D03*
X024503Y009059D03*
X024143Y009149D03*
X024143Y009469D03*
X023643Y010119D03*
X023633Y010129D03*
X023623Y010139D03*
X023613Y010149D03*
X023603Y010159D03*
X025613Y009539D03*
X025643Y009589D03*
X025733Y009459D03*
X025663Y009429D03*
X025663Y009419D03*
X025663Y009409D03*
X025603Y009369D03*
X025593Y009379D03*
X025993Y009359D03*
X025993Y009349D03*
X025993Y009339D03*
X025993Y009329D03*
X025993Y009319D03*
X026063Y009549D03*
X026023Y009609D03*
X025843Y009769D03*
X025843Y009799D03*
X026063Y009999D03*
X026103Y010059D03*
X026013Y010189D03*
X026013Y010199D03*
X026013Y010269D03*
X026013Y010279D03*
D193*
X026088Y010199D03*
X026098Y010189D03*
X026088Y010099D03*
X026138Y010089D03*
X026148Y010099D03*
X026158Y010109D03*
X026168Y010119D03*
X026188Y010139D03*
X026198Y010149D03*
X026208Y010159D03*
X026218Y010169D03*
X026228Y010179D03*
X026238Y010189D03*
X026248Y010199D03*
X026258Y010209D03*
X026268Y010219D03*
X026278Y010229D03*
X026288Y010239D03*
X026298Y010249D03*
X026308Y010259D03*
X026318Y010269D03*
X026328Y010279D03*
X026338Y010289D03*
X026348Y010299D03*
X026358Y010309D03*
X026368Y010319D03*
X026378Y010329D03*
X025988Y009929D03*
X025978Y009919D03*
X025968Y009909D03*
X025958Y009899D03*
X025948Y009889D03*
X025938Y009879D03*
X025928Y009869D03*
X025918Y009859D03*
X025908Y009849D03*
X025898Y009839D03*
X025888Y009829D03*
X025878Y009819D03*
X025808Y009819D03*
X025798Y009829D03*
X025788Y009839D03*
X025778Y009849D03*
X025748Y009879D03*
X025738Y009889D03*
X025608Y009879D03*
X025608Y009869D03*
X025608Y009859D03*
X025608Y009849D03*
X025608Y009839D03*
X025608Y009829D03*
X025608Y009819D03*
X025608Y009809D03*
X025608Y009799D03*
X025608Y009779D03*
X025618Y009769D03*
X025618Y009759D03*
X025618Y009749D03*
X025618Y009739D03*
X025618Y009729D03*
X025618Y009719D03*
X025618Y009709D03*
X025618Y009699D03*
X025618Y009689D03*
X025618Y009679D03*
X025618Y009669D03*
X025618Y009659D03*
X025628Y009649D03*
X025628Y009639D03*
X025628Y009629D03*
X025628Y009619D03*
X025748Y009689D03*
X025758Y009699D03*
X025768Y009709D03*
X025778Y009719D03*
X025788Y009729D03*
X025798Y009739D03*
X025808Y009749D03*
X025878Y009749D03*
X025888Y009739D03*
X025898Y009729D03*
X025908Y009719D03*
X025918Y009709D03*
X025598Y009919D03*
X025598Y009929D03*
X025598Y009939D03*
X025598Y009949D03*
X025598Y009959D03*
X025598Y009969D03*
X025598Y009979D03*
X025528Y010109D03*
X025518Y010119D03*
X025478Y010159D03*
X025468Y010169D03*
X025458Y010179D03*
X025448Y010189D03*
X025438Y010199D03*
X025428Y010209D03*
X025418Y010219D03*
X025408Y010229D03*
X025398Y010239D03*
X025388Y010249D03*
X025378Y010259D03*
X025368Y010269D03*
X025358Y010279D03*
X025348Y010289D03*
X025338Y010299D03*
X025328Y010309D03*
X025318Y010319D03*
X025308Y010329D03*
X024538Y009829D03*
X024138Y009449D03*
X024108Y009049D03*
X024108Y008999D03*
X024108Y008989D03*
X024108Y008979D03*
X024108Y008969D03*
X024108Y008959D03*
X024108Y008949D03*
X024108Y008939D03*
X024108Y008929D03*
X024238Y008929D03*
X024238Y008939D03*
X024238Y008949D03*
X024238Y008959D03*
X024238Y008969D03*
X024238Y008979D03*
X024238Y008989D03*
X024238Y008999D03*
X024238Y009049D03*
X024338Y009029D03*
X024338Y009019D03*
X024338Y009009D03*
X024338Y008999D03*
X024338Y008989D03*
X024338Y008979D03*
X024338Y008969D03*
X024338Y008959D03*
X024408Y008959D03*
X024408Y008969D03*
X024408Y008979D03*
X024408Y009009D03*
X024408Y009019D03*
X024408Y009029D03*
X024468Y009029D03*
X024468Y009019D03*
X024468Y009009D03*
X024538Y009009D03*
X024538Y009019D03*
X023978Y008979D03*
X023978Y008969D03*
X023968Y008949D03*
X023898Y008959D03*
X023898Y008969D03*
X023898Y008979D03*
X023848Y008959D03*
X023778Y008959D03*
X023778Y008969D03*
X023778Y008979D03*
X023838Y009029D03*
X023968Y009029D03*
X023658Y009029D03*
X023658Y008979D03*
X023658Y008959D03*
X023528Y008959D03*
X023528Y008969D03*
X023528Y008979D03*
X023528Y008989D03*
X023528Y008999D03*
X023528Y009009D03*
X023528Y009019D03*
X023528Y009029D03*
X023528Y009039D03*
X023528Y009049D03*
X023528Y009059D03*
X023448Y009059D03*
X023448Y009049D03*
X023448Y009039D03*
X023448Y009029D03*
X023448Y009019D03*
X023448Y009009D03*
X023448Y008999D03*
X023448Y008989D03*
X023448Y008979D03*
X023448Y008969D03*
X023458Y008959D03*
X023458Y008949D03*
X023558Y010209D03*
X023548Y010219D03*
X023538Y010229D03*
X023528Y010239D03*
X025428Y009359D03*
X025438Y009369D03*
X025448Y009379D03*
X025458Y009389D03*
X025468Y009399D03*
X025478Y009409D03*
X025518Y009449D03*
X025528Y009459D03*
X025538Y009469D03*
X026198Y009419D03*
X026208Y009409D03*
X026218Y009399D03*
X026228Y009389D03*
X026238Y009379D03*
X026288Y009329D03*
X026348Y009259D03*
D194*
X026018Y009619D03*
X026048Y009979D03*
X026058Y009989D03*
X026108Y010069D03*
X025648Y009599D03*
X025658Y009519D03*
X024498Y009809D03*
X024218Y009249D03*
X024218Y009239D03*
X024218Y009229D03*
X024218Y009219D03*
X024218Y009209D03*
X024338Y009189D03*
X024338Y009179D03*
X024338Y009169D03*
X024078Y009209D03*
X024078Y009219D03*
X024068Y009229D03*
X024078Y009249D03*
X024078Y009259D03*
X023958Y009229D03*
X023958Y009219D03*
X023958Y009209D03*
X023958Y009199D03*
X023958Y009189D03*
X023958Y009179D03*
X023958Y009169D03*
X023958Y009309D03*
X023958Y009319D03*
X023958Y009329D03*
X023958Y009339D03*
X023958Y009349D03*
X023958Y009359D03*
X023958Y009369D03*
X023658Y009309D03*
X023498Y009309D03*
X023818Y008929D03*
X023938Y008929D03*
D195*
X023933Y008939D03*
X023953Y009019D03*
X023933Y009049D03*
X023953Y009159D03*
X023953Y009239D03*
X023953Y009299D03*
X024083Y009269D03*
X024073Y009239D03*
X024083Y009199D03*
X024213Y009199D03*
X024213Y009259D03*
X024203Y009269D03*
X024333Y009289D03*
X024333Y009299D03*
X024333Y009309D03*
X024343Y009279D03*
X024343Y009209D03*
X024343Y009199D03*
X024333Y009159D03*
X024373Y009049D03*
X024373Y008939D03*
X024503Y009049D03*
X024503Y009159D03*
X024503Y009169D03*
X024503Y009179D03*
X024503Y009189D03*
X024503Y009199D03*
X024503Y009209D03*
X024503Y009219D03*
X024503Y009279D03*
X024503Y009289D03*
X024503Y009299D03*
X024503Y009309D03*
X024503Y009319D03*
X024143Y009479D03*
X023793Y009369D03*
X023793Y009359D03*
X023793Y009349D03*
X023793Y009339D03*
X023793Y009329D03*
X023793Y009319D03*
X023793Y009309D03*
X023793Y009299D03*
X023793Y009239D03*
X023793Y009229D03*
X023793Y009219D03*
X023793Y009209D03*
X023793Y009199D03*
X023793Y009189D03*
X023793Y009179D03*
X023793Y009169D03*
X023793Y009159D03*
X023813Y009059D03*
X023813Y009049D03*
X023813Y009039D03*
X023813Y009009D03*
X023813Y008939D03*
X023663Y009219D03*
X023653Y009319D03*
X023503Y009319D03*
X023493Y009219D03*
X023493Y009209D03*
X023573Y009149D03*
X023493Y008929D03*
X023683Y010079D03*
X023673Y010089D03*
X023663Y010099D03*
X023653Y010109D03*
X025613Y009529D03*
X025613Y009469D03*
X025713Y009469D03*
X025653Y009609D03*
X025843Y009759D03*
X025843Y009809D03*
D196*
X025818Y010229D03*
X025818Y010279D03*
X025818Y010289D03*
X026998Y009039D03*
X028048Y009039D03*
X024418Y009769D03*
X024148Y009519D03*
X023858Y009889D03*
X023848Y009899D03*
X023528Y009239D03*
X023578Y009159D03*
D197*
X024003Y009739D03*
X023993Y009749D03*
X023983Y009759D03*
X025643Y009489D03*
X025793Y009909D03*
X027023Y009049D03*
X027433Y009379D03*
X027443Y009389D03*
X027443Y009399D03*
X027453Y009409D03*
X027453Y009849D03*
X027443Y009859D03*
X027443Y009869D03*
X027433Y009879D03*
X028483Y009879D03*
X028493Y009859D03*
X028503Y009839D03*
X028513Y009819D03*
X028503Y009419D03*
X028493Y009399D03*
X028483Y009379D03*
D198*
X028083Y009059D03*
X027373Y009299D03*
X027363Y009289D03*
X027043Y009059D03*
X027373Y009959D03*
X027363Y009969D03*
X028093Y010199D03*
X028423Y009959D03*
X024423Y009339D03*
X024423Y009329D03*
X024423Y009229D03*
X024153Y009569D03*
X024333Y009729D03*
X023873Y009289D03*
X023873Y009279D03*
X023873Y009269D03*
X023873Y009259D03*
X023873Y009249D03*
D199*
X024158Y009579D03*
X027058Y009069D03*
X027328Y009259D03*
X027338Y009989D03*
X027328Y009999D03*
X028108Y010189D03*
X028368Y009259D03*
X028098Y009069D03*
D200*
X028118Y009079D03*
X028358Y009249D03*
X028358Y010009D03*
X027068Y009079D03*
X024158Y009589D03*
D201*
X025828Y009079D03*
D202*
X025878Y009399D03*
X028128Y009089D03*
D203*
X028323Y009229D03*
X028323Y010029D03*
X028133Y010169D03*
X027273Y010029D03*
X027083Y010169D03*
X027273Y009229D03*
X027083Y009089D03*
X025873Y009379D03*
X025873Y009389D03*
X024163Y009609D03*
D204*
X025858Y009369D03*
X028138Y009099D03*
D205*
X027093Y009099D03*
X027253Y010039D03*
X027093Y010159D03*
X028143Y010159D03*
X024163Y009619D03*
D206*
X027248Y009219D03*
X028148Y009109D03*
X028298Y009219D03*
X028298Y010039D03*
D207*
X028153Y010149D03*
X027103Y010149D03*
X027103Y009109D03*
X024163Y009629D03*
D208*
X024168Y009639D03*
X027108Y009119D03*
X028158Y009119D03*
D209*
X028168Y009129D03*
X028168Y010129D03*
X027118Y010129D03*
X027118Y009129D03*
X024168Y009649D03*
D210*
X028173Y009139D03*
D211*
X027208Y009209D03*
X027128Y009139D03*
X027128Y010119D03*
X028178Y010119D03*
X025838Y010249D03*
X024168Y009659D03*
D212*
X027133Y010109D03*
X027133Y009149D03*
X028183Y009149D03*
X028253Y009209D03*
X028183Y010109D03*
D213*
X028188Y010099D03*
X028188Y009159D03*
X027138Y009159D03*
X024168Y009669D03*
D214*
X024148Y009509D03*
X024148Y009159D03*
X024438Y009779D03*
X023808Y009949D03*
X023628Y009289D03*
X025578Y010009D03*
D215*
X027143Y010099D03*
X028193Y009169D03*
D216*
X028198Y010089D03*
X027148Y010089D03*
X027148Y009169D03*
X024168Y009679D03*
D217*
X023893Y009859D03*
X023883Y009869D03*
X023873Y009879D03*
X024143Y009169D03*
X025633Y009509D03*
X025663Y009349D03*
X028053Y010219D03*
D218*
X028498Y009849D03*
X028508Y009829D03*
X028518Y009809D03*
X028518Y009799D03*
X028528Y009779D03*
X028528Y009479D03*
X028518Y009459D03*
X028518Y009449D03*
X028508Y009439D03*
X028508Y009429D03*
X028498Y009409D03*
X027478Y009469D03*
X027468Y009449D03*
X027468Y009439D03*
X027458Y009429D03*
X027458Y009419D03*
X027478Y009789D03*
X027468Y009809D03*
X027468Y009819D03*
X027458Y009829D03*
X027458Y009839D03*
X025808Y010269D03*
X024378Y009749D03*
X024148Y009539D03*
X024148Y009279D03*
X024148Y009189D03*
X023978Y009769D03*
X023968Y009779D03*
X023958Y009789D03*
X023948Y009799D03*
X023578Y009349D03*
X023588Y009269D03*
X023568Y009259D03*
X023578Y009169D03*
D219*
X024173Y009689D03*
X027153Y010079D03*
X027153Y009179D03*
X028203Y009179D03*
D220*
X028523Y009469D03*
X028533Y009489D03*
X028533Y009499D03*
X028533Y009509D03*
X028543Y009519D03*
X028543Y009529D03*
X028543Y009539D03*
X028543Y009549D03*
X028543Y009559D03*
X028553Y009579D03*
X028553Y009609D03*
X028553Y009619D03*
X028553Y009629D03*
X028553Y009639D03*
X028553Y009649D03*
X028553Y009659D03*
X028553Y009679D03*
X028543Y009709D03*
X028543Y009719D03*
X028543Y009729D03*
X028543Y009739D03*
X028533Y009749D03*
X028533Y009759D03*
X028533Y009769D03*
X028523Y009789D03*
X027493Y009749D03*
X027493Y009739D03*
X027493Y009729D03*
X027483Y009759D03*
X027483Y009769D03*
X027483Y009779D03*
X027473Y009799D03*
X027493Y009539D03*
X027493Y009529D03*
X027493Y009519D03*
X027493Y009509D03*
X027483Y009499D03*
X027483Y009489D03*
X027483Y009479D03*
X027473Y009459D03*
X025783Y009979D03*
X025643Y009499D03*
X025663Y009359D03*
X024453Y009369D03*
X024143Y009179D03*
X023933Y009809D03*
X023553Y009249D03*
D221*
X023578Y009179D03*
X023578Y009339D03*
X024018Y009729D03*
X024148Y009549D03*
X024358Y009739D03*
X024438Y009359D03*
X024438Y009259D03*
X024438Y009249D03*
X025798Y009919D03*
X027028Y010209D03*
X027418Y009899D03*
X027428Y009889D03*
X027428Y009369D03*
X027418Y009359D03*
X028078Y010209D03*
X028468Y009899D03*
X028478Y009889D03*
X028488Y009869D03*
X028488Y009389D03*
X028478Y009369D03*
X028468Y009359D03*
D222*
X028208Y009189D03*
X028198Y010079D03*
X027158Y010069D03*
X027158Y009189D03*
D223*
X027378Y009309D03*
X027388Y009319D03*
X027398Y009329D03*
X027398Y009929D03*
X027388Y009939D03*
X027378Y009949D03*
X028428Y009949D03*
X028438Y009939D03*
X028438Y009319D03*
X028428Y009309D03*
X028418Y009299D03*
X024428Y009269D03*
X024428Y009239D03*
X024428Y009349D03*
X023578Y009189D03*
D224*
X024173Y009699D03*
X027163Y010059D03*
X027163Y009199D03*
X028213Y009199D03*
X028203Y010069D03*
D225*
X026038Y010219D03*
X025568Y010029D03*
X024458Y009789D03*
X023768Y009989D03*
X023758Y009999D03*
X023748Y010009D03*
X023738Y010019D03*
X023728Y010029D03*
X023508Y009229D03*
D226*
X024163Y009599D03*
X027073Y010179D03*
X027293Y010019D03*
X027293Y009239D03*
X028343Y009239D03*
X028343Y010019D03*
X028123Y010179D03*
D227*
X028373Y009999D03*
X027313Y010009D03*
X027063Y010189D03*
X027313Y009249D03*
D228*
X027333Y009269D03*
X028383Y009269D03*
X028383Y009989D03*
X025773Y009969D03*
X024313Y009719D03*
D229*
X025778Y009959D03*
X027048Y010199D03*
X027348Y009979D03*
X027348Y009279D03*
X028398Y009279D03*
X028408Y009289D03*
X028408Y009969D03*
X028398Y009979D03*
D230*
X028548Y009699D03*
X028548Y009689D03*
X028548Y009669D03*
X028548Y009599D03*
X028548Y009589D03*
X028548Y009569D03*
X027008Y010219D03*
X025818Y010239D03*
X024398Y009759D03*
X024148Y009529D03*
X024148Y009289D03*
X023928Y009819D03*
X023918Y009829D03*
X023908Y009839D03*
X023898Y009849D03*
X023578Y009359D03*
X023598Y009279D03*
D231*
X023843Y009909D03*
X023833Y009919D03*
X023823Y009929D03*
X023813Y009939D03*
X024143Y009299D03*
X025663Y009339D03*
X025593Y009989D03*
X025583Y009999D03*
X025593Y010229D03*
D232*
X025793Y009929D03*
X025643Y009479D03*
X024153Y009559D03*
X024023Y009719D03*
X023583Y009329D03*
X027403Y009339D03*
X027413Y009349D03*
X027413Y009909D03*
X027403Y009919D03*
X028443Y009929D03*
X028453Y009919D03*
X028463Y009909D03*
X028463Y009349D03*
X028453Y009339D03*
X028443Y009329D03*
D233*
X026043Y010209D03*
X025993Y010239D03*
X025573Y010219D03*
X025573Y010019D03*
X025663Y009329D03*
X024143Y009499D03*
X023793Y009959D03*
X023783Y009969D03*
X023773Y009979D03*
X023583Y009369D03*
D234*
X027313Y009549D03*
X027313Y009559D03*
X027313Y009699D03*
X027313Y009709D03*
D235*
X027318Y009689D03*
X027318Y009679D03*
X027318Y009669D03*
X027318Y009659D03*
X027318Y009649D03*
X027318Y009639D03*
X027318Y009629D03*
X027318Y009619D03*
X027318Y009609D03*
X027318Y009599D03*
X027318Y009589D03*
X027318Y009579D03*
X027318Y009569D03*
D236*
X024173Y009709D03*
D237*
X027318Y009719D03*
D238*
X027168Y010049D03*
X028208Y010059D03*
X028218Y010049D03*
D239*
X025878Y010129D03*
D240*
X025853Y010259D03*
X027113Y010139D03*
X028163Y010139D03*
D241*
X025818Y010139D03*
D242*
X025813Y010149D03*
D243*
X025833Y010159D03*
X025823Y010179D03*
D244*
X025828Y010169D03*
D245*
X029417Y036102D02*
X030217Y036102D01*
X029497Y036602D02*
X029499Y036637D01*
X029505Y036672D01*
X029514Y036706D01*
X029528Y036739D01*
X029544Y036770D01*
X029564Y036799D01*
X029588Y036825D01*
X029614Y036849D01*
X029642Y036870D01*
X029673Y036888D01*
X029705Y036902D01*
X029738Y036912D01*
X029773Y036919D01*
X029808Y036922D01*
X029843Y036921D01*
X029878Y036916D01*
X029913Y036907D01*
X029946Y036895D01*
X029977Y036879D01*
X030007Y036860D01*
X030034Y036837D01*
X030058Y036812D01*
X030080Y036784D01*
X030098Y036754D01*
X030113Y036722D01*
X030125Y036689D01*
X030133Y036655D01*
X030137Y036620D01*
X030137Y036584D01*
X030133Y036549D01*
X030125Y036515D01*
X030113Y036482D01*
X030098Y036450D01*
X030080Y036420D01*
X030058Y036392D01*
X030034Y036367D01*
X030007Y036344D01*
X029977Y036325D01*
X029946Y036309D01*
X029913Y036297D01*
X029878Y036288D01*
X029843Y036283D01*
X029808Y036282D01*
X029773Y036285D01*
X029738Y036292D01*
X029705Y036302D01*
X029673Y036316D01*
X029642Y036334D01*
X029614Y036355D01*
X029588Y036379D01*
X029564Y036405D01*
X029544Y036434D01*
X029528Y036465D01*
X029514Y036498D01*
X029505Y036532D01*
X029499Y036567D01*
X029497Y036602D01*
X029417Y037102D02*
X030217Y037102D01*
D246*
X030239Y037212D02*
X030239Y037433D01*
X030165Y037359D02*
X030091Y037433D01*
X030091Y037212D01*
X030018Y037212D02*
X030165Y037212D01*
X030239Y037212D02*
X030312Y037286D01*
X030386Y037212D01*
X030386Y037433D01*
X030460Y037396D02*
X030497Y037433D01*
X030570Y037433D01*
X030607Y037396D01*
X030607Y037359D01*
X030570Y037322D01*
X030497Y037322D01*
X030460Y037286D01*
X030460Y037249D01*
X030497Y037212D01*
X030570Y037212D01*
X030607Y037249D01*
D247*
X027642Y032202D02*
X027689Y032155D01*
X027689Y032062D01*
X027642Y032015D01*
X027455Y032015D01*
X027408Y032062D01*
X027408Y032155D01*
X027455Y032202D01*
X027455Y031907D02*
X027642Y031907D01*
X027689Y031860D01*
X027689Y031720D01*
X027408Y031720D01*
X027408Y031860D01*
X027455Y031907D01*
X027408Y031612D02*
X027595Y031612D01*
X027689Y031519D01*
X027595Y031426D01*
X027408Y031426D01*
X027549Y031426D02*
X027549Y031612D01*
X027509Y030016D02*
X027416Y030016D01*
X027369Y029969D01*
X027369Y029875D01*
X027416Y029829D01*
X027509Y029829D02*
X027556Y029922D01*
X027556Y029969D01*
X027509Y030016D01*
X027649Y030016D02*
X027649Y029829D01*
X027509Y029829D01*
X027416Y029721D02*
X027603Y029721D01*
X027649Y029674D01*
X027649Y029581D01*
X027603Y029534D01*
X027416Y029534D01*
X027369Y029581D01*
X027369Y029674D01*
X027416Y029721D01*
X027369Y029431D02*
X027369Y029338D01*
X027369Y029384D02*
X027649Y029384D01*
X027649Y029338D02*
X027649Y029431D01*
X027603Y029230D02*
X027509Y029230D01*
X027462Y029183D01*
X027462Y029043D01*
X027369Y029043D02*
X027649Y029043D01*
X027649Y029183D01*
X027603Y029230D01*
X027603Y028935D02*
X027649Y028888D01*
X027649Y028795D01*
X027603Y028748D01*
X027416Y028748D01*
X027369Y028795D01*
X027369Y028888D01*
X027416Y028935D01*
X027509Y028935D01*
X027509Y028842D01*
X026146Y031426D02*
X025959Y031426D01*
X025912Y031472D01*
X025912Y031566D01*
X025959Y031612D01*
X026053Y031612D01*
X026053Y031519D01*
X026146Y031612D02*
X026193Y031566D01*
X026193Y031472D01*
X026146Y031426D01*
X026193Y031720D02*
X026193Y031860D01*
X026146Y031907D01*
X026053Y031907D01*
X026006Y031860D01*
X026006Y031720D01*
X025912Y031720D02*
X026193Y031720D01*
X026193Y032015D02*
X026193Y032108D01*
X026193Y032062D02*
X025912Y032062D01*
X025912Y032108D02*
X025912Y032015D01*
X025959Y032211D02*
X025912Y032258D01*
X025912Y032351D01*
X025959Y032398D01*
X026146Y032398D01*
X026193Y032351D01*
X026193Y032258D01*
X026146Y032211D01*
X025959Y032211D01*
X025912Y032506D02*
X025912Y032693D01*
X025912Y032599D02*
X026193Y032599D01*
X026099Y032506D01*
X026053Y032801D02*
X026053Y032941D01*
X026006Y032987D01*
X025959Y032987D01*
X025912Y032941D01*
X025912Y032847D01*
X025959Y032801D01*
X026053Y032801D01*
X026146Y032894D01*
X026193Y032987D01*
X029613Y025194D02*
X029613Y025007D01*
X029893Y025007D01*
X029847Y024899D02*
X029893Y024852D01*
X029893Y024759D01*
X029847Y024712D01*
X029660Y024712D01*
X029613Y024759D01*
X029613Y024852D01*
X029660Y024899D01*
X029660Y024604D02*
X029613Y024558D01*
X029613Y024464D01*
X029660Y024418D01*
X029753Y024464D02*
X029753Y024558D01*
X029707Y024604D01*
X029660Y024604D01*
X029753Y024464D02*
X029800Y024418D01*
X029847Y024418D01*
X029893Y024464D01*
X029893Y024558D01*
X029847Y024604D01*
X030204Y024558D02*
X030204Y024464D01*
X030250Y024418D01*
X030344Y024464D02*
X030344Y024558D01*
X030297Y024604D01*
X030250Y024604D01*
X030204Y024558D01*
X030204Y024712D02*
X030204Y024852D01*
X030250Y024899D01*
X030437Y024899D01*
X030484Y024852D01*
X030484Y024712D01*
X030204Y024712D01*
X030437Y024604D02*
X030484Y024558D01*
X030484Y024464D01*
X030437Y024418D01*
X030391Y024418D01*
X030344Y024464D01*
X030873Y024464D02*
X030873Y024558D01*
X030920Y024604D01*
X031013Y024604D01*
X031013Y024511D01*
X030920Y024418D02*
X031107Y024418D01*
X031153Y024464D01*
X031153Y024558D01*
X031107Y024604D01*
X031153Y024712D02*
X030873Y024899D01*
X031153Y024899D01*
X031153Y025007D02*
X030873Y025007D01*
X030873Y025147D01*
X030920Y025194D01*
X031107Y025194D01*
X031153Y025147D01*
X031153Y025007D01*
X031153Y024712D02*
X030873Y024712D01*
X030873Y024464D02*
X030920Y024418D01*
X030391Y025007D02*
X030484Y025100D01*
X030391Y025194D01*
X030204Y025194D01*
X030344Y025194D02*
X030344Y025007D01*
X030391Y025007D02*
X030204Y025007D01*
D248*
X017073Y008413D02*
X017034Y008413D01*
X017034Y008650D01*
X017073Y008650D01*
X017073Y008413D01*
M02*
