G75*
G70*
%OFA0B0*%
%FSLAX24Y24*%
%IPPOS*%
%LPD*%
%AMOC8*
5,1,8,0,0,1.08239X$1,22.5*
%
%ADD10C,0.0000*%
%ADD11R,0.0472X0.0787*%
%ADD12C,0.0055*%
%ADD13R,0.0709X0.0197*%
%ADD14R,0.0315X0.0472*%
%ADD15R,0.0157X0.0787*%
%ADD16R,0.0709X0.0748*%
%ADD17R,0.0394X0.0433*%
%ADD18R,0.0220X0.0102*%
%ADD19R,0.0394X0.0394*%
%ADD20R,0.0118X0.0118*%
%ADD21R,0.0102X0.0220*%
%ADD22R,0.1181X0.0394*%
%ADD23R,0.0512X0.0630*%
%ADD24R,0.0472X0.0315*%
%ADD25R,0.0425X0.0413*%
%ADD26R,0.0500X0.1000*%
%ADD27R,0.0240X0.0870*%
%ADD28R,0.0240X0.0810*%
%ADD29R,0.0900X0.0900*%
%ADD30R,0.0579X0.0500*%
%ADD31R,0.1350X0.0720*%
%ADD32R,0.0433X0.0394*%
%ADD33R,0.0709X0.0630*%
%ADD34R,0.0354X0.0315*%
%ADD35R,0.0276X0.0354*%
%ADD36C,0.0098*%
%ADD37R,0.0276X0.0276*%
%ADD38R,0.0098X0.0256*%
%ADD39R,0.0256X0.0098*%
%ADD40R,0.0870X0.0240*%
%ADD41R,0.0512X0.0748*%
%ADD42R,0.0669X0.0276*%
%ADD43C,0.0059*%
%ADD44R,0.0380X0.0400*%
%ADD45R,0.0217X0.0472*%
D10*
X013333Y009043D02*
X013333Y040736D01*
X013335Y040813D01*
X013341Y040890D01*
X013350Y040967D01*
X013363Y041043D01*
X013380Y041119D01*
X013401Y041193D01*
X013425Y041267D01*
X013453Y041339D01*
X013484Y041409D01*
X013519Y041478D01*
X013557Y041546D01*
X013598Y041611D01*
X013643Y041674D01*
X013691Y041735D01*
X013741Y041794D01*
X013794Y041850D01*
X013850Y041903D01*
X013909Y041953D01*
X013970Y042001D01*
X014033Y042046D01*
X014098Y042087D01*
X014166Y042125D01*
X014235Y042160D01*
X014305Y042191D01*
X014377Y042219D01*
X014451Y042243D01*
X014525Y042264D01*
X014601Y042281D01*
X014677Y042294D01*
X014754Y042303D01*
X014831Y042309D01*
X014908Y042311D01*
X030105Y042311D01*
X030182Y042309D01*
X030259Y042303D01*
X030336Y042294D01*
X030412Y042281D01*
X030488Y042264D01*
X030562Y042243D01*
X030636Y042219D01*
X030708Y042191D01*
X030778Y042160D01*
X030847Y042125D01*
X030915Y042087D01*
X030980Y042046D01*
X031043Y042001D01*
X031104Y041953D01*
X031163Y041903D01*
X031219Y041850D01*
X031272Y041794D01*
X031322Y041735D01*
X031370Y041674D01*
X031415Y041611D01*
X031456Y041546D01*
X031494Y041478D01*
X031529Y041409D01*
X031560Y041339D01*
X031588Y041267D01*
X031612Y041193D01*
X031633Y041119D01*
X031650Y041043D01*
X031663Y040967D01*
X031672Y040890D01*
X031678Y040813D01*
X031680Y040736D01*
X031640Y023925D01*
X031640Y009043D01*
X031641Y009043D02*
X031639Y008966D01*
X031633Y008889D01*
X031624Y008812D01*
X031611Y008736D01*
X031594Y008660D01*
X031573Y008586D01*
X031549Y008512D01*
X031521Y008440D01*
X031490Y008370D01*
X031455Y008301D01*
X031417Y008233D01*
X031376Y008168D01*
X031331Y008105D01*
X031283Y008044D01*
X031233Y007985D01*
X031180Y007929D01*
X031124Y007876D01*
X031065Y007826D01*
X031004Y007778D01*
X030941Y007733D01*
X030876Y007692D01*
X030808Y007654D01*
X030739Y007619D01*
X030669Y007588D01*
X030597Y007560D01*
X030523Y007536D01*
X030449Y007515D01*
X030373Y007498D01*
X030297Y007485D01*
X030220Y007476D01*
X030143Y007470D01*
X030066Y007468D01*
X030066Y007469D02*
X014908Y007469D01*
X014908Y007468D02*
X014831Y007470D01*
X014754Y007476D01*
X014677Y007485D01*
X014601Y007498D01*
X014525Y007515D01*
X014451Y007536D01*
X014377Y007560D01*
X014305Y007588D01*
X014235Y007619D01*
X014166Y007654D01*
X014098Y007692D01*
X014033Y007733D01*
X013970Y007778D01*
X013909Y007826D01*
X013850Y007876D01*
X013794Y007929D01*
X013741Y007985D01*
X013691Y008044D01*
X013643Y008105D01*
X013598Y008168D01*
X013557Y008233D01*
X013519Y008301D01*
X013484Y008370D01*
X013453Y008440D01*
X013425Y008512D01*
X013401Y008586D01*
X013380Y008660D01*
X013363Y008736D01*
X013350Y008812D01*
X013341Y008889D01*
X013335Y008966D01*
X013333Y009043D01*
X014632Y014949D02*
X014634Y014997D01*
X014640Y015045D01*
X014650Y015092D01*
X014663Y015138D01*
X014681Y015183D01*
X014701Y015227D01*
X014726Y015269D01*
X014754Y015308D01*
X014784Y015345D01*
X014818Y015379D01*
X014855Y015411D01*
X014893Y015440D01*
X014934Y015465D01*
X014977Y015487D01*
X015022Y015505D01*
X015068Y015519D01*
X015115Y015530D01*
X015163Y015537D01*
X015211Y015540D01*
X015259Y015539D01*
X015307Y015534D01*
X015355Y015525D01*
X015401Y015513D01*
X015446Y015496D01*
X015490Y015476D01*
X015532Y015453D01*
X015572Y015426D01*
X015610Y015396D01*
X015645Y015363D01*
X015677Y015327D01*
X015707Y015289D01*
X015733Y015248D01*
X015755Y015205D01*
X015775Y015161D01*
X015790Y015116D01*
X015802Y015069D01*
X015810Y015021D01*
X015814Y014973D01*
X015814Y014925D01*
X015810Y014877D01*
X015802Y014829D01*
X015790Y014782D01*
X015775Y014737D01*
X015755Y014693D01*
X015733Y014650D01*
X015707Y014609D01*
X015677Y014571D01*
X015645Y014535D01*
X015610Y014502D01*
X015572Y014472D01*
X015532Y014445D01*
X015490Y014422D01*
X015446Y014402D01*
X015401Y014385D01*
X015355Y014373D01*
X015307Y014364D01*
X015259Y014359D01*
X015211Y014358D01*
X015163Y014361D01*
X015115Y014368D01*
X015068Y014379D01*
X015022Y014393D01*
X014977Y014411D01*
X014934Y014433D01*
X014893Y014458D01*
X014855Y014487D01*
X014818Y014519D01*
X014784Y014553D01*
X014754Y014590D01*
X014726Y014629D01*
X014701Y014671D01*
X014681Y014715D01*
X014663Y014760D01*
X014650Y014806D01*
X014640Y014853D01*
X014634Y014901D01*
X014632Y014949D01*
D11*
X022967Y026130D03*
X023755Y026130D03*
X024542Y026130D03*
X025329Y026130D03*
X026117Y026130D03*
X026904Y026130D03*
X027692Y026130D03*
X028479Y026130D03*
X028479Y032508D03*
X027692Y032508D03*
X026904Y032508D03*
X026117Y032508D03*
X025329Y032508D03*
X024542Y032508D03*
X023755Y032508D03*
X022967Y032508D03*
D12*
X020916Y020948D02*
X020916Y020726D01*
X020262Y020726D01*
X020262Y020948D01*
X020916Y020948D01*
X020916Y020780D02*
X020262Y020780D01*
X020262Y020834D02*
X020916Y020834D01*
X020916Y020888D02*
X020262Y020888D01*
X020262Y020942D02*
X020916Y020942D01*
X020916Y020448D02*
X020916Y020226D01*
X020262Y020226D01*
X020262Y020448D01*
X020916Y020448D01*
X020916Y020280D02*
X020262Y020280D01*
X020262Y020334D02*
X020916Y020334D01*
X020916Y020388D02*
X020262Y020388D01*
X020262Y020442D02*
X020916Y020442D01*
X020916Y019948D02*
X020916Y019726D01*
X020262Y019726D01*
X020262Y019948D01*
X020916Y019948D01*
X020916Y019780D02*
X020262Y019780D01*
X020262Y019834D02*
X020916Y019834D01*
X020916Y019888D02*
X020262Y019888D01*
X020262Y019942D02*
X020916Y019942D01*
X020916Y019448D02*
X020916Y019226D01*
X020262Y019226D01*
X020262Y019448D01*
X020916Y019448D01*
X020916Y019280D02*
X020262Y019280D01*
X020262Y019334D02*
X020916Y019334D01*
X020916Y019388D02*
X020262Y019388D01*
X020262Y019442D02*
X020916Y019442D01*
X020916Y018948D02*
X020916Y018726D01*
X020262Y018726D01*
X020262Y018948D01*
X020916Y018948D01*
X020916Y018780D02*
X020262Y018780D01*
X020262Y018834D02*
X020916Y018834D01*
X020916Y018888D02*
X020262Y018888D01*
X020262Y018942D02*
X020916Y018942D01*
X020916Y018448D02*
X020916Y018226D01*
X020262Y018226D01*
X020262Y018448D01*
X020916Y018448D01*
X020916Y018280D02*
X020262Y018280D01*
X020262Y018334D02*
X020916Y018334D01*
X020916Y018388D02*
X020262Y018388D01*
X020262Y018442D02*
X020916Y018442D01*
X020916Y017948D02*
X020916Y017726D01*
X020262Y017726D01*
X020262Y017948D01*
X020916Y017948D01*
X020916Y017780D02*
X020262Y017780D01*
X020262Y017834D02*
X020916Y017834D01*
X020916Y017888D02*
X020262Y017888D01*
X020262Y017942D02*
X020916Y017942D01*
X020916Y017448D02*
X020916Y017226D01*
X020262Y017226D01*
X020262Y017448D01*
X020916Y017448D01*
X020916Y017280D02*
X020262Y017280D01*
X020262Y017334D02*
X020916Y017334D01*
X020916Y017388D02*
X020262Y017388D01*
X020262Y017442D02*
X020916Y017442D01*
D13*
X014589Y024717D03*
X014593Y025307D03*
D14*
X022194Y019071D03*
X022179Y018439D03*
X022888Y018439D03*
X022903Y019071D03*
D15*
X022881Y009004D03*
X023136Y009004D03*
X022625Y009004D03*
X022369Y009004D03*
X022113Y009004D03*
D16*
X021050Y007843D03*
X024199Y007843D03*
D17*
X025282Y010224D03*
X024573Y010894D03*
X023904Y010894D03*
X022782Y011228D03*
X022152Y011228D03*
X022152Y011898D03*
X022782Y011898D03*
X022802Y012547D03*
X022133Y012547D03*
X018766Y009929D03*
X018176Y009929D03*
X018176Y009260D03*
X018766Y009260D03*
X015558Y011720D03*
X014888Y011720D03*
X025951Y010224D03*
X026621Y010224D03*
X027290Y010224D03*
X027408Y009398D03*
X027408Y008768D03*
X027408Y008177D03*
X028077Y008177D03*
X028077Y008768D03*
X028077Y009398D03*
D18*
X019593Y011799D03*
X019593Y011996D03*
X019593Y012193D03*
X019593Y012390D03*
X019593Y012587D03*
X019593Y012783D03*
X019593Y012980D03*
X017782Y012980D03*
X017782Y012783D03*
X017782Y012587D03*
X017782Y012390D03*
X017782Y012193D03*
X017782Y011996D03*
X017782Y011799D03*
D19*
X018688Y012390D03*
D20*
X017861Y013217D03*
D21*
X018097Y013295D03*
X018294Y013295D03*
X018491Y013295D03*
X018688Y013295D03*
X018885Y013295D03*
X019081Y013295D03*
X019278Y013295D03*
X019278Y011484D03*
X019081Y011484D03*
X018885Y011484D03*
X018688Y011484D03*
X018491Y011484D03*
X018294Y011484D03*
X018097Y011484D03*
D22*
X020696Y033094D03*
X020696Y034094D03*
X020696Y035094D03*
X020696Y036094D03*
D23*
X021050Y032390D03*
X020262Y032390D03*
X020223Y031287D03*
X021010Y031287D03*
D24*
X025814Y035264D03*
X025814Y035972D03*
X026916Y034476D03*
X026916Y033768D03*
X027625Y033768D03*
X027625Y034476D03*
X028530Y035185D03*
X028530Y035894D03*
X025341Y025382D03*
X025341Y024673D03*
X023766Y024673D03*
X023766Y025382D03*
X029160Y023965D03*
X029160Y023256D03*
X029751Y023256D03*
X030341Y023256D03*
X030341Y023965D03*
X029751Y023965D03*
D25*
X021601Y036100D03*
X021601Y036789D03*
D26*
X016010Y012744D03*
X014829Y012744D03*
X014114Y012733D03*
D27*
X028922Y020218D03*
X029422Y020218D03*
X029922Y020218D03*
X030422Y020218D03*
X030422Y022278D03*
X029922Y022278D03*
X029422Y022278D03*
X028922Y022278D03*
D28*
X026603Y014119D03*
X026103Y014119D03*
X025603Y014119D03*
X025103Y014119D03*
X025103Y011999D03*
X025603Y011999D03*
X026103Y011999D03*
X026603Y011999D03*
D29*
X025853Y013059D03*
D30*
X024081Y013551D03*
X024081Y011858D03*
D31*
X029318Y012087D03*
X029318Y014267D03*
D32*
X026837Y015087D03*
X026837Y015756D03*
X024810Y015028D03*
X024140Y015028D03*
D33*
X025814Y015224D03*
X025814Y016327D03*
X027467Y013177D03*
X027467Y012075D03*
D34*
X027428Y035598D03*
X027428Y036346D03*
X026601Y035972D03*
D35*
X024731Y015697D03*
X024219Y015697D03*
D36*
X029042Y017331D03*
X029042Y017528D03*
X029042Y017724D03*
X029042Y017921D03*
X029219Y018098D03*
X029416Y018098D03*
X029613Y018098D03*
X029810Y018098D03*
X029987Y017921D03*
X029987Y017724D03*
X029987Y017528D03*
X029987Y017331D03*
X029810Y017154D03*
X029613Y017154D03*
X029416Y017154D03*
X029219Y017154D03*
D37*
X029337Y017449D03*
X029337Y017803D03*
X029692Y017803D03*
X029692Y017449D03*
D38*
X029613Y017026D03*
X029810Y017026D03*
X029416Y017026D03*
X029219Y017026D03*
X029219Y018226D03*
X029416Y018226D03*
X029613Y018226D03*
X029810Y018226D03*
D39*
X030115Y017921D03*
X030115Y017724D03*
X030115Y017528D03*
X030115Y017331D03*
X028914Y017331D03*
X028914Y017528D03*
X028914Y017724D03*
X028914Y017921D03*
D40*
X017159Y027230D03*
X017159Y027730D03*
X017159Y028230D03*
X017159Y028730D03*
X015099Y028730D03*
X015099Y028230D03*
X015099Y027730D03*
X015099Y027230D03*
D41*
X015046Y029988D03*
X015046Y031248D03*
X017211Y031248D03*
X017211Y029988D03*
D42*
X023963Y022390D03*
X023963Y021917D03*
X023963Y021445D03*
D43*
X024937Y021474D02*
X025155Y021474D01*
X024937Y021474D02*
X024937Y021534D01*
X025155Y021534D01*
X025155Y021474D01*
X025155Y021532D02*
X024937Y021532D01*
X024937Y021671D02*
X025155Y021671D01*
X024937Y021671D02*
X024937Y021731D01*
X025155Y021731D01*
X025155Y021671D01*
X025155Y021729D02*
X024937Y021729D01*
X024937Y021868D02*
X025155Y021868D01*
X024937Y021868D02*
X024937Y021928D01*
X025155Y021928D01*
X025155Y021868D01*
X025155Y021926D02*
X024937Y021926D01*
X024937Y022064D02*
X025155Y022064D01*
X024937Y022064D02*
X024937Y022124D01*
X025155Y022124D01*
X025155Y022064D01*
X025155Y022122D02*
X024937Y022122D01*
X024937Y022261D02*
X025155Y022261D01*
X024937Y022261D02*
X024937Y022321D01*
X025155Y022321D01*
X025155Y022261D01*
X025155Y022319D02*
X024937Y022319D01*
X024937Y022458D02*
X025155Y022458D01*
X024937Y022458D02*
X024937Y022518D01*
X025155Y022518D01*
X025155Y022458D01*
X025155Y022516D02*
X024937Y022516D01*
X024937Y022655D02*
X025155Y022655D01*
X024937Y022655D02*
X024937Y022715D01*
X025155Y022715D01*
X025155Y022655D01*
X025155Y022713D02*
X024937Y022713D01*
X024937Y022852D02*
X025155Y022852D01*
X024937Y022852D02*
X024937Y022912D01*
X025155Y022912D01*
X025155Y022852D01*
X025155Y022910D02*
X024937Y022910D01*
X025252Y023009D02*
X025312Y023009D01*
X025252Y023009D02*
X025252Y023227D01*
X025312Y023227D01*
X025312Y023009D01*
X025312Y023067D02*
X025252Y023067D01*
X025252Y023125D02*
X025312Y023125D01*
X025312Y023183D02*
X025252Y023183D01*
X025449Y023009D02*
X025509Y023009D01*
X025449Y023009D02*
X025449Y023227D01*
X025509Y023227D01*
X025509Y023009D01*
X025509Y023067D02*
X025449Y023067D01*
X025449Y023125D02*
X025509Y023125D01*
X025509Y023183D02*
X025449Y023183D01*
X025646Y023009D02*
X025706Y023009D01*
X025646Y023009D02*
X025646Y023227D01*
X025706Y023227D01*
X025706Y023009D01*
X025706Y023067D02*
X025646Y023067D01*
X025646Y023125D02*
X025706Y023125D01*
X025706Y023183D02*
X025646Y023183D01*
X025843Y023009D02*
X025903Y023009D01*
X025843Y023009D02*
X025843Y023227D01*
X025903Y023227D01*
X025903Y023009D01*
X025903Y023067D02*
X025843Y023067D01*
X025843Y023125D02*
X025903Y023125D01*
X025903Y023183D02*
X025843Y023183D01*
X026040Y023009D02*
X026100Y023009D01*
X026040Y023009D02*
X026040Y023227D01*
X026100Y023227D01*
X026100Y023009D01*
X026100Y023067D02*
X026040Y023067D01*
X026040Y023125D02*
X026100Y023125D01*
X026100Y023183D02*
X026040Y023183D01*
X026236Y023009D02*
X026296Y023009D01*
X026236Y023009D02*
X026236Y023227D01*
X026296Y023227D01*
X026296Y023009D01*
X026296Y023067D02*
X026236Y023067D01*
X026236Y023125D02*
X026296Y023125D01*
X026296Y023183D02*
X026236Y023183D01*
X026433Y023009D02*
X026493Y023009D01*
X026433Y023009D02*
X026433Y023227D01*
X026493Y023227D01*
X026493Y023009D01*
X026493Y023067D02*
X026433Y023067D01*
X026433Y023125D02*
X026493Y023125D01*
X026493Y023183D02*
X026433Y023183D01*
X026630Y023009D02*
X026690Y023009D01*
X026630Y023009D02*
X026630Y023227D01*
X026690Y023227D01*
X026690Y023009D01*
X026690Y023067D02*
X026630Y023067D01*
X026630Y023125D02*
X026690Y023125D01*
X026690Y023183D02*
X026630Y023183D01*
X026787Y022852D02*
X027005Y022852D01*
X026787Y022852D02*
X026787Y022912D01*
X027005Y022912D01*
X027005Y022852D01*
X027005Y022910D02*
X026787Y022910D01*
X026787Y022655D02*
X027005Y022655D01*
X026787Y022655D02*
X026787Y022715D01*
X027005Y022715D01*
X027005Y022655D01*
X027005Y022713D02*
X026787Y022713D01*
X026787Y022458D02*
X027005Y022458D01*
X026787Y022458D02*
X026787Y022518D01*
X027005Y022518D01*
X027005Y022458D01*
X027005Y022516D02*
X026787Y022516D01*
X026787Y022261D02*
X027005Y022261D01*
X026787Y022261D02*
X026787Y022321D01*
X027005Y022321D01*
X027005Y022261D01*
X027005Y022319D02*
X026787Y022319D01*
X026787Y022064D02*
X027005Y022064D01*
X026787Y022064D02*
X026787Y022124D01*
X027005Y022124D01*
X027005Y022064D01*
X027005Y022122D02*
X026787Y022122D01*
X026787Y021868D02*
X027005Y021868D01*
X026787Y021868D02*
X026787Y021928D01*
X027005Y021928D01*
X027005Y021868D01*
X027005Y021926D02*
X026787Y021926D01*
X026787Y021671D02*
X027005Y021671D01*
X026787Y021671D02*
X026787Y021731D01*
X027005Y021731D01*
X027005Y021671D01*
X027005Y021729D02*
X026787Y021729D01*
X026787Y021474D02*
X027005Y021474D01*
X026787Y021474D02*
X026787Y021534D01*
X027005Y021534D01*
X027005Y021474D01*
X027005Y021532D02*
X026787Y021532D01*
X026690Y021159D02*
X026630Y021159D01*
X026630Y021377D01*
X026690Y021377D01*
X026690Y021159D01*
X026690Y021217D02*
X026630Y021217D01*
X026630Y021275D02*
X026690Y021275D01*
X026690Y021333D02*
X026630Y021333D01*
X026493Y021159D02*
X026433Y021159D01*
X026433Y021377D01*
X026493Y021377D01*
X026493Y021159D01*
X026493Y021217D02*
X026433Y021217D01*
X026433Y021275D02*
X026493Y021275D01*
X026493Y021333D02*
X026433Y021333D01*
X026296Y021159D02*
X026236Y021159D01*
X026236Y021377D01*
X026296Y021377D01*
X026296Y021159D01*
X026296Y021217D02*
X026236Y021217D01*
X026236Y021275D02*
X026296Y021275D01*
X026296Y021333D02*
X026236Y021333D01*
X026100Y021159D02*
X026040Y021159D01*
X026040Y021377D01*
X026100Y021377D01*
X026100Y021159D01*
X026100Y021217D02*
X026040Y021217D01*
X026040Y021275D02*
X026100Y021275D01*
X026100Y021333D02*
X026040Y021333D01*
X025903Y021159D02*
X025843Y021159D01*
X025843Y021377D01*
X025903Y021377D01*
X025903Y021159D01*
X025903Y021217D02*
X025843Y021217D01*
X025843Y021275D02*
X025903Y021275D01*
X025903Y021333D02*
X025843Y021333D01*
X025706Y021159D02*
X025646Y021159D01*
X025646Y021377D01*
X025706Y021377D01*
X025706Y021159D01*
X025706Y021217D02*
X025646Y021217D01*
X025646Y021275D02*
X025706Y021275D01*
X025706Y021333D02*
X025646Y021333D01*
X025509Y021159D02*
X025449Y021159D01*
X025449Y021377D01*
X025509Y021377D01*
X025509Y021159D01*
X025509Y021217D02*
X025449Y021217D01*
X025449Y021275D02*
X025509Y021275D01*
X025509Y021333D02*
X025449Y021333D01*
X025312Y021159D02*
X025252Y021159D01*
X025252Y021377D01*
X025312Y021377D01*
X025312Y021159D01*
X025312Y021217D02*
X025252Y021217D01*
X025252Y021275D02*
X025312Y021275D01*
X025312Y021333D02*
X025252Y021333D01*
D44*
X024514Y024654D03*
X024514Y025323D03*
X028609Y023906D03*
X028609Y023236D03*
D45*
X022133Y017626D03*
X021759Y017626D03*
X021385Y017626D03*
X021385Y016602D03*
X021759Y016602D03*
X022133Y016602D03*
M02*
