%
M48
M72
T01C0.0150
T02C0.0157
T03C0.0197
T04C0.0236
T05C0.0787
T06C0.0984
T07C0.1181
%
T01
X29308Y17419
X29721Y17419
X29721Y17833
X29308Y17833
T02
X28491Y18531
X28058Y17862
X27743Y17469
X28333Y17154
X28688Y16839
X29081Y16524
X30735Y17862
X30853Y18531
X30420Y19122
X29948Y19122
X29475Y19122
X28845Y19437
X26483Y21957
X25499Y22350
X24672Y22705
X24829Y23098
X24121Y23295
X24514Y24555
X26877Y23571
X27034Y23138
X27743Y22587
X28097Y22862
X28491Y22626
X22349Y17469
X19396Y17862
X19514Y22862
T03
X20381Y23217
X19790Y24398
X19751Y24870
X19633Y25618
X18018Y26484
X18058Y28492
X19554Y28492
X20026Y30224
X18491Y30224
X21837Y30657
X22983Y30139
X23562Y31265
X23176Y31799
X25459Y31406
X25774Y30815
X27703Y31169
X27270Y34476
X29042Y36602
X30617Y36366
X28530Y27744
X26916Y26917
X25341Y26681
X26286Y24909
X26995Y25028
X29711Y25146
X30341Y25539
X30341Y24555
X29711Y24358
X29948Y22705
X30459Y22547
X27428Y19673
X26877Y20421
X26640Y19988
X25892Y19043
X26444Y18413
X27822Y18886
X24829Y19594
X24318Y20382
X24003Y19988
X22900Y19201
X23058Y18413
X23333Y17980
X22546Y17902
X23294Y17114
X23215Y16524
X22743Y16366
X22270Y16524
X21759Y16996
X21247Y16839
X21325Y17350
X21601Y18886
X22192Y19634
X21660Y19969
X21365Y20382
X19711Y19319
X22467Y15894
X24908Y16799
X24633Y17705
X23255Y22508
X17979Y24280
X16050Y12193
X14948Y10972
X17703Y11445
X18412Y8610
X19554Y8098
X24042Y8531
X26719Y8846
X26837Y8177
T04
X14081Y10146
X14081Y10618
X15527Y11478
X16995Y10185
X17448Y9840
X17034Y9240
X18839Y10848
X19790Y10657
X20826Y11403
X20341Y12311
X20774Y13728
X20499Y14358
X19829Y14358
X18375Y14418
X17055Y12733
X16286Y13217
X16050Y13728
X17310Y16327
X17270Y18689
X17270Y21051
X17270Y22272
X19948Y21996
X23476Y20960
X24750Y20938
X25499Y24201
X27979Y23965
X29160Y23965
X28924Y21878
X30341Y21248
X30932Y20264
X29783Y16114
X29656Y14240
X28987Y14240
X28255Y14240
X28176Y14988
X27546Y13886
X27113Y13886
X26089Y12783
X25656Y12783
X24121Y12665
X23766Y13217
X23333Y13886
X22703Y13886
X22034Y13610
X22703Y13138
X23412Y12508
X23294Y11524
X23097Y10185
X22251Y9780
X24003Y9437
X25144Y9437
X25970Y11246
X28412Y10382
X29121Y11091
X29908Y11091
X29736Y12035
X29647Y12823
X29003Y12823
X29644Y13531
X28869Y12035
X25597Y14417
X25223Y16287
X21837Y14437
X18688Y12390
X20262Y9280
X21759Y18059
X14357Y24083
X14199Y27272
X19042Y27350
X19396Y27783
X22419Y28431
X22958Y26849
X22407Y26131
X24506Y26935
X25577Y27783
X26247Y27350
X25608Y29140
X22113Y31548
X21798Y33059
X19703Y32211
X17388Y33689
X17388Y34752
X17428Y36012
X16050Y36012
X16050Y34791
X16050Y33689
X19239Y34752
X19239Y36012
X20892Y36720
X22152Y36602
X22900Y36130
X22743Y35343
X21719Y35343
X23727Y35343
X23727Y36130
X26247Y36406
X26640Y35224
T05
X29770Y9988
X15203Y9988
T06
X29790Y35421
T07
X15223Y14949
M30
