G75*
G70*
%OFA0B0*%
%FSLAX24Y24*%
%IPPOS*%
%LPD*%
%AMOC8*
5,1,8,0,0,1.08239X$1,22.5*
%
%ADD10C,0.0070*%
%ADD11R,0.0360X0.0020*%
%ADD12R,0.0040X0.0020*%
%ADD13R,0.0160X0.0020*%
%ADD14R,0.0080X0.0020*%
%ADD15R,0.0280X0.0020*%
%ADD16R,0.1060X0.0020*%
%ADD17R,0.0480X0.0020*%
%ADD18R,0.1140X0.0020*%
%ADD19R,0.1160X0.0020*%
%ADD20R,0.0600X0.0020*%
%ADD21R,0.1220X0.0020*%
%ADD22R,0.0020X0.0020*%
%ADD23R,0.0400X0.0020*%
%ADD24R,0.0700X0.0020*%
%ADD25R,0.1260X0.0020*%
%ADD26R,0.0440X0.0020*%
%ADD27R,0.0800X0.0020*%
%ADD28R,0.1300X0.0020*%
%ADD29R,0.1320X0.0020*%
%ADD30R,0.0500X0.0020*%
%ADD31R,0.0860X0.0020*%
%ADD32R,0.1340X0.0020*%
%ADD33R,0.0540X0.0020*%
%ADD34R,0.0940X0.0020*%
%ADD35R,0.1380X0.0020*%
%ADD36R,0.0200X0.0020*%
%ADD37R,0.1000X0.0020*%
%ADD38R,0.1400X0.0020*%
%ADD39R,0.1420X0.0020*%
%ADD40R,0.0180X0.0020*%
%ADD41R,0.0140X0.0020*%
%ADD42R,0.1440X0.0020*%
%ADD43R,0.0100X0.0020*%
%ADD44R,0.1120X0.0020*%
%ADD45R,0.1460X0.0020*%
%ADD46R,0.1480X0.0020*%
%ADD47R,0.0060X0.0020*%
%ADD48R,0.1500X0.0020*%
%ADD49R,0.1200X0.0020*%
%ADD50R,0.1520X0.0020*%
%ADD51R,0.1540X0.0020*%
%ADD52R,0.1560X0.0020*%
%ADD53R,0.1580X0.0020*%
%ADD54R,0.1360X0.0020*%
%ADD55R,0.1600X0.0020*%
%ADD56R,0.1620X0.0020*%
%ADD57R,0.1640X0.0020*%
%ADD58R,0.0620X0.0020*%
%ADD59R,0.0640X0.0020*%
%ADD60R,0.0380X0.0020*%
%ADD61R,0.0560X0.0020*%
%ADD62R,0.0580X0.0020*%
%ADD63R,0.0520X0.0020*%
%ADD64R,0.0460X0.0020*%
%ADD65R,0.0420X0.0020*%
%ADD66R,0.0220X0.0020*%
%ADD67R,0.1180X0.0020*%
%ADD68R,0.1100X0.0020*%
%ADD69R,0.1020X0.0020*%
%ADD70R,0.0780X0.0020*%
%ADD71R,0.0300X0.0020*%
%ADD72C,0.0050*%
%ADD73R,0.0220X0.0010*%
%ADD74C,0.0060*%
%ADD75C,0.0040*%
%ADD76C,0.0080*%
%ADD77C,0.0030*%
%ADD78C,0.0059*%
%ADD79C,0.0010*%
%ADD80C,0.0200*%
%ADD81C,0.0100*%
D10*
X015366Y038576D02*
X015366Y038907D01*
X015531Y038907D01*
X015586Y038852D01*
X015586Y038742D01*
X015531Y038686D01*
X015366Y038686D01*
X015218Y038742D02*
X015218Y038852D01*
X015163Y038907D01*
X015053Y038907D01*
X014998Y038852D01*
X014998Y038742D01*
X015053Y038686D01*
X015163Y038686D01*
X015218Y038742D01*
X014850Y038742D02*
X014795Y038686D01*
X014684Y038686D01*
X014629Y038742D01*
X014629Y038962D01*
X014684Y039017D01*
X014795Y039017D01*
X014850Y038962D01*
X015734Y038907D02*
X015734Y038742D01*
X015789Y038686D01*
X015955Y038686D01*
X015955Y038631D02*
X015900Y038576D01*
X015844Y038576D01*
X015955Y038631D02*
X015955Y038907D01*
X016103Y038907D02*
X016103Y038686D01*
X016103Y038797D02*
X016213Y038907D01*
X016268Y038907D01*
X016410Y038907D02*
X016465Y038907D01*
X016465Y038686D01*
X016410Y038686D02*
X016520Y038686D01*
X016655Y038742D02*
X016710Y038686D01*
X016875Y038686D01*
X016875Y038631D02*
X016875Y038907D01*
X016710Y038907D01*
X016655Y038852D01*
X016655Y038742D01*
X016765Y038576D02*
X016820Y038576D01*
X016875Y038631D01*
X017023Y038686D02*
X017023Y039017D01*
X017079Y038907D02*
X017189Y038907D01*
X017244Y038852D01*
X017244Y038686D01*
X017447Y038742D02*
X017502Y038686D01*
X017447Y038742D02*
X017447Y038962D01*
X017392Y038907D02*
X017502Y038907D01*
X017079Y038907D02*
X017023Y038852D01*
X016465Y039017D02*
X016465Y039072D01*
X018006Y038907D02*
X018116Y039017D01*
X018251Y038962D02*
X018251Y038742D01*
X018306Y038686D01*
X018416Y038686D01*
X018471Y038742D01*
X018620Y038686D02*
X018730Y038797D01*
X018730Y038907D01*
X018620Y039017D01*
X018471Y038962D02*
X018416Y039017D01*
X018306Y039017D01*
X018251Y038962D01*
X018006Y038907D02*
X018006Y038797D01*
X018116Y038686D01*
X019233Y038686D02*
X019454Y038907D01*
X019454Y038962D01*
X019399Y039017D01*
X019288Y039017D01*
X019233Y038962D01*
X019233Y038686D02*
X019454Y038686D01*
X019602Y038742D02*
X019822Y038962D01*
X019822Y038742D01*
X019767Y038686D01*
X019657Y038686D01*
X019602Y038742D01*
X019602Y038962D01*
X019657Y039017D01*
X019767Y039017D01*
X019822Y038962D01*
X019970Y038907D02*
X020080Y039017D01*
X020080Y038686D01*
X019970Y038686D02*
X020190Y038686D01*
X020338Y038742D02*
X020393Y038686D01*
X020503Y038686D01*
X020558Y038742D01*
X020558Y038797D01*
X020503Y038852D01*
X020338Y038852D01*
X020338Y038742D01*
X020338Y038852D02*
X020448Y038962D01*
X020558Y039017D01*
X021075Y038907D02*
X021185Y039017D01*
X021295Y038907D01*
X021295Y038686D01*
X021443Y038686D02*
X021443Y038907D01*
X021608Y038907D01*
X021663Y038852D01*
X021663Y038686D01*
X021812Y038742D02*
X021812Y038852D01*
X021867Y038907D01*
X022032Y038907D01*
X022032Y039017D02*
X022032Y038686D01*
X021867Y038686D01*
X021812Y038742D01*
X022180Y038797D02*
X022290Y038907D01*
X022345Y038907D01*
X022487Y038852D02*
X022542Y038907D01*
X022652Y038907D01*
X022707Y038852D01*
X022707Y038797D01*
X022487Y038797D01*
X022487Y038742D02*
X022487Y038852D01*
X022487Y038742D02*
X022542Y038686D01*
X022652Y038686D01*
X022542Y039017D02*
X022652Y039072D01*
X022180Y038907D02*
X022180Y038686D01*
X021295Y038852D02*
X021075Y038852D01*
X021075Y038907D02*
X021075Y038686D01*
X023223Y038686D02*
X023223Y039017D01*
X023389Y039017D01*
X023444Y038962D01*
X023444Y038852D01*
X023389Y038797D01*
X023223Y038797D01*
X023592Y038797D02*
X023812Y038797D01*
X023812Y038852D01*
X023757Y038907D01*
X023647Y038907D01*
X023592Y038852D01*
X023592Y038742D01*
X023647Y038686D01*
X023757Y038686D01*
X023960Y038742D02*
X023960Y038852D01*
X024015Y038907D01*
X024180Y038907D01*
X024180Y039017D02*
X024180Y038686D01*
X024015Y038686D01*
X023960Y038742D01*
X024328Y038797D02*
X024438Y038907D01*
X024494Y038907D01*
X024635Y038852D02*
X024635Y038742D01*
X024690Y038686D01*
X024800Y038686D01*
X024855Y038742D01*
X024855Y038852D01*
X024800Y038907D01*
X024690Y038907D01*
X024635Y038852D01*
X024328Y038907D02*
X024328Y038686D01*
D11*
X023123Y039999D03*
X023123Y040579D03*
X022143Y040579D03*
X022143Y040559D03*
X022143Y040539D03*
X022143Y040519D03*
X022143Y040499D03*
X022143Y040479D03*
X022143Y040459D03*
X022143Y040439D03*
X022143Y040419D03*
X022143Y040399D03*
X022143Y040379D03*
X022143Y040359D03*
X022143Y040339D03*
X022143Y040599D03*
X022143Y040619D03*
X022143Y040639D03*
X022143Y040659D03*
X022143Y040679D03*
X022143Y040699D03*
X022143Y040719D03*
X022143Y040739D03*
X022143Y040759D03*
X022143Y040779D03*
X022143Y040799D03*
X022143Y040819D03*
X022143Y040839D03*
X022143Y040859D03*
X022143Y040879D03*
X022143Y040899D03*
X022143Y040919D03*
X022143Y040939D03*
X022143Y040959D03*
X022123Y041019D03*
X022123Y041039D03*
X022143Y039959D03*
X022143Y039939D03*
X022143Y039919D03*
X022143Y039899D03*
X022143Y039879D03*
X022143Y039859D03*
X022143Y039839D03*
X022143Y039819D03*
X022143Y039799D03*
X022143Y039779D03*
X022143Y039759D03*
X022143Y039739D03*
X022143Y039719D03*
X022143Y039699D03*
X022143Y039679D03*
X022143Y039659D03*
X022143Y039639D03*
X022143Y039619D03*
X022143Y039599D03*
X022143Y039579D03*
X022143Y039559D03*
X022143Y039539D03*
X022143Y039519D03*
X022143Y039499D03*
X022143Y039479D03*
X022143Y039459D03*
X022143Y039439D03*
X022143Y039419D03*
X022143Y039399D03*
X022143Y039379D03*
X022143Y039359D03*
X022143Y039339D03*
X022143Y039319D03*
X022143Y039299D03*
X022143Y039279D03*
X022143Y039259D03*
X022143Y039239D03*
X020703Y040719D03*
X020703Y040739D03*
X020703Y040759D03*
X020683Y040819D03*
X020683Y040839D03*
X020683Y040859D03*
X020683Y040879D03*
X020683Y040899D03*
X020683Y040919D03*
X020683Y040939D03*
X020703Y040999D03*
X020703Y041019D03*
X020703Y041039D03*
X020203Y041019D03*
X020203Y040999D03*
X020203Y040979D03*
X020203Y040959D03*
X020203Y040939D03*
X020183Y041079D03*
X018783Y041059D03*
X018763Y040999D03*
X018763Y040979D03*
X018763Y040959D03*
X018763Y040939D03*
X018763Y040919D03*
X018763Y040899D03*
X018763Y040879D03*
X018763Y040859D03*
X018763Y040839D03*
X018763Y040819D03*
X018763Y040799D03*
X018763Y040779D03*
X018763Y040759D03*
X018783Y040699D03*
X018283Y040799D03*
X018283Y040819D03*
X018283Y040839D03*
X018283Y040859D03*
X018283Y040879D03*
X018283Y040899D03*
X018283Y040919D03*
X018283Y040939D03*
X018283Y040959D03*
X018263Y041019D03*
X018263Y041039D03*
X018263Y040739D03*
X018263Y040719D03*
X016823Y040719D03*
X016823Y040699D03*
X016823Y040679D03*
X016823Y040659D03*
X016823Y040639D03*
X016823Y040619D03*
X016823Y040599D03*
X016823Y040579D03*
X016823Y040559D03*
X016823Y040539D03*
X016823Y040519D03*
X016823Y040499D03*
X016823Y040479D03*
X016823Y040459D03*
X016823Y040439D03*
X016823Y040419D03*
X016823Y040399D03*
X016823Y040379D03*
X016823Y040359D03*
X016823Y040339D03*
X016823Y039959D03*
X016823Y039939D03*
X016823Y039919D03*
X016823Y039899D03*
X016823Y039879D03*
X016823Y039859D03*
X016823Y039839D03*
X016823Y039819D03*
X016823Y039799D03*
X016823Y039779D03*
X016823Y039759D03*
X016823Y039739D03*
X016823Y039719D03*
X016823Y039699D03*
X016823Y039679D03*
X016823Y039659D03*
X016823Y039639D03*
X016823Y039619D03*
X016823Y039599D03*
X016823Y039579D03*
X016823Y039559D03*
X016823Y039539D03*
X016823Y039519D03*
X016823Y039499D03*
X016823Y039479D03*
X016823Y039459D03*
X016823Y039439D03*
X016823Y039419D03*
X016823Y039399D03*
X016823Y039379D03*
X016823Y039359D03*
X016823Y039339D03*
X016823Y039319D03*
X016823Y039299D03*
X016823Y039279D03*
X016823Y039259D03*
X016823Y039239D03*
X016823Y040739D03*
X016823Y040759D03*
X016823Y040779D03*
X016823Y040799D03*
X016823Y040819D03*
X016823Y040839D03*
X016823Y040859D03*
X016823Y040879D03*
X016823Y040899D03*
X016823Y040919D03*
X016823Y040939D03*
X016843Y040999D03*
X016843Y041019D03*
X016843Y041039D03*
X016343Y040919D03*
X016343Y040899D03*
X016343Y040879D03*
X016343Y040859D03*
X016343Y040839D03*
X016323Y040779D03*
X016323Y040759D03*
X016323Y040739D03*
X016323Y040979D03*
X016323Y040999D03*
X016323Y041019D03*
X016323Y041039D03*
X014903Y041039D03*
X014903Y041059D03*
X014883Y040999D03*
X014883Y040979D03*
X014883Y040959D03*
X014883Y040939D03*
X014883Y040919D03*
X014883Y040899D03*
X014883Y040879D03*
X014883Y040859D03*
X014883Y040839D03*
X014883Y040819D03*
X014883Y040799D03*
X014883Y040779D03*
X014903Y040719D03*
X014903Y040699D03*
D12*
X022463Y040079D03*
X022463Y040059D03*
X022483Y039999D03*
X022503Y039979D03*
X022583Y039939D03*
X022663Y039979D03*
X022683Y039999D03*
X022703Y040059D03*
X022703Y040079D03*
X022683Y040119D03*
X022683Y040139D03*
X022583Y040199D03*
X022483Y040139D03*
X023503Y040519D03*
D13*
X023123Y040619D03*
X022903Y040439D03*
X022883Y040419D03*
X022883Y040159D03*
X022903Y040139D03*
X023123Y039959D03*
X022583Y039959D03*
X022583Y040179D03*
D14*
X023523Y040539D03*
X023663Y040539D03*
X023663Y040519D03*
X023663Y040499D03*
X023663Y040479D03*
X023663Y040459D03*
X023663Y040439D03*
X023663Y040419D03*
X023663Y040399D03*
X023663Y040379D03*
X023663Y040359D03*
X023663Y040339D03*
X023663Y040319D03*
X023663Y040299D03*
X023663Y040279D03*
X023663Y040259D03*
X023663Y040239D03*
X023663Y040219D03*
X023663Y040199D03*
X023663Y040179D03*
X023663Y040159D03*
X023663Y040139D03*
X023663Y040119D03*
X023663Y040099D03*
X023663Y040079D03*
X023663Y040059D03*
X023663Y040039D03*
X023663Y040019D03*
X023663Y039999D03*
X023663Y039979D03*
X023663Y039959D03*
D15*
X023123Y039979D03*
X023123Y040599D03*
X019483Y041779D03*
X015603Y041779D03*
X015603Y039979D03*
D16*
X015613Y040139D03*
X015613Y041619D03*
X017173Y039979D03*
X017553Y041619D03*
X019493Y041619D03*
X019873Y039979D03*
X021413Y041619D03*
X021793Y039979D03*
D17*
X023123Y040539D03*
X020023Y041339D03*
X019483Y041759D03*
X018943Y041339D03*
X018923Y041319D03*
X018923Y040439D03*
X018943Y040419D03*
X016143Y040419D03*
X015603Y039999D03*
X015063Y040419D03*
X015063Y041339D03*
X015603Y041759D03*
D18*
X017213Y039999D03*
X021753Y039999D03*
D19*
X019823Y039999D03*
X019483Y041579D03*
X015603Y041579D03*
X015603Y040179D03*
D20*
X015603Y040019D03*
X015603Y041739D03*
X019483Y041739D03*
D21*
X019793Y040019D03*
X021413Y041559D03*
X021713Y040019D03*
X017553Y041559D03*
X017253Y040019D03*
X015613Y041559D03*
D22*
X022473Y040119D03*
X022473Y040099D03*
X022473Y040039D03*
X022473Y040019D03*
X022693Y040019D03*
X022693Y040039D03*
X022693Y040099D03*
X023313Y040179D03*
X023313Y040399D03*
D23*
X023123Y040559D03*
X023123Y040019D03*
X022083Y041159D03*
X022063Y041179D03*
X022063Y041199D03*
X020763Y041199D03*
X020763Y041179D03*
X020743Y041159D03*
X020723Y040659D03*
X020743Y040599D03*
X020763Y040579D03*
X020763Y040559D03*
X020163Y041139D03*
X020143Y041179D03*
X020123Y041219D03*
X018843Y041199D03*
X018823Y041179D03*
X018823Y041159D03*
X018803Y041119D03*
X018803Y040639D03*
X018823Y040599D03*
X018823Y040579D03*
X018843Y040559D03*
X018223Y040599D03*
X018203Y040579D03*
X018203Y040559D03*
X018223Y041159D03*
X018203Y041199D03*
X016903Y041199D03*
X016903Y041179D03*
X016883Y041159D03*
X016283Y041159D03*
X016283Y041139D03*
X016263Y041179D03*
X016263Y041199D03*
X016283Y040619D03*
X016283Y040599D03*
X016263Y040579D03*
X016263Y040559D03*
X016243Y040539D03*
X014983Y040519D03*
X014963Y040559D03*
X014943Y040579D03*
X014943Y040599D03*
X014923Y041119D03*
X014943Y041159D03*
X014943Y041179D03*
X014963Y041199D03*
X014983Y041239D03*
D24*
X015613Y041719D03*
X015613Y040039D03*
X017553Y041719D03*
X019493Y041719D03*
X021413Y041719D03*
D25*
X021413Y041539D03*
X021693Y040039D03*
X019773Y040039D03*
X019493Y041539D03*
X017553Y041539D03*
X017273Y040039D03*
X015613Y040219D03*
X015613Y041539D03*
D26*
X016203Y041279D03*
X016223Y041259D03*
X016223Y040499D03*
X016203Y040479D03*
X016943Y041259D03*
X016963Y041279D03*
X018143Y041279D03*
X018163Y041259D03*
X018883Y041279D03*
X018883Y040479D03*
X018163Y040499D03*
X018143Y040479D03*
X020083Y041279D03*
X020803Y041259D03*
X020823Y041279D03*
X020803Y040499D03*
X020823Y040479D03*
X022003Y041279D03*
X022023Y041259D03*
X023123Y040039D03*
X015003Y041279D03*
D27*
X015603Y041699D03*
X015603Y040059D03*
X019483Y041699D03*
D28*
X019493Y041519D03*
X021413Y041519D03*
X021673Y040059D03*
X017553Y041519D03*
X017293Y040059D03*
X015613Y040239D03*
X015613Y041519D03*
D29*
X019483Y041499D03*
X019743Y040059D03*
D30*
X018973Y040399D03*
X018093Y040419D03*
X018073Y040399D03*
X018093Y041339D03*
X018073Y041359D03*
X017033Y041359D03*
X017013Y041339D03*
X016153Y041339D03*
X016133Y041359D03*
X015093Y041359D03*
X015093Y040399D03*
X016133Y040399D03*
X020873Y040419D03*
X020893Y040399D03*
X020873Y041339D03*
X020893Y041359D03*
X021933Y041359D03*
X021953Y041339D03*
X023133Y040059D03*
D31*
X021413Y041679D03*
X019493Y041679D03*
X017553Y041679D03*
X015613Y041679D03*
X015613Y040079D03*
D32*
X015613Y040259D03*
X015613Y041499D03*
X017553Y041499D03*
X017313Y040079D03*
X019733Y040079D03*
X021413Y041499D03*
X021653Y040079D03*
D33*
X021913Y041379D03*
X023133Y040499D03*
X023133Y040079D03*
X019973Y041379D03*
X018993Y041379D03*
X018053Y041379D03*
X018993Y040379D03*
X015113Y040379D03*
X015113Y041379D03*
D34*
X015613Y041659D03*
X015613Y040099D03*
X017553Y041659D03*
X019493Y041659D03*
X021413Y041659D03*
D35*
X021413Y041479D03*
X021633Y040099D03*
X019713Y040099D03*
X017333Y040099D03*
X017553Y041479D03*
X015613Y041479D03*
D36*
X022943Y040479D03*
X023303Y040479D03*
X023603Y040579D03*
X023303Y040099D03*
X022943Y040099D03*
D37*
X021403Y041639D03*
X019483Y041639D03*
X015603Y041639D03*
X015603Y040119D03*
D38*
X015603Y040299D03*
X015603Y041459D03*
X017343Y040119D03*
X019483Y041459D03*
D39*
X019693Y040119D03*
X021413Y041439D03*
X021413Y041459D03*
X021613Y040119D03*
X017553Y041439D03*
X017553Y041459D03*
X015613Y040319D03*
D40*
X022913Y040459D03*
X022913Y040119D03*
X023613Y040599D03*
D41*
X023633Y040619D03*
X023313Y040459D03*
X023313Y040119D03*
X022873Y040179D03*
X022873Y040199D03*
X022853Y040219D03*
X022853Y040239D03*
X022853Y040259D03*
X022853Y040279D03*
X022853Y040299D03*
X022853Y040319D03*
X022853Y040339D03*
X022853Y040359D03*
X022873Y040379D03*
X022873Y040399D03*
D42*
X021603Y040139D03*
X019683Y040139D03*
X019483Y041439D03*
X017363Y040139D03*
X015603Y041439D03*
D43*
X023313Y040439D03*
X023313Y040139D03*
X023653Y040639D03*
D44*
X019483Y041599D03*
X015603Y041599D03*
X015603Y040159D03*
D45*
X017373Y040159D03*
X021593Y040159D03*
D46*
X019663Y040159D03*
X017383Y040179D03*
D47*
X022513Y040159D03*
X022653Y040159D03*
X023313Y040159D03*
X023313Y040419D03*
D48*
X021573Y040179D03*
X019653Y040179D03*
D49*
X019483Y041559D03*
X015603Y040199D03*
D50*
X017403Y040199D03*
X019643Y040199D03*
X021563Y040199D03*
D51*
X021553Y040219D03*
X019633Y040219D03*
X017413Y040219D03*
D52*
X017423Y040239D03*
X019623Y040239D03*
X021543Y040239D03*
D53*
X021533Y040259D03*
X019613Y040259D03*
X017433Y040259D03*
D54*
X015603Y040279D03*
X019483Y041479D03*
D55*
X019603Y040279D03*
X021523Y040279D03*
X021523Y040299D03*
X017443Y040299D03*
X017443Y040279D03*
D56*
X017453Y040319D03*
X019593Y040299D03*
X021513Y040319D03*
D57*
X019583Y040319D03*
D58*
X019073Y040339D03*
X019073Y041419D03*
X017553Y041739D03*
X017133Y041419D03*
X015193Y041419D03*
X015193Y040339D03*
X020993Y040339D03*
X020993Y041419D03*
X021413Y041739D03*
D59*
X021823Y041419D03*
X019903Y041419D03*
X017963Y041419D03*
X017963Y040339D03*
X016023Y040339D03*
X016023Y041419D03*
D60*
X016293Y041119D03*
X016293Y041099D03*
X016313Y041079D03*
X016313Y041059D03*
X016333Y040959D03*
X016333Y040939D03*
X016333Y040819D03*
X016333Y040799D03*
X016313Y040719D03*
X016313Y040699D03*
X016313Y040679D03*
X016293Y040659D03*
X016293Y040639D03*
X016833Y040959D03*
X016833Y040979D03*
X016853Y041059D03*
X016853Y041079D03*
X016853Y041099D03*
X016873Y041119D03*
X016873Y041139D03*
X018233Y041139D03*
X018233Y041119D03*
X018253Y041099D03*
X018253Y041079D03*
X018253Y041059D03*
X018273Y040999D03*
X018273Y040979D03*
X018273Y040779D03*
X018273Y040759D03*
X018253Y040699D03*
X018253Y040679D03*
X018253Y040659D03*
X018233Y040639D03*
X018233Y040619D03*
X018773Y040719D03*
X018773Y040739D03*
X018793Y040679D03*
X018793Y040659D03*
X018813Y040619D03*
X018773Y041019D03*
X018773Y041039D03*
X018793Y041079D03*
X018793Y041099D03*
X018813Y041139D03*
X020153Y041159D03*
X020173Y041119D03*
X020173Y041099D03*
X020193Y041059D03*
X020193Y041039D03*
X020213Y040919D03*
X020213Y040899D03*
X020213Y040879D03*
X020213Y040859D03*
X020213Y040839D03*
X020213Y040819D03*
X020213Y040799D03*
X020213Y040779D03*
X020213Y040759D03*
X020213Y040739D03*
X020213Y040719D03*
X020213Y040699D03*
X020213Y040679D03*
X020213Y040659D03*
X020213Y040639D03*
X020213Y040619D03*
X020213Y040599D03*
X020213Y040579D03*
X020213Y040559D03*
X020213Y040539D03*
X020213Y040519D03*
X020213Y040499D03*
X020213Y040479D03*
X020213Y040459D03*
X020213Y040439D03*
X020213Y040419D03*
X020213Y040399D03*
X020213Y040379D03*
X020213Y040359D03*
X020213Y040339D03*
X020733Y040619D03*
X020733Y040639D03*
X020713Y040679D03*
X020713Y040699D03*
X020693Y040779D03*
X020693Y040799D03*
X020693Y040959D03*
X020693Y040979D03*
X020713Y041059D03*
X020713Y041079D03*
X020713Y041099D03*
X020733Y041119D03*
X020733Y041139D03*
X022093Y041139D03*
X022093Y041119D03*
X022113Y041099D03*
X022113Y041079D03*
X022113Y041059D03*
X022133Y040999D03*
X022133Y040979D03*
X014933Y041139D03*
X014913Y041099D03*
X014913Y041079D03*
X014893Y041019D03*
X014893Y040759D03*
X014893Y040739D03*
X014913Y040679D03*
X014913Y040659D03*
X014933Y040639D03*
X014933Y040619D03*
D61*
X015143Y040359D03*
X015143Y041399D03*
X019023Y041399D03*
X019023Y040359D03*
D62*
X018013Y040359D03*
X018013Y041399D03*
X017093Y041399D03*
X016073Y041399D03*
X016073Y040359D03*
X019953Y041399D03*
X020953Y041399D03*
X021873Y041399D03*
X020953Y040359D03*
D63*
X020923Y040379D03*
X020923Y041379D03*
X020003Y041359D03*
X018963Y041359D03*
X018043Y040379D03*
X017063Y041379D03*
X016103Y041379D03*
X016103Y040379D03*
X023123Y040519D03*
D64*
X021993Y041299D03*
X021973Y041319D03*
X021413Y041759D03*
X020853Y041319D03*
X020833Y041299D03*
X020833Y040459D03*
X020853Y040439D03*
X020073Y041299D03*
X020053Y041319D03*
X018913Y041299D03*
X018133Y041299D03*
X018113Y041319D03*
X018133Y040459D03*
X018113Y040439D03*
X018913Y040459D03*
X017553Y041759D03*
X016993Y041319D03*
X016973Y041299D03*
X016193Y041299D03*
X016173Y041319D03*
X016193Y040459D03*
X016173Y040439D03*
X015053Y040439D03*
X015033Y040459D03*
X015033Y041299D03*
X015053Y041319D03*
D65*
X014993Y041259D03*
X014973Y041219D03*
X014973Y040539D03*
X014993Y040499D03*
X015013Y040479D03*
X016233Y040519D03*
X016253Y041219D03*
X016233Y041239D03*
X016913Y041219D03*
X016933Y041239D03*
X018173Y041239D03*
X018193Y041219D03*
X018213Y041179D03*
X018193Y040539D03*
X018173Y040519D03*
X018853Y040519D03*
X018853Y040539D03*
X018873Y040499D03*
X018853Y041219D03*
X018853Y041239D03*
X018873Y041259D03*
X020093Y041259D03*
X020113Y041239D03*
X020133Y041199D03*
X020773Y041219D03*
X020793Y041239D03*
X020773Y040539D03*
X020793Y040519D03*
X022033Y041239D03*
X022053Y041219D03*
D66*
X023593Y040559D03*
D67*
X021413Y041579D03*
X017553Y041579D03*
D68*
X017553Y041599D03*
X021413Y041599D03*
D69*
X017553Y041639D03*
D70*
X017553Y041699D03*
X021413Y041699D03*
D71*
X021413Y041779D03*
X017553Y041779D03*
D72*
X016993Y038295D02*
X016993Y038250D01*
X016993Y038160D02*
X016993Y037980D01*
X016948Y037980D02*
X017038Y037980D01*
X017189Y038025D02*
X017234Y037980D01*
X017189Y038025D02*
X017189Y038205D01*
X017144Y038160D02*
X017234Y038160D01*
X017341Y038115D02*
X017386Y038160D01*
X017476Y038160D01*
X017521Y038115D01*
X017521Y037980D01*
X017635Y038025D02*
X017680Y037980D01*
X017815Y037980D01*
X017815Y038160D01*
X017930Y038160D02*
X018065Y038160D01*
X018110Y038115D01*
X018110Y038025D01*
X018065Y037980D01*
X017930Y037980D01*
X017930Y038250D01*
X017635Y038160D02*
X017635Y038025D01*
X017341Y037980D02*
X017341Y038250D01*
X016993Y038160D02*
X016948Y038160D01*
X016833Y038160D02*
X016698Y038160D01*
X016653Y038115D01*
X016653Y038025D01*
X016698Y037980D01*
X016833Y037980D01*
X016833Y037935D02*
X016833Y038160D01*
X016833Y037935D02*
X016788Y037890D01*
X016743Y037890D01*
X016358Y037980D02*
X016539Y038250D01*
X016244Y038250D02*
X016064Y037980D01*
X015961Y037980D02*
X015916Y037980D01*
X015916Y038025D01*
X015961Y038025D01*
X015961Y037980D01*
X015961Y038115D02*
X015916Y038115D01*
X015916Y038160D01*
X015961Y038160D01*
X015961Y038115D01*
X015802Y038160D02*
X015667Y038160D01*
X015622Y038115D01*
X015667Y038070D01*
X015757Y038070D01*
X015802Y038025D01*
X015757Y037980D01*
X015622Y037980D01*
X015507Y038025D02*
X015462Y037980D01*
X015327Y037980D01*
X015327Y037890D02*
X015327Y038160D01*
X015462Y038160D01*
X015507Y038115D01*
X015507Y038025D01*
X015221Y037980D02*
X015176Y038025D01*
X015176Y038205D01*
X015131Y038160D02*
X015221Y038160D01*
X015024Y038160D02*
X014934Y038160D01*
X014979Y038205D02*
X014979Y038025D01*
X015024Y037980D01*
X014820Y037980D02*
X014820Y038115D01*
X014775Y038160D01*
X014685Y038160D01*
X014640Y038115D01*
X014640Y038250D02*
X014640Y037980D01*
X014790Y036791D02*
X014790Y032437D01*
X014806Y032437D02*
X020719Y032437D01*
X020719Y036791D01*
X014806Y036791D01*
X018225Y037980D02*
X018270Y037980D01*
X018270Y038025D01*
X018225Y038025D01*
X018225Y037980D01*
X018372Y038025D02*
X018417Y037980D01*
X018552Y037980D01*
X018666Y038025D02*
X018712Y037980D01*
X018802Y037980D01*
X018847Y038025D01*
X018847Y038115D01*
X018802Y038160D01*
X018712Y038160D01*
X018666Y038115D01*
X018666Y038025D01*
X018552Y038160D02*
X018417Y038160D01*
X018372Y038115D01*
X018372Y038025D01*
X018961Y037980D02*
X018961Y038160D01*
X019006Y038160D01*
X019051Y038115D01*
X019096Y038160D01*
X019141Y038115D01*
X019141Y037980D01*
X019051Y037980D02*
X019051Y038115D01*
X019256Y037980D02*
X019436Y038250D01*
X019595Y038160D02*
X019686Y038160D01*
X019731Y038115D01*
X019731Y037980D01*
X019595Y037980D01*
X019550Y038025D01*
X019595Y038070D01*
X019731Y038070D01*
X019845Y038160D02*
X019980Y038160D01*
X020025Y038115D01*
X020025Y037980D01*
X020140Y037980D02*
X020140Y038160D01*
X020185Y038160D01*
X020230Y038115D01*
X020275Y038160D01*
X020320Y038115D01*
X020320Y037980D01*
X020230Y037980D02*
X020230Y038115D01*
X020434Y038025D02*
X020479Y038070D01*
X020615Y038070D01*
X020615Y038115D02*
X020615Y037980D01*
X020479Y037980D01*
X020434Y038025D01*
X020479Y038160D02*
X020570Y038160D01*
X020615Y038115D01*
X020729Y038160D02*
X020864Y038160D01*
X020909Y038115D01*
X020909Y038025D01*
X020864Y037980D01*
X020729Y037980D01*
X020729Y037890D02*
X020729Y038160D01*
X021024Y038115D02*
X021069Y038160D01*
X021159Y038160D01*
X021204Y038115D01*
X021204Y038070D01*
X021024Y038070D01*
X021024Y038025D02*
X021024Y038115D01*
X021024Y038025D02*
X021069Y037980D01*
X021159Y037980D01*
X021318Y038025D02*
X021318Y038115D01*
X021363Y038160D01*
X021499Y038160D01*
X021499Y038250D02*
X021499Y037980D01*
X021363Y037980D01*
X021318Y038025D01*
X021613Y037980D02*
X021793Y038250D01*
X021908Y038115D02*
X021908Y038025D01*
X021953Y037980D01*
X022043Y037980D01*
X022088Y038025D01*
X022088Y038115D01*
X022043Y038160D01*
X021953Y038160D01*
X021908Y038115D01*
X022202Y038160D02*
X022337Y038160D01*
X022382Y038115D01*
X022382Y038025D01*
X022337Y037980D01*
X022202Y037980D01*
X022202Y037890D02*
X022202Y038160D01*
X022497Y038025D02*
X022542Y038070D01*
X022677Y038070D01*
X022677Y038115D02*
X022677Y037980D01*
X022542Y037980D01*
X022497Y038025D01*
X022542Y038160D02*
X022632Y038160D01*
X022677Y038115D01*
X022792Y038115D02*
X022792Y038025D01*
X022837Y037980D01*
X022972Y037980D01*
X022972Y037890D02*
X022972Y038160D01*
X022837Y038160D01*
X022792Y038115D01*
X019845Y038160D02*
X019845Y037980D01*
X016992Y032989D02*
X017037Y032944D01*
X017037Y032899D01*
X016992Y032854D01*
X017037Y032809D01*
X017037Y032764D01*
X016992Y032719D01*
X016902Y032719D01*
X016857Y032764D01*
X016742Y032719D02*
X016562Y032719D01*
X016562Y032989D01*
X016742Y032989D01*
X016857Y032944D02*
X016902Y032989D01*
X016992Y032989D01*
X016992Y032854D02*
X016947Y032854D01*
X016652Y032854D02*
X016562Y032854D01*
X016448Y032719D02*
X016267Y032719D01*
X016267Y032989D01*
X016153Y032989D02*
X016153Y032764D01*
X016108Y032719D01*
X016018Y032719D01*
X015973Y032764D01*
X015973Y032989D01*
X015858Y032944D02*
X015813Y032989D01*
X015678Y032989D01*
X015678Y032719D01*
X015813Y032719D01*
X015858Y032764D01*
X015858Y032944D01*
X015564Y032944D02*
X015519Y032989D01*
X015428Y032989D01*
X015383Y032944D01*
X015383Y032764D01*
X015428Y032719D01*
X015519Y032719D01*
X015564Y032764D01*
X015564Y032944D01*
X015269Y032989D02*
X015269Y032719D01*
X015089Y032719D02*
X015089Y032989D01*
X015179Y032899D01*
X015269Y032989D01*
X017824Y026232D02*
X017826Y026306D01*
X017832Y026379D01*
X017842Y026453D01*
X017856Y026525D01*
X017873Y026597D01*
X017895Y026667D01*
X017920Y026737D01*
X017949Y026805D01*
X017981Y026871D01*
X018018Y026935D01*
X018057Y026998D01*
X018100Y027058D01*
X018146Y027116D01*
X018195Y027171D01*
X018247Y027224D01*
X018301Y027273D01*
X018358Y027320D01*
X018418Y027364D01*
X018480Y027404D01*
X018544Y027441D01*
X018610Y027474D01*
X018677Y027504D01*
X018746Y027530D01*
X018816Y027553D01*
X018888Y027571D01*
X018960Y027586D01*
X019033Y027597D01*
X019107Y027604D01*
X019181Y027607D01*
X019254Y027606D01*
X019328Y027601D01*
X019401Y027592D01*
X019474Y027579D01*
X019546Y027563D01*
X019617Y027542D01*
X019687Y027518D01*
X019755Y027490D01*
X019822Y027458D01*
X019887Y027423D01*
X019949Y027384D01*
X020010Y027342D01*
X020069Y027297D01*
X020125Y027249D01*
X020178Y027198D01*
X020228Y027144D01*
X020276Y027087D01*
X020320Y027028D01*
X020361Y026967D01*
X020399Y026903D01*
X020433Y026838D01*
X020464Y026771D01*
X020491Y026702D01*
X020514Y026632D01*
X020534Y026561D01*
X020550Y026489D01*
X020562Y026416D01*
X020570Y026343D01*
X020574Y026269D01*
X020574Y026195D01*
X020570Y026121D01*
X020562Y026048D01*
X020550Y025975D01*
X020534Y025903D01*
X020514Y025832D01*
X020491Y025762D01*
X020464Y025693D01*
X020433Y025626D01*
X020399Y025561D01*
X020361Y025497D01*
X020320Y025436D01*
X020276Y025377D01*
X020228Y025320D01*
X020178Y025266D01*
X020125Y025215D01*
X020069Y025167D01*
X020010Y025122D01*
X019949Y025080D01*
X019886Y025041D01*
X019822Y025006D01*
X019755Y024974D01*
X019687Y024946D01*
X019617Y024922D01*
X019546Y024901D01*
X019474Y024885D01*
X019401Y024872D01*
X019328Y024863D01*
X019254Y024858D01*
X019181Y024857D01*
X019107Y024860D01*
X019033Y024867D01*
X018960Y024878D01*
X018888Y024893D01*
X018816Y024911D01*
X018746Y024934D01*
X018677Y024960D01*
X018610Y024990D01*
X018544Y025023D01*
X018480Y025060D01*
X018418Y025100D01*
X018358Y025144D01*
X018301Y025191D01*
X018247Y025240D01*
X018195Y025293D01*
X018146Y025348D01*
X018100Y025406D01*
X018057Y025466D01*
X018018Y025529D01*
X017981Y025593D01*
X017949Y025659D01*
X017920Y025727D01*
X017895Y025797D01*
X017873Y025867D01*
X017856Y025939D01*
X017842Y026011D01*
X017832Y026085D01*
X017826Y026158D01*
X017824Y026232D01*
X017408Y025717D02*
X016739Y025717D01*
X016877Y025618D02*
X016877Y025303D01*
X016955Y025303D01*
X016955Y025618D01*
X016877Y025618D01*
X016739Y025205D02*
X017408Y025205D01*
X020589Y021449D02*
X020589Y021087D01*
X020589Y021449D02*
X013503Y021449D01*
X013503Y016724D01*
X020589Y016724D01*
X020589Y017087D01*
X019870Y017000D02*
X019690Y017000D01*
X019780Y017000D02*
X019780Y017271D01*
X019690Y017180D01*
X019575Y017271D02*
X019395Y017271D01*
X019395Y017000D01*
X019575Y017000D01*
X019485Y017135D02*
X019395Y017135D01*
X019281Y017000D02*
X019100Y017000D01*
X019100Y017271D01*
X018986Y017271D02*
X018986Y017045D01*
X018941Y017000D01*
X018851Y017000D01*
X018806Y017045D01*
X018806Y017271D01*
X018691Y017225D02*
X018646Y017271D01*
X018511Y017271D01*
X018511Y017000D01*
X018646Y017000D01*
X018691Y017045D01*
X018691Y017225D01*
X018397Y017225D02*
X018352Y017271D01*
X018261Y017271D01*
X018216Y017225D01*
X018216Y017045D01*
X018261Y017000D01*
X018352Y017000D01*
X018397Y017045D01*
X018397Y017225D01*
X018102Y017271D02*
X018102Y017000D01*
X017922Y017000D02*
X017922Y017271D01*
X018012Y017180D01*
X018102Y017271D01*
X022113Y017232D02*
X022115Y017244D01*
X022120Y017255D01*
X022129Y017264D01*
X022140Y017269D01*
X022152Y017271D01*
X022164Y017269D01*
X022175Y017264D01*
X022184Y017255D01*
X022189Y017244D01*
X022191Y017232D01*
X022189Y017220D01*
X022184Y017209D01*
X022175Y017200D01*
X022164Y017195D01*
X022152Y017193D01*
X022140Y017195D01*
X022129Y017200D01*
X022120Y017209D01*
X022115Y017220D01*
X022113Y017232D01*
X028097Y014555D02*
X028097Y011799D01*
X028570Y011799D01*
X030105Y011799D02*
X030577Y011799D01*
X030577Y014555D01*
X030105Y014555D01*
X028570Y014555D02*
X028097Y014555D01*
X024085Y008965D02*
X024081Y008965D01*
X023282Y008965D01*
X024081Y008965D02*
X024081Y008283D01*
X024081Y007402D02*
X024081Y006996D01*
X024085Y006998D01*
X024081Y006996D02*
X023845Y006996D01*
X023845Y006837D01*
X023846Y006836D02*
X023840Y006818D01*
X023832Y006802D01*
X023820Y006787D01*
X023806Y006775D01*
X023790Y006766D01*
X023772Y006760D01*
X023754Y006758D01*
X023735Y006759D01*
X023735Y006760D02*
X022625Y006760D01*
X021514Y006760D01*
X021499Y006761D01*
X021484Y006766D01*
X021471Y006773D01*
X021460Y006783D01*
X021451Y006796D01*
X021445Y006810D01*
X021443Y006825D01*
X021444Y006825D02*
X021444Y006996D01*
X021168Y006996D01*
X021168Y007402D01*
X021174Y007010D02*
X021050Y006762D01*
X021444Y006996D02*
X023845Y006996D01*
X024077Y007006D02*
X024198Y006762D01*
X022635Y006762D02*
X022632Y006760D01*
X022629Y006759D01*
X022625Y006760D01*
X021168Y008281D02*
X021168Y008965D01*
X021967Y008965D01*
X022180Y026130D02*
X031668Y026130D01*
X031668Y032508D01*
X022180Y032508D01*
X022180Y026130D01*
X022374Y027336D02*
X022374Y027606D01*
X022464Y027516D01*
X022554Y027606D01*
X022554Y027336D01*
X022669Y027381D02*
X022714Y027336D01*
X022804Y027336D01*
X022849Y027381D01*
X022849Y027561D01*
X022804Y027606D01*
X022714Y027606D01*
X022669Y027561D01*
X022669Y027381D01*
X022963Y027336D02*
X023099Y027336D01*
X023144Y027381D01*
X023144Y027561D01*
X023099Y027606D01*
X022963Y027606D01*
X022963Y027336D01*
X023258Y027381D02*
X023303Y027336D01*
X023393Y027336D01*
X023438Y027381D01*
X023438Y027606D01*
X023553Y027606D02*
X023553Y027336D01*
X023733Y027336D01*
X023847Y027336D02*
X024028Y027336D01*
X024142Y027336D02*
X024322Y027516D01*
X024322Y027561D01*
X024277Y027606D01*
X024187Y027606D01*
X024142Y027561D01*
X024028Y027606D02*
X023847Y027606D01*
X023847Y027336D01*
X023847Y027471D02*
X023937Y027471D01*
X024142Y027336D02*
X024322Y027336D01*
X023258Y027381D02*
X023258Y027606D01*
D73*
X028068Y009049D03*
D74*
X026783Y012349D02*
X026783Y013769D01*
X024923Y013769D02*
X024923Y012349D01*
X022318Y016795D02*
X022281Y016795D01*
X022318Y016795D02*
X022318Y017433D01*
X022281Y017433D01*
X021964Y017433D02*
X021927Y017433D01*
X021590Y017433D02*
X021553Y017433D01*
X021236Y017433D02*
X021199Y017433D01*
X021199Y016795D01*
X021236Y016795D01*
X021553Y016795D02*
X021964Y016795D01*
X022415Y018202D02*
X022651Y018202D01*
X022651Y018675D02*
X022415Y018675D01*
X022430Y018834D02*
X022666Y018834D01*
X022666Y019307D02*
X022430Y019307D01*
X023530Y024909D02*
X023530Y025146D01*
X024003Y025146D02*
X024003Y024909D01*
X025105Y024909D02*
X025105Y025146D01*
X025577Y025146D02*
X025577Y024909D01*
X028742Y021958D02*
X028742Y020538D01*
X030602Y020538D02*
X030602Y021958D01*
X030577Y023492D02*
X030577Y023728D01*
X030105Y023728D02*
X030105Y023492D01*
X029987Y023492D02*
X029987Y023728D01*
X029514Y023728D02*
X029514Y023492D01*
X029396Y023492D02*
X029396Y023728D01*
X028924Y023728D02*
X028924Y023492D01*
X027861Y034004D02*
X027861Y034240D01*
X027388Y034240D02*
X027388Y034004D01*
X027152Y034004D02*
X027152Y034240D01*
X026680Y034240D02*
X026680Y034004D01*
X028294Y035421D02*
X028294Y035657D01*
X028766Y035657D02*
X028766Y035421D01*
X026050Y035500D02*
X026050Y035736D01*
X025577Y035736D02*
X025577Y035500D01*
X016838Y028910D02*
X015419Y028910D01*
X015419Y027050D02*
X016838Y027050D01*
X016325Y026445D02*
X016325Y026209D01*
X015853Y026209D02*
X015853Y026445D01*
X015577Y026445D02*
X015577Y026209D01*
X015105Y026209D02*
X015105Y026445D01*
D75*
X013939Y013376D02*
X013985Y013330D01*
X014172Y013330D01*
X014219Y013376D01*
X014219Y013470D01*
X014172Y013517D01*
X014079Y013517D01*
X014079Y013423D01*
X013985Y013517D02*
X013939Y013470D01*
X013939Y013376D01*
X013939Y013624D02*
X014219Y013811D01*
X013939Y013811D01*
X013939Y013919D02*
X013939Y014059D01*
X013985Y014106D01*
X014172Y014106D01*
X014219Y014059D01*
X014219Y013919D01*
X013939Y013919D01*
X013939Y013624D02*
X014219Y013624D01*
X014172Y014214D02*
X013985Y014401D01*
X014172Y014401D01*
X014219Y014354D01*
X014219Y014260D01*
X014172Y014214D01*
X013985Y014214D01*
X013939Y014260D01*
X013939Y014354D01*
X013985Y014401D01*
X015205Y013164D02*
X015392Y013164D01*
X015485Y013071D01*
X015392Y012977D01*
X015205Y012977D01*
X015251Y012869D02*
X015298Y012869D01*
X015345Y012823D01*
X015392Y012869D01*
X015438Y012869D01*
X015485Y012823D01*
X015485Y012729D01*
X015438Y012683D01*
X015438Y012582D02*
X015485Y012582D01*
X015485Y012535D01*
X015438Y012535D01*
X015438Y012582D01*
X015438Y012427D02*
X015485Y012381D01*
X015485Y012287D01*
X015438Y012241D01*
X015345Y012334D02*
X015345Y012381D01*
X015392Y012427D01*
X015438Y012427D01*
X015345Y012381D02*
X015298Y012427D01*
X015251Y012427D01*
X015205Y012381D01*
X015205Y012287D01*
X015251Y012241D01*
X015251Y012683D02*
X015205Y012729D01*
X015205Y012823D01*
X015251Y012869D01*
X015345Y012823D02*
X015345Y012776D01*
X016380Y012694D02*
X016566Y012694D01*
X016660Y012601D01*
X016566Y012508D01*
X016380Y012508D01*
X016380Y012400D02*
X016380Y012213D01*
X016520Y012213D01*
X016473Y012306D01*
X016473Y012353D01*
X016520Y012400D01*
X016613Y012400D01*
X016660Y012353D01*
X016660Y012260D01*
X016613Y012213D01*
X017145Y013463D02*
X017238Y013463D01*
X017191Y013463D02*
X017191Y013743D01*
X017145Y013743D02*
X017238Y013743D01*
X017341Y013696D02*
X017341Y013510D01*
X017388Y013463D01*
X017481Y013463D01*
X017528Y013510D01*
X017636Y013463D02*
X017823Y013650D01*
X017823Y013696D01*
X017776Y013743D01*
X017682Y013743D01*
X017636Y013696D01*
X017528Y013696D02*
X017481Y013743D01*
X017388Y013743D01*
X017341Y013696D01*
X017636Y013463D02*
X017823Y013463D01*
X018109Y010723D02*
X018063Y010676D01*
X018063Y010583D01*
X018109Y010536D01*
X018109Y010428D02*
X018063Y010381D01*
X018063Y010288D01*
X018109Y010241D01*
X018296Y010241D01*
X018343Y010288D01*
X018343Y010381D01*
X018296Y010428D01*
X018343Y010536D02*
X018156Y010723D01*
X018109Y010723D01*
X018343Y010723D02*
X018343Y010536D01*
X019086Y009763D02*
X019366Y009763D01*
X019366Y009670D02*
X019366Y009857D01*
X019180Y009670D02*
X019086Y009763D01*
X019133Y009562D02*
X019086Y009515D01*
X019086Y009422D01*
X019133Y009375D01*
X019320Y009375D01*
X019366Y009422D01*
X019366Y009515D01*
X019320Y009562D01*
X020830Y009373D02*
X020830Y009140D01*
X020876Y009093D01*
X020970Y009093D01*
X021017Y009140D01*
X021017Y009373D01*
X021124Y009326D02*
X021124Y009280D01*
X021171Y009233D01*
X021264Y009233D01*
X021311Y009186D01*
X021311Y009140D01*
X021264Y009093D01*
X021171Y009093D01*
X021124Y009140D01*
X021124Y009326D02*
X021171Y009373D01*
X021264Y009373D01*
X021311Y009326D01*
X021419Y009373D02*
X021559Y009373D01*
X021606Y009326D01*
X021606Y009280D01*
X021559Y009233D01*
X021419Y009233D01*
X021419Y009093D02*
X021419Y009373D01*
X021559Y009233D02*
X021606Y009186D01*
X021606Y009140D01*
X021559Y009093D01*
X021419Y009093D01*
X021714Y009093D02*
X021900Y009093D01*
X021807Y009093D02*
X021807Y009373D01*
X021714Y009280D01*
X022086Y010065D02*
X022272Y010065D01*
X022319Y010111D01*
X022319Y010205D01*
X022272Y010252D01*
X022319Y010359D02*
X022319Y010546D01*
X022319Y010453D02*
X022039Y010453D01*
X022132Y010359D01*
X022086Y010252D02*
X022039Y010205D01*
X022039Y010111D01*
X022086Y010065D01*
X022629Y010111D02*
X022676Y010065D01*
X022863Y010065D01*
X022910Y010111D01*
X022910Y010205D01*
X022863Y010252D01*
X022910Y010359D02*
X022910Y010546D01*
X022910Y010453D02*
X022629Y010453D01*
X022723Y010359D01*
X022676Y010252D02*
X022629Y010205D01*
X022629Y010111D01*
X022723Y010654D02*
X022629Y010748D01*
X022910Y010748D01*
X022910Y010841D02*
X022910Y010654D01*
X022319Y010701D02*
X022272Y010654D01*
X022086Y010841D01*
X022272Y010841D01*
X022319Y010794D01*
X022319Y010701D01*
X022272Y010654D02*
X022086Y010654D01*
X022039Y010701D01*
X022039Y010794D01*
X022086Y010841D01*
X021784Y012370D02*
X021598Y012370D01*
X021784Y012557D01*
X021784Y012603D01*
X021738Y012650D01*
X021644Y012650D01*
X021598Y012603D01*
X021490Y012603D02*
X021443Y012650D01*
X021350Y012650D01*
X021303Y012603D01*
X021195Y012603D02*
X021195Y012510D01*
X021148Y012463D01*
X021008Y012463D01*
X021008Y012370D02*
X021008Y012650D01*
X021148Y012650D01*
X021195Y012603D01*
X021102Y012463D02*
X021195Y012370D01*
X021303Y012370D02*
X021490Y012557D01*
X021490Y012603D01*
X021490Y012370D02*
X021303Y012370D01*
X023098Y013075D02*
X023098Y013215D01*
X023144Y013262D01*
X023331Y013262D01*
X023378Y013215D01*
X023378Y013075D01*
X023098Y013075D01*
X023191Y013369D02*
X023098Y013463D01*
X023378Y013463D01*
X023378Y013556D02*
X023378Y013369D01*
X024153Y014142D02*
X024246Y014142D01*
X024199Y014142D02*
X024199Y014422D01*
X024153Y014422D02*
X024246Y014422D01*
X024349Y014376D02*
X024349Y014189D01*
X024396Y014142D01*
X024489Y014142D01*
X024536Y014189D01*
X024644Y014282D02*
X024830Y014282D01*
X024784Y014142D02*
X024784Y014422D01*
X024644Y014282D01*
X024536Y014376D02*
X024489Y014422D01*
X024396Y014422D01*
X024349Y014376D01*
X023606Y014861D02*
X023606Y014907D01*
X023792Y015094D01*
X023792Y015141D01*
X023606Y015141D01*
X023498Y015094D02*
X023451Y015141D01*
X023358Y015141D01*
X023311Y015094D01*
X023311Y014907D01*
X023358Y014861D01*
X023451Y014861D01*
X023498Y014907D01*
X023486Y015530D02*
X023486Y015810D01*
X023627Y015810D01*
X023673Y015763D01*
X023673Y015670D01*
X023627Y015623D01*
X023486Y015623D01*
X023580Y015623D02*
X023673Y015530D01*
X023781Y015577D02*
X023828Y015530D01*
X023921Y015530D01*
X023968Y015577D01*
X023968Y015623D01*
X023921Y015670D01*
X023875Y015670D01*
X023921Y015670D02*
X023968Y015717D01*
X023968Y015763D01*
X023921Y015810D01*
X023828Y015810D01*
X023781Y015763D01*
X025686Y016831D02*
X025733Y016784D01*
X025919Y016784D01*
X025966Y016831D01*
X025966Y016924D01*
X025919Y016971D01*
X025919Y017079D02*
X025966Y017126D01*
X025966Y017219D01*
X025919Y017266D01*
X025733Y017266D01*
X025686Y017219D01*
X025686Y017126D01*
X025733Y017079D01*
X025779Y017079D01*
X025826Y017126D01*
X025826Y017266D01*
X025733Y016971D02*
X025686Y016924D01*
X025686Y016831D01*
X026513Y016844D02*
X026513Y016751D01*
X026559Y016704D01*
X026653Y016798D02*
X026653Y016844D01*
X026699Y016891D01*
X026746Y016891D01*
X026793Y016844D01*
X026793Y016751D01*
X026746Y016704D01*
X026793Y016596D02*
X026793Y016410D01*
X026793Y016503D02*
X026513Y016503D01*
X026606Y016410D01*
X026559Y016302D02*
X026513Y016255D01*
X026513Y016162D01*
X026559Y016115D01*
X026746Y016115D01*
X026793Y016162D01*
X026793Y016255D01*
X026746Y016302D01*
X026653Y016844D02*
X026606Y016891D01*
X026559Y016891D01*
X026513Y016844D01*
X027679Y015912D02*
X027679Y015819D01*
X027726Y015772D01*
X027726Y015664D02*
X027679Y015618D01*
X027679Y015524D01*
X027726Y015478D01*
X027726Y015370D02*
X027820Y015370D01*
X027866Y015323D01*
X027866Y015183D01*
X027866Y015276D02*
X027960Y015370D01*
X027960Y015478D02*
X027773Y015664D01*
X027726Y015664D01*
X027913Y015772D02*
X027960Y015819D01*
X027960Y015912D01*
X027913Y015959D01*
X027866Y015959D01*
X027820Y015912D01*
X027820Y015866D01*
X027820Y015912D02*
X027773Y015959D01*
X027726Y015959D01*
X027679Y015912D01*
X027960Y015664D02*
X027960Y015478D01*
X027726Y015370D02*
X027679Y015323D01*
X027679Y015183D01*
X027960Y015183D01*
X030518Y016821D02*
X030518Y016914D01*
X030518Y016868D02*
X030799Y016868D01*
X030799Y016914D02*
X030799Y016821D01*
X030752Y017017D02*
X030799Y017064D01*
X030799Y017157D01*
X030752Y017204D01*
X030752Y017312D02*
X030799Y017359D01*
X030799Y017452D01*
X030752Y017499D01*
X030659Y017499D01*
X030612Y017452D01*
X030612Y017405D01*
X030659Y017312D01*
X030518Y017312D01*
X030518Y017499D01*
X030565Y017204D02*
X030518Y017157D01*
X030518Y017064D01*
X030565Y017017D01*
X030752Y017017D01*
X029981Y020992D02*
X029887Y020992D01*
X029840Y021039D01*
X029733Y021039D02*
X029686Y020992D01*
X029593Y020992D01*
X029546Y021039D01*
X029546Y021226D01*
X029593Y021273D01*
X029686Y021273D01*
X029733Y021226D01*
X029840Y021226D02*
X029887Y021273D01*
X029981Y021273D01*
X030027Y021226D01*
X030027Y021179D01*
X029981Y021133D01*
X030027Y021086D01*
X030027Y021039D01*
X029981Y020992D01*
X029981Y021133D02*
X029934Y021133D01*
X029443Y021273D02*
X029349Y021273D01*
X029396Y021273D02*
X029396Y020992D01*
X029349Y020992D02*
X029443Y020992D01*
X030686Y023114D02*
X030686Y023255D01*
X030733Y023301D01*
X030826Y023301D01*
X030873Y023255D01*
X030873Y023114D01*
X030966Y023114D02*
X030686Y023114D01*
X030873Y023208D02*
X030966Y023301D01*
X030966Y023409D02*
X030966Y023596D01*
X030966Y023502D02*
X030686Y023502D01*
X030779Y023409D01*
X030826Y023704D02*
X030826Y023844D01*
X030873Y023891D01*
X030920Y023891D01*
X030966Y023844D01*
X030966Y023750D01*
X030920Y023704D01*
X030826Y023704D01*
X030733Y023797D01*
X030686Y023891D01*
X030060Y024621D02*
X030060Y024667D01*
X030247Y024854D01*
X030247Y024901D01*
X030060Y024901D01*
X029859Y024901D02*
X029859Y024621D01*
X029952Y024621D02*
X029765Y024621D01*
X029657Y024621D02*
X029564Y024714D01*
X029611Y024714D02*
X029471Y024714D01*
X029471Y024621D02*
X029471Y024901D01*
X029611Y024901D01*
X029657Y024854D01*
X029657Y024761D01*
X029611Y024714D01*
X029765Y024808D02*
X029859Y024901D01*
X029313Y024681D02*
X029313Y024588D01*
X029266Y024541D01*
X029173Y024541D02*
X029126Y024635D01*
X029126Y024681D01*
X029173Y024728D01*
X029266Y024728D01*
X029313Y024681D01*
X029173Y024541D02*
X029032Y024541D01*
X029032Y024728D01*
X029079Y024433D02*
X029032Y024387D01*
X029032Y024293D01*
X029079Y024246D01*
X029266Y024246D01*
X029313Y024293D01*
X029313Y024387D01*
X029266Y024433D01*
X028171Y024460D02*
X027984Y024647D01*
X027937Y024647D01*
X027891Y024600D01*
X027891Y024507D01*
X027937Y024460D01*
X027891Y024259D02*
X028171Y024259D01*
X028171Y024352D02*
X028171Y024165D01*
X028124Y024058D02*
X028171Y024011D01*
X028171Y023917D01*
X028124Y023871D01*
X027937Y023871D01*
X027891Y023917D01*
X027891Y024011D01*
X027937Y024058D01*
X027984Y024165D02*
X027891Y024259D01*
X028171Y024460D02*
X028171Y024647D01*
X025945Y024738D02*
X025851Y024644D01*
X025851Y024691D02*
X025851Y024551D01*
X025945Y024551D02*
X025665Y024551D01*
X025665Y024691D01*
X025711Y024738D01*
X025805Y024738D01*
X025851Y024691D01*
X025758Y024845D02*
X025665Y024939D01*
X025945Y024939D01*
X025945Y025032D02*
X025945Y024845D01*
X025898Y025140D02*
X025851Y025140D01*
X025805Y025187D01*
X025805Y025280D01*
X025851Y025327D01*
X025898Y025327D01*
X025945Y025280D01*
X025945Y025187D01*
X025898Y025140D01*
X025805Y025187D02*
X025758Y025140D01*
X025711Y025140D01*
X025665Y025187D01*
X025665Y025280D01*
X025711Y025327D01*
X025758Y025327D01*
X025805Y025280D01*
X025669Y023743D02*
X025576Y023696D01*
X025482Y023603D01*
X025622Y023603D01*
X025669Y023556D01*
X025669Y023510D01*
X025622Y023463D01*
X025529Y023463D01*
X025482Y023510D01*
X025482Y023603D01*
X025374Y023510D02*
X025328Y023463D01*
X025234Y023463D01*
X025188Y023510D01*
X025188Y023696D01*
X025234Y023743D01*
X025328Y023743D01*
X025374Y023696D01*
X025085Y023743D02*
X024991Y023743D01*
X025038Y023743D02*
X025038Y023463D01*
X024991Y023463D02*
X025085Y023463D01*
X024796Y023773D02*
X024702Y023773D01*
X024656Y023819D01*
X024842Y024006D01*
X024842Y023819D01*
X024796Y023773D01*
X024656Y023819D02*
X024656Y024006D01*
X024702Y024053D01*
X024796Y024053D01*
X024842Y024006D01*
X024548Y023773D02*
X024361Y023773D01*
X024454Y023773D02*
X024454Y024053D01*
X024361Y023960D01*
X024253Y024006D02*
X024253Y023913D01*
X024206Y023866D01*
X024066Y023866D01*
X024066Y023773D02*
X024066Y024053D01*
X024206Y024053D01*
X024253Y024006D01*
X024160Y023866D02*
X024253Y023773D01*
X023443Y024542D02*
X023163Y024542D01*
X023163Y024682D01*
X023209Y024729D01*
X023303Y024729D01*
X023349Y024682D01*
X023349Y024542D01*
X023349Y024636D02*
X023443Y024729D01*
X023443Y024837D02*
X023443Y025024D01*
X023443Y024930D02*
X023163Y024930D01*
X023256Y024837D01*
X023256Y025132D02*
X023209Y025132D01*
X023163Y025178D01*
X023163Y025272D01*
X023209Y025318D01*
X023396Y025318D01*
X023443Y025272D01*
X023443Y025178D01*
X023396Y025132D01*
X023303Y025178D02*
X023303Y025318D01*
X023303Y025178D02*
X023256Y025132D01*
X021820Y030825D02*
X021726Y030825D01*
X021679Y030872D01*
X021572Y030872D02*
X021525Y030825D01*
X021432Y030825D01*
X021385Y030872D01*
X021385Y031059D01*
X021432Y031105D01*
X021525Y031105D01*
X021572Y031059D01*
X021679Y031059D02*
X021726Y031105D01*
X021820Y031105D01*
X021866Y031059D01*
X021866Y031012D01*
X021820Y030965D01*
X021866Y030919D01*
X021866Y030872D01*
X021820Y030825D01*
X021820Y030965D02*
X021773Y030965D01*
X021703Y031509D02*
X021749Y031556D01*
X021749Y031602D01*
X021703Y031649D01*
X021563Y031649D01*
X021563Y031556D01*
X021609Y031509D01*
X021703Y031509D01*
X021563Y031649D02*
X021656Y031743D01*
X021749Y031789D01*
X021455Y031743D02*
X021408Y031789D01*
X021315Y031789D01*
X021268Y031743D01*
X021268Y031556D01*
X021315Y031509D01*
X021408Y031509D01*
X021455Y031556D01*
X025188Y035181D02*
X025188Y035321D01*
X025235Y035367D01*
X025329Y035367D01*
X025375Y035321D01*
X025375Y035181D01*
X025375Y035274D02*
X025469Y035367D01*
X025422Y035475D02*
X025375Y035475D01*
X025329Y035522D01*
X025329Y035615D01*
X025375Y035662D01*
X025422Y035662D01*
X025469Y035615D01*
X025469Y035522D01*
X025422Y035475D01*
X025329Y035522D02*
X025282Y035475D01*
X025235Y035475D01*
X025188Y035522D01*
X025188Y035615D01*
X025235Y035662D01*
X025282Y035662D01*
X025329Y035615D01*
X025469Y035181D02*
X025188Y035181D01*
X026636Y035019D02*
X026636Y034739D01*
X026636Y034832D02*
X026776Y034832D01*
X026823Y034879D01*
X026823Y034972D01*
X026776Y035019D01*
X026636Y035019D01*
X026729Y034832D02*
X026823Y034739D01*
X026931Y034739D02*
X027117Y034739D01*
X027024Y034739D02*
X027024Y035019D01*
X026931Y034926D01*
X027225Y034879D02*
X027225Y035019D01*
X027412Y035019D01*
X027365Y034926D02*
X027412Y034879D01*
X027412Y034786D01*
X027365Y034739D01*
X027272Y034739D01*
X027225Y034786D01*
X027225Y034879D02*
X027319Y034926D01*
X027365Y034926D01*
X027887Y035251D02*
X027887Y035391D01*
X027934Y035438D01*
X028027Y035438D01*
X028074Y035391D01*
X028074Y035251D01*
X028167Y035251D02*
X027887Y035251D01*
X028074Y035344D02*
X028167Y035438D01*
X028167Y035546D02*
X028167Y035732D01*
X028167Y035639D02*
X027887Y035639D01*
X027980Y035546D01*
X027934Y035840D02*
X027887Y035887D01*
X027887Y035980D01*
X027934Y036027D01*
X027980Y036027D01*
X028167Y035840D01*
X028167Y036027D01*
X028066Y034413D02*
X028066Y034226D01*
X027926Y034366D01*
X028207Y034366D01*
X028207Y034118D02*
X028207Y033931D01*
X028207Y034025D02*
X027926Y034025D01*
X028020Y033931D01*
X028066Y033824D02*
X028113Y033777D01*
X028113Y033637D01*
X028113Y033730D02*
X028207Y033824D01*
X028066Y033824D02*
X027973Y033824D01*
X027926Y033777D01*
X027926Y033637D01*
X028207Y033637D01*
X016229Y030681D02*
X016182Y030727D01*
X016089Y030727D01*
X016042Y030681D01*
X015934Y030681D02*
X015934Y030494D01*
X015887Y030447D01*
X015794Y030447D01*
X015747Y030494D01*
X015747Y030681D01*
X015794Y030727D01*
X015887Y030727D01*
X015934Y030681D01*
X015841Y030541D02*
X015934Y030447D01*
X016042Y030447D02*
X016229Y030634D01*
X016229Y030681D01*
X016229Y030447D02*
X016042Y030447D01*
X016038Y028314D02*
X016084Y028314D01*
X016131Y028267D01*
X016131Y028174D01*
X016084Y028127D01*
X016038Y028127D01*
X015991Y028174D01*
X015991Y028267D01*
X016038Y028314D01*
X016131Y028267D02*
X016178Y028314D01*
X016224Y028314D01*
X016271Y028267D01*
X016271Y028174D01*
X016224Y028127D01*
X016178Y028127D01*
X016131Y028174D01*
X016038Y028019D02*
X015991Y027972D01*
X015991Y027879D01*
X016038Y027832D01*
X016224Y027832D01*
X016271Y027879D01*
X016271Y027972D01*
X016224Y028019D01*
X016271Y027729D02*
X016271Y027636D01*
X016271Y027683D02*
X015991Y027683D01*
X015991Y027729D02*
X015991Y027636D01*
X023253Y019220D02*
X023393Y019220D01*
X023439Y019173D01*
X023439Y019080D01*
X023393Y019033D01*
X023253Y019033D01*
X023346Y019033D02*
X023439Y018940D01*
X023547Y018940D02*
X023734Y018940D01*
X023641Y018940D02*
X023641Y019220D01*
X023547Y019126D01*
X023253Y019220D02*
X023253Y018940D01*
X021966Y018584D02*
X021966Y018537D01*
X021779Y018350D01*
X021779Y018304D01*
X021671Y018304D02*
X021484Y018304D01*
X021671Y018490D01*
X021671Y018537D01*
X021624Y018584D01*
X021531Y018584D01*
X021484Y018537D01*
X021376Y018537D02*
X021376Y018444D01*
X021329Y018397D01*
X021189Y018397D01*
X021189Y018304D02*
X021189Y018584D01*
X021329Y018584D01*
X021376Y018537D01*
X021283Y018397D02*
X021376Y018304D01*
X021779Y018584D02*
X021966Y018584D01*
X021880Y017250D02*
X022066Y017250D01*
X022066Y017203D01*
X021880Y017016D01*
X021880Y016970D01*
X021772Y017016D02*
X021725Y016970D01*
X021632Y016970D01*
X021585Y017016D01*
X021585Y017203D01*
X021632Y017250D01*
X021725Y017250D01*
X021772Y017203D01*
X021482Y017250D02*
X021388Y017250D01*
X021435Y017250D02*
X021435Y016970D01*
X021388Y016970D02*
X021482Y016970D01*
X023804Y011469D02*
X023944Y011469D01*
X023990Y011422D01*
X023990Y011329D01*
X023944Y011282D01*
X023804Y011282D01*
X023897Y011282D02*
X023990Y011189D01*
X024098Y011189D02*
X024285Y011375D01*
X024285Y011422D01*
X024238Y011469D01*
X024145Y011469D01*
X024098Y011422D01*
X024098Y011189D02*
X024285Y011189D01*
X024393Y011235D02*
X024440Y011189D01*
X024533Y011189D01*
X024580Y011235D01*
X024580Y011329D01*
X024533Y011375D01*
X024486Y011375D01*
X024393Y011329D01*
X024393Y011469D01*
X024580Y011469D01*
X023804Y011469D02*
X023804Y011189D01*
X025247Y009890D02*
X025388Y009890D01*
X025434Y009844D01*
X025434Y009750D01*
X025388Y009704D01*
X025247Y009704D01*
X025341Y009704D02*
X025434Y009610D01*
X025542Y009610D02*
X025729Y009797D01*
X025729Y009844D01*
X025682Y009890D01*
X025589Y009890D01*
X025542Y009844D01*
X025542Y009610D02*
X025729Y009610D01*
X025837Y009610D02*
X026024Y009610D01*
X025930Y009610D02*
X025930Y009890D01*
X025837Y009797D01*
X026586Y009890D02*
X026726Y009890D01*
X026773Y009844D01*
X026773Y009750D01*
X026726Y009704D01*
X026586Y009704D01*
X026679Y009704D02*
X026773Y009610D01*
X026881Y009610D02*
X027067Y009797D01*
X027067Y009844D01*
X027021Y009890D01*
X026927Y009890D01*
X026881Y009844D01*
X026881Y009610D02*
X027067Y009610D01*
X027175Y009657D02*
X027362Y009844D01*
X027362Y009657D01*
X027315Y009610D01*
X027222Y009610D01*
X027175Y009657D01*
X027175Y009844D01*
X027222Y009890D01*
X027315Y009890D01*
X027362Y009844D01*
X026586Y009890D02*
X026586Y009610D01*
X025247Y009610D02*
X025247Y009890D01*
X027315Y011194D02*
X027361Y011147D01*
X027548Y011147D01*
X027595Y011194D01*
X027595Y011287D01*
X027548Y011334D01*
X027548Y011441D02*
X027501Y011441D01*
X027455Y011488D01*
X027455Y011582D01*
X027501Y011628D01*
X027548Y011628D01*
X027595Y011582D01*
X027595Y011488D01*
X027548Y011441D01*
X027455Y011488D02*
X027408Y011441D01*
X027361Y011441D01*
X027315Y011488D01*
X027315Y011582D01*
X027361Y011628D01*
X027408Y011628D01*
X027455Y011582D01*
X027361Y011334D02*
X027315Y011287D01*
X027315Y011194D01*
X028371Y009540D02*
X028511Y009540D01*
X028557Y009493D01*
X028557Y009400D01*
X028511Y009353D01*
X028371Y009353D01*
X028464Y009353D02*
X028557Y009259D01*
X028665Y009259D02*
X028852Y009259D01*
X028759Y009259D02*
X028759Y009540D01*
X028665Y009446D01*
X028960Y009493D02*
X029007Y009540D01*
X029100Y009540D01*
X029147Y009493D01*
X029147Y009446D01*
X029100Y009400D01*
X029147Y009353D01*
X029147Y009306D01*
X029100Y009259D01*
X029007Y009259D01*
X028960Y009306D01*
X029053Y009400D02*
X029100Y009400D01*
X028839Y008946D02*
X028652Y008946D01*
X028544Y008899D02*
X028544Y008805D01*
X028498Y008759D01*
X028358Y008759D01*
X028451Y008759D02*
X028544Y008665D01*
X028652Y008665D02*
X028652Y008712D01*
X028839Y008899D01*
X028839Y008946D01*
X028544Y008899D02*
X028498Y008946D01*
X028358Y008946D01*
X028358Y008665D01*
X028358Y008316D02*
X028498Y008316D01*
X028544Y008269D01*
X028544Y008175D01*
X028498Y008129D01*
X028358Y008129D01*
X028451Y008129D02*
X028544Y008035D01*
X028652Y008082D02*
X028699Y008035D01*
X028792Y008035D01*
X028839Y008082D01*
X028839Y008269D01*
X028792Y008316D01*
X028699Y008316D01*
X028652Y008269D01*
X028652Y008222D01*
X028699Y008175D01*
X028839Y008175D01*
X028358Y008035D02*
X028358Y008316D01*
X028371Y009259D02*
X028371Y009540D01*
X030719Y011794D02*
X030999Y011794D01*
X030999Y011981D01*
X030999Y012088D02*
X030999Y012275D01*
X030999Y012182D02*
X030719Y012182D01*
X030813Y012088D01*
X015170Y011304D02*
X015124Y011351D01*
X015030Y011351D01*
X014983Y011304D01*
X014876Y011304D02*
X014876Y011211D01*
X014829Y011164D01*
X014689Y011164D01*
X014782Y011164D02*
X014876Y011070D01*
X014983Y011070D02*
X015170Y011257D01*
X015170Y011304D01*
X015170Y011070D02*
X014983Y011070D01*
X014876Y011304D02*
X014829Y011351D01*
X014689Y011351D01*
X014689Y011070D01*
D76*
X017743Y011445D02*
X017743Y011642D01*
X017743Y011445D02*
X017940Y011445D01*
X019396Y011445D02*
X019633Y011445D01*
X019633Y011642D01*
X019633Y013138D02*
X019633Y013335D01*
X019436Y013335D01*
X023510Y013610D02*
X023510Y011799D01*
X023688Y011799D01*
X024475Y011799D02*
X024652Y011799D01*
X024652Y013610D01*
X024475Y013610D01*
X023688Y013610D02*
X023510Y013610D01*
X023688Y012311D02*
X024475Y012311D01*
X025086Y012669D02*
X025088Y012684D01*
X025094Y012697D01*
X025103Y012709D01*
X025114Y012718D01*
X025128Y012724D01*
X025143Y012726D01*
X025158Y012724D01*
X025171Y012718D01*
X025183Y012709D01*
X025192Y012698D01*
X025198Y012684D01*
X025200Y012669D01*
X025198Y012654D01*
X025192Y012641D01*
X025183Y012629D01*
X025172Y012620D01*
X025158Y012614D01*
X025143Y012612D01*
X025128Y012614D01*
X025115Y012620D01*
X025103Y012629D01*
X025094Y012640D01*
X025088Y012654D01*
X025086Y012669D01*
X024554Y016012D02*
X024554Y016642D01*
X024553Y016642D02*
X024548Y016658D01*
X024540Y016674D01*
X024530Y016688D01*
X024518Y016700D01*
X024503Y016710D01*
X024487Y016717D01*
X024470Y016721D01*
X024453Y016722D01*
X024435Y016720D01*
X023885Y016720D02*
X023865Y016722D01*
X023846Y016720D01*
X023827Y016714D01*
X023810Y016705D01*
X023794Y016693D01*
X023782Y016678D01*
X023773Y016660D01*
X023767Y016642D01*
X023766Y016642D02*
X023766Y016012D01*
X023767Y016011D02*
X023773Y015993D01*
X023782Y015975D01*
X023794Y015960D01*
X023810Y015948D01*
X023827Y015939D01*
X023846Y015933D01*
X023865Y015931D01*
X023885Y015933D01*
X024435Y015933D02*
X024453Y015931D01*
X024470Y015932D01*
X024487Y015936D01*
X024503Y015943D01*
X024518Y015953D01*
X024530Y015965D01*
X024540Y015979D01*
X024548Y015995D01*
X024553Y016011D01*
X028727Y016839D02*
X028944Y016839D01*
X028727Y016839D02*
X028727Y017055D01*
X028727Y018197D02*
X028727Y018413D01*
X028944Y018413D01*
X030085Y018413D02*
X030144Y018413D01*
X030302Y018256D01*
X030302Y018197D01*
X030302Y017055D02*
X030302Y016839D01*
X030085Y016839D01*
X028565Y020448D02*
X028567Y020463D01*
X028573Y020476D01*
X028582Y020488D01*
X028593Y020497D01*
X028607Y020503D01*
X028622Y020505D01*
X028637Y020503D01*
X028650Y020497D01*
X028662Y020488D01*
X028671Y020477D01*
X028677Y020463D01*
X028679Y020448D01*
X028677Y020433D01*
X028671Y020420D01*
X028662Y020408D01*
X028651Y020399D01*
X028637Y020393D01*
X028622Y020391D01*
X028607Y020393D01*
X028594Y020399D01*
X028582Y020408D01*
X028573Y020419D01*
X028567Y020433D01*
X028565Y020448D01*
X024219Y021209D02*
X023707Y021209D01*
X023707Y022626D02*
X024219Y022626D01*
X017664Y030028D02*
X017664Y031209D01*
X016680Y031209D02*
X015577Y031209D01*
X014633Y030815D02*
X014660Y030813D01*
X014686Y030808D01*
X014711Y030799D01*
X014735Y030786D01*
X014757Y030771D01*
X014777Y030752D01*
X014794Y030732D01*
X014808Y030709D01*
X014819Y030684D01*
X014826Y030658D01*
X014830Y030631D01*
X014830Y030605D01*
X014826Y030578D01*
X014819Y030552D01*
X014808Y030527D01*
X014794Y030504D01*
X014777Y030484D01*
X014757Y030465D01*
X014735Y030450D01*
X014711Y030437D01*
X014686Y030428D01*
X014660Y030423D01*
X014633Y030421D01*
X014593Y030028D02*
X014593Y031209D01*
X015577Y030028D02*
X016680Y030028D01*
X015682Y028690D02*
X015684Y028705D01*
X015690Y028718D01*
X015699Y028730D01*
X015710Y028739D01*
X015724Y028745D01*
X015739Y028747D01*
X015754Y028745D01*
X015767Y028739D01*
X015779Y028730D01*
X015788Y028719D01*
X015794Y028705D01*
X015796Y028690D01*
X015794Y028675D01*
X015788Y028662D01*
X015779Y028650D01*
X015768Y028641D01*
X015754Y028635D01*
X015739Y028633D01*
X015724Y028635D01*
X015711Y028641D01*
X015699Y028650D01*
X015690Y028661D01*
X015684Y028675D01*
X015682Y028690D01*
X026759Y035421D02*
X027073Y035421D01*
X026759Y035421D02*
X026759Y035657D01*
X026759Y036287D02*
X026759Y036524D01*
X027073Y036524D01*
D77*
X022251Y036350D02*
X021960Y036350D01*
X022105Y036205D01*
X022105Y036398D01*
X022009Y036103D02*
X021960Y036055D01*
X021960Y035958D01*
X022009Y035910D01*
X022202Y035910D01*
X022251Y035958D01*
X022251Y036055D01*
X022202Y036103D01*
D78*
X026988Y039113D02*
X027226Y038875D01*
X027572Y039158D01*
X027641Y039119D01*
X027712Y039086D01*
X027909Y039563D01*
X027845Y039597D01*
X027787Y039640D01*
X027738Y039693D01*
X027697Y039753D01*
X027668Y039819D01*
X027650Y039889D01*
X027644Y039961D01*
X027651Y040042D01*
X027674Y040119D01*
X027710Y040191D01*
X027760Y040255D01*
X027820Y040309D01*
X027889Y040350D01*
X027965Y040378D01*
X028045Y040391D01*
X028126Y040389D01*
X028205Y040372D01*
X028279Y040340D01*
X028346Y040295D01*
X028404Y040239D01*
X028450Y040172D01*
X028482Y040099D01*
X028501Y040020D01*
X028504Y039939D01*
X028493Y039859D01*
X028466Y039783D01*
X028426Y039713D01*
X028374Y039652D01*
X028310Y039601D01*
X028239Y039563D01*
X028437Y039086D01*
X028508Y039119D01*
X028576Y039158D01*
X028923Y038875D01*
X029160Y039113D01*
X028878Y039459D01*
X028928Y039551D01*
X028968Y039648D01*
X028997Y039748D01*
X029442Y039793D01*
X029442Y040129D01*
X028997Y040174D01*
X028968Y040275D01*
X028367Y040275D01*
X028418Y040218D02*
X028985Y040218D01*
X028968Y040275D02*
X028928Y040372D01*
X028878Y040463D01*
X029160Y040810D01*
X028923Y041047D01*
X028576Y040765D01*
X028485Y040815D01*
X028388Y040855D01*
X028287Y040884D01*
X028242Y041329D01*
X027906Y041329D01*
X027861Y040884D01*
X027761Y040855D01*
X027664Y040815D01*
X027572Y040765D01*
X027226Y041047D01*
X026988Y040810D01*
X027271Y040463D01*
X027220Y040372D01*
X027180Y040275D01*
X027151Y040174D01*
X026707Y040129D01*
X026707Y039793D01*
X027151Y039748D01*
X027180Y039648D01*
X027220Y039551D01*
X027271Y039459D01*
X026988Y039113D01*
X026997Y039124D02*
X027531Y039124D01*
X027460Y039066D02*
X027035Y039066D01*
X027093Y039009D02*
X027390Y039009D01*
X027319Y038951D02*
X027150Y038951D01*
X027208Y038894D02*
X027248Y038894D01*
X027044Y039182D02*
X027751Y039182D01*
X027775Y039239D02*
X027091Y039239D01*
X027138Y039297D02*
X027799Y039297D01*
X027823Y039354D02*
X027185Y039354D01*
X027232Y039412D02*
X027847Y039412D01*
X027870Y039469D02*
X027265Y039469D01*
X027234Y039527D02*
X027894Y039527D01*
X027869Y039584D02*
X027207Y039584D01*
X027183Y039642D02*
X027786Y039642D01*
X027733Y039700D02*
X027165Y039700D01*
X027064Y039757D02*
X027696Y039757D01*
X027670Y039815D02*
X026707Y039815D01*
X026707Y039872D02*
X027654Y039872D01*
X027646Y039930D02*
X026707Y039930D01*
X026707Y039987D02*
X027646Y039987D01*
X027652Y040045D02*
X026707Y040045D01*
X026707Y040102D02*
X027669Y040102D01*
X027694Y040160D02*
X027009Y040160D01*
X027164Y040218D02*
X027730Y040218D01*
X027782Y040275D02*
X027180Y040275D01*
X027204Y040333D02*
X027860Y040333D01*
X028041Y040390D02*
X027231Y040390D01*
X027262Y040448D02*
X028886Y040448D01*
X028912Y040505D02*
X027237Y040505D01*
X027190Y040563D02*
X028959Y040563D01*
X029006Y040620D02*
X027143Y040620D01*
X027096Y040678D02*
X029053Y040678D01*
X029100Y040736D02*
X027049Y040736D01*
X027002Y040793D02*
X027537Y040793D01*
X027624Y040793D02*
X028525Y040793D01*
X028611Y040793D02*
X029147Y040793D01*
X029119Y040851D02*
X028682Y040851D01*
X028752Y040908D02*
X029062Y040908D01*
X029004Y040966D02*
X028823Y040966D01*
X028893Y041023D02*
X028946Y041023D01*
X028399Y040851D02*
X027750Y040851D01*
X027864Y040908D02*
X028285Y040908D01*
X028279Y040966D02*
X027869Y040966D01*
X027875Y041023D02*
X028273Y041023D01*
X028267Y041081D02*
X027881Y041081D01*
X027887Y041138D02*
X028262Y041138D01*
X028256Y041196D02*
X027893Y041196D01*
X027899Y041254D02*
X028250Y041254D01*
X028244Y041311D02*
X027905Y041311D01*
X027467Y040851D02*
X027029Y040851D01*
X027087Y040908D02*
X027396Y040908D01*
X027326Y040966D02*
X027145Y040966D01*
X027202Y041023D02*
X027255Y041023D01*
X028072Y040390D02*
X028918Y040390D01*
X028944Y040333D02*
X028290Y040333D01*
X028455Y040160D02*
X029139Y040160D01*
X029442Y040102D02*
X028481Y040102D01*
X028495Y040045D02*
X029442Y040045D01*
X029442Y039987D02*
X028502Y039987D01*
X028503Y039930D02*
X029442Y039930D01*
X029442Y039872D02*
X028495Y039872D01*
X028477Y039815D02*
X029442Y039815D01*
X029085Y039757D02*
X028451Y039757D01*
X028415Y039700D02*
X028983Y039700D01*
X028966Y039642D02*
X028361Y039642D01*
X028279Y039584D02*
X028942Y039584D01*
X028915Y039527D02*
X028254Y039527D01*
X028278Y039469D02*
X028883Y039469D01*
X028916Y039412D02*
X028302Y039412D01*
X028326Y039354D02*
X028963Y039354D01*
X029010Y039297D02*
X028350Y039297D01*
X028373Y039239D02*
X029057Y039239D01*
X029104Y039182D02*
X028397Y039182D01*
X028421Y039124D02*
X028517Y039124D01*
X028618Y039124D02*
X029151Y039124D01*
X029114Y039066D02*
X028688Y039066D01*
X028759Y039009D02*
X029056Y039009D01*
X028998Y038951D02*
X028830Y038951D01*
X028900Y038894D02*
X028941Y038894D01*
X027727Y039124D02*
X027632Y039124D01*
D79*
X026329Y035900D02*
X026329Y035800D01*
X026329Y035753D02*
X026279Y035702D01*
X026329Y035677D02*
X026304Y035652D01*
X026204Y035652D01*
X026179Y035677D01*
X026179Y035728D01*
X026204Y035753D01*
X026304Y035753D01*
X026329Y035728D01*
X026329Y035677D01*
X026229Y035800D02*
X026179Y035850D01*
X026329Y035850D01*
X016569Y026560D02*
X016419Y026560D01*
X016494Y026484D01*
X016494Y026585D01*
X016494Y026437D02*
X016519Y026412D01*
X016519Y026337D01*
X016519Y026387D02*
X016569Y026437D01*
X016494Y026437D02*
X016444Y026437D01*
X016419Y026412D01*
X016419Y026337D01*
X016569Y026337D01*
X015821Y026337D02*
X015671Y026337D01*
X015671Y026412D01*
X015696Y026437D01*
X015746Y026437D01*
X015771Y026412D01*
X015771Y026337D01*
X015771Y026387D02*
X015821Y026437D01*
X015796Y026484D02*
X015821Y026509D01*
X015821Y026560D01*
X015796Y026585D01*
X015746Y026585D01*
X015721Y026560D01*
X015721Y026534D01*
X015746Y026484D01*
X015671Y026484D01*
X015671Y026585D01*
X024468Y022175D02*
X024618Y022175D01*
X024618Y022125D02*
X024618Y022225D01*
X024518Y022125D02*
X024468Y022175D01*
X024468Y022078D02*
X024618Y021978D01*
X024618Y022078D02*
X024468Y021978D01*
X023630Y016369D02*
X023655Y016344D01*
X023655Y016294D01*
X023630Y016269D01*
X023580Y016269D02*
X023555Y016319D01*
X023555Y016344D01*
X023580Y016369D01*
X023630Y016369D01*
X023580Y016269D02*
X023505Y016269D01*
X023505Y016369D01*
X023530Y016222D02*
X023580Y016222D01*
X023605Y016197D01*
X023605Y016122D01*
X023655Y016122D02*
X023505Y016122D01*
X023505Y016197D01*
X023530Y016222D01*
X023505Y016074D02*
X023505Y016024D01*
X023505Y016049D02*
X023630Y016049D01*
X023655Y016024D01*
X023655Y015999D01*
X023630Y015974D01*
D80*
X029898Y018885D03*
D81*
X026896Y021386D02*
X026778Y021268D01*
X025164Y021268D02*
X025046Y021386D01*
X024987Y023118D02*
X024989Y023133D01*
X024994Y023146D01*
X025003Y023158D01*
X025014Y023168D01*
X025028Y023174D01*
X025042Y023177D01*
X025057Y023176D01*
X025071Y023171D01*
X025084Y023163D01*
X025094Y023153D01*
X025101Y023140D01*
X025105Y023125D01*
X025105Y023111D01*
X025101Y023096D01*
X025094Y023083D01*
X025084Y023073D01*
X025071Y023065D01*
X025057Y023060D01*
X025042Y023059D01*
X025028Y023062D01*
X025014Y023068D01*
X025003Y023078D01*
X024994Y023090D01*
X024989Y023103D01*
X024987Y023118D01*
X026778Y023118D02*
X026896Y023000D01*
X028509Y023521D02*
X028509Y023621D01*
X028709Y023621D02*
X028709Y023521D01*
X024514Y024938D02*
X024514Y025038D01*
M02*
