G75*
G70*
%OFA0B0*%
%FSLAX24Y24*%
%IPPOS*%
%LPD*%
%AMOC8*
5,1,8,0,0,1.08239X$1,22.5*
%
%ADD10C,0.1970*%
%ADD11C,0.0277*%
%ADD12R,0.0480X0.0860*%
%ADD13R,0.0580X0.1080*%
%ADD14C,0.0476*%
%ADD15C,0.1464*%
%ADD16C,0.2370*%
D10*
X015244Y014949D03*
D11*
X015520Y007547D03*
X015914Y007547D03*
X016307Y007547D03*
X016701Y007547D03*
X017095Y007547D03*
X027961Y042232D03*
X028355Y042232D03*
X028748Y042232D03*
X029142Y042232D03*
X029536Y042232D03*
D12*
X028000Y028020D03*
X026425Y028020D03*
D13*
X026740Y029594D03*
X025874Y029594D03*
X025008Y029594D03*
X027607Y029594D03*
X016347Y025343D03*
X015599Y025343D03*
X014851Y025343D03*
D14*
X014221Y010933D03*
X015087Y010933D03*
X015914Y011130D03*
X017016Y010185D03*
X017470Y009840D03*
X017635Y010769D03*
X018709Y012390D03*
X019909Y011259D03*
X019845Y010769D03*
X020847Y011403D03*
X022272Y009780D03*
X023118Y010185D03*
X024024Y009437D03*
X024024Y008650D03*
X025166Y009437D03*
X025441Y008217D03*
X026268Y009437D03*
X027331Y009437D03*
X028394Y009437D03*
X029521Y011169D03*
X028959Y012193D03*
X029520Y013295D03*
X028433Y014358D03*
X027685Y014831D03*
X027252Y013886D03*
X027213Y012508D03*
X026110Y012783D03*
X025677Y012783D03*
X024142Y012665D03*
X023433Y012508D03*
X022764Y013138D03*
X022055Y013610D03*
X022803Y014122D03*
X023512Y014358D03*
X024142Y013886D03*
X025815Y014811D03*
X025441Y015736D03*
X025048Y016406D03*
X024214Y017098D03*
X023945Y017980D03*
X023535Y018679D03*
X024324Y019858D03*
X025204Y019048D03*
X025765Y021259D03*
X027410Y021366D03*
X028591Y021209D03*
X028551Y022193D03*
X026947Y025105D03*
X025796Y026720D03*
X026032Y027429D03*
X025953Y028059D03*
X024563Y030803D03*
X025351Y031012D03*
X026150Y031366D03*
X027843Y031169D03*
X025599Y033610D03*
X025599Y034791D03*
X027961Y035618D03*
X028315Y034516D03*
X023308Y030989D03*
X023005Y030139D03*
X021780Y031351D03*
X020249Y030770D03*
X019960Y029691D03*
X019645Y028429D03*
X019811Y027587D03*
X019414Y026580D03*
X017922Y026878D03*
X017528Y026445D03*
X017843Y027626D03*
X017365Y028429D03*
X016229Y027744D03*
X014929Y027744D03*
X017488Y030657D03*
X017528Y031287D03*
X015481Y030933D03*
X017410Y034752D03*
X017449Y036012D03*
X019260Y036012D03*
X019260Y034752D03*
X019260Y033571D03*
X021229Y033531D03*
X022803Y033571D03*
X022803Y036012D03*
X021229Y036012D03*
X022495Y028279D03*
X022961Y027469D03*
X022095Y026760D03*
X022862Y025028D03*
X022862Y024566D03*
X023765Y024839D03*
X024675Y022739D03*
X021625Y018699D03*
X019733Y018531D03*
X019733Y019319D03*
X018565Y021309D03*
X017292Y021051D03*
X017292Y019870D03*
X017292Y018689D03*
X017292Y017508D03*
X018945Y016406D03*
X019339Y015776D03*
X018082Y014143D03*
X017292Y014870D03*
X016307Y013217D03*
X016762Y012733D03*
X020796Y014870D03*
X021859Y014870D03*
X023315Y011524D03*
X025991Y011246D03*
X030413Y012193D03*
X027685Y016091D03*
X027488Y018295D03*
X020638Y022114D03*
X019860Y023256D03*
X019870Y023955D03*
X018866Y024831D03*
X017449Y008217D03*
D15*
X015244Y009634D03*
X029024Y018098D03*
X029811Y009634D03*
X016032Y032272D03*
D16*
X015244Y035421D03*
X029811Y035421D03*
X029811Y014949D03*
M02*
