%
M48
M72
T01C0.0157
T02C0.0197
T03C0.0236
T04C0.0787
T05C0.0984
T06C0.1890
%
T01
X23804Y25351
X26947Y26011
X24142Y29594
X23005Y30139
X23505Y31186
X24563Y31079
X25351Y31012
X26150Y31366
X27843Y31169
X17882Y28492
X17567Y28059
X17252Y27665
X15205Y29594
X14418Y29988
T02
X14693Y31681
X14142Y31681
X15087Y32902
X16819Y31563
X23197Y31799
X27292Y34476
X27961Y42232
X28355Y42232
X28748Y42232
X29142Y42232
X29536Y42232
X19929Y23965
X17095Y7547
X16701Y7547
X16307Y7547
X15914Y7547
X15520Y7547
T03
X14103Y10146
X14103Y10618
X15548Y11478
X16189Y11524
X17077Y12733
X16307Y13217
X17292Y14870
X18082Y14143
X19339Y15776
X18945Y16406
X17292Y17508
X17292Y18689
X17292Y19870
X17292Y21051
X19733Y19319
X19733Y18531
X21625Y18699
X23535Y18679
X23945Y17980
X24214Y17098
X24772Y16406
X24890Y15776
X25736Y14811
X24142Y13886
X23473Y14319
X22803Y14122
X22055Y13610
X22764Y13138
X23433Y12508
X24142Y12665
X23315Y11524
X23118Y10185
X22272Y9780
X24024Y9437
X24024Y8650
X25166Y9437
X25441Y8217
X26268Y9437
X25991Y11246
X26110Y12783
X25677Y12783
X27134Y13886
X27567Y13886
X28276Y14043
X27685Y14831
X27685Y16091
X27488Y18295
X25204Y19048
X24324Y19858
X25765Y21259
X27410Y21366
X28591Y21209
X28551Y22193
X24675Y22739
X22822Y25038
X22822Y25461
X22252Y27429
X23000Y27941
X22652Y28673
X20235Y29020
X19960Y29691
X20249Y30770
X21780Y31351
X21229Y33531
X19260Y33571
X19260Y34752
X19260Y36012
X17449Y36012
X17410Y34752
X15914Y33571
X15756Y29122
X14654Y29161
X17325Y29020
X19414Y26580
X19811Y27587
X18315Y24831
X17856Y23671
X19939Y23256
X20638Y22114
X25796Y27350
X25796Y27980
X25874Y28689
X25244Y33925
X24063Y33925
X24811Y36445
X26268Y36445
X27961Y35618
X28315Y34516
X21229Y36012
X20796Y14870
X21859Y14870
X20847Y11403
X19909Y11259
X18860Y10848
X17470Y9840
X17016Y10185
X17449Y8217
X18709Y12390
X28458Y12665
X28458Y11839
X29235Y12193
X29822Y12193
X30622Y12272
X30622Y12823
X30835Y10972
X30835Y10539
X28394Y9437
X28394Y8650
T04
X29792Y9988
X15225Y9988
T05
X29024Y18098
X16032Y32272
T06
X15244Y35421
X29811Y35421
X29811Y14949
X15244Y14949
M30
