%
M48
M72
T01C0.0197
T02C0.0236
T03C0.0984
T04C0.1890
%
T01
X15520Y7547
X15914Y7547
X16307Y7547
X16701Y7547
X17095Y7547
X27961Y42232
X28355Y42232
X28748Y42232
X29142Y42232
X29536Y42232
T02
X14221Y10933
X15087Y10933
X15914Y11130
X17016Y10185
X17470Y9840
X17635Y10769
X18709Y12390
X19909Y11259
X19845Y10769
X20847Y11403
X22272Y9780
X23118Y10185
X24024Y9437
X24024Y8650
X25166Y9437
X25441Y8217
X26268Y9437
X27331Y9437
X28394Y9437
X29521Y11169
X28959Y12193
X29520Y13295
X28433Y14358
X27685Y14831
X27252Y13886
X27213Y12508
X26110Y12783
X25677Y12783
X24142Y12665
X23433Y12508
X22764Y13138
X22055Y13610
X22803Y14122
X23512Y14358
X24142Y13886
X25815Y14811
X25441Y15736
X25048Y16406
X24214Y17098
X23945Y17980
X23535Y18679
X24324Y19858
X25204Y19048
X25765Y21259
X27410Y21366
X28591Y21209
X28551Y22193
X26947Y25105
X25796Y26720
X26032Y27429
X25953Y28059
X24563Y30803
X25351Y31012
X26150Y31366
X27843Y31169
X25599Y33610
X25599Y34791
X27961Y35618
X28315Y34516
X23308Y30989
X23005Y30139
X21780Y31351
X20249Y30770
X19960Y29691
X19645Y28429
X19811Y27587
X19414Y26580
X17922Y26878
X17528Y26445
X17843Y27626
X17365Y28429
X16229Y27744
X14929Y27744
X17488Y30657
X17528Y31287
X15481Y30933
X17410Y34752
X17449Y36012
X19260Y36012
X19260Y34752
X19260Y33571
X21229Y33531
X22803Y33571
X22803Y36012
X21229Y36012
X22495Y28279
X22961Y27469
X22095Y26760
X22862Y25028
X22862Y24566
X23765Y24839
X24675Y22739
X21625Y18699
X19733Y18531
X19733Y19319
X18565Y21309
X17292Y21051
X17292Y19870
X17292Y18689
X17292Y17508
X18945Y16406
X19339Y15776
X18082Y14143
X17292Y14870
X16307Y13217
X16762Y12733
X20796Y14870
X21859Y14870
X23315Y11524
X25991Y11246
X30413Y12193
X27685Y16091
X27488Y18295
X20638Y22114
X19860Y23256
X19870Y23955
X18866Y24831
X17449Y8217
T03
X15244Y9634
X29024Y18098
X29811Y9634
X16032Y32272
T04
X15244Y35421
X29811Y35421
X29811Y14949
X15244Y14949
M30
