G75*
G70*
%OFA0B0*%
%FSLAX24Y24*%
%IPPOS*%
%LPD*%
%AMOC8*
5,1,8,0,0,1.08239X$1,22.5*
%
%ADD10R,0.0400X0.0780*%
%ADD11R,0.0500X0.1000*%
%ADD12C,0.0396*%
%ADD13C,0.0160*%
%ADD14C,0.0320*%
%ADD15C,0.0120*%
%ADD16C,0.1384*%
%ADD17C,0.2290*%
D10*
X026425Y028020D03*
X028000Y028020D03*
D11*
X027607Y029594D03*
X026740Y029594D03*
X025874Y029594D03*
X025008Y029594D03*
X016347Y025343D03*
X015599Y025343D03*
X014851Y025343D03*
D12*
X014929Y027232D03*
X016229Y027232D03*
X017528Y026445D03*
X017922Y026878D03*
X017843Y027626D03*
X018591Y028059D03*
X018866Y029201D03*
X019929Y029240D03*
X019811Y027587D03*
X019654Y026760D03*
X018866Y024831D03*
X019299Y024161D03*
X019890Y023965D03*
X019890Y023256D03*
X019103Y022469D03*
X018433Y022429D03*
X018433Y021484D03*
X018985Y021051D03*
X020559Y022114D03*
X019733Y019319D03*
X019733Y018531D03*
X018945Y016406D03*
X019339Y015776D03*
X020796Y014870D03*
X021859Y014870D03*
X022803Y014122D03*
X023512Y014358D03*
X024142Y013886D03*
X024142Y012665D03*
X023433Y012508D03*
X022764Y013138D03*
X022055Y013610D03*
X023315Y011524D03*
X023118Y010185D03*
X022252Y009870D03*
X020717Y010933D03*
X019969Y011169D03*
X019585Y010769D03*
X018709Y012390D03*
X017635Y010769D03*
X017016Y010185D03*
X017410Y009870D03*
X017449Y008217D03*
X015914Y011130D03*
X016662Y012823D03*
X016307Y013217D03*
X017292Y014870D03*
X021625Y018699D03*
X023535Y018679D03*
X023945Y017980D03*
X025048Y016406D03*
X025441Y015736D03*
X025815Y014811D03*
X027252Y013886D03*
X027685Y014831D03*
X028433Y014358D03*
X029520Y013295D03*
X028512Y012232D03*
X029521Y011169D03*
X028394Y009437D03*
X027331Y009437D03*
X026268Y009437D03*
X025441Y008217D03*
X025166Y009437D03*
X024024Y009437D03*
X024024Y008650D03*
X026071Y011366D03*
X027213Y011406D03*
X027213Y012508D03*
X026110Y012783D03*
X025677Y012783D03*
X027685Y016091D03*
X027488Y018295D03*
X028591Y021209D03*
X028551Y022193D03*
X027410Y021366D03*
X026032Y021563D03*
X025796Y022547D03*
X024063Y024476D03*
X022922Y024516D03*
X022922Y024988D03*
X022095Y026760D03*
X022961Y027469D03*
X022495Y028279D03*
X023005Y030139D03*
X023308Y030989D03*
X024563Y030803D03*
X025351Y031012D03*
X026150Y031366D03*
X027843Y031169D03*
X025599Y033610D03*
X025599Y034791D03*
X027961Y035618D03*
X028315Y034516D03*
X022803Y033571D03*
X021071Y033531D03*
X019103Y033571D03*
X019181Y034752D03*
X019260Y036012D03*
X021032Y036012D03*
X022803Y036012D03*
X017449Y035972D03*
X017410Y034752D03*
X017528Y031287D03*
X017488Y030657D03*
X015481Y030933D03*
X025796Y026720D03*
X026032Y027429D03*
X025953Y028059D03*
X026937Y025185D03*
D13*
X013918Y008624D02*
X014061Y008377D01*
X014263Y008175D01*
X014510Y008032D01*
X014786Y007958D01*
X014929Y007949D01*
X017098Y007949D01*
X017078Y007968D01*
X017011Y008129D01*
X017011Y008304D01*
X017078Y008465D01*
X017201Y008588D01*
X017362Y008655D01*
X017536Y008655D01*
X017697Y008588D01*
X017769Y008517D01*
X025122Y008517D01*
X025193Y008588D01*
X025354Y008655D01*
X025528Y008655D01*
X025689Y008588D01*
X025813Y008465D01*
X025879Y008304D01*
X025879Y008129D01*
X025813Y007968D01*
X025793Y007949D01*
X030087Y007949D01*
X030230Y007958D01*
X030506Y008032D01*
X030753Y008175D01*
X030955Y008377D01*
X031098Y008624D01*
X031098Y008624D01*
X031172Y008900D01*
X031182Y009043D01*
X031182Y014712D01*
X031102Y014414D01*
X030919Y014098D01*
X030662Y013841D01*
X030346Y013658D01*
X029994Y013564D01*
X029871Y013564D01*
X029891Y013543D01*
X029958Y013382D01*
X029958Y013208D01*
X029891Y013047D01*
X029768Y012924D01*
X029607Y012857D01*
X029433Y012857D01*
X029341Y012895D01*
X024938Y012895D01*
X024552Y012509D01*
X024513Y012417D01*
X024390Y012294D01*
X024229Y012227D01*
X024055Y012227D01*
X023894Y012294D01*
X023771Y012417D01*
X023704Y012578D01*
X023704Y012753D01*
X023771Y012914D01*
X023894Y013037D01*
X023986Y013075D01*
X024545Y013634D01*
X024692Y013695D01*
X029213Y013695D01*
X028961Y013841D01*
X028748Y014053D01*
X028682Y013987D01*
X028520Y013920D01*
X028346Y013920D01*
X028185Y013987D01*
X028134Y014038D01*
X023812Y014038D01*
X023760Y013987D01*
X023599Y013920D01*
X023425Y013920D01*
X023264Y013987D01*
X023141Y014110D01*
X023074Y014271D01*
X023074Y014445D01*
X023084Y014470D01*
X022038Y014470D01*
X021946Y014432D01*
X021771Y014432D01*
X021610Y014499D01*
X021487Y014622D01*
X021420Y014783D01*
X021420Y014957D01*
X021487Y015118D01*
X021610Y015241D01*
X021771Y015308D01*
X021946Y015308D01*
X022038Y015270D01*
X025836Y015270D01*
X025886Y015249D01*
X025902Y015249D01*
X026063Y015182D01*
X026187Y015059D01*
X026253Y014898D01*
X026253Y014724D01*
X026234Y014678D01*
X028134Y014678D01*
X028185Y014730D01*
X028346Y014796D01*
X028426Y014796D01*
X028426Y015131D01*
X028521Y015483D01*
X028703Y015799D01*
X028961Y016057D01*
X029277Y016239D01*
X029629Y016334D01*
X029994Y016334D01*
X030346Y016239D01*
X030662Y016057D01*
X030919Y015799D01*
X031102Y015483D01*
X031182Y015185D01*
X031182Y022035D01*
X031176Y022127D01*
X031128Y022304D01*
X031037Y022462D01*
X030907Y022592D01*
X030749Y022683D01*
X030572Y022731D01*
X030481Y022737D01*
X026191Y022737D01*
X026234Y022634D01*
X026234Y022460D01*
X026215Y022414D01*
X028169Y022414D01*
X028180Y022441D01*
X028303Y022564D01*
X028464Y022631D01*
X028639Y022631D01*
X028800Y022564D01*
X028923Y022441D01*
X028990Y022280D01*
X028990Y022106D01*
X028923Y021945D01*
X028800Y021822D01*
X028639Y021755D01*
X028464Y021755D01*
X028321Y021814D01*
X026400Y021814D01*
X026403Y021811D01*
X026470Y021650D01*
X026470Y021476D01*
X026403Y021315D01*
X026280Y021192D01*
X026119Y021125D01*
X025945Y021125D01*
X025850Y021164D01*
X025151Y021164D01*
X025219Y021096D01*
X028025Y021096D01*
X028153Y021223D01*
X028153Y021296D01*
X028219Y021457D01*
X028343Y021580D01*
X028504Y021647D01*
X028678Y021647D01*
X028839Y021580D01*
X028962Y021457D01*
X029029Y021296D01*
X029029Y021122D01*
X028962Y020960D01*
X028839Y020837D01*
X028678Y020771D01*
X028605Y020771D01*
X028339Y020504D01*
X028221Y020456D01*
X025023Y020456D01*
X024906Y020504D01*
X024816Y020594D01*
X024639Y020771D01*
X019323Y020771D01*
X019233Y020680D01*
X019072Y020613D01*
X018897Y020613D01*
X018736Y020680D01*
X018613Y020803D01*
X018546Y020964D01*
X018546Y021057D01*
X018520Y021046D01*
X018346Y021046D01*
X018185Y021113D01*
X018062Y021236D01*
X017995Y021397D01*
X017995Y021571D01*
X018062Y021732D01*
X018185Y021856D01*
X018346Y021922D01*
X018520Y021922D01*
X018682Y021856D01*
X018733Y021804D01*
X020250Y021804D01*
X020188Y021866D01*
X020121Y022027D01*
X020121Y022201D01*
X020188Y022362D01*
X020311Y022486D01*
X020472Y022552D01*
X020646Y022552D01*
X020807Y022486D01*
X020879Y022414D01*
X024059Y022414D01*
X023537Y022936D01*
X020190Y022936D01*
X020138Y022884D01*
X019977Y022818D01*
X019803Y022818D01*
X019642Y022884D01*
X019599Y022927D01*
X019599Y022718D01*
X019604Y022672D01*
X019599Y022659D01*
X019599Y022645D01*
X019582Y022602D01*
X019568Y022559D01*
X019559Y022548D01*
X019554Y022535D01*
X019541Y022522D01*
X019541Y022381D01*
X019474Y022220D01*
X019351Y022097D01*
X019190Y022030D01*
X019015Y022030D01*
X018854Y022097D01*
X018788Y022164D01*
X018682Y022058D01*
X018520Y021991D01*
X018346Y021991D01*
X018185Y022058D01*
X018062Y022181D01*
X017995Y022342D01*
X017995Y022516D01*
X018062Y022677D01*
X018185Y022801D01*
X018346Y022867D01*
X018419Y022867D01*
X018546Y022995D01*
X018546Y023675D01*
X018477Y023744D01*
X018428Y023862D01*
X018428Y024461D01*
X018477Y024579D01*
X018491Y024593D01*
X018428Y024744D01*
X018428Y024918D01*
X018495Y025079D01*
X018618Y025202D01*
X018779Y025269D01*
X018954Y025269D01*
X019115Y025202D01*
X019238Y025079D01*
X019305Y024918D01*
X019305Y024744D01*
X019245Y024600D01*
X019387Y024600D01*
X019548Y024533D01*
X019671Y024410D01*
X019693Y024357D01*
X019803Y024403D01*
X019977Y024403D01*
X020138Y024336D01*
X020190Y024285D01*
X022789Y024285D01*
X023843Y025338D01*
X023960Y025387D01*
X026547Y025387D01*
X026566Y025433D01*
X026689Y025556D01*
X026850Y025623D01*
X027024Y025623D01*
X027185Y025556D01*
X027309Y025433D01*
X027375Y025272D01*
X027375Y025098D01*
X027309Y024937D01*
X027289Y024917D01*
X028745Y024917D01*
X028745Y033343D01*
X028781Y033431D01*
X028849Y033499D01*
X028937Y033535D01*
X031221Y033535D01*
X031221Y036914D01*
X013835Y036914D01*
X013835Y025618D01*
X013841Y025527D01*
X013888Y025350D01*
X013979Y025191D01*
X014109Y025062D01*
X014267Y024970D01*
X014361Y024945D01*
X014361Y025890D01*
X014397Y025978D01*
X014465Y026046D01*
X014531Y026073D01*
X014531Y026587D01*
X014579Y026705D01*
X014934Y027059D01*
X015024Y027149D01*
X015141Y027198D01*
X017622Y027198D01*
X017654Y027230D01*
X017595Y027255D01*
X017471Y027378D01*
X017405Y027539D01*
X017405Y027713D01*
X013835Y027713D01*
X013835Y027555D02*
X017405Y027555D01*
X017405Y027713D02*
X017471Y027874D01*
X017595Y027997D01*
X017756Y028064D01*
X017930Y028064D01*
X018091Y027997D01*
X018178Y027910D01*
X018153Y027972D01*
X018153Y028146D01*
X018219Y028307D01*
X018271Y028359D01*
X018271Y028989D01*
X018320Y029106D01*
X018428Y029215D01*
X018428Y029288D01*
X018495Y029449D01*
X018618Y029572D01*
X018779Y029639D01*
X018954Y029639D01*
X019115Y029572D01*
X019238Y029449D01*
X019305Y029288D01*
X019305Y029114D01*
X019238Y028953D01*
X019115Y028829D01*
X018954Y028763D01*
X018911Y028763D01*
X018911Y028359D01*
X018962Y028307D01*
X019029Y028146D01*
X019029Y027972D01*
X019002Y027907D01*
X019512Y027907D01*
X019563Y027958D01*
X019724Y028025D01*
X019898Y028025D01*
X020059Y027958D01*
X020183Y027835D01*
X020249Y027674D01*
X020249Y027499D01*
X020183Y027338D01*
X020059Y027215D01*
X019898Y027149D01*
X019724Y027149D01*
X019563Y027215D01*
X019512Y027267D01*
X018128Y027267D01*
X018170Y027249D01*
X018293Y027126D01*
X018360Y026965D01*
X018360Y026791D01*
X018293Y026630D01*
X018170Y026507D01*
X018009Y026440D01*
X017966Y026440D01*
X017966Y026358D01*
X017899Y026197D01*
X017776Y026073D01*
X017615Y026007D01*
X017441Y026007D01*
X017280Y026073D01*
X017189Y026164D01*
X015919Y026164D01*
X015919Y026073D01*
X015985Y026046D01*
X016023Y026008D01*
X016027Y026010D01*
X016073Y026023D01*
X016302Y026023D01*
X016302Y025388D01*
X016392Y025388D01*
X016392Y026023D01*
X016620Y026023D01*
X016666Y026010D01*
X016707Y025987D01*
X016741Y025953D01*
X016764Y025912D01*
X016777Y025866D01*
X016777Y025388D01*
X016392Y025388D01*
X016392Y025298D01*
X016777Y025298D01*
X016777Y024917D01*
X017032Y024917D01*
X017353Y024784D01*
X017353Y024784D01*
X017599Y024538D01*
X017599Y024538D01*
X017732Y024217D01*
X017732Y023436D01*
X017599Y023115D01*
X017599Y023115D01*
X017353Y022870D01*
X017353Y022870D01*
X017032Y022737D01*
X016744Y022737D01*
X016744Y015374D01*
X016708Y015285D01*
X016646Y015224D01*
X016669Y015136D01*
X016669Y014761D01*
X016572Y014399D01*
X023074Y014399D01*
X023087Y014241D02*
X016481Y014241D01*
X016572Y014399D02*
X016385Y014074D01*
X016119Y013809D01*
X015794Y013621D01*
X015432Y013524D01*
X015057Y013524D01*
X014694Y013621D01*
X014369Y013809D01*
X014104Y014074D01*
X013917Y014399D01*
X013835Y014705D01*
X013835Y009043D01*
X013844Y008900D01*
X013918Y008624D01*
X013900Y008693D02*
X031117Y008693D01*
X031159Y008852D02*
X030347Y008852D01*
X030339Y008844D02*
X030602Y009106D01*
X030743Y009448D01*
X030743Y009819D01*
X030602Y010162D01*
X030339Y010424D01*
X029997Y010566D01*
X029626Y010566D01*
X029283Y010424D01*
X029021Y010162D01*
X028879Y009819D01*
X028879Y009448D01*
X029021Y009106D01*
X029283Y008844D01*
X029626Y008702D01*
X029997Y008702D01*
X030339Y008844D01*
X030506Y009010D02*
X031180Y009010D01*
X031182Y009169D02*
X030627Y009169D01*
X030693Y009327D02*
X031182Y009327D01*
X031182Y009486D02*
X030743Y009486D01*
X030743Y009644D02*
X031182Y009644D01*
X031182Y009803D02*
X030743Y009803D01*
X030685Y009961D02*
X031182Y009961D01*
X031182Y010120D02*
X030619Y010120D01*
X030485Y010278D02*
X031182Y010278D01*
X031182Y010437D02*
X030309Y010437D01*
X029892Y010921D02*
X029769Y010798D01*
X029738Y010785D01*
X029697Y010728D01*
X029684Y010696D01*
X029651Y010664D01*
X029625Y010626D01*
X029595Y010608D01*
X029571Y010584D01*
X029529Y010566D01*
X029490Y010542D01*
X029456Y010536D01*
X029424Y010523D01*
X029378Y010523D01*
X029333Y010515D01*
X029299Y010523D01*
X023393Y010530D01*
X023490Y010433D01*
X023556Y010272D01*
X023556Y010098D01*
X023490Y009937D01*
X023367Y009814D01*
X023206Y009747D01*
X023031Y009747D01*
X022870Y009814D01*
X022799Y009885D01*
X022690Y009885D01*
X022690Y009783D01*
X022624Y009622D01*
X022500Y009499D01*
X022339Y009432D01*
X022165Y009432D01*
X022004Y009499D01*
X021933Y009570D01*
X017729Y009570D01*
X017658Y009499D01*
X017497Y009432D01*
X017323Y009432D01*
X017162Y009499D01*
X017038Y009622D01*
X016987Y009747D01*
X016929Y009747D01*
X016768Y009814D01*
X016645Y009937D01*
X016578Y010098D01*
X016578Y010272D01*
X016645Y010433D01*
X016768Y010556D01*
X016929Y010623D01*
X017103Y010623D01*
X017245Y010564D01*
X017196Y010682D01*
X017196Y010830D01*
X016233Y010830D01*
X016162Y010759D01*
X016001Y010692D01*
X015827Y010692D01*
X015665Y010759D01*
X015542Y010882D01*
X015476Y011043D01*
X015476Y011217D01*
X015542Y011378D01*
X015665Y011501D01*
X015827Y011568D01*
X016001Y011568D01*
X016162Y011501D01*
X016233Y011430D01*
X019610Y011430D01*
X019721Y011541D01*
X019882Y011607D01*
X020056Y011607D01*
X020217Y011541D01*
X020340Y011417D01*
X020407Y011256D01*
X020407Y011243D01*
X020469Y011304D01*
X020630Y011371D01*
X020804Y011371D01*
X020896Y011333D01*
X022921Y011331D01*
X022877Y011436D01*
X022877Y011611D01*
X022944Y011772D01*
X023067Y011895D01*
X023228Y011962D01*
X023402Y011962D01*
X023563Y011895D01*
X023635Y011824D01*
X025915Y011824D01*
X025936Y011829D01*
X025974Y011824D01*
X026013Y011824D01*
X026033Y011815D01*
X026055Y011812D01*
X026068Y011804D01*
X026158Y011804D01*
X026319Y011738D01*
X026443Y011614D01*
X026509Y011453D01*
X026509Y011326D01*
X029110Y011323D01*
X029149Y011417D01*
X029272Y011541D01*
X029434Y011607D01*
X029608Y011607D01*
X029769Y011541D01*
X029892Y011417D01*
X029959Y011256D01*
X029959Y011082D01*
X029892Y010921D01*
X029883Y010912D02*
X031182Y010912D01*
X031182Y010754D02*
X029715Y010754D01*
X029583Y010595D02*
X031182Y010595D01*
X031182Y011071D02*
X029954Y011071D01*
X029959Y011229D02*
X031182Y011229D01*
X031182Y011388D02*
X029904Y011388D01*
X029756Y011546D02*
X031182Y011546D01*
X031182Y011705D02*
X026352Y011705D01*
X026471Y011546D02*
X029285Y011546D01*
X029137Y011388D02*
X026509Y011388D01*
X024856Y012814D02*
X031182Y012814D01*
X031182Y012656D02*
X024698Y012656D01*
X024546Y012497D02*
X031182Y012497D01*
X031182Y012339D02*
X024435Y012339D01*
X023849Y012339D02*
X013835Y012339D01*
X013835Y012497D02*
X023737Y012497D01*
X023704Y012656D02*
X013835Y012656D01*
X013835Y012814D02*
X016134Y012814D01*
X016059Y012845D02*
X016220Y012778D01*
X016394Y012778D01*
X016556Y012845D01*
X016607Y012897D01*
X021725Y012897D01*
X021843Y012945D01*
X022070Y013172D01*
X022143Y013172D01*
X022304Y013239D01*
X022427Y013362D01*
X022493Y013523D01*
X022493Y013697D01*
X022427Y013858D01*
X022304Y013982D01*
X022143Y014048D01*
X021968Y014048D01*
X021807Y013982D01*
X021684Y013858D01*
X021617Y013697D01*
X021617Y013625D01*
X021529Y013537D01*
X016607Y013537D01*
X016556Y013588D01*
X016394Y013655D01*
X016220Y013655D01*
X016059Y013588D01*
X015936Y013465D01*
X015869Y013304D01*
X015869Y013129D01*
X015936Y012968D01*
X016059Y012845D01*
X015934Y012973D02*
X013835Y012973D01*
X013835Y013131D02*
X015869Y013131D01*
X015869Y013290D02*
X013835Y013290D01*
X013835Y013448D02*
X015929Y013448D01*
X016104Y013607D02*
X015740Y013607D01*
X016044Y013765D02*
X021645Y013765D01*
X021599Y013607D02*
X016511Y013607D01*
X016234Y013924D02*
X021749Y013924D01*
X022055Y013610D02*
X021662Y013217D01*
X016307Y013217D01*
X016481Y012814D02*
X023729Y012814D01*
X023830Y012973D02*
X021870Y012973D01*
X022029Y013131D02*
X024042Y013131D01*
X024201Y013290D02*
X022354Y013290D01*
X022462Y013448D02*
X024359Y013448D01*
X024518Y013607D02*
X022493Y013607D01*
X022465Y013765D02*
X029092Y013765D01*
X028878Y013924D02*
X028529Y013924D01*
X028338Y013924D02*
X023607Y013924D01*
X023417Y013924D02*
X022362Y013924D01*
X023169Y014082D02*
X016389Y014082D01*
X016920Y014622D02*
X017043Y014499D01*
X017204Y014432D01*
X017379Y014432D01*
X017540Y014499D01*
X017591Y014550D01*
X020496Y014550D01*
X020547Y014499D01*
X020708Y014432D01*
X020883Y014432D01*
X021044Y014499D01*
X021167Y014622D01*
X021234Y014783D01*
X021234Y014957D01*
X021167Y015118D01*
X021044Y015241D01*
X020883Y015308D01*
X020708Y015308D01*
X020547Y015241D01*
X020496Y015190D01*
X017591Y015190D01*
X017540Y015241D01*
X017379Y015308D01*
X017204Y015308D01*
X017043Y015241D01*
X016920Y015118D01*
X016853Y014957D01*
X016853Y014783D01*
X016920Y014622D01*
X016985Y014558D02*
X016615Y014558D01*
X016657Y014716D02*
X016881Y014716D01*
X016853Y014875D02*
X016669Y014875D01*
X016669Y015033D02*
X016885Y015033D01*
X016994Y015192D02*
X016654Y015192D01*
X016734Y015350D02*
X019221Y015350D01*
X019252Y015337D02*
X019426Y015337D01*
X019587Y015404D01*
X019638Y015456D01*
X025102Y015456D01*
X025193Y015365D01*
X025354Y015298D01*
X025528Y015298D01*
X025689Y015365D01*
X025813Y015488D01*
X025879Y015649D01*
X025879Y015823D01*
X025813Y015984D01*
X028888Y015984D01*
X028730Y015826D02*
X025878Y015826D01*
X025879Y015667D02*
X028627Y015667D01*
X028535Y015509D02*
X025821Y015509D01*
X025654Y015350D02*
X028485Y015350D01*
X028443Y015192D02*
X026041Y015192D01*
X026197Y015033D02*
X028426Y015033D01*
X028426Y014875D02*
X026253Y014875D01*
X026250Y014716D02*
X028172Y014716D01*
X028433Y014358D02*
X023512Y014358D01*
X021551Y014558D02*
X021103Y014558D01*
X021206Y014716D02*
X021448Y014716D01*
X021420Y014875D02*
X021234Y014875D01*
X021202Y015033D02*
X021452Y015033D01*
X021560Y015192D02*
X021094Y015192D01*
X020796Y014870D02*
X017292Y014870D01*
X017590Y015192D02*
X020497Y015192D01*
X019456Y015350D02*
X025229Y015350D01*
X025441Y015736D02*
X025402Y015776D01*
X019339Y015776D01*
X018944Y015967D02*
X018858Y015967D01*
X018697Y016034D01*
X018574Y016157D01*
X018507Y016318D01*
X018507Y016493D01*
X018574Y016654D01*
X018697Y016777D01*
X018858Y016844D01*
X019032Y016844D01*
X019193Y016777D01*
X019245Y016726D01*
X024748Y016726D01*
X024799Y016777D01*
X024960Y016844D01*
X025135Y016844D01*
X025296Y016777D01*
X025419Y016654D01*
X025486Y016493D01*
X025486Y016318D01*
X025426Y016174D01*
X025528Y016174D01*
X025689Y016108D01*
X025813Y015984D01*
X025605Y016143D02*
X029109Y016143D01*
X029507Y016301D02*
X025478Y016301D01*
X025486Y016460D02*
X031182Y016460D01*
X031182Y016618D02*
X025434Y016618D01*
X025296Y016777D02*
X031182Y016777D01*
X031182Y016935D02*
X016744Y016935D01*
X016744Y016777D02*
X018697Y016777D01*
X018559Y016618D02*
X016744Y016618D01*
X016744Y016460D02*
X018507Y016460D01*
X018514Y016301D02*
X016744Y016301D01*
X016744Y016143D02*
X018589Y016143D01*
X018818Y015984D02*
X016744Y015984D01*
X016744Y015826D02*
X018901Y015826D01*
X018901Y015863D02*
X018901Y015688D01*
X018967Y015527D01*
X019091Y015404D01*
X019252Y015337D01*
X018986Y015509D02*
X016744Y015509D01*
X016744Y015667D02*
X018910Y015667D01*
X018901Y015863D02*
X018944Y015967D01*
X018945Y016406D02*
X025048Y016406D01*
X024799Y016777D02*
X019194Y016777D01*
X021253Y018451D02*
X021376Y018328D01*
X021537Y018261D01*
X021712Y018261D01*
X021873Y018328D01*
X021944Y018399D01*
X023195Y018399D01*
X023286Y018308D01*
X023447Y018241D01*
X023586Y018241D01*
X023574Y018228D01*
X023507Y018067D01*
X023507Y017893D01*
X023574Y017732D01*
X023697Y017609D01*
X023858Y017542D01*
X024032Y017542D01*
X024193Y017609D01*
X024245Y017660D01*
X027237Y017660D01*
X027355Y017709D01*
X027503Y017857D01*
X027576Y017857D01*
X027737Y017924D01*
X027860Y018047D01*
X027927Y018208D01*
X027927Y018382D01*
X027860Y018543D01*
X027737Y018667D01*
X027576Y018733D01*
X027401Y018733D01*
X027240Y018667D01*
X027117Y018543D01*
X027050Y018382D01*
X027050Y018310D01*
X027041Y018300D01*
X024245Y018300D01*
X024193Y018352D01*
X024032Y018418D01*
X023894Y018418D01*
X023906Y018431D01*
X023973Y018592D01*
X023973Y018766D01*
X023906Y018927D01*
X023783Y019050D01*
X023622Y019117D01*
X023447Y019117D01*
X023286Y019050D01*
X023235Y018999D01*
X021944Y018999D01*
X021873Y019070D01*
X021712Y019137D01*
X021537Y019137D01*
X021376Y019070D01*
X021253Y018947D01*
X021186Y018786D01*
X021186Y018612D01*
X021253Y018451D01*
X021225Y018520D02*
X016744Y018520D01*
X016744Y018362D02*
X021342Y018362D01*
X021186Y018679D02*
X016744Y018679D01*
X016744Y018837D02*
X021208Y018837D01*
X021302Y018996D02*
X016744Y018996D01*
X016744Y019154D02*
X031182Y019154D01*
X031182Y018996D02*
X029294Y018996D01*
X029209Y019031D02*
X029552Y018889D01*
X029814Y018626D01*
X029956Y018284D01*
X029956Y017913D01*
X029814Y017570D01*
X029552Y017308D01*
X029209Y017166D01*
X028838Y017166D01*
X028496Y017308D01*
X028234Y017570D01*
X028092Y017913D01*
X028092Y018284D01*
X028234Y018626D01*
X028496Y018889D01*
X028838Y019031D01*
X029209Y019031D01*
X029603Y018837D02*
X031182Y018837D01*
X031182Y018679D02*
X029762Y018679D01*
X029858Y018520D02*
X031182Y018520D01*
X031182Y018362D02*
X029924Y018362D01*
X029956Y018203D02*
X031182Y018203D01*
X031182Y018045D02*
X029956Y018045D01*
X029945Y017886D02*
X031182Y017886D01*
X031182Y017728D02*
X029879Y017728D01*
X029813Y017569D02*
X031182Y017569D01*
X031182Y017411D02*
X029654Y017411D01*
X029416Y017252D02*
X031182Y017252D01*
X031182Y017094D02*
X016744Y017094D01*
X016744Y017252D02*
X028631Y017252D01*
X028394Y017411D02*
X016744Y017411D01*
X016744Y017569D02*
X023793Y017569D01*
X023578Y017728D02*
X016744Y017728D01*
X016744Y017886D02*
X023510Y017886D01*
X023507Y018045D02*
X016744Y018045D01*
X016744Y018203D02*
X023563Y018203D01*
X023232Y018362D02*
X021907Y018362D01*
X023838Y018996D02*
X028754Y018996D01*
X028444Y018837D02*
X023943Y018837D01*
X023973Y018679D02*
X027269Y018679D01*
X027107Y018520D02*
X023943Y018520D01*
X024170Y018362D02*
X027050Y018362D01*
X027173Y017980D02*
X027488Y018295D01*
X027645Y017886D02*
X028103Y017886D01*
X028092Y018045D02*
X027857Y018045D01*
X027924Y018203D02*
X028092Y018203D01*
X028124Y018362D02*
X027927Y018362D01*
X027870Y018520D02*
X028190Y018520D01*
X028286Y018679D02*
X027708Y018679D01*
X027173Y017980D02*
X023945Y017980D01*
X024097Y017569D02*
X028235Y017569D01*
X028169Y017728D02*
X027373Y017728D01*
X028415Y020581D02*
X031182Y020581D01*
X031182Y020739D02*
X028574Y020739D01*
X028899Y020898D02*
X031182Y020898D01*
X031182Y021056D02*
X029002Y021056D01*
X029029Y021215D02*
X031182Y021215D01*
X031182Y021373D02*
X028997Y021373D01*
X028887Y021532D02*
X031182Y021532D01*
X031182Y021690D02*
X026453Y021690D01*
X026470Y021532D02*
X028294Y021532D01*
X028185Y021373D02*
X026427Y021373D01*
X026303Y021215D02*
X028144Y021215D01*
X028158Y020776D02*
X028591Y021209D01*
X028158Y020776D02*
X025087Y020776D01*
X024772Y021091D01*
X019024Y021091D01*
X018985Y021051D01*
X019292Y020739D02*
X024671Y020739D01*
X024829Y020581D02*
X016744Y020581D01*
X016744Y020739D02*
X018677Y020739D01*
X018574Y020898D02*
X016744Y020898D01*
X016744Y021056D02*
X018322Y021056D01*
X018544Y021056D02*
X018546Y021056D01*
X018433Y021484D02*
X025953Y021484D01*
X026032Y021563D01*
X026234Y022483D02*
X028222Y022483D01*
X028881Y022483D02*
X031016Y022483D01*
X031117Y022324D02*
X028971Y022324D01*
X028990Y022166D02*
X031165Y022166D01*
X031182Y022007D02*
X028949Y022007D01*
X028827Y021849D02*
X031182Y021849D01*
X030822Y022641D02*
X026231Y022641D01*
X025796Y022547D02*
X024378Y022547D01*
X023670Y023256D01*
X022843Y023256D01*
X024063Y024476D01*
X023364Y024860D02*
X019305Y024860D01*
X019287Y024702D02*
X023206Y024702D01*
X023047Y024543D02*
X019523Y024543D01*
X019681Y024385D02*
X019759Y024385D01*
X020021Y024385D02*
X022889Y024385D01*
X022922Y023965D02*
X024024Y025067D01*
X026859Y025067D01*
X026937Y025146D01*
X026937Y025185D01*
X026627Y025494D02*
X016777Y025494D01*
X016777Y025653D02*
X028745Y025653D01*
X028745Y025811D02*
X016777Y025811D01*
X016724Y025970D02*
X028745Y025970D01*
X028745Y026128D02*
X017831Y026128D01*
X017936Y026287D02*
X025698Y026287D01*
X025708Y026282D02*
X025883Y026282D01*
X026044Y026349D01*
X026167Y026472D01*
X026234Y026633D01*
X026234Y026808D01*
X026167Y026969D01*
X026137Y026999D01*
X026280Y027058D01*
X026403Y027181D01*
X026470Y027342D01*
X026470Y027390D01*
X026673Y027390D01*
X026761Y027426D01*
X026829Y027494D01*
X026865Y027582D01*
X026865Y028457D01*
X026829Y028546D01*
X026761Y028613D01*
X026673Y028650D01*
X026178Y028650D01*
X026090Y028613D01*
X026022Y028546D01*
X026002Y028497D01*
X025866Y028497D01*
X025705Y028430D01*
X025653Y028379D01*
X022927Y028379D01*
X022866Y028527D01*
X022743Y028650D01*
X022582Y028717D01*
X022407Y028717D01*
X022246Y028650D01*
X022123Y028527D01*
X022062Y028379D01*
X021243Y028379D01*
X020368Y029255D01*
X020368Y029327D01*
X020301Y029488D01*
X020178Y029612D01*
X020017Y029678D01*
X019842Y029678D01*
X019681Y029612D01*
X019558Y029488D01*
X019491Y029327D01*
X019491Y029153D01*
X019558Y028992D01*
X019681Y028869D01*
X019842Y028802D01*
X019915Y028802D01*
X020929Y027788D01*
X021047Y027739D01*
X022612Y027739D01*
X022589Y027717D01*
X022523Y027556D01*
X022523Y027381D01*
X022589Y027220D01*
X022713Y027097D01*
X022849Y027040D01*
X022434Y027040D01*
X022343Y027131D01*
X022182Y027198D01*
X022008Y027198D01*
X021847Y027131D01*
X021723Y027008D01*
X021657Y026847D01*
X021657Y026673D01*
X021723Y026512D01*
X021847Y026388D01*
X022008Y026322D01*
X022182Y026322D01*
X022343Y026388D01*
X022355Y026400D01*
X025496Y026400D01*
X025547Y026349D01*
X025708Y026282D01*
X025893Y026287D02*
X028745Y026287D01*
X028745Y026445D02*
X026140Y026445D01*
X026221Y026604D02*
X028745Y026604D01*
X028745Y026762D02*
X026234Y026762D01*
X026187Y026921D02*
X028745Y026921D01*
X028745Y027079D02*
X026301Y027079D01*
X026427Y027238D02*
X028745Y027238D01*
X028745Y027396D02*
X028264Y027396D01*
X028248Y027390D02*
X028336Y027426D01*
X028404Y027494D01*
X028440Y027582D01*
X028440Y028007D01*
X028587Y028153D01*
X028635Y028271D01*
X028635Y034216D01*
X028687Y034268D01*
X028753Y034429D01*
X028753Y034521D01*
X028961Y034313D01*
X029277Y034131D01*
X029629Y034036D01*
X029994Y034036D01*
X030346Y034131D01*
X030662Y034313D01*
X030919Y034571D01*
X031102Y034887D01*
X031196Y035239D01*
X031196Y035604D01*
X031102Y035956D01*
X030919Y036272D01*
X031221Y036272D01*
X031221Y036114D02*
X031011Y036114D01*
X030919Y036272D02*
X030662Y036529D01*
X030346Y036712D01*
X029994Y036806D01*
X029629Y036806D01*
X029277Y036712D01*
X028961Y036529D01*
X028703Y036272D01*
X028521Y035956D01*
X028426Y035604D01*
X028426Y035239D01*
X028515Y034907D01*
X028402Y034954D01*
X028228Y034954D01*
X028123Y034911D01*
X028123Y035013D01*
X028142Y035032D01*
X028232Y035122D01*
X028281Y035239D01*
X028281Y035319D01*
X028332Y035370D01*
X028399Y035531D01*
X028399Y035705D01*
X028332Y035866D01*
X028209Y035990D01*
X028048Y036056D01*
X027874Y036056D01*
X027713Y035990D01*
X027589Y035866D01*
X027523Y035705D01*
X027523Y035531D01*
X027585Y035380D01*
X027532Y035327D01*
X027483Y035209D01*
X027483Y034216D01*
X027532Y034098D01*
X027602Y034029D01*
X027602Y031544D01*
X027595Y031541D01*
X027471Y031417D01*
X027405Y031256D01*
X027405Y031233D01*
X027130Y031508D01*
X027040Y031598D01*
X026922Y031647D01*
X026489Y031647D01*
X026398Y031738D01*
X026237Y031804D01*
X026063Y031804D01*
X025902Y031738D01*
X025778Y031614D01*
X025712Y031453D01*
X025712Y031279D01*
X025718Y031264D01*
X025599Y031383D01*
X025438Y031450D01*
X025264Y031450D01*
X025102Y031383D01*
X024979Y031260D01*
X024913Y031099D01*
X024913Y031073D01*
X024811Y031175D01*
X024650Y031241D01*
X024476Y031241D01*
X024315Y031175D01*
X024192Y031051D01*
X024125Y030890D01*
X024125Y030716D01*
X024192Y030555D01*
X024315Y030432D01*
X024476Y030365D01*
X024549Y030365D01*
X024619Y030295D01*
X024555Y030230D01*
X024518Y030142D01*
X024518Y029914D01*
X024207Y029914D01*
X023812Y030309D01*
X023608Y030514D01*
X023608Y030670D01*
X023679Y030741D01*
X023746Y030902D01*
X023746Y031077D01*
X023679Y031238D01*
X023556Y031361D01*
X023395Y031427D01*
X023221Y031427D01*
X023060Y031361D01*
X022936Y031238D01*
X022870Y031077D01*
X022870Y030902D01*
X022936Y030741D01*
X023008Y030670D01*
X023008Y030577D01*
X022917Y030577D01*
X022756Y030510D01*
X022633Y030387D01*
X022566Y030226D01*
X022566Y030052D01*
X022633Y029891D01*
X022756Y029768D01*
X022917Y029701D01*
X023092Y029701D01*
X023253Y029768D01*
X023324Y029839D01*
X023434Y029839D01*
X023811Y029462D01*
X023831Y029413D01*
X023921Y029323D01*
X024039Y029274D01*
X024518Y029274D01*
X024518Y029047D01*
X024555Y028959D01*
X024622Y028891D01*
X024710Y028854D01*
X025306Y028854D01*
X025394Y028891D01*
X025441Y028938D01*
X025488Y028891D01*
X025577Y028854D01*
X026172Y028854D01*
X026260Y028891D01*
X026307Y028938D01*
X026354Y028891D01*
X026443Y028854D01*
X027038Y028854D01*
X027126Y028891D01*
X027173Y028938D01*
X027221Y028891D01*
X027309Y028854D01*
X027904Y028854D01*
X027993Y028891D01*
X027995Y028894D01*
X027995Y028650D01*
X027753Y028650D01*
X027665Y028613D01*
X027597Y028546D01*
X027560Y028457D01*
X027560Y027582D01*
X027597Y027494D01*
X027665Y027426D01*
X027753Y027390D01*
X028248Y027390D01*
X028429Y027555D02*
X028745Y027555D01*
X028745Y027713D02*
X028440Y027713D01*
X028440Y027872D02*
X028745Y027872D01*
X028745Y028030D02*
X028463Y028030D01*
X028601Y028189D02*
X028745Y028189D01*
X028745Y028347D02*
X028635Y028347D01*
X028635Y028506D02*
X028745Y028506D01*
X028745Y028664D02*
X028635Y028664D01*
X028635Y028823D02*
X028745Y028823D01*
X028745Y028981D02*
X028635Y028981D01*
X028635Y029140D02*
X028745Y029140D01*
X028745Y029298D02*
X028635Y029298D01*
X028635Y029457D02*
X028745Y029457D01*
X028745Y029615D02*
X028635Y029615D01*
X028635Y029774D02*
X028745Y029774D01*
X028745Y029932D02*
X028635Y029932D01*
X028635Y030091D02*
X028745Y030091D01*
X028745Y030249D02*
X028635Y030249D01*
X028635Y030408D02*
X028745Y030408D01*
X028745Y030566D02*
X028635Y030566D01*
X028635Y030725D02*
X028745Y030725D01*
X028745Y030883D02*
X028635Y030883D01*
X028635Y031042D02*
X028745Y031042D01*
X028745Y031200D02*
X028635Y031200D01*
X028635Y031359D02*
X028745Y031359D01*
X028745Y031517D02*
X028635Y031517D01*
X028635Y031676D02*
X028745Y031676D01*
X028745Y031834D02*
X028635Y031834D01*
X028635Y031993D02*
X028745Y031993D01*
X028745Y032151D02*
X028635Y032151D01*
X028635Y032310D02*
X028745Y032310D01*
X028745Y032468D02*
X028635Y032468D01*
X028635Y032627D02*
X028745Y032627D01*
X028745Y032785D02*
X028635Y032785D01*
X028635Y032944D02*
X028745Y032944D01*
X028745Y033102D02*
X028635Y033102D01*
X028635Y033261D02*
X028745Y033261D01*
X028776Y033419D02*
X028635Y033419D01*
X028635Y033578D02*
X031221Y033578D01*
X031221Y033736D02*
X028635Y033736D01*
X028635Y033895D02*
X031221Y033895D01*
X031221Y034053D02*
X030056Y034053D01*
X030486Y034212D02*
X031221Y034212D01*
X031221Y034370D02*
X030719Y034370D01*
X030877Y034529D02*
X031221Y034529D01*
X031221Y034687D02*
X030987Y034687D01*
X031078Y034846D02*
X031221Y034846D01*
X031221Y035004D02*
X031133Y035004D01*
X031176Y035163D02*
X031221Y035163D01*
X031221Y035321D02*
X031196Y035321D01*
X031196Y035480D02*
X031221Y035480D01*
X031221Y035638D02*
X031187Y035638D01*
X031221Y035797D02*
X031144Y035797D01*
X031102Y035955D02*
X031221Y035955D01*
X031221Y036431D02*
X030760Y036431D01*
X030558Y036589D02*
X031221Y036589D01*
X031221Y036748D02*
X030212Y036748D01*
X029410Y036748D02*
X015645Y036748D01*
X015779Y036712D02*
X015427Y036806D01*
X015062Y036806D01*
X014710Y036712D01*
X014394Y036529D01*
X014136Y036272D01*
X013954Y035956D01*
X013859Y035604D01*
X013859Y035239D01*
X013954Y034887D01*
X014136Y034571D01*
X014394Y034313D01*
X014710Y034131D01*
X015062Y034036D01*
X015427Y034036D01*
X015779Y034131D01*
X016095Y034313D01*
X016353Y034571D01*
X016535Y034887D01*
X016629Y035239D01*
X016629Y035604D01*
X016535Y035956D01*
X016353Y036272D01*
X016095Y036529D01*
X015779Y036712D01*
X015991Y036589D02*
X029064Y036589D01*
X028862Y036431D02*
X016194Y036431D01*
X016352Y036272D02*
X028704Y036272D01*
X028612Y036114D02*
X016444Y036114D01*
X016535Y035955D02*
X027678Y035955D01*
X027561Y035797D02*
X016578Y035797D01*
X016620Y035638D02*
X027523Y035638D01*
X027544Y035480D02*
X016629Y035480D01*
X016629Y035321D02*
X027530Y035321D01*
X027483Y035163D02*
X016609Y035163D01*
X016566Y035004D02*
X027483Y035004D01*
X027483Y034846D02*
X016511Y034846D01*
X016420Y034687D02*
X027483Y034687D01*
X027483Y034529D02*
X016310Y034529D01*
X016152Y034370D02*
X027483Y034370D01*
X027485Y034212D02*
X015919Y034212D01*
X015489Y034053D02*
X027577Y034053D01*
X027602Y033895D02*
X013835Y033895D01*
X013835Y034053D02*
X015000Y034053D01*
X014570Y034212D02*
X013835Y034212D01*
X013835Y034370D02*
X014337Y034370D01*
X014179Y034529D02*
X013835Y034529D01*
X013835Y034687D02*
X014069Y034687D01*
X013978Y034846D02*
X013835Y034846D01*
X013835Y035004D02*
X013922Y035004D01*
X013880Y035163D02*
X013835Y035163D01*
X013835Y035321D02*
X013859Y035321D01*
X013859Y035480D02*
X013835Y035480D01*
X013835Y035638D02*
X013869Y035638D01*
X013835Y035797D02*
X013911Y035797D01*
X013954Y035955D02*
X013835Y035955D01*
X013835Y036114D02*
X014045Y036114D01*
X014137Y036272D02*
X013835Y036272D01*
X013835Y036431D02*
X014295Y036431D01*
X014497Y036589D02*
X013835Y036589D01*
X013835Y036748D02*
X014844Y036748D01*
X013835Y036906D02*
X031221Y036906D01*
X028521Y035955D02*
X028243Y035955D01*
X028361Y035797D02*
X028478Y035797D01*
X028436Y035638D02*
X028399Y035638D01*
X028378Y035480D02*
X028426Y035480D01*
X028426Y035321D02*
X028283Y035321D01*
X028249Y035163D02*
X028447Y035163D01*
X028489Y035004D02*
X028123Y035004D01*
X027961Y035303D02*
X027961Y035618D01*
X027961Y035303D02*
X027803Y035146D01*
X027803Y034280D01*
X027922Y034161D01*
X027922Y031248D01*
X027843Y031169D01*
X027447Y031359D02*
X027279Y031359D01*
X027121Y031517D02*
X027571Y031517D01*
X027602Y031676D02*
X026460Y031676D01*
X026189Y031406D02*
X026150Y031366D01*
X026189Y031327D01*
X026859Y031327D01*
X027607Y030579D01*
X027607Y029594D01*
X027995Y028823D02*
X020800Y028823D01*
X020958Y028664D02*
X022279Y028664D01*
X022114Y028506D02*
X021117Y028506D01*
X021110Y028059D02*
X019929Y029240D01*
X019793Y028823D02*
X019098Y028823D01*
X019250Y028981D02*
X019569Y028981D01*
X019497Y029140D02*
X019305Y029140D01*
X019300Y029298D02*
X019491Y029298D01*
X019545Y029457D02*
X019230Y029457D01*
X019011Y029615D02*
X019690Y029615D01*
X020169Y029615D02*
X023658Y029615D01*
X023813Y029457D02*
X020314Y029457D01*
X020368Y029298D02*
X023982Y029298D01*
X024103Y029594D02*
X025008Y029594D01*
X024518Y029932D02*
X024189Y029932D01*
X024031Y030091D02*
X024518Y030091D01*
X024573Y030249D02*
X023872Y030249D01*
X023714Y030408D02*
X024373Y030408D01*
X024187Y030566D02*
X023608Y030566D01*
X023663Y030725D02*
X024125Y030725D01*
X024125Y030883D02*
X023738Y030883D01*
X023746Y031042D02*
X024188Y031042D01*
X024377Y031200D02*
X023695Y031200D01*
X023558Y031359D02*
X025078Y031359D01*
X024954Y031200D02*
X024750Y031200D01*
X024563Y030803D02*
X024906Y030461D01*
X025520Y030461D01*
X025874Y030106D01*
X025874Y029594D01*
X026740Y029594D02*
X026740Y030579D01*
X026465Y030854D01*
X025508Y030854D01*
X025351Y031012D01*
X025623Y031359D02*
X025712Y031359D01*
X025738Y031517D02*
X016595Y031517D01*
X016560Y031481D02*
X016822Y031744D01*
X016964Y032086D01*
X016964Y032457D01*
X016822Y032800D01*
X016560Y033062D01*
X016217Y033204D01*
X015846Y033204D01*
X015504Y033062D01*
X015242Y032800D01*
X015100Y032457D01*
X015100Y032086D01*
X015242Y031744D01*
X015504Y031481D01*
X015846Y031340D01*
X016217Y031340D01*
X016560Y031481D01*
X016754Y031676D02*
X025840Y031676D01*
X027602Y031834D02*
X016859Y031834D01*
X016925Y031993D02*
X027602Y031993D01*
X027602Y032151D02*
X016964Y032151D01*
X016964Y032310D02*
X027602Y032310D01*
X027602Y032468D02*
X016959Y032468D01*
X016894Y032627D02*
X027602Y032627D01*
X027602Y032785D02*
X016828Y032785D01*
X016678Y032944D02*
X027602Y032944D01*
X027602Y033102D02*
X016463Y033102D01*
X015601Y033102D02*
X013835Y033102D01*
X013835Y032944D02*
X015385Y032944D01*
X015236Y032785D02*
X013835Y032785D01*
X013835Y032627D02*
X015170Y032627D01*
X015104Y032468D02*
X013835Y032468D01*
X013835Y032310D02*
X015100Y032310D01*
X015100Y032151D02*
X013835Y032151D01*
X013835Y031993D02*
X015138Y031993D01*
X015204Y031834D02*
X013835Y031834D01*
X013835Y031676D02*
X015310Y031676D01*
X015468Y031517D02*
X013835Y031517D01*
X013835Y031359D02*
X015363Y031359D01*
X015393Y031371D02*
X015232Y031304D01*
X015109Y031181D01*
X015042Y031020D01*
X015042Y030846D01*
X015109Y030685D01*
X015232Y030562D01*
X015393Y030495D01*
X015466Y030495D01*
X015575Y030386D01*
X015693Y030337D01*
X017189Y030337D01*
X017240Y030286D01*
X017401Y030219D01*
X017576Y030219D01*
X017737Y030286D01*
X017860Y030409D01*
X017927Y030570D01*
X017927Y030745D01*
X017860Y030906D01*
X017737Y031029D01*
X017576Y031096D01*
X017401Y031096D01*
X017240Y031029D01*
X017189Y030977D01*
X015919Y030977D01*
X015919Y031020D01*
X015852Y031181D01*
X015729Y031304D01*
X015568Y031371D01*
X015393Y031371D01*
X015598Y031359D02*
X015800Y031359D01*
X015833Y031200D02*
X022921Y031200D01*
X022870Y031042D02*
X017706Y031042D01*
X017869Y030883D02*
X022878Y030883D01*
X022953Y030725D02*
X017927Y030725D01*
X017925Y030566D02*
X022891Y030566D01*
X022654Y030408D02*
X017858Y030408D01*
X017647Y030249D02*
X022576Y030249D01*
X022566Y030091D02*
X013835Y030091D01*
X013835Y030249D02*
X017330Y030249D01*
X017488Y030657D02*
X015756Y030657D01*
X015481Y030933D01*
X015093Y030725D02*
X013835Y030725D01*
X013835Y030883D02*
X015042Y030883D01*
X015051Y031042D02*
X013835Y031042D01*
X013835Y031200D02*
X015128Y031200D01*
X015228Y030566D02*
X013835Y030566D01*
X013835Y030408D02*
X015554Y030408D01*
X015910Y031042D02*
X017271Y031042D01*
X016263Y031359D02*
X023057Y031359D01*
X022616Y029932D02*
X013835Y029932D01*
X013835Y029774D02*
X022750Y029774D01*
X023259Y029774D02*
X023499Y029774D01*
X022710Y028664D02*
X027995Y028664D01*
X027580Y028506D02*
X026846Y028506D01*
X026865Y028347D02*
X027560Y028347D01*
X027560Y028189D02*
X026865Y028189D01*
X026865Y028030D02*
X027560Y028030D01*
X027560Y027872D02*
X026865Y027872D01*
X026865Y027713D02*
X027560Y027713D01*
X027572Y027555D02*
X026854Y027555D01*
X026689Y027396D02*
X027737Y027396D01*
X028000Y028020D02*
X028000Y028020D01*
X028020Y028039D01*
X028315Y028335D01*
X028315Y034516D01*
X028729Y034370D02*
X028904Y034370D01*
X029137Y034212D02*
X028635Y034212D01*
X028635Y034053D02*
X029567Y034053D01*
X027602Y033736D02*
X013835Y033736D01*
X013835Y033578D02*
X027602Y033578D01*
X027602Y033419D02*
X013835Y033419D01*
X013835Y033261D02*
X027602Y033261D01*
X024518Y029140D02*
X020483Y029140D01*
X020641Y028981D02*
X024545Y028981D01*
X026005Y028506D02*
X022875Y028506D01*
X022595Y028059D02*
X021110Y028059D01*
X020845Y027872D02*
X020146Y027872D01*
X020233Y027713D02*
X022588Y027713D01*
X022523Y027555D02*
X020249Y027555D01*
X020207Y027396D02*
X022523Y027396D01*
X022582Y027238D02*
X020082Y027238D01*
X019811Y027587D02*
X017882Y027587D01*
X017843Y027626D01*
X018012Y028030D02*
X018153Y028030D01*
X018170Y028189D02*
X013835Y028189D01*
X013835Y028347D02*
X018259Y028347D01*
X018271Y028506D02*
X013835Y028506D01*
X013835Y028664D02*
X018271Y028664D01*
X018271Y028823D02*
X013835Y028823D01*
X013835Y028981D02*
X018271Y028981D01*
X018353Y029140D02*
X013835Y029140D01*
X013835Y029298D02*
X018433Y029298D01*
X018503Y029457D02*
X013835Y029457D01*
X013835Y029615D02*
X018722Y029615D01*
X018866Y029201D02*
X018591Y028925D01*
X018591Y028059D01*
X019029Y028030D02*
X020687Y028030D01*
X020528Y028189D02*
X019011Y028189D01*
X018922Y028347D02*
X020370Y028347D01*
X020211Y028506D02*
X018911Y028506D01*
X018911Y028664D02*
X020053Y028664D01*
X019541Y027238D02*
X018181Y027238D01*
X018312Y027079D02*
X021794Y027079D01*
X021687Y026921D02*
X018360Y026921D01*
X018348Y026762D02*
X021657Y026762D01*
X021685Y026604D02*
X018267Y026604D01*
X018021Y026445D02*
X021790Y026445D01*
X022095Y026760D02*
X022252Y026720D01*
X025796Y026720D01*
X026032Y027429D02*
X023000Y027429D01*
X022961Y027469D01*
X022756Y027079D02*
X022395Y027079D01*
X022595Y028059D02*
X025953Y028059D01*
X025992Y028020D01*
X026425Y028020D01*
X028000Y028020D02*
X028000Y028020D01*
X028745Y025494D02*
X027248Y025494D01*
X027349Y025336D02*
X028745Y025336D01*
X028745Y025177D02*
X027375Y025177D01*
X027343Y025019D02*
X028745Y025019D01*
X023840Y025336D02*
X016392Y025336D01*
X016392Y025494D02*
X016302Y025494D01*
X016302Y025653D02*
X016392Y025653D01*
X016392Y025811D02*
X016302Y025811D01*
X016302Y025970D02*
X016392Y025970D01*
X015919Y026128D02*
X017225Y026128D01*
X017528Y026445D02*
X017488Y026484D01*
X015717Y026484D01*
X015599Y026366D01*
X015599Y025343D01*
X014851Y025343D02*
X014851Y026524D01*
X015205Y026878D01*
X017922Y026878D01*
X017636Y027238D02*
X013835Y027238D01*
X013835Y027396D02*
X017464Y027396D01*
X017470Y027872D02*
X013835Y027872D01*
X013835Y028030D02*
X017674Y028030D01*
X016777Y025177D02*
X018593Y025177D01*
X018470Y025019D02*
X016777Y025019D01*
X017170Y024860D02*
X018428Y024860D01*
X018446Y024702D02*
X017436Y024702D01*
X017594Y024543D02*
X018462Y024543D01*
X018428Y024385D02*
X017663Y024385D01*
X017729Y024226D02*
X018428Y024226D01*
X018428Y024068D02*
X017732Y024068D01*
X017732Y023909D02*
X018428Y023909D01*
X018474Y023751D02*
X017732Y023751D01*
X017732Y023592D02*
X018546Y023592D01*
X018546Y023434D02*
X017731Y023434D01*
X017665Y023275D02*
X018546Y023275D01*
X018546Y023117D02*
X017600Y023117D01*
X017442Y022958D02*
X018510Y022958D01*
X018184Y022800D02*
X017185Y022800D01*
X016744Y022641D02*
X018047Y022641D01*
X017995Y022483D02*
X016744Y022483D01*
X016744Y022324D02*
X018003Y022324D01*
X018077Y022166D02*
X016744Y022166D01*
X016744Y022007D02*
X018307Y022007D01*
X018178Y021849D02*
X016744Y021849D01*
X016744Y021690D02*
X018044Y021690D01*
X017995Y021532D02*
X016744Y021532D01*
X016744Y021373D02*
X018005Y021373D01*
X018083Y021215D02*
X016744Y021215D01*
X016744Y020422D02*
X031182Y020422D01*
X031182Y020264D02*
X016744Y020264D01*
X016744Y020105D02*
X031182Y020105D01*
X031182Y019947D02*
X016744Y019947D01*
X016744Y019788D02*
X031182Y019788D01*
X031182Y019630D02*
X016744Y019630D01*
X016744Y019471D02*
X031182Y019471D01*
X031182Y019313D02*
X016744Y019313D01*
X018689Y021849D02*
X020205Y021849D01*
X020129Y022007D02*
X018559Y022007D01*
X018433Y022429D02*
X018866Y022862D01*
X018866Y023807D01*
X018748Y023925D01*
X018748Y024398D01*
X018866Y024516D01*
X018866Y024831D01*
X019263Y025019D02*
X023523Y025019D01*
X023681Y025177D02*
X019140Y025177D01*
X019890Y023965D02*
X022922Y023965D01*
X022843Y023256D02*
X019890Y023256D01*
X019599Y022800D02*
X023673Y022800D01*
X023832Y022641D02*
X019598Y022641D01*
X019541Y022483D02*
X020308Y022483D01*
X020172Y022324D02*
X019517Y022324D01*
X019419Y022166D02*
X020121Y022166D01*
X020810Y022483D02*
X023990Y022483D01*
X030115Y016301D02*
X031182Y016301D01*
X031182Y016143D02*
X030513Y016143D01*
X030735Y015984D02*
X031182Y015984D01*
X031182Y015826D02*
X030893Y015826D01*
X030996Y015667D02*
X031182Y015667D01*
X031182Y015509D02*
X031087Y015509D01*
X031138Y015350D02*
X031182Y015350D01*
X031180Y015192D02*
X031182Y015192D01*
X031182Y014558D02*
X031140Y014558D01*
X031182Y014399D02*
X031093Y014399D01*
X031182Y014241D02*
X031001Y014241D01*
X030903Y014082D02*
X031182Y014082D01*
X031182Y013924D02*
X030745Y013924D01*
X030531Y013765D02*
X031182Y013765D01*
X031182Y013607D02*
X030153Y013607D01*
X029931Y013448D02*
X031182Y013448D01*
X031182Y013290D02*
X029958Y013290D01*
X029926Y013131D02*
X031182Y013131D01*
X031182Y012973D02*
X029817Y012973D01*
X031182Y012180D02*
X013835Y012180D01*
X013835Y012022D02*
X031182Y012022D01*
X031182Y011863D02*
X023595Y011863D01*
X023035Y011863D02*
X013835Y011863D01*
X013835Y011705D02*
X022916Y011705D01*
X022877Y011546D02*
X020204Y011546D01*
X020353Y011388D02*
X022897Y011388D01*
X023486Y010437D02*
X029313Y010437D01*
X029137Y010278D02*
X023554Y010278D01*
X023556Y010120D02*
X029004Y010120D01*
X028938Y009961D02*
X023500Y009961D01*
X023340Y009803D02*
X028879Y009803D01*
X028879Y009644D02*
X022633Y009644D01*
X022690Y009803D02*
X022897Y009803D01*
X022469Y009486D02*
X028879Y009486D01*
X028929Y009327D02*
X016126Y009327D01*
X016176Y009448D02*
X016035Y009106D01*
X015772Y008844D01*
X015430Y008702D01*
X015059Y008702D01*
X014716Y008844D01*
X014454Y009106D01*
X014312Y009448D01*
X014312Y009819D01*
X014454Y010162D01*
X014716Y010424D01*
X015059Y010566D01*
X015430Y010566D01*
X015772Y010424D01*
X016035Y010162D01*
X016176Y009819D01*
X016176Y009448D01*
X016176Y009486D02*
X017193Y009486D01*
X017029Y009644D02*
X016176Y009644D01*
X016176Y009803D02*
X016795Y009803D01*
X016635Y009961D02*
X016118Y009961D01*
X016052Y010120D02*
X016578Y010120D01*
X016580Y010278D02*
X015918Y010278D01*
X015742Y010437D02*
X016648Y010437D01*
X016861Y010595D02*
X013835Y010595D01*
X013835Y010437D02*
X014746Y010437D01*
X014570Y010278D02*
X013835Y010278D01*
X013835Y010120D02*
X014437Y010120D01*
X014371Y009961D02*
X013835Y009961D01*
X013835Y009803D02*
X014312Y009803D01*
X014312Y009644D02*
X013835Y009644D01*
X013835Y009486D02*
X014312Y009486D01*
X014363Y009327D02*
X013835Y009327D01*
X013835Y009169D02*
X014428Y009169D01*
X014550Y009010D02*
X013837Y009010D01*
X013857Y008852D02*
X014708Y008852D01*
X014220Y008218D02*
X017011Y008218D01*
X017041Y008376D02*
X014062Y008376D01*
X013970Y008535D02*
X017148Y008535D01*
X017040Y008059D02*
X014463Y008059D01*
X015780Y008852D02*
X029275Y008852D01*
X029117Y009010D02*
X015939Y009010D01*
X016061Y009169D02*
X028995Y009169D01*
X030553Y008059D02*
X025850Y008059D01*
X025879Y008218D02*
X030796Y008218D01*
X030955Y008376D02*
X025849Y008376D01*
X025743Y008535D02*
X031047Y008535D01*
X025140Y008535D02*
X017751Y008535D01*
X017626Y009486D02*
X022036Y009486D01*
X019734Y011546D02*
X016054Y011546D01*
X015773Y011546D02*
X013835Y011546D01*
X013835Y011388D02*
X015552Y011388D01*
X015481Y011229D02*
X013835Y011229D01*
X013835Y011071D02*
X015476Y011071D01*
X015530Y010912D02*
X013835Y010912D01*
X013835Y010754D02*
X015677Y010754D01*
X016150Y010754D02*
X017196Y010754D01*
X017171Y010595D02*
X017232Y010595D01*
X014748Y013607D02*
X013835Y013607D01*
X013835Y013765D02*
X014445Y013765D01*
X014255Y013924D02*
X013835Y013924D01*
X013835Y014082D02*
X014099Y014082D01*
X014008Y014241D02*
X013835Y014241D01*
X013835Y014399D02*
X013917Y014399D01*
X013874Y014558D02*
X013835Y014558D01*
X014184Y025019D02*
X014361Y025019D01*
X014361Y025177D02*
X013994Y025177D01*
X013896Y025336D02*
X014361Y025336D01*
X014361Y025494D02*
X013849Y025494D01*
X013835Y025653D02*
X014361Y025653D01*
X014361Y025811D02*
X013835Y025811D01*
X013835Y025970D02*
X014394Y025970D01*
X014531Y026128D02*
X013835Y026128D01*
X013835Y026287D02*
X014531Y026287D01*
X014531Y026445D02*
X013835Y026445D01*
X013835Y026604D02*
X014537Y026604D01*
X014637Y026762D02*
X013835Y026762D01*
X013835Y026921D02*
X014795Y026921D01*
X014954Y027079D02*
X013835Y027079D01*
D14*
X021859Y014870D02*
X025756Y014870D01*
X025815Y014811D01*
X024772Y013295D02*
X024142Y012665D01*
X024772Y013295D02*
X029520Y013295D01*
X029521Y011169D02*
X029345Y010923D01*
X020717Y010933D01*
D15*
X019969Y011169D02*
X019929Y011130D01*
X015914Y011130D01*
X017016Y010185D02*
X023118Y010185D01*
X022252Y009870D02*
X017410Y009870D01*
X017635Y010769D02*
X019585Y010769D01*
X017449Y008217D02*
X025441Y008217D01*
X026071Y011366D02*
X025953Y011524D01*
X023315Y011524D01*
X016740Y012823D02*
X016662Y012823D01*
X021625Y018699D02*
X023535Y018699D01*
X023535Y018679D01*
X020559Y022114D02*
X028473Y022114D01*
X028551Y022193D01*
X024063Y024476D02*
X023945Y024358D01*
X022595Y028059D02*
X022495Y028159D01*
X022495Y028279D01*
X023005Y030139D02*
X023558Y030139D01*
X023308Y030389D01*
X023308Y030989D01*
X023558Y030139D02*
X024103Y029594D01*
X019299Y024161D02*
X019299Y022705D01*
X019103Y022469D01*
D16*
X016032Y032272D03*
X029024Y018098D03*
X029811Y009634D03*
X015244Y009634D03*
D17*
X029811Y014949D03*
X029811Y035421D03*
X015244Y035421D03*
M02*
