G75*
G70*
%OFA0B0*%
%FSLAX24Y24*%
%IPPOS*%
%LPD*%
%AMOC8*
5,1,8,0,0,1.08239X$1,22.5*
%
%ADD10R,0.0400X0.0780*%
%ADD11R,0.0500X0.1000*%
%ADD12C,0.0396*%
%ADD13C,0.0320*%
%ADD14C,0.0240*%
%ADD15C,0.0160*%
%ADD16C,0.0120*%
%ADD17C,0.0317*%
%ADD18C,0.1181*%
%ADD19C,0.1384*%
%ADD20C,0.2290*%
%ADD21C,0.0357*%
%ADD22C,0.0100*%
D10*
X026425Y028020D03*
X028000Y028020D03*
D11*
X027607Y029594D03*
X026740Y029594D03*
X025874Y029594D03*
X025008Y029594D03*
X024142Y029594D03*
X016465Y026445D03*
X015717Y026445D03*
X014969Y026445D03*
D12*
X014654Y029161D03*
X015756Y029122D03*
X017325Y029020D03*
X019414Y026580D03*
X019811Y027587D03*
X020235Y029020D03*
X019960Y029691D03*
X020249Y030770D03*
X021780Y031351D03*
X021229Y033531D03*
X019260Y033571D03*
X019260Y034752D03*
X019260Y036012D03*
X017449Y036012D03*
X017410Y034752D03*
X015914Y033571D03*
X021229Y036012D03*
X024063Y033925D03*
X025244Y033925D03*
X024811Y036445D03*
X026268Y036445D03*
X027961Y035618D03*
X028315Y034516D03*
X025874Y028689D03*
X025796Y027980D03*
X025796Y027350D03*
X023000Y027941D03*
X022652Y028673D03*
X022252Y027429D03*
X022822Y025461D03*
X022822Y025038D03*
X024675Y022739D03*
X025765Y021259D03*
X024324Y019858D03*
X025204Y019048D03*
X023945Y017980D03*
X023535Y018679D03*
X024214Y017098D03*
X024772Y016406D03*
X024890Y015776D03*
X025736Y014811D03*
X024142Y013886D03*
X023473Y014319D03*
X022803Y014122D03*
X022055Y013610D03*
X022764Y013138D03*
X023433Y012508D03*
X024142Y012665D03*
X023315Y011524D03*
X023118Y010185D03*
X022272Y009780D03*
X024024Y009437D03*
X024024Y008650D03*
X025166Y009437D03*
X025441Y008217D03*
X026268Y009437D03*
X025991Y011246D03*
X026110Y012783D03*
X025677Y012783D03*
X027134Y013886D03*
X027567Y013886D03*
X028276Y014043D03*
X027685Y014831D03*
X027685Y016091D03*
X027488Y018295D03*
X028591Y021209D03*
X028551Y022193D03*
X027410Y021366D03*
X021625Y018699D03*
X019733Y018531D03*
X019733Y019319D03*
X017292Y019870D03*
X017292Y018689D03*
X017292Y017508D03*
X018945Y016406D03*
X019339Y015776D03*
X018082Y014143D03*
X017292Y014870D03*
X016307Y013217D03*
X017077Y012733D03*
X016189Y011524D03*
X015548Y011478D03*
X017016Y010185D03*
X017470Y009840D03*
X017449Y008217D03*
X018860Y010848D03*
X019909Y011259D03*
X020847Y011403D03*
X018709Y012390D03*
X020796Y014870D03*
X021859Y014870D03*
X017292Y021051D03*
X017856Y023671D03*
X018315Y024831D03*
X019939Y023256D03*
X020638Y022114D03*
X028458Y012665D03*
X028458Y011839D03*
X029235Y012193D03*
X029822Y012193D03*
X030622Y012272D03*
X030622Y012823D03*
X030835Y010972D03*
X030835Y010539D03*
X028394Y009437D03*
X028394Y008650D03*
X014103Y010146D03*
X014103Y010618D03*
D13*
X020847Y011403D02*
X021514Y010736D01*
X027710Y010736D01*
X028458Y011484D01*
X028458Y011839D01*
X028458Y012665D01*
X030150Y013295D02*
X030622Y012823D01*
X030622Y012272D01*
X030150Y013295D02*
X024772Y013295D01*
X024142Y012665D01*
X025736Y014811D02*
X025756Y014870D01*
X021859Y014870D01*
D14*
X022055Y013610D02*
X021662Y013217D01*
X016307Y013217D01*
X017856Y023671D02*
X017856Y024371D01*
X018315Y024831D01*
D15*
X013918Y008624D02*
X014061Y008377D01*
X014263Y008175D01*
X014510Y008032D01*
X014786Y007958D01*
X014929Y007949D01*
X015103Y007949D01*
X015192Y008038D01*
X015405Y008126D01*
X015635Y008126D01*
X015717Y008092D01*
X015799Y008126D01*
X016029Y008126D01*
X016110Y008092D01*
X016192Y008126D01*
X016422Y008126D01*
X016504Y008092D01*
X016586Y008126D01*
X016816Y008126D01*
X016898Y008092D01*
X016980Y008126D01*
X017013Y008126D01*
X017011Y008129D01*
X017011Y008304D01*
X017078Y008465D01*
X017201Y008588D01*
X017362Y008655D01*
X017536Y008655D01*
X017697Y008588D01*
X017769Y008517D01*
X025122Y008517D01*
X025193Y008588D01*
X025354Y008655D01*
X025528Y008655D01*
X025689Y008588D01*
X025813Y008465D01*
X025879Y008304D01*
X025879Y008129D01*
X025813Y007968D01*
X025793Y007949D01*
X030087Y007949D01*
X030230Y007958D01*
X030506Y008032D01*
X030753Y008175D01*
X030955Y008377D01*
X031098Y008624D01*
X031098Y008624D01*
X031172Y008900D01*
X031182Y009043D01*
X031182Y014712D01*
X031102Y014414D01*
X030919Y014098D01*
X030662Y013841D01*
X030346Y013658D01*
X030329Y013654D01*
X030377Y013634D01*
X030779Y013232D01*
X030871Y013194D01*
X030994Y013071D01*
X031060Y012910D01*
X031060Y012736D01*
X031022Y012644D01*
X031022Y012451D01*
X031060Y012359D01*
X031060Y012185D01*
X030994Y012023D01*
X030871Y011900D01*
X030710Y011834D01*
X030535Y011834D01*
X030374Y011900D01*
X030251Y012023D01*
X030184Y012185D01*
X030184Y012359D01*
X030222Y012451D01*
X030222Y012644D01*
X030213Y012667D01*
X029984Y012895D01*
X028837Y012895D01*
X028896Y012753D01*
X028896Y012578D01*
X028858Y012486D01*
X028858Y012018D01*
X028896Y011926D01*
X028896Y011751D01*
X028858Y011659D01*
X028858Y011405D01*
X028797Y011258D01*
X028684Y011145D01*
X027936Y010397D01*
X027789Y010336D01*
X023530Y010336D01*
X023556Y010272D01*
X023556Y010098D01*
X023490Y009937D01*
X023367Y009814D01*
X023206Y009747D01*
X023031Y009747D01*
X022870Y009814D01*
X022799Y009885D01*
X022703Y009885D01*
X022710Y009867D01*
X022710Y009693D01*
X022644Y009532D01*
X022520Y009409D01*
X022359Y009342D01*
X022185Y009342D01*
X022024Y009409D01*
X021953Y009480D01*
X017729Y009480D01*
X017718Y009469D01*
X017557Y009402D01*
X017383Y009402D01*
X017222Y009469D01*
X017098Y009592D01*
X017034Y009747D01*
X016929Y009747D01*
X016768Y009814D01*
X016645Y009937D01*
X016578Y010098D01*
X016578Y010272D01*
X016645Y010433D01*
X016730Y010518D01*
X016160Y010518D01*
X016053Y010563D01*
X015576Y011040D01*
X015461Y011040D01*
X015300Y011106D01*
X015177Y011230D01*
X015110Y011391D01*
X015110Y011565D01*
X015177Y011726D01*
X015300Y011849D01*
X015461Y011916D01*
X015635Y011916D01*
X015796Y011849D01*
X015846Y011800D01*
X015941Y011895D01*
X016102Y011962D01*
X016276Y011962D01*
X016437Y011895D01*
X016561Y011772D01*
X016627Y011611D01*
X016627Y011549D01*
X019579Y011549D01*
X019661Y011631D01*
X019822Y011697D01*
X019996Y011697D01*
X020157Y011631D01*
X020280Y011507D01*
X020347Y011346D01*
X020347Y011172D01*
X020280Y011011D01*
X020157Y010888D01*
X019996Y010821D01*
X019822Y010821D01*
X019661Y010888D01*
X019579Y010969D01*
X019284Y010969D01*
X019298Y010935D01*
X019298Y010761D01*
X019232Y010600D01*
X019117Y010485D01*
X021199Y010485D01*
X021175Y010510D01*
X021175Y010510D01*
X020691Y010994D01*
X020599Y011032D01*
X020475Y011155D01*
X020409Y011316D01*
X020409Y011490D01*
X020475Y011651D01*
X020599Y011774D01*
X020760Y011841D01*
X020934Y011841D01*
X021095Y011774D01*
X021218Y011651D01*
X021256Y011559D01*
X021679Y011136D01*
X023106Y011136D01*
X023067Y011152D01*
X022944Y011275D01*
X022877Y011436D01*
X022877Y011611D01*
X022944Y011772D01*
X023067Y011895D01*
X023228Y011962D01*
X023402Y011962D01*
X023563Y011895D01*
X023629Y011829D01*
X025768Y011829D01*
X025878Y011783D01*
X025977Y011684D01*
X026078Y011684D01*
X026239Y011618D01*
X026363Y011494D01*
X026429Y011333D01*
X026429Y011159D01*
X026420Y011136D01*
X027544Y011136D01*
X028058Y011650D01*
X028058Y011659D01*
X028020Y011751D01*
X028020Y011926D01*
X028058Y012018D01*
X028058Y012486D01*
X028020Y012578D01*
X028020Y012753D01*
X028079Y012895D01*
X024938Y012895D01*
X024552Y012509D01*
X024513Y012417D01*
X024390Y012294D01*
X024229Y012227D01*
X024055Y012227D01*
X023894Y012294D01*
X023771Y012417D01*
X023704Y012578D01*
X023704Y012753D01*
X023771Y012914D01*
X023894Y013037D01*
X023986Y013075D01*
X024433Y013522D01*
X024545Y013634D01*
X024692Y013695D01*
X028004Y013695D01*
X027904Y013795D01*
X027838Y013956D01*
X027838Y013999D01*
X023772Y013999D01*
X023721Y013947D01*
X023560Y013881D01*
X023386Y013881D01*
X023225Y013947D01*
X023101Y014071D01*
X023035Y014232D01*
X023035Y014406D01*
X023061Y014470D01*
X022038Y014470D01*
X021946Y014432D01*
X021771Y014432D01*
X021610Y014499D01*
X021487Y014622D01*
X021420Y014783D01*
X021420Y014957D01*
X021487Y015118D01*
X021610Y015241D01*
X021771Y015308D01*
X021946Y015308D01*
X022038Y015270D01*
X025742Y015270D01*
X025807Y015275D01*
X025821Y015270D01*
X025836Y015270D01*
X025896Y015245D01*
X025958Y015224D01*
X025969Y015215D01*
X025983Y015209D01*
X026029Y015163D01*
X026078Y015120D01*
X026085Y015107D01*
X026095Y015097D01*
X026120Y015036D01*
X026150Y014978D01*
X026151Y014963D01*
X026156Y014950D01*
X026156Y014943D01*
X026175Y014898D01*
X026175Y014724D01*
X026139Y014639D01*
X028064Y014639D01*
X028182Y014590D01*
X028290Y014481D01*
X028363Y014481D01*
X028520Y014416D01*
X028426Y014766D01*
X028426Y015131D01*
X028521Y015483D01*
X028703Y015799D01*
X028961Y016057D01*
X029277Y016239D01*
X029629Y016334D01*
X029994Y016334D01*
X030346Y016239D01*
X030662Y016057D01*
X030919Y015799D01*
X031102Y015483D01*
X031182Y015185D01*
X031182Y022508D01*
X031172Y022651D01*
X031098Y022927D01*
X030955Y023174D01*
X030753Y023376D01*
X030506Y023519D01*
X030230Y023593D01*
X030087Y023603D01*
X024519Y023603D01*
X024198Y023736D01*
X024198Y023736D01*
X023952Y023981D01*
X023952Y023981D01*
X023819Y024303D01*
X023819Y024808D01*
X023879Y024952D01*
X023829Y024952D01*
X022672Y023795D01*
X022588Y023710D01*
X022477Y023665D01*
X020221Y023665D01*
X020185Y023628D01*
X020187Y023627D01*
X020258Y023556D01*
X023867Y023556D01*
X023978Y023510D01*
X024402Y023086D01*
X024426Y023110D01*
X024587Y023177D01*
X024762Y023177D01*
X024923Y023110D01*
X025046Y022987D01*
X025113Y022826D01*
X025113Y022652D01*
X025046Y022491D01*
X024969Y022414D01*
X028169Y022414D01*
X028180Y022441D01*
X028303Y022564D01*
X028464Y022631D01*
X028639Y022631D01*
X028800Y022564D01*
X028923Y022441D01*
X028990Y022280D01*
X028990Y022106D01*
X028923Y021945D01*
X028800Y021822D01*
X028639Y021755D01*
X028464Y021755D01*
X028321Y021814D01*
X020958Y021814D01*
X020886Y021743D01*
X020725Y021676D01*
X020551Y021676D01*
X020390Y021743D01*
X020267Y021866D01*
X020200Y022027D01*
X020200Y022201D01*
X020267Y022362D01*
X020390Y022486D01*
X020551Y022552D01*
X020725Y022552D01*
X020886Y022486D01*
X020958Y022414D01*
X024380Y022414D01*
X024360Y022434D01*
X024270Y022434D01*
X024160Y022480D01*
X024075Y022564D01*
X023683Y022956D01*
X020258Y022956D01*
X020187Y022884D01*
X020026Y022818D01*
X019852Y022818D01*
X019691Y022884D01*
X019567Y023008D01*
X019501Y023169D01*
X019501Y023343D01*
X019567Y023504D01*
X019683Y023619D01*
X019575Y023728D01*
X019511Y023881D01*
X019511Y024048D01*
X019575Y024202D01*
X019692Y024319D01*
X019846Y024383D01*
X020013Y024383D01*
X020166Y024319D01*
X020221Y024265D01*
X022293Y024265D01*
X023405Y025376D01*
X023405Y025430D01*
X023466Y025577D01*
X023578Y025689D01*
X023725Y025750D01*
X023793Y025750D01*
X024199Y026156D01*
X024209Y026180D01*
X024294Y026265D01*
X024404Y026311D01*
X026683Y026311D01*
X026721Y026349D01*
X026868Y026409D01*
X027027Y026409D01*
X027173Y026349D01*
X027285Y026236D01*
X027346Y026090D01*
X027346Y025931D01*
X027285Y025785D01*
X027173Y025673D01*
X027027Y025612D01*
X026868Y025612D01*
X026721Y025673D01*
X026683Y025711D01*
X024574Y025711D01*
X024266Y025402D01*
X024519Y025508D01*
X028154Y025508D01*
X028154Y027390D01*
X027753Y027390D01*
X027665Y027426D01*
X027597Y027494D01*
X027560Y027582D01*
X027560Y028457D01*
X027597Y028546D01*
X027665Y028613D01*
X027753Y028650D01*
X027995Y028650D01*
X027995Y028894D01*
X027993Y028891D01*
X027904Y028854D01*
X027309Y028854D01*
X027221Y028891D01*
X027173Y028938D01*
X027126Y028891D01*
X027038Y028854D01*
X026443Y028854D01*
X026428Y028861D01*
X026590Y028699D01*
X026639Y028650D01*
X026673Y028650D01*
X026761Y028613D01*
X026829Y028546D01*
X026865Y028457D01*
X026865Y027582D01*
X026829Y027494D01*
X026761Y027426D01*
X026673Y027390D01*
X026234Y027390D01*
X026234Y027263D01*
X026167Y027102D01*
X026044Y026979D01*
X025883Y026912D01*
X025708Y026912D01*
X025547Y026979D01*
X025466Y027060D01*
X022503Y027060D01*
X022500Y027058D01*
X022339Y026991D01*
X022165Y026991D01*
X022004Y027058D01*
X021881Y027181D01*
X021814Y027342D01*
X021814Y027516D01*
X021881Y027677D01*
X022004Y027801D01*
X022165Y027867D01*
X022339Y027867D01*
X022500Y027801D01*
X022624Y027677D01*
X022639Y027640D01*
X022681Y027640D01*
X022629Y027693D01*
X022562Y027854D01*
X022562Y028028D01*
X022629Y028189D01*
X022674Y028235D01*
X022565Y028235D01*
X022404Y028301D01*
X022281Y028425D01*
X022214Y028586D01*
X022214Y028687D01*
X020500Y030401D01*
X020498Y030399D01*
X020337Y030332D01*
X020162Y030332D01*
X020001Y030399D01*
X019878Y030522D01*
X019811Y030683D01*
X019811Y030857D01*
X019878Y031018D01*
X020001Y031142D01*
X020162Y031208D01*
X020337Y031208D01*
X020498Y031142D01*
X020569Y031070D01*
X020614Y031070D01*
X020725Y031024D01*
X022638Y029111D01*
X022739Y029111D01*
X022900Y029044D01*
X022982Y028963D01*
X023687Y028963D01*
X023652Y029047D01*
X023652Y030142D01*
X023689Y030230D01*
X023697Y030239D01*
X023529Y030239D01*
X023403Y030114D01*
X023403Y030060D01*
X023343Y029913D01*
X023230Y029801D01*
X023084Y029740D01*
X022925Y029740D01*
X022779Y029801D01*
X022667Y029913D01*
X022606Y030060D01*
X022606Y030218D01*
X022667Y030365D01*
X022715Y030413D01*
X022715Y030744D01*
X022759Y030850D01*
X023106Y031198D01*
X023106Y031266D01*
X023154Y031381D01*
X023114Y031381D01*
X022960Y031444D01*
X022842Y031562D01*
X022779Y031716D01*
X022779Y031882D01*
X022842Y032036D01*
X016943Y032036D01*
X016964Y032086D02*
X016964Y032457D01*
X016822Y032800D01*
X016560Y033062D01*
X016217Y033204D01*
X015846Y033204D01*
X015504Y033062D01*
X015482Y033040D01*
X015442Y033139D01*
X015324Y033256D01*
X015170Y033320D01*
X015004Y033320D01*
X014850Y033256D01*
X014732Y033139D01*
X014668Y032985D01*
X014668Y032818D01*
X014732Y032665D01*
X014787Y032610D01*
X014787Y032095D01*
X014776Y032100D01*
X014610Y032100D01*
X014456Y032036D01*
X014418Y031997D01*
X014379Y032036D01*
X014225Y032100D01*
X014059Y032100D01*
X013905Y032036D01*
X013835Y031965D01*
X013835Y036914D01*
X031221Y036914D01*
X031221Y034992D01*
X031130Y034992D01*
X031196Y035239D01*
X031196Y035604D01*
X031102Y035956D01*
X030919Y036272D01*
X030662Y036529D01*
X030346Y036712D01*
X029994Y036806D01*
X029629Y036806D01*
X029277Y036712D01*
X028961Y036529D01*
X028703Y036272D01*
X028521Y035956D01*
X028426Y035604D01*
X028426Y035239D01*
X028493Y034992D01*
X028346Y034992D01*
X028258Y034955D01*
X028256Y034954D01*
X028228Y034954D01*
X028123Y034911D01*
X028123Y035013D01*
X028142Y035032D01*
X028232Y035122D01*
X028281Y035239D01*
X028281Y035319D01*
X028332Y035370D01*
X028399Y035531D01*
X028399Y035705D01*
X028332Y035866D01*
X028209Y035990D01*
X028048Y036056D01*
X027874Y036056D01*
X027713Y035990D01*
X027589Y035866D01*
X027523Y035705D01*
X027523Y035531D01*
X027585Y035380D01*
X027532Y035327D01*
X027483Y035209D01*
X027483Y034850D01*
X027375Y034895D01*
X027208Y034895D01*
X027055Y034831D01*
X026937Y034713D01*
X026873Y034560D01*
X026873Y034393D01*
X026937Y034239D01*
X027002Y034175D01*
X027002Y032431D01*
X026660Y032089D01*
X023499Y032089D01*
X023434Y032154D01*
X023280Y032218D01*
X023114Y032218D01*
X022960Y032154D01*
X022842Y032036D01*
X022779Y031878D02*
X017096Y031878D01*
X017056Y031918D02*
X016918Y031975D01*
X016964Y032086D01*
X016964Y032195D02*
X023058Y032195D01*
X023336Y032195D02*
X026765Y032195D01*
X026923Y032353D02*
X016964Y032353D01*
X016941Y032512D02*
X027002Y032512D01*
X027002Y032670D02*
X016876Y032670D01*
X016793Y032829D02*
X027002Y032829D01*
X027002Y032987D02*
X016635Y032987D01*
X016358Y033146D02*
X027002Y033146D01*
X027002Y033304D02*
X015209Y033304D01*
X014965Y033304D02*
X013835Y033304D01*
X013835Y033146D02*
X014739Y033146D01*
X014669Y032987D02*
X013835Y032987D01*
X013835Y032829D02*
X014668Y032829D01*
X014730Y032670D02*
X013835Y032670D01*
X013835Y032512D02*
X014787Y032512D01*
X014787Y032353D02*
X013835Y032353D01*
X013835Y032195D02*
X014787Y032195D01*
X014457Y032036D02*
X014378Y032036D01*
X013905Y032036D02*
X013835Y032036D01*
X013835Y031397D02*
X013842Y031389D01*
X013842Y030204D01*
X013888Y030094D01*
X014019Y029963D01*
X014019Y029909D01*
X014080Y029762D01*
X014192Y029650D01*
X014338Y029589D01*
X014497Y029589D01*
X014643Y029650D01*
X014756Y029762D01*
X014816Y029909D01*
X014816Y030068D01*
X014756Y030214D01*
X014643Y030326D01*
X014497Y030387D01*
X014443Y030387D01*
X014442Y030388D01*
X014442Y031341D01*
X014456Y031326D01*
X014610Y031263D01*
X014687Y031263D01*
X014905Y031045D01*
X014905Y029858D01*
X014867Y029820D01*
X014806Y029674D01*
X014806Y029515D01*
X014867Y029369D01*
X014979Y029256D01*
X015126Y029196D01*
X015284Y029196D01*
X015431Y029256D01*
X015543Y029369D01*
X015604Y029515D01*
X015604Y029674D01*
X015543Y029820D01*
X015505Y029858D01*
X015505Y031075D01*
X015626Y030954D01*
X015736Y030909D01*
X016525Y030909D01*
X016635Y030954D01*
X016825Y031145D01*
X016902Y031145D01*
X017056Y031208D01*
X017174Y031326D01*
X017238Y031480D01*
X017238Y031646D01*
X017174Y031800D01*
X017056Y031918D01*
X017207Y031719D02*
X022779Y031719D01*
X022844Y031561D02*
X017238Y031561D01*
X017205Y031402D02*
X023063Y031402D01*
X023106Y031244D02*
X017091Y031244D01*
X016765Y031085D02*
X019945Y031085D01*
X019840Y030927D02*
X016568Y030927D01*
X015693Y030927D02*
X015505Y030927D01*
X015505Y030768D02*
X019811Y030768D01*
X019842Y030610D02*
X015505Y030610D01*
X015505Y030451D02*
X019949Y030451D01*
X020608Y030293D02*
X015505Y030293D01*
X015505Y030134D02*
X020767Y030134D01*
X020925Y029976D02*
X015505Y029976D01*
X015544Y029817D02*
X021084Y029817D01*
X021242Y029659D02*
X015604Y029659D01*
X015597Y029500D02*
X021401Y029500D01*
X021559Y029342D02*
X020533Y029342D01*
X020483Y029391D02*
X020322Y029458D01*
X020148Y029458D01*
X019987Y029391D01*
X019936Y029340D01*
X017625Y029340D01*
X017573Y029391D01*
X017412Y029458D01*
X017238Y029458D01*
X017077Y029391D01*
X016954Y029268D01*
X016887Y029107D01*
X016887Y028932D01*
X016954Y028771D01*
X017077Y028648D01*
X017238Y028581D01*
X017412Y028581D01*
X017503Y028619D01*
X017483Y028571D01*
X017483Y028456D01*
X017341Y028397D01*
X017303Y028359D01*
X015736Y028359D01*
X015626Y028313D01*
X015541Y028229D01*
X014799Y027487D01*
X014799Y027487D01*
X014714Y027402D01*
X014669Y027292D01*
X014669Y027184D01*
X014583Y027148D01*
X014515Y027081D01*
X014479Y026993D01*
X014479Y025897D01*
X014515Y025809D01*
X014583Y025741D01*
X014671Y025705D01*
X015267Y025705D01*
X015343Y025736D01*
X015419Y025705D01*
X016015Y025705D01*
X016103Y025741D01*
X016141Y025780D01*
X016145Y025777D01*
X016191Y025765D01*
X016420Y025765D01*
X016420Y026400D01*
X016510Y026400D01*
X016510Y026490D01*
X016895Y026490D01*
X016895Y026969D01*
X016883Y027014D01*
X016859Y027055D01*
X016825Y027089D01*
X016784Y027113D01*
X016739Y027125D01*
X016510Y027125D01*
X016510Y026490D01*
X016420Y026490D01*
X016420Y027125D01*
X016191Y027125D01*
X016145Y027113D01*
X016141Y027110D01*
X016103Y027148D01*
X016043Y027173D01*
X016235Y027365D01*
X016988Y027365D01*
X017026Y027327D01*
X017173Y027267D01*
X017332Y027267D01*
X017478Y027327D01*
X017590Y027439D01*
X017651Y027586D01*
X017651Y027662D01*
X017793Y027721D01*
X017905Y027833D01*
X017966Y027980D01*
X017966Y028095D01*
X018108Y028154D01*
X018146Y028192D01*
X018782Y028192D01*
X019373Y027600D01*
X019373Y027499D01*
X019440Y027338D01*
X019563Y027215D01*
X019724Y027149D01*
X019898Y027149D01*
X020059Y027215D01*
X020183Y027338D01*
X020249Y027499D01*
X020249Y027674D01*
X020183Y027835D01*
X020059Y027958D01*
X019898Y028025D01*
X019797Y028025D01*
X019160Y028662D01*
X019123Y028700D01*
X019936Y028700D01*
X019987Y028648D01*
X020148Y028581D01*
X020322Y028581D01*
X020483Y028648D01*
X020607Y028771D01*
X020673Y028932D01*
X020673Y029107D01*
X020607Y029268D01*
X020483Y029391D01*
X020642Y029183D02*
X021718Y029183D01*
X021876Y029025D02*
X020673Y029025D01*
X020646Y028866D02*
X022035Y028866D01*
X022193Y028708D02*
X020543Y028708D01*
X020235Y029020D02*
X017325Y029020D01*
X016919Y029183D02*
X013835Y029183D01*
X013835Y029025D02*
X016887Y029025D01*
X016915Y028866D02*
X013835Y028866D01*
X013835Y028708D02*
X017018Y028708D01*
X017335Y028391D02*
X013835Y028391D01*
X013835Y028549D02*
X017483Y028549D01*
X017966Y028074D02*
X018900Y028074D01*
X019059Y027915D02*
X017939Y027915D01*
X017829Y027757D02*
X019217Y027757D01*
X019373Y027598D02*
X017651Y027598D01*
X017590Y027440D02*
X019398Y027440D01*
X019497Y027281D02*
X017366Y027281D01*
X017138Y027281D02*
X016150Y027281D01*
X016129Y027123D02*
X016182Y027123D01*
X016420Y027123D02*
X016510Y027123D01*
X016510Y026964D02*
X016420Y026964D01*
X016420Y026806D02*
X016510Y026806D01*
X016510Y026647D02*
X016420Y026647D01*
X016510Y026489D02*
X028154Y026489D01*
X028154Y026647D02*
X016895Y026647D01*
X016895Y026806D02*
X028154Y026806D01*
X028154Y026964D02*
X026008Y026964D01*
X026175Y027123D02*
X028154Y027123D01*
X028154Y027281D02*
X026234Y027281D01*
X025583Y026964D02*
X016895Y026964D01*
X016747Y027123D02*
X021939Y027123D01*
X021839Y027281D02*
X020125Y027281D01*
X020225Y027440D02*
X021814Y027440D01*
X021848Y027598D02*
X020249Y027598D01*
X020215Y027757D02*
X021960Y027757D01*
X022544Y027757D02*
X022602Y027757D01*
X022562Y027915D02*
X020102Y027915D01*
X019749Y028074D02*
X022581Y028074D01*
X022672Y028232D02*
X019590Y028232D01*
X019432Y028391D02*
X022315Y028391D01*
X022229Y028549D02*
X019273Y028549D01*
X019937Y029342D02*
X017623Y029342D01*
X017028Y029342D02*
X015516Y029342D01*
X014894Y029342D02*
X013835Y029342D01*
X013835Y029500D02*
X014813Y029500D01*
X014806Y029659D02*
X014652Y029659D01*
X014778Y029817D02*
X014866Y029817D01*
X014905Y029976D02*
X014816Y029976D01*
X014789Y030134D02*
X014905Y030134D01*
X014905Y030293D02*
X014677Y030293D01*
X014905Y030451D02*
X014442Y030451D01*
X014442Y030610D02*
X014905Y030610D01*
X014905Y030768D02*
X014442Y030768D01*
X014442Y030927D02*
X014905Y030927D01*
X014865Y031085D02*
X014442Y031085D01*
X014442Y031244D02*
X014706Y031244D01*
X013842Y031244D02*
X013835Y031244D01*
X013835Y031397D02*
X013835Y026602D01*
X013844Y026459D01*
X013918Y026183D01*
X014061Y025936D01*
X014263Y025734D01*
X014510Y025591D01*
X014786Y025517D01*
X014929Y025508D01*
X017032Y025508D01*
X017353Y025375D01*
X017353Y025375D01*
X017599Y025129D01*
X017599Y025129D01*
X017732Y024808D01*
X017732Y024757D01*
X017877Y024902D01*
X017877Y024918D01*
X017944Y025079D01*
X018067Y025202D01*
X018228Y025269D01*
X018402Y025269D01*
X018563Y025202D01*
X018687Y025079D01*
X018753Y024918D01*
X018753Y024744D01*
X018687Y024583D01*
X018563Y024459D01*
X018402Y024393D01*
X018386Y024393D01*
X018216Y024222D01*
X018216Y023931D01*
X018227Y023919D01*
X018294Y023758D01*
X018294Y023584D01*
X018227Y023423D01*
X018104Y023300D01*
X017943Y023233D01*
X017769Y023233D01*
X017608Y023300D01*
X017485Y023423D01*
X017418Y023584D01*
X017418Y023758D01*
X017447Y023830D01*
X017353Y023736D01*
X017353Y023736D01*
X017032Y023603D01*
X016665Y023603D01*
X016665Y015151D01*
X016669Y015136D01*
X016669Y014761D01*
X016572Y014399D01*
X016385Y014074D01*
X016119Y013809D01*
X015794Y013621D01*
X015432Y013524D01*
X015057Y013524D01*
X014694Y013621D01*
X014369Y013809D01*
X014104Y014074D01*
X013917Y014399D01*
X013835Y014705D01*
X013835Y009043D01*
X013844Y008900D01*
X013918Y008624D01*
X013945Y008578D02*
X017191Y008578D01*
X017059Y008420D02*
X014036Y008420D01*
X014177Y008261D02*
X017011Y008261D01*
X016924Y008103D02*
X016872Y008103D01*
X016530Y008103D02*
X016478Y008103D01*
X016136Y008103D02*
X016085Y008103D01*
X015743Y008103D02*
X015691Y008103D01*
X015349Y008103D02*
X014388Y008103D01*
X013888Y008737D02*
X031128Y008737D01*
X031171Y008895D02*
X013845Y008895D01*
X013835Y009054D02*
X031182Y009054D01*
X031182Y009212D02*
X030088Y009212D01*
X029957Y009158D02*
X030262Y009284D01*
X030496Y009518D01*
X030622Y009823D01*
X030622Y010153D01*
X030496Y010459D01*
X030262Y010692D01*
X029957Y010819D01*
X029626Y010819D01*
X029321Y010692D01*
X029087Y010459D01*
X028961Y010153D01*
X028961Y009823D01*
X029087Y009518D01*
X029321Y009284D01*
X029626Y009158D01*
X029957Y009158D01*
X030348Y009371D02*
X031182Y009371D01*
X031182Y009529D02*
X030500Y009529D01*
X030566Y009688D02*
X031182Y009688D01*
X031182Y009846D02*
X030622Y009846D01*
X030622Y010005D02*
X031182Y010005D01*
X031182Y010163D02*
X030618Y010163D01*
X030553Y010322D02*
X031182Y010322D01*
X031182Y010480D02*
X030474Y010480D01*
X030316Y010639D02*
X031182Y010639D01*
X031182Y010797D02*
X030009Y010797D01*
X029574Y010797D02*
X028336Y010797D01*
X028178Y010639D02*
X029267Y010639D01*
X029109Y010480D02*
X028019Y010480D01*
X028495Y010956D02*
X031182Y010956D01*
X031182Y011114D02*
X028653Y011114D01*
X028803Y011273D02*
X031182Y011273D01*
X031182Y011431D02*
X028858Y011431D01*
X028858Y011590D02*
X031182Y011590D01*
X031182Y011748D02*
X028894Y011748D01*
X028896Y011907D02*
X030368Y011907D01*
X030234Y012065D02*
X028858Y012065D01*
X028858Y012224D02*
X030184Y012224D01*
X030194Y012382D02*
X028858Y012382D01*
X028880Y012541D02*
X030222Y012541D01*
X030181Y012699D02*
X028896Y012699D01*
X028852Y012858D02*
X030022Y012858D01*
X030519Y013492D02*
X031182Y013492D01*
X031182Y013650D02*
X030339Y013650D01*
X030606Y013809D02*
X031182Y013809D01*
X031182Y013967D02*
X030788Y013967D01*
X030935Y014126D02*
X031182Y014126D01*
X031182Y014284D02*
X031027Y014284D01*
X031109Y014443D02*
X031182Y014443D01*
X031182Y014601D02*
X031152Y014601D01*
X031168Y015235D02*
X031182Y015235D01*
X031182Y015394D02*
X031126Y015394D01*
X031182Y015552D02*
X031062Y015552D01*
X030971Y015711D02*
X031182Y015711D01*
X031182Y015869D02*
X030850Y015869D01*
X030691Y016028D02*
X031182Y016028D01*
X031182Y016186D02*
X030438Y016186D01*
X031182Y016345D02*
X025210Y016345D01*
X025210Y016318D02*
X025143Y016157D01*
X025135Y016149D01*
X025138Y016147D01*
X025261Y016024D01*
X025328Y015863D01*
X025328Y015688D01*
X025261Y015527D01*
X025138Y015404D01*
X024977Y015337D01*
X024803Y015337D01*
X024642Y015404D01*
X024570Y015476D01*
X019658Y015476D01*
X019587Y015404D01*
X019426Y015337D01*
X019252Y015337D01*
X019091Y015404D01*
X018967Y015527D01*
X018901Y015688D01*
X018901Y015863D01*
X018944Y015967D01*
X018858Y015967D01*
X018697Y016034D01*
X018574Y016157D01*
X018507Y016318D01*
X018507Y016493D01*
X018574Y016654D01*
X018697Y016777D01*
X018858Y016844D01*
X019032Y016844D01*
X019193Y016777D01*
X019265Y016706D01*
X024452Y016706D01*
X024524Y016777D01*
X024685Y016844D01*
X024859Y016844D01*
X025020Y016777D01*
X025143Y016654D01*
X025210Y016493D01*
X025210Y016318D01*
X025155Y016186D02*
X029184Y016186D01*
X028931Y016028D02*
X025258Y016028D01*
X025326Y015869D02*
X028773Y015869D01*
X028652Y015711D02*
X025328Y015711D01*
X025272Y015552D02*
X028560Y015552D01*
X028497Y015394D02*
X025112Y015394D01*
X024890Y015776D02*
X024811Y015776D01*
X024668Y015394D02*
X019561Y015394D01*
X019116Y015394D02*
X016665Y015394D01*
X016665Y015552D02*
X018957Y015552D01*
X018901Y015711D02*
X016665Y015711D01*
X016665Y015869D02*
X018903Y015869D01*
X018713Y016028D02*
X016665Y016028D01*
X016665Y016186D02*
X018562Y016186D01*
X018507Y016345D02*
X016665Y016345D01*
X016665Y016503D02*
X018511Y016503D01*
X018582Y016662D02*
X016665Y016662D01*
X016665Y016820D02*
X018801Y016820D01*
X019089Y016820D02*
X024628Y016820D01*
X024916Y016820D02*
X031182Y016820D01*
X031182Y016662D02*
X025135Y016662D01*
X025206Y016503D02*
X031182Y016503D01*
X031182Y016979D02*
X016665Y016979D01*
X016665Y017137D02*
X031182Y017137D01*
X031182Y017296D02*
X029521Y017296D01*
X029552Y017308D02*
X029814Y017570D01*
X029956Y017913D01*
X029956Y018284D01*
X029814Y018626D01*
X029552Y018889D01*
X029209Y019031D01*
X028838Y019031D01*
X028496Y018889D01*
X028234Y018626D01*
X028092Y018284D01*
X028092Y017913D01*
X028234Y017570D01*
X028496Y017308D01*
X028838Y017166D01*
X029209Y017166D01*
X029552Y017308D01*
X029698Y017454D02*
X031182Y017454D01*
X031182Y017613D02*
X029832Y017613D01*
X029897Y017771D02*
X031182Y017771D01*
X031182Y017930D02*
X029956Y017930D01*
X029956Y018088D02*
X031182Y018088D01*
X031182Y018247D02*
X029956Y018247D01*
X029906Y018405D02*
X031182Y018405D01*
X031182Y018564D02*
X029840Y018564D01*
X029719Y018722D02*
X031182Y018722D01*
X031182Y018881D02*
X029560Y018881D01*
X028488Y018881D02*
X023925Y018881D01*
X023906Y018927D02*
X023783Y019050D01*
X023622Y019117D01*
X023447Y019117D01*
X023286Y019050D01*
X023235Y018999D01*
X021944Y018999D01*
X021873Y019070D01*
X021712Y019137D01*
X021537Y019137D01*
X021376Y019070D01*
X021253Y018947D01*
X021186Y018786D01*
X021186Y018612D01*
X021253Y018451D01*
X021376Y018328D01*
X021537Y018261D01*
X021712Y018261D01*
X021873Y018328D01*
X021944Y018399D01*
X023195Y018399D01*
X023286Y018308D01*
X023447Y018241D01*
X023586Y018241D01*
X023574Y018228D01*
X023507Y018067D01*
X023507Y017893D01*
X023574Y017732D01*
X023697Y017609D01*
X023858Y017542D01*
X024032Y017542D01*
X024193Y017609D01*
X024265Y017680D01*
X027233Y017680D01*
X027343Y017726D01*
X027475Y017857D01*
X027576Y017857D01*
X027737Y017924D01*
X027860Y018047D01*
X027927Y018208D01*
X027927Y018382D01*
X027860Y018543D01*
X027737Y018667D01*
X027576Y018733D01*
X027401Y018733D01*
X027240Y018667D01*
X027117Y018543D01*
X027050Y018382D01*
X027050Y018281D01*
X027049Y018280D01*
X024265Y018280D01*
X024193Y018352D01*
X024032Y018418D01*
X023894Y018418D01*
X023906Y018431D01*
X023973Y018592D01*
X023973Y018766D01*
X023906Y018927D01*
X023794Y019039D02*
X031182Y019039D01*
X031182Y019198D02*
X016665Y019198D01*
X016665Y019356D02*
X031182Y019356D01*
X031182Y019515D02*
X016665Y019515D01*
X016665Y019673D02*
X031182Y019673D01*
X031182Y019832D02*
X016665Y019832D01*
X016665Y019990D02*
X031182Y019990D01*
X031182Y020149D02*
X016665Y020149D01*
X016665Y020307D02*
X031182Y020307D01*
X031182Y020466D02*
X016665Y020466D01*
X016665Y020624D02*
X025978Y020624D01*
X025941Y020639D02*
X026051Y020594D01*
X028336Y020594D01*
X028446Y020639D01*
X028577Y020771D01*
X028678Y020771D01*
X028839Y020837D01*
X028962Y020960D01*
X029029Y021122D01*
X029029Y021296D01*
X028962Y021457D01*
X028839Y021580D01*
X028678Y021647D01*
X028504Y021647D01*
X028343Y021580D01*
X028219Y021457D01*
X028153Y021296D01*
X028153Y021195D01*
X028152Y021194D01*
X026235Y021194D01*
X026203Y021226D01*
X026203Y021346D01*
X026136Y021507D01*
X026013Y021630D01*
X025852Y021697D01*
X025677Y021697D01*
X025516Y021630D01*
X025393Y021507D01*
X025326Y021346D01*
X025326Y021172D01*
X025393Y021011D01*
X025516Y020888D01*
X025677Y020821D01*
X025759Y020821D01*
X025856Y020724D01*
X025941Y020639D01*
X025797Y020783D02*
X016665Y020783D01*
X016665Y020941D02*
X025463Y020941D01*
X025356Y021100D02*
X016665Y021100D01*
X016665Y021258D02*
X025326Y021258D01*
X025356Y021417D02*
X016665Y021417D01*
X016665Y021575D02*
X025461Y021575D01*
X026068Y021575D02*
X028338Y021575D01*
X028203Y021417D02*
X026174Y021417D01*
X026203Y021258D02*
X028153Y021258D01*
X028409Y020624D02*
X031182Y020624D01*
X031182Y020783D02*
X028707Y020783D01*
X028943Y020941D02*
X031182Y020941D01*
X031182Y021100D02*
X029020Y021100D01*
X029029Y021258D02*
X031182Y021258D01*
X031182Y021417D02*
X028979Y021417D01*
X028844Y021575D02*
X031182Y021575D01*
X031182Y021734D02*
X020864Y021734D01*
X020412Y021734D02*
X016665Y021734D01*
X016665Y021892D02*
X020256Y021892D01*
X020200Y022051D02*
X016665Y022051D01*
X016665Y022209D02*
X020203Y022209D01*
X020272Y022368D02*
X016665Y022368D01*
X016665Y022526D02*
X020488Y022526D01*
X020789Y022526D02*
X024113Y022526D01*
X023955Y022685D02*
X016665Y022685D01*
X016665Y022843D02*
X019791Y022843D01*
X019574Y023002D02*
X016665Y023002D01*
X016665Y023160D02*
X019504Y023160D01*
X019501Y023319D02*
X018123Y023319D01*
X018250Y023477D02*
X019556Y023477D01*
X019667Y023636D02*
X018294Y023636D01*
X018279Y023794D02*
X019547Y023794D01*
X019511Y023953D02*
X018216Y023953D01*
X018216Y024111D02*
X019537Y024111D01*
X019643Y024270D02*
X018263Y024270D01*
X018488Y024428D02*
X022457Y024428D01*
X022615Y024587D02*
X018688Y024587D01*
X018753Y024745D02*
X022774Y024745D01*
X022932Y024904D02*
X018753Y024904D01*
X018694Y025062D02*
X023091Y025062D01*
X023249Y025221D02*
X018519Y025221D01*
X018112Y025221D02*
X017507Y025221D01*
X017627Y025062D02*
X017937Y025062D01*
X017877Y024904D02*
X017693Y024904D01*
X017343Y025379D02*
X023405Y025379D01*
X023450Y025538D02*
X014710Y025538D01*
X014496Y025855D02*
X014142Y025855D01*
X014016Y026013D02*
X014479Y026013D01*
X014479Y026172D02*
X013925Y026172D01*
X013879Y026330D02*
X014479Y026330D01*
X014479Y026489D02*
X013842Y026489D01*
X013835Y026647D02*
X014479Y026647D01*
X014479Y026806D02*
X013835Y026806D01*
X013835Y026964D02*
X014479Y026964D01*
X014557Y027123D02*
X013835Y027123D01*
X013835Y027281D02*
X014669Y027281D01*
X014752Y027440D02*
X013835Y027440D01*
X013835Y027598D02*
X014910Y027598D01*
X015069Y027757D02*
X013835Y027757D01*
X013835Y027915D02*
X015227Y027915D01*
X015386Y028074D02*
X013835Y028074D01*
X013835Y028232D02*
X015544Y028232D01*
X015541Y028229D02*
X015541Y028229D01*
X015717Y026484D02*
X015599Y026366D01*
X016420Y026330D02*
X016510Y026330D01*
X016510Y026400D02*
X016510Y025765D01*
X016739Y025765D01*
X016784Y025777D01*
X016825Y025801D01*
X016859Y025834D01*
X016883Y025875D01*
X016895Y025921D01*
X016895Y026400D01*
X016510Y026400D01*
X016510Y026172D02*
X016420Y026172D01*
X016420Y026013D02*
X016510Y026013D01*
X016510Y025855D02*
X016420Y025855D01*
X016871Y025855D02*
X023898Y025855D01*
X024056Y026013D02*
X016895Y026013D01*
X016895Y026172D02*
X024206Y026172D01*
X024559Y025696D02*
X026698Y025696D01*
X027197Y025696D02*
X028154Y025696D01*
X028154Y025538D02*
X024401Y025538D01*
X023595Y025696D02*
X014328Y025696D01*
X016665Y023477D02*
X017462Y023477D01*
X017418Y023636D02*
X017112Y023636D01*
X017412Y023794D02*
X017433Y023794D01*
X017589Y023319D02*
X016665Y023319D01*
X016895Y026330D02*
X026703Y026330D01*
X027192Y026330D02*
X028154Y026330D01*
X028154Y026172D02*
X027312Y026172D01*
X027346Y026013D02*
X028154Y026013D01*
X028154Y025855D02*
X027314Y025855D01*
X027651Y027440D02*
X026775Y027440D01*
X026865Y027598D02*
X027560Y027598D01*
X027560Y027757D02*
X026865Y027757D01*
X026865Y027915D02*
X027560Y027915D01*
X027560Y028074D02*
X026865Y028074D01*
X026865Y028232D02*
X027560Y028232D01*
X027560Y028391D02*
X026865Y028391D01*
X026826Y028549D02*
X027600Y028549D01*
X027995Y028708D02*
X026581Y028708D01*
X027066Y028866D02*
X027281Y028866D01*
X027932Y028866D02*
X027995Y028866D01*
X028315Y028335D02*
X028000Y028020D01*
X028000Y028020D01*
X028000Y028020D01*
X028315Y028335D02*
X028315Y034516D01*
X027922Y034161D02*
X027803Y034280D01*
X027803Y035146D01*
X027961Y035303D01*
X027961Y035618D01*
X028343Y035840D02*
X028490Y035840D01*
X028447Y035682D02*
X028399Y035682D01*
X028396Y035523D02*
X028426Y035523D01*
X028426Y035365D02*
X028327Y035365D01*
X028267Y035206D02*
X028435Y035206D01*
X028478Y035048D02*
X028158Y035048D01*
X027570Y035365D02*
X016629Y035365D01*
X016629Y035239D02*
X016535Y034887D01*
X016353Y034571D01*
X016095Y034313D01*
X015779Y034131D01*
X015427Y034036D01*
X015062Y034036D01*
X014710Y034131D01*
X014394Y034313D01*
X014136Y034571D01*
X013954Y034887D01*
X013859Y035239D01*
X013859Y035604D01*
X013954Y035956D01*
X014136Y036272D01*
X014394Y036529D01*
X014710Y036712D01*
X015062Y036806D01*
X015427Y036806D01*
X015779Y036712D01*
X016095Y036529D01*
X016353Y036272D01*
X016535Y035956D01*
X016629Y035604D01*
X016629Y035239D01*
X016620Y035206D02*
X027483Y035206D01*
X027483Y035048D02*
X016578Y035048D01*
X016535Y034889D02*
X027194Y034889D01*
X027389Y034889D02*
X027483Y034889D01*
X026954Y034731D02*
X016445Y034731D01*
X016353Y034572D02*
X026878Y034572D01*
X026873Y034414D02*
X016195Y034414D01*
X015994Y034255D02*
X026930Y034255D01*
X027002Y034097D02*
X015651Y034097D01*
X014837Y034097D02*
X013835Y034097D01*
X013835Y034255D02*
X014495Y034255D01*
X014294Y034414D02*
X013835Y034414D01*
X013835Y034572D02*
X014136Y034572D01*
X014044Y034731D02*
X013835Y034731D01*
X013835Y034889D02*
X013953Y034889D01*
X013911Y035048D02*
X013835Y035048D01*
X013835Y035206D02*
X013868Y035206D01*
X013859Y035365D02*
X013835Y035365D01*
X013835Y035523D02*
X013859Y035523D01*
X013835Y035682D02*
X013880Y035682D01*
X013923Y035840D02*
X013835Y035840D01*
X013835Y035999D02*
X013979Y035999D01*
X014070Y036157D02*
X013835Y036157D01*
X013835Y036316D02*
X014180Y036316D01*
X014339Y036474D02*
X013835Y036474D01*
X013835Y036633D02*
X014573Y036633D01*
X015006Y036791D02*
X013835Y036791D01*
X015483Y036791D02*
X029573Y036791D01*
X029140Y036633D02*
X015916Y036633D01*
X016150Y036474D02*
X028906Y036474D01*
X028747Y036316D02*
X016309Y036316D01*
X016419Y036157D02*
X028637Y036157D01*
X028545Y035999D02*
X028187Y035999D01*
X027735Y035999D02*
X016510Y035999D01*
X016566Y035840D02*
X027579Y035840D01*
X027523Y035682D02*
X016608Y035682D01*
X016629Y035523D02*
X027526Y035523D01*
X027922Y034161D02*
X027922Y031248D01*
X027843Y031169D01*
X027002Y033463D02*
X013835Y033463D01*
X013835Y033621D02*
X027002Y033621D01*
X027002Y033780D02*
X013835Y033780D01*
X013835Y033938D02*
X027002Y033938D01*
X030050Y036791D02*
X031221Y036791D01*
X031221Y036633D02*
X030483Y036633D01*
X030717Y036474D02*
X031221Y036474D01*
X031221Y036316D02*
X030876Y036316D01*
X030986Y036157D02*
X031221Y036157D01*
X031221Y035999D02*
X031077Y035999D01*
X031133Y035840D02*
X031221Y035840D01*
X031221Y035682D02*
X031175Y035682D01*
X031196Y035523D02*
X031221Y035523D01*
X031221Y035365D02*
X031196Y035365D01*
X031187Y035206D02*
X031221Y035206D01*
X031221Y035048D02*
X031145Y035048D01*
X023661Y029025D02*
X022920Y029025D01*
X022566Y029183D02*
X023652Y029183D01*
X023652Y029342D02*
X022408Y029342D01*
X022249Y029500D02*
X023652Y029500D01*
X023652Y029659D02*
X022091Y029659D01*
X021932Y029817D02*
X022763Y029817D01*
X022641Y029976D02*
X021774Y029976D01*
X021615Y030134D02*
X022606Y030134D01*
X022637Y030293D02*
X021457Y030293D01*
X021298Y030451D02*
X022715Y030451D01*
X022715Y030610D02*
X021140Y030610D01*
X020981Y030768D02*
X022725Y030768D01*
X022835Y030927D02*
X020823Y030927D01*
X020554Y031085D02*
X022993Y031085D01*
X023424Y030134D02*
X023652Y030134D01*
X023652Y029976D02*
X023368Y029976D01*
X023246Y029817D02*
X023652Y029817D01*
X023781Y024904D02*
X023859Y024904D01*
X023819Y024745D02*
X023622Y024745D01*
X023464Y024587D02*
X023819Y024587D01*
X023819Y024428D02*
X023305Y024428D01*
X023147Y024270D02*
X023833Y024270D01*
X023899Y024111D02*
X022988Y024111D01*
X022830Y023953D02*
X023981Y023953D01*
X024140Y023794D02*
X022671Y023794D01*
X022298Y024270D02*
X020216Y024270D01*
X020192Y023636D02*
X024440Y023636D01*
X024169Y023319D02*
X030811Y023319D01*
X030964Y023160D02*
X024803Y023160D01*
X024546Y023160D02*
X024328Y023160D01*
X024011Y023477D02*
X030579Y023477D01*
X031055Y023002D02*
X025032Y023002D01*
X025106Y022843D02*
X031121Y022843D01*
X031163Y022685D02*
X025113Y022685D01*
X025061Y022526D02*
X028265Y022526D01*
X028838Y022526D02*
X031180Y022526D01*
X031182Y022368D02*
X028953Y022368D01*
X028990Y022209D02*
X031182Y022209D01*
X031182Y022051D02*
X028967Y022051D01*
X028870Y021892D02*
X031182Y021892D01*
X028329Y018722D02*
X027603Y018722D01*
X027374Y018722D02*
X023973Y018722D01*
X023961Y018564D02*
X027137Y018564D01*
X027060Y018405D02*
X024065Y018405D01*
X023516Y018088D02*
X016665Y018088D01*
X016665Y017930D02*
X023507Y017930D01*
X023558Y017771D02*
X016665Y017771D01*
X016665Y017613D02*
X023693Y017613D01*
X024197Y017613D02*
X028216Y017613D01*
X028151Y017771D02*
X027388Y017771D01*
X027742Y017930D02*
X028092Y017930D01*
X028092Y018088D02*
X027877Y018088D01*
X027927Y018247D02*
X028092Y018247D01*
X028142Y018405D02*
X027917Y018405D01*
X027840Y018564D02*
X028208Y018564D01*
X028350Y017454D02*
X016665Y017454D01*
X016665Y017296D02*
X028527Y017296D01*
X028454Y015235D02*
X025926Y015235D01*
X026104Y015077D02*
X028426Y015077D01*
X028426Y014918D02*
X026166Y014918D01*
X026175Y014760D02*
X028428Y014760D01*
X028471Y014601D02*
X028155Y014601D01*
X028000Y014319D02*
X028276Y014043D01*
X028000Y014319D02*
X023473Y014319D01*
X023079Y014126D02*
X016414Y014126D01*
X016506Y014284D02*
X023035Y014284D01*
X023050Y014443D02*
X021971Y014443D01*
X021746Y014443D02*
X020908Y014443D01*
X020883Y014432D02*
X021044Y014499D01*
X021167Y014622D01*
X021234Y014783D01*
X021234Y014957D01*
X021167Y015118D01*
X021044Y015241D01*
X020883Y015308D01*
X020708Y015308D01*
X020547Y015241D01*
X020496Y015190D01*
X017591Y015190D01*
X017540Y015241D01*
X017379Y015308D01*
X017204Y015308D01*
X017043Y015241D01*
X016920Y015118D01*
X016853Y014957D01*
X016853Y014783D01*
X016920Y014622D01*
X017043Y014499D01*
X017204Y014432D01*
X017379Y014432D01*
X017540Y014499D01*
X017591Y014550D01*
X020496Y014550D01*
X020547Y014499D01*
X020708Y014432D01*
X020883Y014432D01*
X020683Y014443D02*
X017404Y014443D01*
X017179Y014443D02*
X016584Y014443D01*
X016626Y014601D02*
X016941Y014601D01*
X016863Y014760D02*
X016669Y014760D01*
X016669Y014918D02*
X016853Y014918D01*
X016903Y015077D02*
X016669Y015077D01*
X016665Y015235D02*
X017037Y015235D01*
X017292Y014870D02*
X020796Y014870D01*
X021184Y015077D02*
X021470Y015077D01*
X021420Y014918D02*
X021234Y014918D01*
X021224Y014760D02*
X021430Y014760D01*
X021508Y014601D02*
X021146Y014601D01*
X021050Y015235D02*
X021604Y015235D01*
X020541Y015235D02*
X017546Y015235D01*
X016278Y013967D02*
X021793Y013967D01*
X021807Y013982D02*
X021684Y013858D01*
X021617Y013697D01*
X021617Y013681D01*
X021513Y013577D01*
X016567Y013577D01*
X016556Y013588D01*
X016394Y013655D01*
X016220Y013655D01*
X016059Y013588D01*
X015936Y013465D01*
X015869Y013304D01*
X015869Y013129D01*
X015936Y012968D01*
X016059Y012845D01*
X016220Y012778D01*
X016394Y012778D01*
X016556Y012845D01*
X016567Y012857D01*
X021733Y012857D01*
X021866Y012911D01*
X022126Y013172D01*
X022143Y013172D01*
X022304Y013239D01*
X022427Y013362D01*
X022493Y013523D01*
X022493Y013697D01*
X022427Y013858D01*
X022304Y013982D01*
X022143Y014048D01*
X021968Y014048D01*
X021807Y013982D01*
X021663Y013809D02*
X016119Y013809D01*
X016209Y013650D02*
X015845Y013650D01*
X015963Y013492D02*
X013835Y013492D01*
X013835Y013650D02*
X014644Y013650D01*
X014370Y013809D02*
X013835Y013809D01*
X013835Y013967D02*
X014211Y013967D01*
X014074Y014126D02*
X013835Y014126D01*
X013835Y014284D02*
X013983Y014284D01*
X013905Y014443D02*
X013835Y014443D01*
X013835Y014601D02*
X013862Y014601D01*
X013835Y013333D02*
X015881Y013333D01*
X015869Y013175D02*
X013835Y013175D01*
X013835Y013016D02*
X015916Y013016D01*
X016047Y012858D02*
X013835Y012858D01*
X013835Y012699D02*
X023704Y012699D01*
X023719Y012541D02*
X013835Y012541D01*
X013835Y012382D02*
X023806Y012382D01*
X023747Y012858D02*
X021736Y012858D01*
X021970Y013016D02*
X023873Y013016D01*
X024085Y013175D02*
X022148Y013175D01*
X022398Y013333D02*
X024244Y013333D01*
X024402Y013492D02*
X022480Y013492D01*
X022493Y013650D02*
X024583Y013650D01*
X024900Y012858D02*
X028063Y012858D01*
X028020Y012699D02*
X024741Y012699D01*
X024583Y012541D02*
X028035Y012541D01*
X028058Y012382D02*
X024478Y012382D01*
X023536Y011907D02*
X028020Y011907D01*
X028021Y011748D02*
X025914Y011748D01*
X026267Y011590D02*
X027997Y011590D01*
X027839Y011431D02*
X026389Y011431D01*
X026429Y011273D02*
X027680Y011273D01*
X028058Y012065D02*
X013835Y012065D01*
X013835Y011907D02*
X015438Y011907D01*
X015658Y011907D02*
X015969Y011907D01*
X016410Y011907D02*
X023095Y011907D01*
X022934Y011748D02*
X021121Y011748D01*
X021244Y011590D02*
X022877Y011590D01*
X022879Y011431D02*
X021385Y011431D01*
X021543Y011273D02*
X022947Y011273D01*
X023536Y010322D02*
X029031Y010322D01*
X028965Y010163D02*
X023556Y010163D01*
X023518Y010005D02*
X028961Y010005D01*
X028961Y009846D02*
X023399Y009846D01*
X022838Y009846D02*
X022710Y009846D01*
X022708Y009688D02*
X029017Y009688D01*
X029083Y009529D02*
X022641Y009529D01*
X022428Y009371D02*
X029235Y009371D01*
X029495Y009212D02*
X015521Y009212D01*
X015390Y009158D02*
X015695Y009284D01*
X015929Y009518D01*
X016055Y009823D01*
X016055Y010153D01*
X015929Y010459D01*
X015695Y010692D01*
X015390Y010819D01*
X015059Y010819D01*
X014754Y010692D01*
X014521Y010459D01*
X014394Y010153D01*
X014394Y009823D01*
X014521Y009518D01*
X014754Y009284D01*
X015059Y009158D01*
X015390Y009158D01*
X015782Y009371D02*
X022116Y009371D01*
X021046Y010639D02*
X019248Y010639D01*
X019298Y010797D02*
X020887Y010797D01*
X020729Y010956D02*
X020225Y010956D01*
X020323Y011114D02*
X020516Y011114D01*
X020427Y011273D02*
X020347Y011273D01*
X020312Y011431D02*
X020409Y011431D01*
X020450Y011590D02*
X020198Y011590D01*
X020572Y011748D02*
X016571Y011748D01*
X016627Y011590D02*
X019619Y011590D01*
X019593Y010956D02*
X019290Y010956D01*
X017161Y009529D02*
X015933Y009529D01*
X015999Y009688D02*
X017059Y009688D01*
X016735Y009846D02*
X016055Y009846D01*
X016055Y010005D02*
X016617Y010005D01*
X016578Y010163D02*
X016051Y010163D01*
X015986Y010322D02*
X016598Y010322D01*
X016691Y010480D02*
X015907Y010480D01*
X015977Y010639D02*
X015749Y010639D01*
X015819Y010797D02*
X015442Y010797D01*
X015660Y010956D02*
X013835Y010956D01*
X013835Y011114D02*
X015292Y011114D01*
X015159Y011273D02*
X013835Y011273D01*
X013835Y011431D02*
X015110Y011431D01*
X015120Y011590D02*
X013835Y011590D01*
X013835Y011748D02*
X015199Y011748D01*
X015007Y010797D02*
X013835Y010797D01*
X013835Y010639D02*
X014700Y010639D01*
X014542Y010480D02*
X013835Y010480D01*
X013835Y010322D02*
X014464Y010322D01*
X014398Y010163D02*
X013835Y010163D01*
X013835Y010005D02*
X014394Y010005D01*
X014394Y009846D02*
X013835Y009846D01*
X013835Y009688D02*
X014450Y009688D01*
X014516Y009529D02*
X013835Y009529D01*
X013835Y009371D02*
X014668Y009371D01*
X014928Y009212D02*
X013835Y009212D01*
X013835Y012224D02*
X028058Y012224D01*
X028458Y011893D02*
X028458Y011839D01*
X027899Y013809D02*
X022447Y013809D01*
X022318Y013967D02*
X023205Y013967D01*
X023740Y013967D02*
X027838Y013967D01*
X028457Y014443D02*
X028513Y014443D01*
X030678Y013333D02*
X031182Y013333D01*
X031182Y013175D02*
X030890Y013175D01*
X031017Y013016D02*
X031182Y013016D01*
X031182Y012858D02*
X031060Y012858D01*
X031045Y012699D02*
X031182Y012699D01*
X031182Y012541D02*
X031022Y012541D01*
X031051Y012382D02*
X031182Y012382D01*
X031182Y012224D02*
X031060Y012224D01*
X031011Y012065D02*
X031182Y012065D01*
X031182Y011907D02*
X030877Y011907D01*
X031072Y008578D02*
X025699Y008578D01*
X025831Y008420D02*
X030980Y008420D01*
X030840Y008261D02*
X025879Y008261D01*
X025868Y008103D02*
X030628Y008103D01*
X025183Y008578D02*
X017707Y008578D01*
X016406Y013650D02*
X021586Y013650D01*
X021299Y018405D02*
X016665Y018405D01*
X016665Y018247D02*
X023434Y018247D01*
X023275Y019039D02*
X021904Y019039D01*
X021345Y019039D02*
X016665Y019039D01*
X016665Y018881D02*
X021226Y018881D01*
X021186Y018722D02*
X016665Y018722D01*
X016665Y018564D02*
X021207Y018564D01*
X020087Y022843D02*
X023796Y022843D01*
X015706Y033146D02*
X015435Y033146D01*
X013842Y031085D02*
X013835Y031085D01*
X013835Y030927D02*
X013842Y030927D01*
X013835Y030768D02*
X013842Y030768D01*
X013835Y030610D02*
X013842Y030610D01*
X013835Y030451D02*
X013842Y030451D01*
X013835Y030293D02*
X013842Y030293D01*
X013835Y030134D02*
X013871Y030134D01*
X013835Y029976D02*
X014006Y029976D01*
X014057Y029817D02*
X013835Y029817D01*
X013835Y029659D02*
X014183Y029659D01*
D16*
X014418Y029988D02*
X014142Y030264D01*
X014142Y031681D01*
X014693Y031681D02*
X015205Y031169D01*
X015205Y029594D01*
X015796Y031209D02*
X015087Y031917D01*
X015087Y032902D01*
X015796Y031209D02*
X016465Y031209D01*
X016819Y031563D01*
X017882Y028492D02*
X018906Y028492D01*
X019811Y027587D01*
X017567Y028059D02*
X015796Y028059D01*
X014969Y027232D01*
X014969Y026445D01*
X015717Y026445D02*
X015717Y027272D01*
X016110Y027665D01*
X017252Y027665D01*
X020249Y030770D02*
X020555Y030770D01*
X022652Y028673D01*
X023005Y030139D02*
X023405Y030539D01*
X024378Y030539D01*
X025008Y029909D01*
X025008Y029594D01*
X025874Y029594D02*
X025874Y030224D01*
X025638Y030461D01*
X025181Y030461D01*
X024563Y031079D01*
X025351Y031012D02*
X025508Y030854D01*
X026465Y030854D01*
X026740Y030579D01*
X026740Y029594D01*
X027607Y029594D02*
X027607Y030579D01*
X026859Y031327D01*
X026189Y031327D01*
X026150Y031366D01*
X026947Y026011D02*
X024464Y026011D01*
X023804Y025351D02*
X022418Y023965D01*
X019929Y023965D01*
X019939Y023256D02*
X023808Y023256D01*
X024330Y022734D01*
X024670Y022734D01*
X024675Y022739D01*
X025765Y021259D02*
X025765Y021240D01*
X026110Y020894D01*
X028276Y020894D01*
X028591Y021209D01*
X028473Y022114D02*
X028551Y022193D01*
X028473Y022114D02*
X020638Y022114D01*
X021625Y018699D02*
X023535Y018699D01*
X023535Y018679D01*
X023945Y017980D02*
X027173Y017980D01*
X027488Y018295D01*
X024772Y016406D02*
X018945Y016406D01*
X019339Y015776D02*
X024811Y015776D01*
X025708Y011529D02*
X023321Y011529D01*
X023315Y011524D01*
X023118Y010185D02*
X017016Y010185D01*
X017470Y009840D02*
X017530Y009780D01*
X022272Y009780D01*
X025441Y008217D02*
X017449Y008217D01*
X017077Y012733D02*
X016740Y012823D01*
X025708Y011529D02*
X025991Y011246D01*
D17*
X023804Y025351D03*
X026947Y026011D03*
X024142Y029594D03*
X023005Y030139D03*
X023505Y031186D03*
X024563Y031079D03*
X025351Y031012D03*
X026150Y031366D03*
X027843Y031169D03*
X017882Y028492D03*
X017567Y028059D03*
X017252Y027665D03*
X015205Y029594D03*
X014418Y029988D03*
D18*
X015225Y009988D03*
X029792Y009988D03*
D19*
X029024Y018098D03*
X016032Y032272D03*
D20*
X015244Y035421D03*
X029811Y035421D03*
X029811Y014949D03*
D21*
X019929Y023965D03*
X016819Y031563D03*
X015087Y032902D03*
X014693Y031681D03*
X014142Y031681D03*
X023197Y031799D03*
X027292Y034476D03*
D22*
X027292Y032311D01*
X026780Y031799D01*
X023197Y031799D01*
X023505Y031186D02*
X023005Y030686D01*
X023005Y030139D01*
X022652Y028673D02*
X025858Y028673D01*
X025874Y028689D01*
X025858Y028673D02*
X026205Y028673D01*
X026425Y028453D01*
X026425Y028020D01*
X025796Y027980D02*
X025756Y027941D01*
X023000Y027941D01*
X022331Y027350D02*
X022252Y027429D01*
X022331Y027350D02*
X025796Y027350D01*
X024464Y026011D02*
X023804Y025351D01*
X016189Y011524D02*
X016454Y011259D01*
X019909Y011259D01*
X018821Y010808D02*
X016217Y010808D01*
X015548Y011478D01*
M02*
