%
M48
M72
T01C0.0236
T02C0.0984
T03C0.1890
%
T01
X15914Y11130
X17016Y10185
X17410Y9870
X17635Y10769
X18709Y12390
X19969Y11169
X19585Y10769
X20717Y10933
X22252Y9870
X23118Y10185
X24024Y9437
X24024Y8650
X25166Y9437
X25441Y8217
X26268Y9437
X27331Y9437
X28394Y9437
X29521Y11169
X28512Y12232
X27213Y12508
X27213Y11406
X26071Y11366
X26110Y12783
X25677Y12783
X24142Y12665
X23433Y12508
X22764Y13138
X22055Y13610
X22803Y14122
X23512Y14358
X24142Y13886
X25815Y14811
X25441Y15736
X25048Y16406
X23945Y17980
X23535Y18679
X21625Y18699
X19733Y18531
X19733Y19319
X18985Y21051
X18433Y21484
X18433Y22429
X19103Y22469
X19890Y23256
X19890Y23965
X19299Y24161
X18866Y24831
X19654Y26760
X19811Y27587
X18591Y28059
X17843Y27626
X17922Y26878
X17528Y26445
X16229Y27232
X14929Y27232
X17488Y30657
X17528Y31287
X18866Y29201
X19929Y29240
X22495Y28279
X22961Y27469
X22095Y26760
X22922Y24988
X22922Y24516
X24063Y24476
X25796Y22547
X26032Y21563
X27410Y21366
X28591Y21209
X28551Y22193
X26937Y25185
X25796Y26720
X26032Y27429
X25953Y28059
X24563Y30803
X25351Y31012
X26150Y31366
X27843Y31169
X25599Y33610
X25599Y34791
X27961Y35618
X28315Y34516
X23308Y30989
X23005Y30139
X22803Y33571
X21071Y33531
X19103Y33571
X19181Y34752
X19260Y36012
X21032Y36012
X22803Y36012
X17449Y35972
X17410Y34752
X15481Y30933
X20559Y22114
X18945Y16406
X19339Y15776
X20796Y14870
X21859Y14870
X23315Y11524
X27252Y13886
X27685Y14831
X28433Y14358
X29520Y13295
X27685Y16091
X27488Y18295
X17292Y14870
X16307Y13217
X16662Y12823
X17449Y8217
T02
X15244Y9634
X29024Y18098
X29811Y9634
X16032Y32272
T03
X15244Y35421
X29811Y35421
X29811Y14949
X15244Y14949
M30
