G75*
G70*
%OFA0B0*%
%FSLAX24Y24*%
%IPPOS*%
%LPD*%
%AMOC8*
5,1,8,0,0,1.08239X$1,22.5*
%
%ADD10C,0.1970*%
%ADD11C,0.0277*%
%ADD12R,0.0480X0.0860*%
%ADD13R,0.0580X0.1080*%
%ADD14C,0.0476*%
%ADD15C,0.0397*%
%ADD16C,0.1261*%
%ADD17C,0.1464*%
%ADD18C,0.2370*%
%ADD19C,0.0437*%
D10*
X015244Y014949D03*
D11*
X015520Y007547D03*
X015914Y007547D03*
X016307Y007547D03*
X016701Y007547D03*
X017095Y007547D03*
X027961Y042232D03*
X028355Y042232D03*
X028748Y042232D03*
X029142Y042232D03*
X029536Y042232D03*
D12*
X028000Y028020D03*
X026425Y028020D03*
D13*
X026740Y029594D03*
X025874Y029594D03*
X025008Y029594D03*
X024142Y029594D03*
X027607Y029594D03*
X016465Y026445D03*
X015717Y026445D03*
X014969Y026445D03*
D14*
X014103Y010146D03*
X014103Y010618D03*
X015548Y011478D03*
X016189Y011524D03*
X017077Y012733D03*
X016307Y013217D03*
X017292Y014870D03*
X018082Y014143D03*
X019339Y015776D03*
X018945Y016406D03*
X017292Y017508D03*
X017292Y018689D03*
X017292Y019870D03*
X017292Y021051D03*
X019733Y019319D03*
X019733Y018531D03*
X021625Y018699D03*
X023535Y018679D03*
X023945Y017980D03*
X024214Y017098D03*
X024772Y016406D03*
X024890Y015776D03*
X025736Y014811D03*
X024142Y013886D03*
X023473Y014319D03*
X022803Y014122D03*
X022055Y013610D03*
X022764Y013138D03*
X023433Y012508D03*
X024142Y012665D03*
X023315Y011524D03*
X023118Y010185D03*
X022272Y009780D03*
X024024Y009437D03*
X024024Y008650D03*
X025166Y009437D03*
X025441Y008217D03*
X026268Y009437D03*
X025991Y011246D03*
X026110Y012783D03*
X025677Y012783D03*
X027134Y013886D03*
X027567Y013886D03*
X028276Y014043D03*
X027685Y014831D03*
X027685Y016091D03*
X027488Y018295D03*
X025204Y019048D03*
X024324Y019858D03*
X025765Y021259D03*
X027410Y021366D03*
X028591Y021209D03*
X028551Y022193D03*
X024675Y022739D03*
X022822Y025038D03*
X022822Y025461D03*
X022252Y027429D03*
X023000Y027941D03*
X022652Y028673D03*
X020235Y029020D03*
X019960Y029691D03*
X020249Y030770D03*
X021780Y031351D03*
X021229Y033531D03*
X019260Y033571D03*
X019260Y034752D03*
X019260Y036012D03*
X017449Y036012D03*
X017410Y034752D03*
X015914Y033571D03*
X015756Y029122D03*
X014654Y029161D03*
X017325Y029020D03*
X019414Y026580D03*
X019811Y027587D03*
X018315Y024831D03*
X017856Y023671D03*
X019939Y023256D03*
X020638Y022114D03*
X025796Y027350D03*
X025796Y027980D03*
X025874Y028689D03*
X025244Y033925D03*
X024063Y033925D03*
X024811Y036445D03*
X026268Y036445D03*
X027961Y035618D03*
X028315Y034516D03*
X021229Y036012D03*
X020796Y014870D03*
X021859Y014870D03*
X020847Y011403D03*
X019909Y011259D03*
X018860Y010848D03*
X017470Y009840D03*
X017016Y010185D03*
X017449Y008217D03*
X018709Y012390D03*
X028458Y012665D03*
X028458Y011839D03*
X029235Y012193D03*
X029822Y012193D03*
X030622Y012272D03*
X030622Y012823D03*
X030835Y010972D03*
X030835Y010539D03*
X028394Y009437D03*
X028394Y008650D03*
D15*
X023804Y025351D03*
X026947Y026011D03*
X024142Y029594D03*
X023005Y030139D03*
X023505Y031186D03*
X024563Y031079D03*
X025351Y031012D03*
X026150Y031366D03*
X027843Y031169D03*
X017882Y028492D03*
X017567Y028059D03*
X017252Y027665D03*
X015205Y029594D03*
X014418Y029988D03*
D16*
X015225Y009988D03*
X029792Y009988D03*
D17*
X029024Y018098D03*
X016032Y032272D03*
D18*
X015244Y035421D03*
X029811Y035421D03*
X029811Y014949D03*
D19*
X019929Y023965D03*
X016819Y031563D03*
X015087Y032902D03*
X014693Y031681D03*
X014142Y031681D03*
X023197Y031799D03*
X027292Y034476D03*
M02*
