G75*
G70*
%OFA0B0*%
%FSLAX24Y24*%
%IPPOS*%
%LPD*%
%AMOC8*
5,1,8,0,0,1.08239X$1,22.5*
%
%ADD10R,0.0472X0.0787*%
%ADD11C,0.0055*%
%ADD12R,0.0250X0.1000*%
%ADD13R,0.0197X0.0709*%
%ADD14R,0.0315X0.0472*%
%ADD15R,0.0157X0.0787*%
%ADD16R,0.0709X0.0748*%
%ADD17R,0.0394X0.0433*%
%ADD18R,0.0220X0.0102*%
%ADD19R,0.0394X0.0394*%
%ADD20R,0.0118X0.0118*%
%ADD21R,0.0102X0.0220*%
%ADD22R,0.1181X0.0394*%
%ADD23R,0.0512X0.0630*%
%ADD24R,0.0472X0.0315*%
%ADD25R,0.0472X0.0472*%
%ADD26R,0.0433X0.0394*%
%ADD27R,0.0425X0.0413*%
%ADD28R,0.0500X0.1000*%
%ADD29R,0.0240X0.0870*%
%ADD30R,0.0240X0.0810*%
%ADD31R,0.0900X0.0900*%
%ADD32R,0.0579X0.0500*%
%ADD33R,0.0720X0.1350*%
%ADD34R,0.0709X0.0630*%
%ADD35R,0.0354X0.0315*%
D10*
X022988Y026130D03*
X023776Y026130D03*
X024563Y026130D03*
X025351Y026130D03*
X026138Y026130D03*
X026925Y026130D03*
X027713Y026130D03*
X028500Y026130D03*
X028500Y032508D03*
X027713Y032508D03*
X026925Y032508D03*
X026138Y032508D03*
X025351Y032508D03*
X024563Y032508D03*
X023776Y032508D03*
X022988Y032508D03*
D11*
X020937Y020948D02*
X020937Y020726D01*
X020283Y020726D01*
X020283Y020948D01*
X020937Y020948D01*
X020937Y020780D02*
X020283Y020780D01*
X020283Y020834D02*
X020937Y020834D01*
X020937Y020888D02*
X020283Y020888D01*
X020283Y020942D02*
X020937Y020942D01*
X020937Y020448D02*
X020937Y020226D01*
X020283Y020226D01*
X020283Y020448D01*
X020937Y020448D01*
X020937Y020280D02*
X020283Y020280D01*
X020283Y020334D02*
X020937Y020334D01*
X020937Y020388D02*
X020283Y020388D01*
X020283Y020442D02*
X020937Y020442D01*
X020937Y019948D02*
X020937Y019726D01*
X020283Y019726D01*
X020283Y019948D01*
X020937Y019948D01*
X020937Y019780D02*
X020283Y019780D01*
X020283Y019834D02*
X020937Y019834D01*
X020937Y019888D02*
X020283Y019888D01*
X020283Y019942D02*
X020937Y019942D01*
X020937Y019448D02*
X020937Y019226D01*
X020283Y019226D01*
X020283Y019448D01*
X020937Y019448D01*
X020937Y019280D02*
X020283Y019280D01*
X020283Y019334D02*
X020937Y019334D01*
X020937Y019388D02*
X020283Y019388D01*
X020283Y019442D02*
X020937Y019442D01*
X020937Y018948D02*
X020937Y018726D01*
X020283Y018726D01*
X020283Y018948D01*
X020937Y018948D01*
X020937Y018780D02*
X020283Y018780D01*
X020283Y018834D02*
X020937Y018834D01*
X020937Y018888D02*
X020283Y018888D01*
X020283Y018942D02*
X020937Y018942D01*
X020937Y018448D02*
X020937Y018226D01*
X020283Y018226D01*
X020283Y018448D01*
X020937Y018448D01*
X020937Y018280D02*
X020283Y018280D01*
X020283Y018334D02*
X020937Y018334D01*
X020937Y018388D02*
X020283Y018388D01*
X020283Y018442D02*
X020937Y018442D01*
X020937Y017948D02*
X020937Y017726D01*
X020283Y017726D01*
X020283Y017948D01*
X020937Y017948D01*
X020937Y017780D02*
X020283Y017780D01*
X020283Y017834D02*
X020937Y017834D01*
X020937Y017888D02*
X020283Y017888D01*
X020283Y017942D02*
X020937Y017942D01*
X020937Y017448D02*
X020937Y017226D01*
X020283Y017226D01*
X020283Y017448D01*
X020937Y017448D01*
X020937Y017280D02*
X020283Y017280D01*
X020283Y017334D02*
X020937Y017334D01*
X020937Y017388D02*
X020283Y017388D01*
X020283Y017442D02*
X020937Y017442D01*
D12*
X017829Y026803D03*
X017329Y026803D03*
X016829Y026803D03*
X016329Y026803D03*
X015829Y026803D03*
X015329Y026803D03*
X014829Y026803D03*
X014329Y026803D03*
X014329Y030803D03*
X014829Y030803D03*
X015329Y030803D03*
X015829Y030803D03*
X016329Y030803D03*
X016829Y030803D03*
X017329Y030803D03*
X017829Y030803D03*
D13*
X019413Y025776D03*
X020004Y025772D03*
D14*
X020244Y031287D03*
X020953Y031287D03*
X018038Y031767D03*
X017330Y031767D03*
X014851Y032272D03*
X014142Y032272D03*
X014142Y033295D03*
X014851Y033295D03*
X027410Y021957D03*
X028118Y021957D03*
X028158Y020539D03*
X027449Y020539D03*
X022909Y019029D03*
X022200Y019029D03*
X022200Y018089D03*
X022909Y018089D03*
X022176Y017220D03*
X022166Y016583D03*
X021457Y016583D03*
X021467Y017220D03*
D15*
X022134Y009004D03*
X022390Y009004D03*
X022646Y009004D03*
X022902Y009004D03*
X023158Y009004D03*
D16*
X024221Y007843D03*
X021071Y007843D03*
D17*
X018788Y009260D03*
X018197Y009260D03*
X018197Y009929D03*
X018788Y009929D03*
X015579Y011720D03*
X014910Y011720D03*
X022173Y011898D03*
X022154Y012547D03*
X022823Y012547D03*
X022803Y011898D03*
X022803Y011228D03*
X022173Y011228D03*
X023925Y010894D03*
X024595Y010894D03*
X025303Y010224D03*
X025973Y010224D03*
X026642Y010224D03*
X027311Y010224D03*
D18*
X019614Y011799D03*
X019614Y011996D03*
X019614Y012193D03*
X019614Y012390D03*
X019614Y012587D03*
X019614Y012783D03*
X019614Y012980D03*
X017803Y012980D03*
X017803Y012783D03*
X017803Y012587D03*
X017803Y012390D03*
X017803Y012193D03*
X017803Y011996D03*
X017803Y011799D03*
D19*
X018709Y012390D03*
D20*
X017882Y013217D03*
D21*
X018118Y013295D03*
X018315Y013295D03*
X018512Y013295D03*
X018709Y013295D03*
X018906Y013295D03*
X019103Y013295D03*
X019299Y013295D03*
X019299Y011484D03*
X019103Y011484D03*
X018906Y011484D03*
X018709Y011484D03*
X018512Y011484D03*
X018315Y011484D03*
X018118Y011484D03*
D22*
X022607Y033606D03*
X022607Y034606D03*
X022607Y035606D03*
X022607Y036606D03*
D23*
X021071Y032272D03*
X020284Y032272D03*
X018118Y032547D03*
X017331Y032547D03*
D24*
X026110Y033768D03*
X026110Y034476D03*
X026937Y034476D03*
X026937Y033768D03*
X027646Y033768D03*
X027646Y034476D03*
X025835Y035264D03*
X025835Y035972D03*
X026544Y021957D03*
X026544Y021248D03*
X027567Y017469D03*
X027567Y016760D03*
D25*
X026918Y008217D03*
X026091Y008217D03*
D26*
X027803Y008669D03*
X027803Y009339D03*
X026859Y015087D03*
X026859Y015756D03*
X024831Y015028D03*
X024162Y015028D03*
D27*
X023670Y036612D03*
X023670Y037301D03*
D28*
X014135Y012733D03*
X014851Y012744D03*
X016032Y012744D03*
D29*
X028943Y019903D03*
X029443Y019903D03*
X029943Y019903D03*
X030443Y019903D03*
X030443Y021963D03*
X029943Y021963D03*
X029443Y021963D03*
X028943Y021963D03*
D30*
X026624Y014119D03*
X026124Y014119D03*
X025624Y014119D03*
X025124Y014119D03*
X025124Y011999D03*
X025624Y011999D03*
X026124Y011999D03*
X026624Y011999D03*
D31*
X025874Y013059D03*
D32*
X024103Y013551D03*
X024103Y011858D03*
D33*
X028446Y012390D03*
X030626Y012390D03*
D34*
X027488Y012075D03*
X027488Y013177D03*
X025835Y015224D03*
X025835Y016327D03*
D35*
X027449Y035598D03*
X027449Y036346D03*
X026622Y035972D03*
M02*
