G75*
G70*
%OFA0B0*%
%FSLAX24Y24*%
%IPPOS*%
%LPD*%
%AMOC8*
5,1,8,0,0,1.08239X$1,22.5*
%
%ADD10R,0.0720X0.0018*%
%ADD11R,0.0252X0.0018*%
%ADD12R,0.0270X0.0018*%
%ADD13R,0.0342X0.0018*%
%ADD14R,0.0378X0.0018*%
%ADD15R,0.0198X0.0018*%
%ADD16R,0.0414X0.0018*%
%ADD17R,0.0630X0.0018*%
%ADD18R,0.1980X0.0018*%
%ADD19R,0.1998X0.0018*%
%ADD20R,0.0558X0.0018*%
%ADD21R,0.0684X0.0018*%
%ADD22R,0.2016X0.0018*%
%ADD23R,0.2034X0.0018*%
%ADD24R,0.2034X0.0018*%
%ADD25R,0.0450X0.0018*%
%ADD26R,0.0594X0.0018*%
%ADD27R,0.0936X0.0018*%
%ADD28R,0.2124X0.0018*%
%ADD29R,0.2142X0.0018*%
%ADD30R,0.0486X0.0018*%
%ADD31R,0.0666X0.0018*%
%ADD32R,0.0972X0.0018*%
%ADD33R,0.2160X0.0018*%
%ADD34R,0.2178X0.0018*%
%ADD35R,0.0234X0.0018*%
%ADD36R,0.0702X0.0018*%
%ADD37R,0.1170X0.0018*%
%ADD38R,0.2250X0.0018*%
%ADD39R,0.0180X0.0018*%
%ADD40R,0.0162X0.0018*%
%ADD41R,0.0774X0.0018*%
%ADD42R,0.1188X0.0018*%
%ADD43R,0.2286X0.0018*%
%ADD44R,0.2268X0.0018*%
%ADD45R,0.0810X0.0018*%
%ADD46R,0.1332X0.0018*%
%ADD47R,0.2340X0.0018*%
%ADD48R,0.2358X0.0018*%
%ADD49R,0.0846X0.0018*%
%ADD50R,0.1368X0.0018*%
%ADD51R,0.0900X0.0018*%
%ADD52R,0.1476X0.0018*%
%ADD53R,0.2412X0.0018*%
%ADD54R,0.2430X0.0018*%
%ADD55R,0.0144X0.0018*%
%ADD56R,0.0918X0.0018*%
%ADD57R,0.1530X0.0018*%
%ADD58R,0.0144X0.0018*%
%ADD59R,0.1602X0.0018*%
%ADD60R,0.2466X0.0018*%
%ADD61R,0.2502X0.0018*%
%ADD62R,0.2484X0.0018*%
%ADD63R,0.0990X0.0018*%
%ADD64R,0.1656X0.0018*%
%ADD65R,0.1044X0.0018*%
%ADD66R,0.1728X0.0018*%
%ADD67R,0.2520X0.0018*%
%ADD68R,0.2556X0.0018*%
%ADD69R,0.2538X0.0018*%
%ADD70R,0.1062X0.0018*%
%ADD71R,0.1764X0.0018*%
%ADD72R,0.2574X0.0018*%
%ADD73R,0.1080X0.0018*%
%ADD74R,0.1854X0.0018*%
%ADD75R,0.2592X0.0018*%
%ADD76R,0.2592X0.0018*%
%ADD77R,0.0504X0.0018*%
%ADD78R,0.1890X0.0018*%
%ADD79R,0.2610X0.0018*%
%ADD80R,0.1944X0.0018*%
%ADD81R,0.2628X0.0018*%
%ADD82R,0.2646X0.0018*%
%ADD83R,0.2682X0.0018*%
%ADD84R,0.2664X0.0018*%
%ADD85R,0.0396X0.0018*%
%ADD86R,0.0342X0.0018*%
%ADD87R,0.2682X0.0018*%
%ADD88R,0.2700X0.0018*%
%ADD89R,0.0216X0.0018*%
%ADD90R,0.0288X0.0018*%
%ADD91R,0.2088X0.0018*%
%ADD92R,0.2718X0.0018*%
%ADD93R,0.0252X0.0018*%
%ADD94R,0.2736X0.0018*%
%ADD95R,0.0468X0.0018*%
%ADD96R,0.0360X0.0018*%
%ADD97R,0.2754X0.0018*%
%ADD98R,0.2754X0.0018*%
%ADD99R,0.0432X0.0018*%
%ADD100R,0.2196X0.0018*%
%ADD101R,0.2772X0.0018*%
%ADD102R,0.0126X0.0018*%
%ADD103R,0.2790X0.0018*%
%ADD104R,0.2808X0.0018*%
%ADD105R,0.2826X0.0018*%
%ADD106R,0.0306X0.0018*%
%ADD107R,0.0090X0.0018*%
%ADD108R,0.2322X0.0018*%
%ADD109R,0.2844X0.0018*%
%ADD110R,0.2844X0.0018*%
%ADD111R,0.2862X0.0018*%
%ADD112R,0.2394X0.0018*%
%ADD113R,0.2862X0.0018*%
%ADD114R,0.2880X0.0018*%
%ADD115R,0.0324X0.0018*%
%ADD116R,0.2898X0.0018*%
%ADD117R,0.2916X0.0018*%
%ADD118R,0.2934X0.0018*%
%ADD119R,0.2934X0.0018*%
%ADD120R,0.2952X0.0018*%
%ADD121R,0.2952X0.0018*%
%ADD122R,0.2970X0.0018*%
%ADD123R,0.2988X0.0018*%
%ADD124R,0.3006X0.0018*%
%ADD125R,0.3024X0.0018*%
%ADD126R,0.3024X0.0018*%
%ADD127R,0.0738X0.0018*%
%ADD128R,0.1278X0.0018*%
%ADD129R,0.1296X0.0018*%
%ADD130R,0.1206X0.0018*%
%ADD131R,0.1224X0.0018*%
%ADD132R,0.1134X0.0018*%
%ADD133R,0.1134X0.0018*%
%ADD134R,0.1116X0.0018*%
%ADD135R,0.1098X0.0018*%
%ADD136R,0.0018X0.0018*%
%ADD137R,0.0108X0.0018*%
%ADD138R,0.1026X0.0018*%
%ADD139R,0.0324X0.0018*%
%ADD140R,0.1008X0.0018*%
%ADD141R,0.0972X0.0018*%
%ADD142R,0.0954X0.0018*%
%ADD143R,0.0954X0.0018*%
%ADD144R,0.0882X0.0018*%
%ADD145R,0.0882X0.0018*%
%ADD146R,0.0864X0.0018*%
%ADD147R,0.0864X0.0018*%
%ADD148R,0.0072X0.0018*%
%ADD149R,0.0828X0.0018*%
%ADD150R,0.0432X0.0018*%
%ADD151R,0.0792X0.0018*%
%ADD152R,0.0792X0.0018*%
%ADD153R,0.0414X0.0018*%
%ADD154R,0.0756X0.0018*%
%ADD155R,0.0774X0.0018*%
%ADD156R,0.0576X0.0018*%
%ADD157R,0.1062X0.0018*%
%ADD158R,0.1152X0.0018*%
%ADD159R,0.1152X0.0018*%
%ADD160R,0.2574X0.0018*%
%ADD161R,0.2502X0.0018*%
%ADD162R,0.2448X0.0018*%
%ADD163R,0.2376X0.0018*%
%ADD164R,0.2322X0.0018*%
%ADD165R,0.2304X0.0018*%
%ADD166R,0.2214X0.0018*%
%ADD167R,0.2142X0.0018*%
%ADD168R,0.2070X0.0018*%
%ADD169R,0.2052X0.0018*%
%ADD170R,0.1962X0.0018*%
%ADD171R,0.1872X0.0018*%
%ADD172R,0.1764X0.0018*%
%ADD173R,0.1746X0.0018*%
%ADD174R,0.1620X0.0018*%
%ADD175R,0.1512X0.0018*%
%ADD176R,0.1494X0.0018*%
%ADD177R,0.1386X0.0018*%
%ADD178R,0.1350X0.0018*%
%ADD179R,0.1332X0.0018*%
%ADD180C,0.0070*%
%ADD181C,0.0060*%
%ADD182R,0.1360X0.0010*%
%ADD183R,0.1370X0.0010*%
%ADD184R,0.0020X0.0010*%
%ADD185R,0.0030X0.0010*%
%ADD186R,0.0910X0.0010*%
%ADD187R,0.0010X0.0010*%
%ADD188R,0.0110X0.0010*%
%ADD189R,0.0050X0.0010*%
%ADD190R,0.0100X0.0010*%
%ADD191R,0.0060X0.0010*%
%ADD192R,0.0070X0.0010*%
%ADD193R,0.0040X0.0010*%
%ADD194R,0.0080X0.0010*%
%ADD195R,0.0090X0.0010*%
%ADD196R,0.0160X0.0010*%
%ADD197R,0.0210X0.0010*%
%ADD198R,0.0250X0.0010*%
%ADD199R,0.0280X0.0010*%
%ADD200R,0.0300X0.0010*%
%ADD201R,0.0900X0.0010*%
%ADD202R,0.0320X0.0010*%
%ADD203R,0.0330X0.0010*%
%ADD204R,0.0340X0.0010*%
%ADD205R,0.0350X0.0010*%
%ADD206R,0.0360X0.0010*%
%ADD207R,0.0370X0.0010*%
%ADD208R,0.0380X0.0010*%
%ADD209R,0.0400X0.0010*%
%ADD210R,0.0410X0.0010*%
%ADD211R,0.0420X0.0010*%
%ADD212R,0.0430X0.0010*%
%ADD213R,0.0440X0.0010*%
%ADD214R,0.0140X0.0010*%
%ADD215R,0.0450X0.0010*%
%ADD216R,0.0460X0.0010*%
%ADD217R,0.0170X0.0010*%
%ADD218R,0.0200X0.0010*%
%ADD219R,0.0470X0.0010*%
%ADD220R,0.0190X0.0010*%
%ADD221R,0.0220X0.0010*%
%ADD222R,0.0480X0.0010*%
%ADD223R,0.0240X0.0010*%
%ADD224R,0.0490X0.0010*%
%ADD225R,0.0120X0.0010*%
%ADD226R,0.0310X0.0010*%
%ADD227R,0.0290X0.0010*%
%ADD228R,0.0270X0.0010*%
%ADD229R,0.0260X0.0010*%
%ADD230R,0.0180X0.0010*%
%ADD231R,0.0150X0.0010*%
%ADD232R,0.0230X0.0010*%
%ADD233R,0.0130X0.0010*%
%ADD234R,0.0550X0.0010*%
%ADD235R,0.0560X0.0010*%
%ADD236R,0.0510X0.0010*%
%ADD237R,0.0540X0.0010*%
%ADD238R,0.0500X0.0010*%
%ADD239R,0.0640X0.0010*%
%ADD240R,0.0390X0.0010*%
%ADD241R,0.0680X0.0010*%
%ADD242R,0.0690X0.0010*%
%ADD243R,0.0650X0.0010*%
%ADD244R,0.0660X0.0010*%
%ADD245C,0.0080*%
%ADD246C,0.0020*%
%ADD247C,0.0040*%
D10*
X017198Y036661D03*
X017198Y036679D03*
X017198Y036697D03*
X017198Y036715D03*
X017198Y036733D03*
X017198Y036751D03*
X017198Y036769D03*
X017198Y036787D03*
X017198Y036805D03*
X017198Y036823D03*
X017198Y036841D03*
X017198Y036859D03*
X017198Y036877D03*
X017198Y036895D03*
X017198Y036913D03*
X017198Y036931D03*
X017198Y036949D03*
X017198Y036967D03*
X017198Y036985D03*
X017198Y037003D03*
X017198Y037021D03*
X017198Y037039D03*
X017198Y037057D03*
X017198Y037075D03*
X017198Y037093D03*
X017198Y037111D03*
X017198Y037129D03*
X017198Y037147D03*
X017198Y037165D03*
X017198Y037183D03*
X017198Y037201D03*
X017198Y037219D03*
X017198Y037237D03*
X017198Y037255D03*
X017198Y037273D03*
X017198Y037291D03*
X017198Y037309D03*
X017198Y037327D03*
X017198Y037345D03*
X017198Y037363D03*
X017198Y037381D03*
X017198Y037399D03*
X017198Y037417D03*
X017198Y037435D03*
X017198Y037453D03*
X017198Y037471D03*
X017198Y037489D03*
X017198Y037507D03*
X017198Y037525D03*
X017198Y037543D03*
X017198Y037561D03*
X017198Y037579D03*
X017198Y037597D03*
X017198Y037615D03*
X017198Y037633D03*
X017198Y037651D03*
X017198Y037669D03*
X017198Y037687D03*
X017198Y037705D03*
X017198Y037723D03*
X017198Y037741D03*
X017198Y037759D03*
X017198Y037777D03*
X017198Y037795D03*
X017198Y037813D03*
X017198Y037831D03*
X017198Y037849D03*
X017198Y037867D03*
X017198Y037885D03*
X017198Y037903D03*
X017198Y037921D03*
X017198Y037939D03*
X017198Y037957D03*
X017198Y038695D03*
X017198Y038713D03*
X017198Y038731D03*
X017198Y038749D03*
X017198Y038767D03*
X017198Y038785D03*
X017198Y038803D03*
X017198Y038821D03*
X017198Y038839D03*
X017198Y038857D03*
X017198Y038875D03*
X017198Y038893D03*
X017198Y038911D03*
X017198Y038929D03*
X017198Y038947D03*
X017198Y038965D03*
X017198Y038983D03*
X017198Y039001D03*
X017198Y039019D03*
X017198Y039037D03*
X017198Y039055D03*
X017198Y039073D03*
X017198Y039091D03*
X017198Y039109D03*
X017198Y039127D03*
X017198Y039145D03*
X017198Y039163D03*
X017198Y039181D03*
X017198Y039199D03*
X017198Y039217D03*
X017198Y039235D03*
X017198Y039253D03*
X017198Y039271D03*
X017198Y039289D03*
X017198Y039307D03*
X017198Y039325D03*
X017198Y039343D03*
X017198Y039361D03*
X017198Y039379D03*
X017198Y039397D03*
X017198Y039415D03*
X017198Y039433D03*
X017198Y039451D03*
X017198Y039469D03*
X017198Y039487D03*
X017198Y039505D03*
X017198Y039523D03*
X017198Y039541D03*
X017198Y039559D03*
X017198Y039577D03*
X017198Y039595D03*
X017198Y039613D03*
X017198Y039631D03*
X017198Y039649D03*
X017198Y039667D03*
X017198Y039685D03*
X017198Y039703D03*
X017216Y039775D03*
X017216Y039793D03*
X017216Y039811D03*
X017216Y039829D03*
X017216Y039847D03*
X017216Y039865D03*
X017216Y039883D03*
X015416Y039109D03*
X019826Y039631D03*
X019826Y039649D03*
X020690Y039811D03*
X020690Y039829D03*
X023282Y039829D03*
X023282Y039847D03*
X023282Y039865D03*
X023282Y039883D03*
X023282Y039901D03*
X023282Y039919D03*
X023300Y039793D03*
X023300Y039775D03*
X023318Y039703D03*
X023318Y039685D03*
X023318Y039667D03*
X023318Y039649D03*
X023318Y039631D03*
X023318Y039613D03*
X023318Y039595D03*
X023318Y039577D03*
X023318Y039559D03*
X023300Y039505D03*
X023300Y039487D03*
X023300Y039469D03*
X023282Y039451D03*
X023282Y039433D03*
X023282Y039415D03*
X023282Y039397D03*
X023282Y039379D03*
X023282Y039361D03*
X023282Y039343D03*
X024182Y039523D03*
X024182Y039541D03*
X024182Y039559D03*
X024182Y039577D03*
X024182Y039595D03*
X024182Y039613D03*
X024182Y039649D03*
X024182Y039667D03*
X024182Y039685D03*
X024182Y039703D03*
X024182Y039721D03*
X024182Y039739D03*
X024182Y039757D03*
X026756Y039955D03*
X026756Y039973D03*
X026792Y039847D03*
X026792Y039829D03*
X026792Y039811D03*
X026792Y039793D03*
X026792Y039775D03*
X026792Y039757D03*
X026792Y039739D03*
X026792Y039721D03*
X026792Y039703D03*
X026792Y039685D03*
X026792Y039667D03*
X026792Y039649D03*
X026792Y039631D03*
X026792Y039613D03*
X026792Y039595D03*
X026792Y039577D03*
X026792Y039559D03*
X026792Y039541D03*
X026792Y039523D03*
X026792Y039505D03*
X026792Y039487D03*
X026792Y039469D03*
X026792Y039451D03*
X026792Y039433D03*
X026792Y039415D03*
X026792Y039397D03*
X026792Y039379D03*
X026792Y039361D03*
X026792Y039343D03*
X026792Y039325D03*
X026792Y039307D03*
X026792Y039289D03*
X026792Y039271D03*
X026792Y039253D03*
X026792Y039235D03*
X026792Y039217D03*
X026792Y039199D03*
X026792Y039181D03*
X026792Y039163D03*
X026792Y039145D03*
X026792Y039127D03*
X026792Y039109D03*
X026792Y039091D03*
X026792Y039073D03*
X026792Y039055D03*
X026792Y039037D03*
X026792Y039019D03*
X026792Y039001D03*
X026792Y038983D03*
X026792Y038965D03*
X026792Y038947D03*
X026792Y038929D03*
X026792Y038911D03*
X026792Y038893D03*
X026792Y038875D03*
X026792Y038857D03*
X026792Y038839D03*
X026792Y038821D03*
X026792Y038803D03*
X026792Y038785D03*
X026792Y038767D03*
X026792Y038749D03*
X026792Y038731D03*
X026792Y038713D03*
X026792Y038695D03*
X026792Y038677D03*
X026792Y037957D03*
X026792Y037939D03*
X026792Y037921D03*
X026792Y037903D03*
X026792Y037885D03*
X026792Y037867D03*
X026792Y037849D03*
X026792Y037831D03*
X026792Y037813D03*
X026792Y037795D03*
X026792Y037777D03*
X026792Y037759D03*
X026792Y037741D03*
X026792Y037723D03*
X026792Y037705D03*
X026792Y037687D03*
X026792Y037669D03*
X026792Y037651D03*
X026792Y037633D03*
X026792Y037615D03*
X026792Y037597D03*
X026792Y037579D03*
X026792Y037561D03*
X026792Y037543D03*
X026792Y037525D03*
X026792Y037507D03*
X026792Y037489D03*
X026792Y037471D03*
X026792Y037453D03*
X026792Y037435D03*
X026792Y037417D03*
X026792Y037399D03*
X026792Y037381D03*
X026792Y037363D03*
X026792Y037345D03*
X026792Y037327D03*
X026792Y037309D03*
X026792Y037291D03*
X026792Y037273D03*
X026792Y037255D03*
X026792Y037237D03*
X026792Y037219D03*
X026792Y037201D03*
X026792Y037183D03*
X026792Y037165D03*
X026792Y037147D03*
X026792Y037129D03*
X026792Y037111D03*
X026792Y037093D03*
X026792Y037075D03*
X026792Y037057D03*
X026792Y037039D03*
X026792Y037021D03*
X026792Y037003D03*
X026792Y036985D03*
X026792Y036967D03*
X026792Y036949D03*
X026792Y036931D03*
X026792Y036913D03*
X026792Y036895D03*
X026792Y036877D03*
X026792Y036859D03*
X026792Y036841D03*
X026792Y036823D03*
X026792Y036805D03*
X026792Y036787D03*
X026792Y036769D03*
X026792Y036751D03*
X026792Y036733D03*
X026792Y036715D03*
X026792Y036697D03*
X026792Y036679D03*
X026792Y036661D03*
X027728Y039307D03*
X027728Y039325D03*
X027728Y039343D03*
X027692Y039433D03*
X027692Y039451D03*
X027692Y039469D03*
X027692Y039487D03*
X027692Y039505D03*
X027692Y039523D03*
X027692Y039541D03*
X027692Y039559D03*
X027692Y039577D03*
X027692Y039595D03*
X027692Y039613D03*
X027692Y039631D03*
X027692Y039649D03*
X027692Y039667D03*
X027692Y039685D03*
X027692Y039703D03*
X027692Y039721D03*
X027692Y039739D03*
X027692Y039757D03*
X027692Y039775D03*
X027692Y039793D03*
X027692Y039811D03*
X027692Y039829D03*
X027728Y039937D03*
X027728Y039955D03*
X030320Y039775D03*
X030320Y039757D03*
X030320Y039739D03*
X030320Y039721D03*
X030320Y039703D03*
X030320Y039685D03*
X030320Y039667D03*
X030320Y039649D03*
X030320Y039631D03*
X030320Y039613D03*
X030320Y039595D03*
X030320Y039577D03*
X030320Y039559D03*
X030320Y039541D03*
X030320Y039523D03*
X030320Y039505D03*
D11*
X016406Y037903D03*
D12*
X016397Y037921D03*
X016397Y038425D03*
X014507Y039181D03*
D13*
X015857Y038785D03*
X015857Y038767D03*
X015857Y038371D03*
X015857Y038353D03*
X016397Y037939D03*
D14*
X016397Y037957D03*
X016397Y038389D03*
X015839Y038317D03*
X015821Y038299D03*
X015839Y038821D03*
X015821Y038839D03*
X015425Y039199D03*
X015083Y038875D03*
X015083Y038263D03*
X015425Y037939D03*
D15*
X014471Y037939D03*
X014471Y037957D03*
X014471Y037975D03*
X014471Y037993D03*
X014471Y038011D03*
X014471Y038029D03*
X014471Y038047D03*
X014471Y038065D03*
X014471Y038083D03*
X014471Y038101D03*
X014471Y038119D03*
X014471Y038137D03*
X014471Y038155D03*
X014471Y038173D03*
X014471Y038191D03*
X014471Y038209D03*
X014471Y038227D03*
X014471Y038245D03*
X014471Y038263D03*
X014471Y038281D03*
X014471Y038299D03*
X014471Y038317D03*
X014471Y038335D03*
X014471Y038353D03*
X014471Y038371D03*
X014471Y038389D03*
X014471Y038407D03*
X014471Y038425D03*
X014471Y038443D03*
X014471Y038461D03*
X014471Y038479D03*
X014471Y038497D03*
X014471Y038515D03*
X014471Y038533D03*
X014471Y038551D03*
X014471Y038569D03*
X014471Y038587D03*
X014471Y038605D03*
X014471Y038623D03*
X014471Y038641D03*
X014471Y038659D03*
X014471Y038677D03*
X014471Y038695D03*
X014471Y038713D03*
X014471Y038731D03*
X014471Y038749D03*
X014471Y038767D03*
X014471Y038785D03*
X014471Y038803D03*
X014471Y038821D03*
X014471Y038839D03*
X014471Y038857D03*
X014471Y038875D03*
X014471Y038893D03*
X014471Y038911D03*
X014471Y038929D03*
X014471Y038947D03*
X014471Y038965D03*
X014471Y038983D03*
X014471Y039217D03*
X014471Y039235D03*
X016397Y038443D03*
D16*
X016397Y037975D03*
X015785Y038263D03*
X015425Y037957D03*
D17*
X015425Y039127D03*
X015425Y039145D03*
X028997Y037975D03*
D18*
X029006Y038281D03*
X029006Y040981D03*
X026162Y037975D03*
X025496Y040981D03*
X018512Y040981D03*
D19*
X017837Y037975D03*
X021311Y037975D03*
X021995Y040981D03*
D20*
X015677Y038227D03*
X015425Y037975D03*
D21*
X029006Y037993D03*
D22*
X029006Y038299D03*
X026144Y037993D03*
D23*
X021329Y037993D03*
D24*
X021995Y040963D03*
X025487Y040963D03*
X017855Y037993D03*
D25*
X016397Y037993D03*
X015767Y038875D03*
X015101Y038893D03*
X015101Y038245D03*
X014597Y039037D03*
X014597Y039055D03*
X014597Y039073D03*
X014597Y039091D03*
D26*
X015407Y037993D03*
D27*
X017504Y040423D03*
X018512Y041251D03*
X018512Y041269D03*
X019520Y040423D03*
X019538Y040405D03*
X020978Y040405D03*
X021986Y041251D03*
X024470Y040423D03*
X025496Y041251D03*
X026504Y040423D03*
X027980Y040405D03*
X027980Y038857D03*
X027998Y038839D03*
X028016Y038821D03*
X028988Y038011D03*
X030014Y038839D03*
X019538Y038857D03*
X019520Y038839D03*
D28*
X018512Y040927D03*
X026090Y038011D03*
X029006Y038335D03*
X029006Y040927D03*
D29*
X021995Y040927D03*
X021383Y038011D03*
X017909Y038011D03*
D30*
X016397Y038011D03*
X016397Y038317D03*
X015749Y038245D03*
X015749Y038893D03*
D31*
X015425Y038011D03*
D32*
X015416Y038137D03*
X015416Y039001D03*
X022976Y040459D03*
X029006Y041233D03*
X029996Y040441D03*
X029006Y038029D03*
D33*
X029006Y038353D03*
X026072Y038029D03*
X021986Y040909D03*
X018512Y040909D03*
D34*
X017927Y038029D03*
X021401Y038029D03*
X025487Y040909D03*
X028997Y040909D03*
D35*
X016523Y038029D03*
X016271Y038029D03*
X015083Y038821D03*
D36*
X015425Y038029D03*
X017189Y038677D03*
X023309Y039523D03*
X023309Y039541D03*
X023309Y039721D03*
X023309Y039739D03*
X023309Y039757D03*
X024173Y039631D03*
D37*
X022805Y040567D03*
X025487Y041215D03*
X028205Y040567D03*
X028997Y041215D03*
X028997Y038047D03*
D38*
X028997Y038389D03*
X028997Y040873D03*
X026027Y038065D03*
X026027Y038047D03*
X025487Y040873D03*
X021995Y040873D03*
X021437Y038047D03*
X018521Y040873D03*
X017963Y038047D03*
D39*
X016586Y038065D03*
X016568Y038047D03*
X016586Y038281D03*
X016226Y038281D03*
X016226Y038065D03*
X015074Y038353D03*
X014714Y038983D03*
D40*
X014723Y038965D03*
X015083Y038785D03*
X016199Y038263D03*
X016199Y038245D03*
X016199Y038227D03*
X016199Y038209D03*
X016199Y038119D03*
X016199Y038101D03*
X016199Y038083D03*
X016235Y038047D03*
X016595Y038083D03*
X016595Y038101D03*
X016595Y038245D03*
X016595Y038263D03*
D41*
X015425Y038047D03*
X015425Y039091D03*
X017297Y040099D03*
X017297Y040117D03*
X019727Y040117D03*
X019727Y040099D03*
X019745Y040081D03*
X019763Y040063D03*
X019763Y040045D03*
X019763Y040027D03*
X019727Y040135D03*
X019763Y039253D03*
X019763Y039235D03*
X019763Y039217D03*
X019727Y039163D03*
X019727Y039145D03*
X020735Y039991D03*
X020735Y040009D03*
X020771Y040063D03*
X020771Y040081D03*
X020771Y040099D03*
X020807Y040171D03*
X023201Y040153D03*
X023201Y040135D03*
X023201Y039127D03*
X023183Y039109D03*
X024245Y039199D03*
X024245Y039217D03*
X024245Y039235D03*
X024263Y039181D03*
X024281Y039163D03*
X024281Y039145D03*
X024281Y039127D03*
X024245Y040027D03*
X024245Y040045D03*
X024245Y040063D03*
X024245Y040081D03*
X024263Y040099D03*
X024281Y040117D03*
X024281Y040135D03*
X026693Y040135D03*
X027755Y040063D03*
X027773Y040081D03*
X027791Y040117D03*
X027791Y040135D03*
X027755Y039217D03*
X027791Y039145D03*
X030203Y039145D03*
X030203Y039127D03*
X030203Y039109D03*
X030221Y040117D03*
X030203Y040135D03*
X030203Y040153D03*
D42*
X029006Y041197D03*
X029006Y038065D03*
X025496Y041197D03*
X022004Y041197D03*
X021194Y040567D03*
X018512Y041197D03*
D43*
X018521Y040855D03*
X021455Y038065D03*
X022211Y038659D03*
X021995Y040855D03*
X025487Y040855D03*
X028997Y038407D03*
D44*
X017972Y038065D03*
D45*
X019673Y039037D03*
X019673Y039055D03*
X019709Y039109D03*
X019709Y040153D03*
X019709Y040171D03*
X019673Y040207D03*
X019673Y040225D03*
X020789Y040135D03*
X020825Y040189D03*
X020825Y040207D03*
X023147Y040243D03*
X023165Y040207D03*
X024299Y040189D03*
X024299Y040171D03*
X024317Y040207D03*
X024335Y040225D03*
X024335Y040243D03*
X024299Y039091D03*
X024335Y039037D03*
X024335Y039019D03*
X023165Y039055D03*
X023147Y039037D03*
X023147Y039019D03*
X023129Y039001D03*
X026639Y040243D03*
X026657Y040207D03*
X027845Y040225D03*
X027827Y039073D03*
X027845Y039037D03*
X030149Y039019D03*
X030185Y039073D03*
X030185Y040189D03*
X030185Y040207D03*
X030167Y040225D03*
X030149Y040243D03*
X017369Y040243D03*
X017351Y040225D03*
X017351Y040207D03*
X015425Y038065D03*
D46*
X018512Y041179D03*
X029006Y041179D03*
X029006Y038083D03*
D47*
X029006Y038443D03*
X025982Y038083D03*
X018008Y038083D03*
D48*
X018017Y038101D03*
X018521Y040819D03*
X021491Y038101D03*
X021491Y038083D03*
X021995Y040819D03*
X025487Y040819D03*
X025973Y038101D03*
D49*
X024389Y038947D03*
X024389Y038965D03*
X024353Y039001D03*
X023111Y038965D03*
X023093Y038947D03*
X023111Y040297D03*
X024353Y040279D03*
X024353Y040261D03*
X024371Y040297D03*
X024389Y040315D03*
X026585Y040315D03*
X026603Y040297D03*
X026621Y040279D03*
X027899Y040315D03*
X027899Y038947D03*
X030095Y038947D03*
X030113Y038965D03*
X030131Y038983D03*
X030131Y040279D03*
X030095Y040315D03*
X020879Y040297D03*
X020843Y040243D03*
X019655Y040261D03*
X019619Y040297D03*
X019619Y040315D03*
X019619Y038965D03*
X019619Y038947D03*
X017405Y040297D03*
X017405Y040315D03*
X015425Y039055D03*
X015425Y038083D03*
D50*
X018512Y041161D03*
X021986Y041161D03*
X029006Y041161D03*
X029006Y038101D03*
D51*
X027962Y038875D03*
X027962Y040387D03*
X030050Y040387D03*
X030068Y040369D03*
X024434Y040369D03*
X023048Y040369D03*
X023048Y040387D03*
X023048Y038893D03*
X023030Y038875D03*
X024434Y038893D03*
X019556Y038875D03*
X019574Y040369D03*
X019556Y040387D03*
X017468Y040387D03*
X017450Y040369D03*
X015416Y038101D03*
D52*
X029006Y038119D03*
X029006Y041143D03*
D53*
X029006Y038479D03*
X025946Y038119D03*
D54*
X025937Y038137D03*
X025487Y040783D03*
X021995Y040783D03*
X021527Y038137D03*
X021527Y038119D03*
X018521Y040783D03*
X018053Y038137D03*
X018053Y038119D03*
D55*
X016604Y038119D03*
X016604Y038137D03*
X016604Y038155D03*
X016604Y038173D03*
X016604Y038191D03*
X016604Y038209D03*
X016604Y038227D03*
X015074Y038767D03*
D56*
X015425Y039019D03*
X015425Y039037D03*
X015425Y038119D03*
X017495Y040405D03*
X020951Y040387D03*
X020987Y040423D03*
X021995Y041269D03*
X023003Y040423D03*
X023021Y040405D03*
X024461Y040405D03*
X025487Y041269D03*
X026513Y040405D03*
X024461Y038857D03*
X023021Y038857D03*
X023003Y038839D03*
X028997Y041269D03*
X030023Y040423D03*
X030023Y040405D03*
X030023Y038857D03*
D57*
X028997Y038137D03*
X028997Y041125D03*
X025487Y041125D03*
D58*
X016190Y038191D03*
X016190Y038173D03*
X016190Y038155D03*
X016190Y038137D03*
X014732Y038947D03*
D59*
X029015Y038155D03*
D60*
X028997Y038497D03*
X028997Y040765D03*
X025919Y038155D03*
X025487Y040765D03*
X021995Y040765D03*
X018521Y040765D03*
D61*
X018089Y038173D03*
X021563Y038173D03*
X021563Y038155D03*
X021995Y040747D03*
D62*
X018512Y040747D03*
X018080Y038155D03*
X025910Y038173D03*
X029006Y038515D03*
D63*
X028079Y038767D03*
X029951Y038785D03*
X029951Y040477D03*
X025487Y041233D03*
X022949Y040477D03*
X021995Y041233D03*
X021023Y040459D03*
X019457Y038785D03*
X017567Y040477D03*
X018521Y041233D03*
X015425Y038983D03*
X015425Y038155D03*
D64*
X018512Y041089D03*
X021986Y041089D03*
X025496Y041089D03*
X029006Y041089D03*
X029006Y038173D03*
D65*
X028106Y038749D03*
X028106Y040513D03*
X026378Y040513D03*
X024596Y040513D03*
X024596Y038749D03*
X022886Y038749D03*
X029906Y040513D03*
X015416Y038965D03*
X015416Y038173D03*
D66*
X018512Y041071D03*
X025496Y041071D03*
X029006Y038191D03*
D67*
X029006Y038533D03*
X025892Y038191D03*
D68*
X029006Y040711D03*
X021590Y038191D03*
X018512Y040711D03*
X018116Y038209D03*
D69*
X018107Y038191D03*
X018521Y040729D03*
X021995Y040729D03*
X025487Y040729D03*
X025487Y040711D03*
X025883Y038209D03*
X028997Y038551D03*
X028997Y040729D03*
D70*
X029879Y040531D03*
X028115Y040531D03*
X026369Y040531D03*
X024605Y040531D03*
X022895Y040513D03*
X021113Y040531D03*
X021095Y040513D03*
X019403Y040513D03*
X019403Y038749D03*
X017639Y040531D03*
X015425Y038947D03*
X015425Y038191D03*
D71*
X018512Y041053D03*
X025496Y041053D03*
X029006Y041053D03*
X029006Y038209D03*
D72*
X021599Y038209D03*
D73*
X022868Y038731D03*
X022868Y040531D03*
X019394Y040531D03*
X015416Y038929D03*
X015416Y038209D03*
D74*
X018521Y041035D03*
X021995Y041035D03*
X025487Y041035D03*
X028997Y041035D03*
X028997Y038227D03*
D75*
X029006Y038569D03*
X025856Y038227D03*
X018512Y040693D03*
D76*
X018134Y038227D03*
X021608Y038227D03*
D77*
X015128Y038227D03*
D78*
X025487Y041017D03*
X028997Y041017D03*
X028997Y038245D03*
D79*
X028997Y038587D03*
X028997Y040675D03*
X028997Y040693D03*
X025847Y038245D03*
X025487Y040675D03*
X025487Y040693D03*
X021995Y040675D03*
X021617Y038245D03*
X018143Y038245D03*
D80*
X018512Y040999D03*
X025496Y040999D03*
X029006Y040999D03*
X029006Y038263D03*
D81*
X029006Y038605D03*
X025838Y038263D03*
X018512Y040675D03*
D82*
X018161Y038263D03*
X021635Y038263D03*
X021995Y040657D03*
X025487Y040657D03*
X025829Y038281D03*
D83*
X021995Y040639D03*
X021653Y038281D03*
D84*
X018512Y040657D03*
X018170Y038281D03*
X029006Y038623D03*
X029006Y040657D03*
D85*
X016406Y038371D03*
X015794Y038281D03*
X015794Y038857D03*
X014570Y039127D03*
D86*
X014543Y039145D03*
X015083Y038281D03*
X015875Y038389D03*
X015893Y038407D03*
X015893Y038425D03*
X015893Y038443D03*
X015893Y038695D03*
X015893Y038713D03*
X015893Y038731D03*
D87*
X018521Y040639D03*
X025487Y040639D03*
X025487Y040621D03*
X025811Y038299D03*
X028997Y038641D03*
X028997Y040639D03*
D88*
X029006Y040621D03*
X025802Y038317D03*
X021662Y038299D03*
X018512Y040621D03*
X018188Y038299D03*
D89*
X016532Y038299D03*
X016262Y038299D03*
X015074Y038335D03*
X015074Y038803D03*
D90*
X015074Y038839D03*
X015074Y038299D03*
D91*
X018512Y040945D03*
X025496Y040945D03*
X029006Y040945D03*
X029006Y038317D03*
D92*
X025793Y038335D03*
X021995Y040603D03*
X021995Y040621D03*
X021671Y038317D03*
X018197Y038317D03*
D93*
X015074Y038317D03*
X014498Y039199D03*
D94*
X018206Y038335D03*
X018512Y040603D03*
X021680Y038335D03*
X025478Y040603D03*
X029006Y040603D03*
X029006Y038659D03*
D95*
X016406Y038335D03*
D96*
X015848Y038335D03*
X015848Y038803D03*
D97*
X018215Y038353D03*
X025775Y038353D03*
X025775Y038371D03*
D98*
X021689Y038353D03*
D99*
X016406Y038353D03*
X015416Y039181D03*
D100*
X018512Y040891D03*
X029006Y038371D03*
D101*
X021698Y038371D03*
X018224Y038371D03*
D102*
X015065Y038371D03*
X015065Y038389D03*
X015065Y038749D03*
D103*
X018233Y038389D03*
X021707Y038389D03*
X025757Y038389D03*
D104*
X025748Y038407D03*
X018242Y038407D03*
D105*
X021725Y038407D03*
X025739Y038425D03*
D106*
X016397Y038407D03*
X015911Y038479D03*
X015911Y038497D03*
X015911Y038515D03*
X015911Y038533D03*
X015911Y038551D03*
X015911Y038569D03*
X015911Y038587D03*
X015911Y038605D03*
X015911Y038623D03*
X015911Y038641D03*
X015911Y038659D03*
D107*
X015083Y038407D03*
X014759Y038929D03*
D108*
X018521Y040837D03*
X025487Y040837D03*
X028997Y040837D03*
X028997Y038425D03*
D109*
X021734Y038425D03*
D110*
X018260Y038425D03*
X018260Y038443D03*
X025730Y038443D03*
D111*
X021743Y038443D03*
D112*
X021995Y040801D03*
X018521Y040801D03*
X025487Y040801D03*
X028997Y040801D03*
X028997Y038461D03*
D113*
X025721Y038461D03*
X025721Y038479D03*
D114*
X021752Y038461D03*
X018278Y038461D03*
X018278Y038479D03*
D115*
X015902Y038461D03*
X015902Y038677D03*
X015092Y038857D03*
D116*
X018287Y038497D03*
X021761Y038479D03*
X025703Y038497D03*
X025703Y038515D03*
D117*
X021770Y038497D03*
X018296Y038515D03*
D118*
X021779Y038515D03*
X021779Y038533D03*
D119*
X018305Y038533D03*
X025685Y038533D03*
X025685Y038551D03*
D120*
X021788Y038551D03*
X018314Y038551D03*
D121*
X025676Y038569D03*
D122*
X025667Y038587D03*
X021797Y038569D03*
X018323Y038569D03*
D123*
X018332Y038587D03*
X018332Y038605D03*
X021806Y038587D03*
X025658Y038605D03*
D124*
X025649Y038623D03*
X025649Y038641D03*
X021815Y038623D03*
X021815Y038605D03*
X018341Y038623D03*
D125*
X021824Y038641D03*
D126*
X018350Y038641D03*
X018350Y038659D03*
X025640Y038659D03*
D127*
X024227Y039271D03*
X024227Y039289D03*
X024227Y039307D03*
X024209Y039343D03*
X024191Y039379D03*
X024191Y039397D03*
X024191Y039415D03*
X024191Y039433D03*
X024191Y039451D03*
X024191Y039469D03*
X024191Y039487D03*
X024191Y039505D03*
X024191Y039775D03*
X024191Y039793D03*
X024191Y039811D03*
X024191Y039829D03*
X024191Y039847D03*
X024191Y039865D03*
X024191Y039883D03*
X024191Y039901D03*
X024227Y039973D03*
X024227Y039991D03*
X023291Y039811D03*
X023273Y039937D03*
X023255Y040009D03*
X023273Y039325D03*
X023255Y039271D03*
X023255Y039253D03*
X023237Y039235D03*
X020681Y039235D03*
X020681Y039217D03*
X020681Y039199D03*
X020681Y039181D03*
X020681Y039163D03*
X020681Y039145D03*
X020681Y039127D03*
X020681Y039109D03*
X020681Y039091D03*
X020681Y039073D03*
X020681Y039055D03*
X020681Y039037D03*
X020681Y039019D03*
X020681Y039001D03*
X020681Y038983D03*
X020681Y038965D03*
X020681Y038947D03*
X020681Y038929D03*
X020681Y038911D03*
X020681Y038893D03*
X020681Y038875D03*
X020681Y038857D03*
X020681Y038839D03*
X020681Y038821D03*
X020681Y038803D03*
X020681Y038785D03*
X020681Y038767D03*
X020681Y038749D03*
X020681Y038731D03*
X020681Y038713D03*
X020681Y038695D03*
X020681Y038677D03*
X020681Y038659D03*
X020681Y039253D03*
X020681Y039271D03*
X020681Y039289D03*
X020681Y039307D03*
X020681Y039325D03*
X020681Y039343D03*
X020681Y039361D03*
X020681Y039379D03*
X020681Y039397D03*
X020681Y039415D03*
X020681Y039433D03*
X020681Y039451D03*
X020681Y039469D03*
X020681Y039487D03*
X020681Y039505D03*
X020681Y039523D03*
X020681Y039541D03*
X020681Y039559D03*
X020681Y039577D03*
X020681Y039595D03*
X020681Y039613D03*
X020681Y039631D03*
X020681Y039649D03*
X020681Y039667D03*
X020681Y039685D03*
X020681Y039703D03*
X020681Y039721D03*
X020681Y039739D03*
X020681Y039757D03*
X020681Y039775D03*
X020681Y039793D03*
X020699Y039847D03*
X020717Y039865D03*
X020717Y039883D03*
X020717Y039901D03*
X020717Y039919D03*
X020717Y039937D03*
X020717Y039955D03*
X019817Y039883D03*
X019817Y039865D03*
X019817Y039847D03*
X019817Y039829D03*
X019817Y039811D03*
X019817Y039793D03*
X019817Y039775D03*
X019817Y039757D03*
X019817Y039739D03*
X019817Y039721D03*
X019817Y039703D03*
X019817Y039685D03*
X019817Y039667D03*
X019817Y039613D03*
X019817Y039595D03*
X019817Y039577D03*
X019817Y039559D03*
X019817Y039541D03*
X019817Y039523D03*
X019817Y039505D03*
X019817Y039487D03*
X019817Y039469D03*
X019817Y039451D03*
X019817Y039433D03*
X019817Y039415D03*
X019817Y039397D03*
X019799Y039379D03*
X019781Y039343D03*
X019781Y039325D03*
X019781Y039307D03*
X019781Y039289D03*
X019799Y039901D03*
X019781Y039937D03*
X019781Y039955D03*
X019781Y039973D03*
X019781Y039991D03*
X017261Y040009D03*
X017243Y039991D03*
X017243Y039973D03*
X017243Y039955D03*
X017243Y039937D03*
X017225Y039901D03*
X017207Y039757D03*
X017207Y039739D03*
X017207Y039721D03*
X026747Y039991D03*
X026765Y039937D03*
X026765Y039919D03*
X026783Y039883D03*
X026783Y039865D03*
X027701Y039865D03*
X027701Y039847D03*
X027719Y039901D03*
X027719Y039919D03*
X027737Y039973D03*
X027701Y039415D03*
X027701Y039397D03*
X027719Y039379D03*
X027719Y039361D03*
X027737Y039289D03*
X030257Y039289D03*
X030257Y039271D03*
X030257Y039253D03*
X030257Y039235D03*
X030275Y039307D03*
X030311Y039451D03*
X030311Y039469D03*
X030311Y039487D03*
X030311Y039793D03*
X030311Y039811D03*
X030311Y039829D03*
X030275Y039955D03*
X030257Y039991D03*
X030257Y040009D03*
X030257Y040027D03*
D128*
X029735Y040585D03*
X029735Y038677D03*
X026225Y040585D03*
X022733Y040585D03*
D129*
X021266Y040585D03*
X022724Y038677D03*
X024758Y038677D03*
X024758Y040585D03*
X028268Y040585D03*
X028268Y038677D03*
X019250Y038677D03*
X019250Y040585D03*
X017792Y040585D03*
D130*
X029771Y038695D03*
D131*
X028232Y038695D03*
X024722Y038695D03*
X022760Y038695D03*
X019286Y038695D03*
D132*
X017675Y040549D03*
X021167Y040549D03*
X024677Y040567D03*
X026297Y040567D03*
X026333Y040549D03*
X029843Y040549D03*
X029843Y038713D03*
D133*
X028169Y038713D03*
X028169Y040549D03*
X024659Y038713D03*
X019349Y038713D03*
X019349Y040549D03*
D134*
X019376Y038731D03*
X022832Y038713D03*
X024632Y038731D03*
X022832Y040549D03*
X029852Y038731D03*
D135*
X028133Y038731D03*
X015425Y038911D03*
D136*
X015299Y038875D03*
X022301Y038731D03*
X022193Y040567D03*
X028601Y038767D03*
D137*
X015074Y038731D03*
D138*
X022913Y038767D03*
X024551Y040495D03*
X029933Y040495D03*
X029897Y038749D03*
D139*
X015884Y038749D03*
X014534Y039163D03*
D140*
X017576Y040495D03*
X019448Y040495D03*
X019466Y040477D03*
X021050Y040477D03*
X021068Y040495D03*
X019430Y038767D03*
X022922Y040495D03*
X024542Y040477D03*
X024542Y038785D03*
X024560Y038767D03*
X026414Y040495D03*
X026432Y040477D03*
X028052Y040477D03*
X028070Y040495D03*
X028052Y038785D03*
X029924Y038767D03*
D141*
X028034Y038803D03*
X022958Y038803D03*
X022940Y038785D03*
X019484Y038803D03*
X019484Y040459D03*
X017540Y040459D03*
D142*
X024479Y038839D03*
X026459Y040459D03*
X027989Y040423D03*
X029969Y040459D03*
X029969Y038803D03*
D143*
X029987Y038821D03*
X028025Y040459D03*
X028007Y040441D03*
X028997Y041251D03*
X026477Y040441D03*
X024515Y040459D03*
X024497Y040441D03*
X022985Y040441D03*
X022985Y038821D03*
X024515Y038821D03*
X024515Y038803D03*
X021005Y040441D03*
X019493Y040441D03*
X019493Y038821D03*
X017531Y040441D03*
D144*
X017441Y040351D03*
X019601Y040351D03*
X019601Y040333D03*
X019601Y038929D03*
X024407Y038929D03*
X024407Y038911D03*
X024407Y040351D03*
X026531Y040387D03*
X026567Y040351D03*
X027917Y040351D03*
X030077Y040351D03*
X030077Y038911D03*
X030041Y038875D03*
D145*
X030059Y038893D03*
X027935Y040369D03*
X026549Y040369D03*
X024443Y040387D03*
X024443Y038875D03*
X020933Y040369D03*
X019583Y038911D03*
X019565Y038893D03*
D146*
X020924Y040351D03*
X023084Y040333D03*
X023084Y038929D03*
X027944Y038893D03*
D147*
X027926Y038911D03*
X027908Y038929D03*
X027908Y040333D03*
X026576Y040333D03*
X024398Y040333D03*
X023102Y040315D03*
X023066Y040351D03*
X023066Y038911D03*
X020906Y040333D03*
X020888Y040315D03*
X017432Y040333D03*
X030086Y040333D03*
X030122Y040297D03*
X030086Y038929D03*
D148*
X014750Y038911D03*
D149*
X015416Y039073D03*
X017378Y040261D03*
X017378Y040279D03*
X019646Y040279D03*
X019664Y040243D03*
X020834Y040225D03*
X020852Y040261D03*
X020870Y040279D03*
X019664Y039019D03*
X019646Y039001D03*
X019628Y038983D03*
X023120Y038983D03*
X024362Y038983D03*
X023156Y040225D03*
X023138Y040261D03*
X023120Y040279D03*
X026630Y040261D03*
X027854Y040261D03*
X027854Y040243D03*
X027872Y040279D03*
X027890Y040297D03*
X027854Y039019D03*
X027854Y039001D03*
X027872Y038983D03*
X027890Y038965D03*
X030140Y039001D03*
X030140Y040261D03*
D150*
X014588Y039019D03*
X014588Y039001D03*
D151*
X017324Y040153D03*
X017324Y040171D03*
X017324Y040189D03*
X019700Y040189D03*
X019718Y039127D03*
X019700Y039091D03*
X020780Y040117D03*
X020798Y040153D03*
X023174Y040171D03*
X023174Y040189D03*
X023210Y040117D03*
X023210Y039145D03*
X023174Y039091D03*
X023174Y039073D03*
X024290Y039109D03*
X024308Y039073D03*
X024290Y040153D03*
X026648Y040225D03*
X026684Y040171D03*
X026684Y040153D03*
X027800Y040153D03*
X027800Y040171D03*
X027818Y040189D03*
X027800Y039127D03*
X027800Y039109D03*
X027818Y039091D03*
X030158Y039037D03*
X030194Y039091D03*
X030194Y040171D03*
D152*
X030176Y039055D03*
X027836Y039055D03*
X027836Y040207D03*
X026666Y040189D03*
X024326Y039055D03*
X019682Y039073D03*
D153*
X014579Y039109D03*
D154*
X017234Y039919D03*
X017270Y040027D03*
X017270Y040045D03*
X017270Y040063D03*
X017306Y040135D03*
X019772Y040009D03*
X019790Y039919D03*
X019790Y039361D03*
X019772Y039271D03*
X019754Y039199D03*
X019736Y039181D03*
X020726Y039973D03*
X020744Y040027D03*
X020744Y040045D03*
X023228Y040045D03*
X023228Y040063D03*
X023228Y040081D03*
X023246Y040027D03*
X023264Y039991D03*
X023264Y039973D03*
X023264Y039955D03*
X023264Y039307D03*
X023264Y039289D03*
X023228Y039217D03*
X023228Y039199D03*
X023228Y039181D03*
X024200Y039361D03*
X024218Y039325D03*
X024236Y039253D03*
X024200Y039919D03*
X024218Y039937D03*
X024218Y039955D03*
X024236Y040009D03*
X026702Y040099D03*
X026702Y040117D03*
X026720Y040081D03*
X026738Y040045D03*
X026738Y040027D03*
X026738Y040009D03*
X026774Y039901D03*
X027710Y039883D03*
X027746Y039991D03*
X027746Y040009D03*
X027746Y040027D03*
X027746Y040045D03*
X027782Y040099D03*
X027746Y039271D03*
X027746Y039253D03*
X027746Y039235D03*
X027764Y039199D03*
X027782Y039181D03*
X027782Y039163D03*
X030230Y039163D03*
X030248Y039217D03*
X030284Y039325D03*
X030302Y039343D03*
X030302Y039361D03*
X030302Y039379D03*
X030302Y039397D03*
X030302Y039415D03*
X030302Y039433D03*
X030302Y039847D03*
X030302Y039865D03*
X030302Y039883D03*
X030302Y039901D03*
X030302Y039919D03*
X030302Y039937D03*
X030266Y039973D03*
X030248Y040045D03*
D155*
X030239Y040063D03*
X030239Y040081D03*
X030239Y040099D03*
X030239Y039199D03*
X030239Y039181D03*
X026729Y040063D03*
X023219Y040099D03*
X023219Y039163D03*
X017279Y040081D03*
D156*
X015416Y039163D03*
D157*
X017621Y040513D03*
D158*
X024650Y040549D03*
D159*
X021986Y041215D03*
X019322Y040567D03*
X018512Y041215D03*
X017702Y040567D03*
X029816Y040567D03*
D160*
X021995Y040693D03*
X021995Y040711D03*
D161*
X025487Y040747D03*
X028997Y040747D03*
D162*
X029006Y040783D03*
D163*
X029006Y040819D03*
D164*
X021995Y040837D03*
D165*
X029006Y040855D03*
D166*
X028997Y040891D03*
X025487Y040891D03*
X021995Y040891D03*
D167*
X025487Y040927D03*
D168*
X021995Y040945D03*
D169*
X018512Y040963D03*
X029006Y040963D03*
D170*
X021995Y040999D03*
D171*
X021986Y041017D03*
X018512Y041017D03*
D172*
X022004Y041053D03*
D173*
X021995Y041071D03*
X028997Y041071D03*
D174*
X029006Y041107D03*
X025496Y041107D03*
X022004Y041107D03*
X018512Y041107D03*
D175*
X018512Y041125D03*
X018512Y041143D03*
X021986Y041125D03*
D176*
X021995Y041143D03*
X025487Y041143D03*
D177*
X025487Y041161D03*
D178*
X025487Y041179D03*
D179*
X022004Y041179D03*
D180*
X024350Y037756D02*
X024350Y037701D01*
X024350Y037591D02*
X024350Y037370D01*
X024405Y037370D02*
X024295Y037370D01*
X024160Y037425D02*
X024105Y037370D01*
X023940Y037370D01*
X023940Y037315D02*
X023940Y037591D01*
X024105Y037591D01*
X024160Y037536D01*
X024160Y037425D01*
X024050Y037260D02*
X023995Y037260D01*
X023940Y037315D01*
X023792Y037370D02*
X023792Y037701D01*
X023737Y037591D02*
X023626Y037591D01*
X023571Y037536D01*
X023571Y037370D01*
X023368Y037425D02*
X023313Y037370D01*
X023368Y037425D02*
X023368Y037646D01*
X023423Y037591D02*
X023313Y037591D01*
X023737Y037591D02*
X023792Y037536D01*
X023866Y037024D02*
X023811Y036969D01*
X023811Y036859D01*
X023866Y036804D01*
X024031Y036804D01*
X024031Y036694D02*
X024031Y037024D01*
X023866Y037024D01*
X023663Y036859D02*
X023608Y036914D01*
X023498Y036914D01*
X023443Y036859D01*
X023443Y036804D01*
X023663Y036804D01*
X023663Y036749D02*
X023663Y036859D01*
X023663Y036749D02*
X023608Y036694D01*
X023498Y036694D01*
X023294Y036749D02*
X023294Y036859D01*
X023239Y036914D01*
X023074Y036914D01*
X023074Y037024D02*
X023074Y036694D01*
X023239Y036694D01*
X023294Y036749D01*
X022926Y036694D02*
X022926Y036914D01*
X022926Y036804D02*
X022816Y036914D01*
X022761Y036914D01*
X022619Y036859D02*
X022619Y036749D01*
X022564Y036694D01*
X022454Y036694D01*
X022399Y036749D01*
X022399Y036859D01*
X022454Y036914D01*
X022564Y036914D01*
X022619Y036859D01*
X022699Y037370D02*
X022809Y037480D01*
X022809Y037591D01*
X022699Y037701D01*
X022564Y037646D02*
X022564Y037425D01*
X022509Y037370D01*
X022399Y037370D01*
X022344Y037425D01*
X022196Y037370D02*
X022085Y037480D01*
X022085Y037591D01*
X022196Y037701D01*
X022344Y037646D02*
X022399Y037701D01*
X022509Y037701D01*
X022564Y037646D01*
X021582Y037646D02*
X021527Y037701D01*
X021417Y037701D01*
X021361Y037646D01*
X021361Y037591D01*
X021582Y037370D01*
X021361Y037370D01*
X021213Y037425D02*
X020993Y037646D01*
X020993Y037425D01*
X021048Y037370D01*
X021158Y037370D01*
X021213Y037425D01*
X021213Y037646D01*
X021158Y037701D01*
X021048Y037701D01*
X020993Y037646D01*
X020845Y037591D02*
X020735Y037701D01*
X020735Y037370D01*
X020845Y037370D02*
X020625Y037370D01*
X020477Y037425D02*
X020422Y037370D01*
X020312Y037370D01*
X020257Y037425D01*
X020257Y037536D01*
X020312Y037591D01*
X020367Y037591D01*
X020477Y037536D01*
X020477Y037701D01*
X020257Y037701D01*
X024350Y037591D02*
X024405Y037591D01*
X024547Y037591D02*
X024602Y037591D01*
X024712Y037480D01*
X024712Y037370D02*
X024712Y037591D01*
X024860Y037591D02*
X024860Y037315D01*
X024916Y037260D01*
X024971Y037260D01*
X025026Y037370D02*
X024860Y037370D01*
X025026Y037370D02*
X025081Y037425D01*
X025081Y037591D01*
X025229Y037536D02*
X025229Y037425D01*
X025284Y037370D01*
X025449Y037370D01*
X025449Y037260D02*
X025449Y037591D01*
X025284Y037591D01*
X025229Y037536D01*
X025597Y037536D02*
X025652Y037591D01*
X025762Y037591D01*
X025817Y037536D01*
X025817Y037425D01*
X025762Y037370D01*
X025652Y037370D01*
X025597Y037425D01*
X025597Y037536D01*
X025965Y037646D02*
X026020Y037701D01*
X026131Y037701D01*
X026186Y037646D01*
X026186Y037425D01*
X026131Y037370D01*
X026020Y037370D01*
X025965Y037425D01*
X026069Y037024D02*
X025959Y036914D01*
X025959Y036694D01*
X025811Y036694D02*
X025811Y036914D01*
X025646Y036914D01*
X025591Y036859D01*
X025591Y036694D01*
X025443Y036749D02*
X025443Y036859D01*
X025388Y036914D01*
X025223Y036914D01*
X025223Y037024D02*
X025223Y036694D01*
X025388Y036694D01*
X025443Y036749D01*
X025075Y036694D02*
X025075Y036914D01*
X025075Y036804D02*
X024965Y036914D01*
X024910Y036914D01*
X024768Y036859D02*
X024713Y036914D01*
X024603Y036914D01*
X024548Y036859D01*
X024548Y036804D01*
X024768Y036804D01*
X024768Y036749D02*
X024768Y036859D01*
X024768Y036749D02*
X024713Y036694D01*
X024603Y036694D01*
X024713Y037024D02*
X024603Y037079D01*
X025959Y036859D02*
X026180Y036859D01*
X026180Y036914D02*
X026069Y037024D01*
X026180Y036914D02*
X026180Y036694D01*
D181*
X023029Y008302D02*
X023086Y008245D01*
X023199Y008245D01*
X023256Y008302D01*
X023029Y008529D01*
X023029Y008302D01*
X023029Y008529D02*
X023086Y008586D01*
X023199Y008586D01*
X023256Y008529D01*
X023256Y008302D01*
X023383Y008302D02*
X023383Y008245D01*
X023440Y008245D01*
X023440Y008302D01*
X023383Y008302D01*
X023582Y008245D02*
X023808Y008245D01*
X023695Y008245D02*
X023695Y008586D01*
X023808Y008472D01*
X024318Y008415D02*
X024318Y008245D01*
X024318Y008415D02*
X024375Y008472D01*
X024545Y008472D01*
X024545Y008245D01*
X024687Y008302D02*
X024687Y008415D01*
X024743Y008472D01*
X024857Y008472D01*
X024913Y008415D01*
X024913Y008302D01*
X024857Y008245D01*
X024743Y008245D01*
X024687Y008302D01*
X025046Y008245D02*
X025159Y008245D01*
X025102Y008245D02*
X025102Y008472D01*
X025159Y008472D01*
X025102Y008586D02*
X025102Y008642D01*
X025300Y008472D02*
X025471Y008472D01*
X025527Y008415D01*
X025471Y008359D01*
X025357Y008359D01*
X025300Y008302D01*
X025357Y008245D01*
X025527Y008245D01*
X025664Y008472D02*
X025721Y008472D01*
X025834Y008359D01*
X025834Y008472D02*
X025834Y008245D01*
X025976Y008359D02*
X026203Y008359D01*
X026203Y008415D02*
X026146Y008472D01*
X026032Y008472D01*
X025976Y008415D01*
X025976Y008359D01*
X026032Y008245D02*
X026146Y008245D01*
X026203Y008302D01*
X026203Y008415D01*
X026344Y008359D02*
X026344Y008586D01*
X026571Y008586D02*
X026571Y008359D01*
X026457Y008245D01*
X026344Y008359D01*
X027081Y008472D02*
X027251Y008472D01*
X027307Y008415D01*
X027307Y008302D01*
X027251Y008245D01*
X027081Y008245D01*
X027081Y008586D01*
X027444Y008472D02*
X027501Y008472D01*
X027614Y008359D01*
X027614Y008472D02*
X027614Y008245D01*
X027756Y008245D02*
X027926Y008245D01*
X027983Y008302D01*
X027926Y008359D01*
X027756Y008359D01*
X027756Y008415D02*
X027756Y008245D01*
X027756Y008415D02*
X027813Y008472D01*
X027926Y008472D01*
X028124Y008415D02*
X028181Y008472D01*
X028294Y008472D01*
X028351Y008415D01*
X028351Y008302D01*
X028294Y008245D01*
X028181Y008245D01*
X028124Y008302D01*
X028124Y008415D01*
X028492Y008359D02*
X028492Y008302D01*
X028549Y008245D01*
X028719Y008245D01*
X028719Y008586D01*
X028549Y008586D01*
X028492Y008529D01*
X028492Y008472D01*
X028549Y008415D01*
X028719Y008415D01*
X028549Y008415D02*
X028492Y008359D01*
D182*
X024050Y008829D03*
X024050Y010429D03*
D183*
X024045Y010419D03*
X024045Y010409D03*
X024045Y008839D03*
D184*
X024070Y008909D03*
X024070Y008919D03*
X024070Y008929D03*
X024060Y008939D03*
X024060Y008949D03*
X024060Y008959D03*
X024050Y008979D03*
X024050Y008989D03*
X024050Y008999D03*
X024040Y009009D03*
X024040Y009019D03*
X024040Y009029D03*
X024030Y009049D03*
X024030Y009059D03*
X023960Y009069D03*
X023740Y009009D03*
X023740Y008999D03*
X023740Y008989D03*
X023750Y008979D03*
X023750Y008969D03*
X023750Y008959D03*
X023750Y008949D03*
X023760Y008939D03*
X023760Y008929D03*
X023760Y008919D03*
X023770Y008909D03*
X023730Y009019D03*
X023730Y009029D03*
X023730Y009039D03*
X023720Y009059D03*
X023720Y009069D03*
X024160Y009439D03*
X024720Y009439D03*
X024720Y009429D03*
X024720Y009419D03*
X024720Y009409D03*
X024720Y009399D03*
X024720Y009389D03*
X024720Y009379D03*
X024720Y009369D03*
X024720Y009359D03*
X024720Y009349D03*
X024720Y009339D03*
X024720Y009329D03*
X024720Y009319D03*
X024720Y009309D03*
X024720Y009299D03*
X024720Y009289D03*
X024720Y009279D03*
X024720Y009269D03*
X024720Y009259D03*
X024720Y009249D03*
X024720Y009239D03*
X024720Y009229D03*
X024720Y009219D03*
X024720Y009209D03*
X024720Y009199D03*
X024720Y009189D03*
X024720Y009179D03*
X024720Y009169D03*
X024720Y009159D03*
X024720Y009149D03*
X024720Y009139D03*
X024720Y009129D03*
X024720Y009119D03*
X024720Y009109D03*
X024720Y009099D03*
X024720Y009089D03*
X024720Y009079D03*
X024720Y009069D03*
X024720Y009059D03*
X024720Y009049D03*
X024720Y009039D03*
X024720Y009029D03*
X024720Y009019D03*
X024720Y009009D03*
X024720Y008999D03*
X024720Y008989D03*
X024720Y008979D03*
X024720Y008969D03*
X024720Y008959D03*
X024720Y008949D03*
X024720Y008939D03*
X024720Y008929D03*
X024720Y008919D03*
X024720Y008909D03*
X024720Y008899D03*
X024720Y008889D03*
X024720Y008879D03*
X024720Y008869D03*
X024720Y008859D03*
X024720Y008849D03*
X024720Y009449D03*
X024720Y009459D03*
X024720Y009469D03*
X024720Y009479D03*
X024720Y009489D03*
X024720Y009499D03*
X024720Y009509D03*
X024720Y009519D03*
X024720Y009529D03*
X024720Y009539D03*
X024720Y009549D03*
X024720Y009559D03*
X024720Y009569D03*
X024720Y009579D03*
X024720Y009589D03*
X024720Y009599D03*
X024720Y009609D03*
X024720Y009619D03*
X024720Y009629D03*
X024720Y009639D03*
X024720Y009649D03*
X024720Y009659D03*
X024720Y009669D03*
X024720Y009679D03*
X024720Y009689D03*
X024720Y009699D03*
X024720Y009709D03*
X024720Y009719D03*
X024720Y009729D03*
X024720Y009739D03*
X024720Y009749D03*
X024720Y009759D03*
X024720Y009769D03*
X024720Y009779D03*
X024720Y009789D03*
X024720Y009799D03*
X024720Y009809D03*
X024720Y009819D03*
X024720Y009829D03*
X024720Y009839D03*
X024720Y009849D03*
X024720Y009859D03*
X024720Y009869D03*
X024720Y009879D03*
X024720Y009889D03*
X024720Y009899D03*
X024720Y009909D03*
X024720Y009919D03*
X024720Y009929D03*
X024720Y009939D03*
X024720Y009949D03*
X024720Y009959D03*
X024720Y009969D03*
X024720Y009979D03*
X024720Y009989D03*
X024720Y009999D03*
X024720Y010009D03*
X024720Y010019D03*
X024720Y010029D03*
X024720Y010039D03*
X024720Y010049D03*
X024720Y010059D03*
X024720Y010069D03*
X024720Y010079D03*
X024720Y010089D03*
X024720Y010099D03*
X024720Y010109D03*
X024720Y010119D03*
X024720Y010129D03*
X024720Y010139D03*
X024720Y010149D03*
X024720Y010159D03*
X024720Y010169D03*
X024720Y010179D03*
X024720Y010189D03*
X024720Y010199D03*
X024720Y010209D03*
X024720Y010219D03*
X024720Y010229D03*
X024720Y010239D03*
X024720Y010249D03*
X024720Y010259D03*
X024720Y010269D03*
X024720Y010279D03*
X024720Y010289D03*
X024720Y010299D03*
X024720Y010309D03*
X024720Y010319D03*
X024720Y010329D03*
X024720Y010339D03*
X024720Y010349D03*
X024720Y010359D03*
X024720Y010369D03*
X024720Y010379D03*
X024720Y010389D03*
X024720Y010399D03*
X024580Y009839D03*
X025320Y010349D03*
X026080Y009759D03*
X026070Y009649D03*
X026070Y009639D03*
X026060Y009539D03*
X026060Y009529D03*
X026050Y009439D03*
X026050Y009429D03*
X026050Y009419D03*
X026370Y009249D03*
X026410Y010349D03*
X026410Y010359D03*
X025360Y009249D03*
X023520Y010269D03*
X023510Y010279D03*
X023500Y010289D03*
D185*
X023535Y010259D03*
X023545Y010249D03*
X023375Y010249D03*
X023375Y010239D03*
X023375Y010229D03*
X023375Y010219D03*
X023375Y010209D03*
X023375Y010199D03*
X023375Y010189D03*
X023375Y010179D03*
X023375Y010169D03*
X023375Y010159D03*
X023375Y010149D03*
X023375Y010139D03*
X023375Y010129D03*
X023375Y010119D03*
X023375Y010109D03*
X023375Y010099D03*
X023375Y010089D03*
X023375Y010079D03*
X023375Y010069D03*
X023375Y010059D03*
X023375Y010049D03*
X023375Y010039D03*
X023375Y010029D03*
X023375Y010019D03*
X023375Y010009D03*
X023375Y009999D03*
X023375Y009989D03*
X023375Y009979D03*
X023375Y009969D03*
X023375Y009959D03*
X023375Y009949D03*
X023375Y009939D03*
X023375Y009929D03*
X023375Y009919D03*
X023375Y009909D03*
X023375Y009899D03*
X023375Y009889D03*
X023375Y009879D03*
X023375Y009869D03*
X023375Y009859D03*
X023375Y009849D03*
X023375Y009839D03*
X023375Y009829D03*
X023375Y009819D03*
X023375Y009809D03*
X023375Y009799D03*
X023375Y009789D03*
X023375Y009779D03*
X023375Y009769D03*
X023375Y009759D03*
X023375Y009749D03*
X023375Y009739D03*
X023375Y009729D03*
X023375Y009719D03*
X023375Y009709D03*
X023375Y009699D03*
X023375Y009689D03*
X023375Y009679D03*
X023375Y009669D03*
X023375Y009659D03*
X023375Y009649D03*
X023375Y009639D03*
X023375Y009629D03*
X023375Y009619D03*
X023375Y009609D03*
X023375Y009599D03*
X023375Y009589D03*
X023375Y009579D03*
X023375Y009569D03*
X023375Y009559D03*
X023375Y009549D03*
X023375Y009539D03*
X023375Y009529D03*
X023375Y009519D03*
X023375Y009509D03*
X023375Y009499D03*
X023375Y009489D03*
X023375Y009479D03*
X023375Y009469D03*
X023375Y009459D03*
X023375Y009449D03*
X023375Y009439D03*
X023375Y009429D03*
X023375Y009419D03*
X023375Y009409D03*
X023375Y009399D03*
X023375Y009389D03*
X023375Y009379D03*
X023375Y009369D03*
X023375Y009359D03*
X023375Y009349D03*
X023375Y009339D03*
X023375Y009329D03*
X023375Y009319D03*
X023375Y009309D03*
X023375Y009299D03*
X023375Y009289D03*
X023375Y009279D03*
X023375Y009269D03*
X023375Y009259D03*
X023375Y009249D03*
X023375Y009239D03*
X023375Y009229D03*
X023375Y009219D03*
X023375Y009209D03*
X023375Y009199D03*
X023375Y009189D03*
X023375Y009179D03*
X023375Y009169D03*
X023375Y009159D03*
X023375Y009149D03*
X023375Y009139D03*
X023375Y009129D03*
X023375Y009119D03*
X023375Y009109D03*
X023375Y009099D03*
X023375Y009089D03*
X023375Y009079D03*
X023375Y009069D03*
X023375Y009059D03*
X023375Y009049D03*
X023375Y009039D03*
X023375Y009029D03*
X023375Y009019D03*
X023375Y009009D03*
X023375Y008999D03*
X023375Y008989D03*
X023375Y008979D03*
X023375Y008969D03*
X023375Y008959D03*
X023375Y008949D03*
X023375Y008939D03*
X023375Y008929D03*
X023375Y008919D03*
X023375Y008909D03*
X023375Y008899D03*
X023375Y008889D03*
X023375Y008879D03*
X023375Y008869D03*
X023375Y008859D03*
X023375Y008849D03*
X023475Y009069D03*
X023555Y009069D03*
X023685Y009019D03*
X023685Y008969D03*
X023925Y009029D03*
X023995Y008959D03*
X024135Y008919D03*
X024255Y008919D03*
X024255Y009059D03*
X024125Y009059D03*
X024395Y009069D03*
X024435Y008999D03*
X024435Y008989D03*
X024525Y009069D03*
X025365Y009259D03*
X026045Y009409D03*
X026055Y009449D03*
X026055Y009459D03*
X026055Y009469D03*
X026055Y009479D03*
X026055Y009489D03*
X026055Y009499D03*
X026055Y009509D03*
X026055Y009519D03*
X026065Y009629D03*
X026075Y009659D03*
X026075Y009669D03*
X026075Y009679D03*
X026075Y009689D03*
X026075Y009699D03*
X026075Y009709D03*
X026075Y009719D03*
X026075Y009729D03*
X026075Y009739D03*
X026075Y009749D03*
X026085Y009769D03*
X026085Y009779D03*
X026085Y009789D03*
X026085Y009799D03*
X026085Y009809D03*
X026085Y009819D03*
X026085Y009829D03*
X026085Y009839D03*
X026085Y009849D03*
X026085Y009859D03*
X026085Y009869D03*
X026095Y009879D03*
X026095Y009889D03*
X026095Y009899D03*
X026095Y009909D03*
X026095Y009919D03*
X026095Y009929D03*
X026095Y009939D03*
X026095Y009949D03*
X026095Y009959D03*
X026095Y009969D03*
X026105Y010079D03*
X026105Y010089D03*
X026115Y010109D03*
X026115Y010119D03*
X026405Y010339D03*
X025605Y010119D03*
X025325Y010339D03*
X023375Y010339D03*
X023375Y010329D03*
X023375Y010319D03*
X023375Y010309D03*
X023375Y010299D03*
X023375Y010289D03*
X023375Y010279D03*
X023375Y010269D03*
X023375Y010259D03*
X023375Y010349D03*
X023375Y010359D03*
X023375Y010369D03*
X023375Y010379D03*
X023375Y010389D03*
X023375Y010399D03*
D186*
X025855Y009069D03*
X025855Y009059D03*
X025855Y009049D03*
X025855Y009039D03*
X025855Y009029D03*
X025855Y009019D03*
X025855Y009009D03*
X025855Y008999D03*
X025855Y008989D03*
X025855Y008979D03*
X025855Y008969D03*
X025855Y008959D03*
X025855Y008949D03*
X025855Y008939D03*
X025855Y008929D03*
X025855Y008919D03*
X025855Y008909D03*
X025855Y008899D03*
D187*
X025685Y009449D03*
X025315Y010359D03*
X024025Y009069D03*
X024035Y009039D03*
X024055Y008969D03*
X024075Y008899D03*
X023765Y008899D03*
X023725Y009049D03*
X023615Y008979D03*
X023495Y010299D03*
X023485Y010309D03*
D188*
X024165Y009489D03*
X024365Y009319D03*
X024395Y009039D03*
X024395Y008949D03*
X024525Y008939D03*
X024525Y008929D03*
X024525Y008919D03*
X023965Y008999D03*
X023835Y008999D03*
X023835Y008949D03*
X023645Y008949D03*
X023645Y008939D03*
X023645Y008929D03*
X023645Y009049D03*
X023645Y009059D03*
X023645Y009069D03*
X025685Y009319D03*
X025585Y010039D03*
X025585Y010049D03*
X025585Y010059D03*
X025585Y010069D03*
X025585Y010079D03*
X025585Y010089D03*
X025585Y010099D03*
X025685Y010239D03*
D189*
X025605Y010109D03*
X025535Y010129D03*
X025675Y009979D03*
X025625Y009909D03*
X025625Y009899D03*
X025625Y009889D03*
X025635Y009789D03*
X025755Y009899D03*
X025785Y009869D03*
X025795Y009859D03*
X025865Y009789D03*
X025865Y009779D03*
X025945Y009699D03*
X025955Y009689D03*
X025965Y009679D03*
X025975Y009669D03*
X025985Y009659D03*
X025995Y009649D03*
X026005Y009639D03*
X026015Y009629D03*
X026055Y009589D03*
X026065Y009579D03*
X026075Y009569D03*
X026105Y009539D03*
X026115Y009529D03*
X026125Y009519D03*
X026135Y009509D03*
X026145Y009499D03*
X026155Y009489D03*
X026165Y009479D03*
X026175Y009469D03*
X026185Y009459D03*
X026195Y009449D03*
X026205Y009439D03*
X026215Y009429D03*
X026265Y009369D03*
X026275Y009359D03*
X026285Y009349D03*
X026295Y009339D03*
X026315Y009319D03*
X026325Y009309D03*
X026335Y009299D03*
X026345Y009289D03*
X026355Y009279D03*
X026365Y009269D03*
X026015Y009939D03*
X026025Y009949D03*
X026035Y009959D03*
X026045Y009969D03*
X026095Y010019D03*
X026105Y010029D03*
X026115Y010039D03*
X026155Y010079D03*
X025905Y009949D03*
X025765Y009679D03*
X025755Y009669D03*
X025745Y009659D03*
X025735Y009649D03*
X025725Y009639D03*
X025715Y009629D03*
X025705Y009619D03*
X025655Y009569D03*
X025645Y009559D03*
X025605Y009519D03*
X025605Y009429D03*
X025605Y009419D03*
X025605Y009409D03*
X025605Y009399D03*
X025685Y009389D03*
X025685Y009439D03*
X025765Y009429D03*
X025685Y009309D03*
X025525Y009439D03*
X025515Y009429D03*
X025505Y009419D03*
X025445Y009349D03*
X025435Y009339D03*
X025425Y009329D03*
X025415Y009319D03*
X025405Y009309D03*
X025395Y009299D03*
X025385Y009289D03*
X025375Y009279D03*
X025365Y009269D03*
X024555Y009029D03*
X024535Y008969D03*
X024505Y008989D03*
X024495Y008999D03*
X024395Y008919D03*
X024265Y009039D03*
X024135Y009039D03*
X023995Y008989D03*
X023925Y008989D03*
X023925Y008949D03*
X023955Y008919D03*
X023865Y008989D03*
X023805Y008989D03*
X023835Y008919D03*
X023545Y008949D03*
X023595Y010189D03*
X023585Y010199D03*
X028055Y010229D03*
D190*
X026050Y010229D03*
X025580Y010209D03*
X025570Y010199D03*
X025570Y010189D03*
X024500Y009799D03*
X024170Y009309D03*
X024370Y009219D03*
X024520Y009039D03*
X024520Y008949D03*
X023970Y009009D03*
X023960Y009039D03*
X023650Y009039D03*
X023650Y009009D03*
X023650Y008999D03*
X023650Y008989D03*
X023650Y008919D03*
X023510Y008939D03*
X023520Y009199D03*
X023670Y009199D03*
X023680Y009209D03*
X023670Y009299D03*
X023740Y010039D03*
X023730Y010049D03*
X023720Y010059D03*
X023710Y010069D03*
D191*
X023620Y010169D03*
X023610Y010179D03*
X024160Y009459D03*
X024540Y009819D03*
X024520Y008979D03*
X024540Y008959D03*
X025610Y009389D03*
X025610Y009439D03*
X025610Y009449D03*
X025620Y009459D03*
X025690Y009399D03*
X025770Y009409D03*
X025770Y009419D03*
X025760Y009439D03*
X025760Y009449D03*
X025640Y009549D03*
X025660Y009579D03*
X025720Y009939D03*
X025710Y009949D03*
X025900Y009939D03*
X026090Y010009D03*
X026120Y010049D03*
X026050Y009599D03*
X026080Y009559D03*
X026970Y009209D03*
X027010Y010229D03*
X028020Y009209D03*
X023510Y008919D03*
D192*
X023845Y009019D03*
X023955Y009059D03*
X024145Y009029D03*
X024145Y009019D03*
X024145Y009009D03*
X024275Y009009D03*
X024275Y009019D03*
X024275Y009029D03*
X024395Y009059D03*
X024525Y009059D03*
X024395Y008929D03*
X024165Y009149D03*
X024165Y009469D03*
X023665Y010119D03*
X023655Y010129D03*
X023645Y010139D03*
X023635Y010149D03*
X023625Y010159D03*
X025635Y009539D03*
X025665Y009589D03*
X025755Y009459D03*
X025685Y009429D03*
X025685Y009419D03*
X025685Y009409D03*
X025625Y009369D03*
X025615Y009379D03*
X026015Y009359D03*
X026015Y009349D03*
X026015Y009339D03*
X026015Y009329D03*
X026015Y009319D03*
X026085Y009549D03*
X026045Y009609D03*
X025865Y009769D03*
X025865Y009799D03*
X026085Y009999D03*
X026125Y010059D03*
X026035Y010189D03*
X026035Y010199D03*
X026035Y010269D03*
X026035Y010279D03*
D193*
X026110Y010199D03*
X026120Y010189D03*
X026110Y010099D03*
X026160Y010089D03*
X026170Y010099D03*
X026180Y010109D03*
X026190Y010119D03*
X026210Y010139D03*
X026220Y010149D03*
X026230Y010159D03*
X026240Y010169D03*
X026250Y010179D03*
X026260Y010189D03*
X026270Y010199D03*
X026280Y010209D03*
X026290Y010219D03*
X026300Y010229D03*
X026310Y010239D03*
X026320Y010249D03*
X026330Y010259D03*
X026340Y010269D03*
X026350Y010279D03*
X026360Y010289D03*
X026370Y010299D03*
X026380Y010309D03*
X026390Y010319D03*
X026400Y010329D03*
X026010Y009929D03*
X026000Y009919D03*
X025990Y009909D03*
X025980Y009899D03*
X025970Y009889D03*
X025960Y009879D03*
X025950Y009869D03*
X025940Y009859D03*
X025930Y009849D03*
X025920Y009839D03*
X025910Y009829D03*
X025900Y009819D03*
X025900Y009749D03*
X025910Y009739D03*
X025920Y009729D03*
X025930Y009719D03*
X025940Y009709D03*
X025830Y009749D03*
X025820Y009739D03*
X025810Y009729D03*
X025800Y009719D03*
X025790Y009709D03*
X025780Y009699D03*
X025770Y009689D03*
X025650Y009649D03*
X025650Y009639D03*
X025650Y009629D03*
X025650Y009619D03*
X025640Y009659D03*
X025640Y009669D03*
X025640Y009679D03*
X025640Y009689D03*
X025640Y009699D03*
X025640Y009709D03*
X025640Y009719D03*
X025640Y009729D03*
X025640Y009739D03*
X025640Y009749D03*
X025640Y009759D03*
X025640Y009769D03*
X025630Y009779D03*
X025630Y009799D03*
X025630Y009809D03*
X025630Y009819D03*
X025630Y009829D03*
X025630Y009839D03*
X025630Y009849D03*
X025630Y009859D03*
X025630Y009869D03*
X025630Y009879D03*
X025620Y009919D03*
X025620Y009929D03*
X025620Y009939D03*
X025620Y009949D03*
X025620Y009959D03*
X025620Y009969D03*
X025620Y009979D03*
X025550Y010109D03*
X025540Y010119D03*
X025500Y010159D03*
X025490Y010169D03*
X025480Y010179D03*
X025470Y010189D03*
X025460Y010199D03*
X025450Y010209D03*
X025440Y010219D03*
X025430Y010229D03*
X025420Y010239D03*
X025410Y010249D03*
X025400Y010259D03*
X025390Y010269D03*
X025380Y010279D03*
X025370Y010289D03*
X025360Y010299D03*
X025350Y010309D03*
X025340Y010319D03*
X025330Y010329D03*
X025760Y009889D03*
X025770Y009879D03*
X025800Y009849D03*
X025810Y009839D03*
X025820Y009829D03*
X025830Y009819D03*
X025560Y009469D03*
X025550Y009459D03*
X025540Y009449D03*
X025500Y009409D03*
X025490Y009399D03*
X025480Y009389D03*
X025470Y009379D03*
X025460Y009369D03*
X025450Y009359D03*
X026220Y009419D03*
X026230Y009409D03*
X026240Y009399D03*
X026250Y009389D03*
X026260Y009379D03*
X026310Y009329D03*
X026370Y009259D03*
X024560Y009019D03*
X024560Y009009D03*
X024490Y009009D03*
X024490Y009019D03*
X024490Y009029D03*
X024430Y009029D03*
X024430Y009019D03*
X024430Y009009D03*
X024430Y008979D03*
X024430Y008969D03*
X024430Y008959D03*
X024360Y008959D03*
X024360Y008969D03*
X024360Y008979D03*
X024360Y008989D03*
X024360Y008999D03*
X024360Y009009D03*
X024360Y009019D03*
X024360Y009029D03*
X024260Y009049D03*
X024260Y008999D03*
X024260Y008989D03*
X024260Y008979D03*
X024260Y008969D03*
X024260Y008959D03*
X024260Y008949D03*
X024260Y008939D03*
X024260Y008929D03*
X024130Y008929D03*
X024130Y008939D03*
X024130Y008949D03*
X024130Y008959D03*
X024130Y008969D03*
X024130Y008979D03*
X024130Y008989D03*
X024130Y008999D03*
X024130Y009049D03*
X023990Y009029D03*
X024000Y008979D03*
X024000Y008969D03*
X023990Y008949D03*
X023920Y008959D03*
X023920Y008969D03*
X023920Y008979D03*
X023870Y008959D03*
X023800Y008959D03*
X023800Y008969D03*
X023800Y008979D03*
X023860Y009029D03*
X023680Y009029D03*
X023680Y008979D03*
X023680Y008959D03*
X023550Y008959D03*
X023550Y008969D03*
X023550Y008979D03*
X023550Y008989D03*
X023550Y008999D03*
X023550Y009009D03*
X023550Y009019D03*
X023550Y009029D03*
X023550Y009039D03*
X023550Y009049D03*
X023550Y009059D03*
X023470Y009059D03*
X023470Y009049D03*
X023470Y009039D03*
X023470Y009029D03*
X023470Y009019D03*
X023470Y009009D03*
X023470Y008999D03*
X023470Y008989D03*
X023470Y008979D03*
X023470Y008969D03*
X023480Y008959D03*
X023480Y008949D03*
X024160Y009449D03*
X024560Y009829D03*
X023580Y010209D03*
X023570Y010219D03*
X023560Y010229D03*
X023550Y010239D03*
D194*
X023520Y009309D03*
X023680Y009309D03*
X023980Y009309D03*
X023980Y009319D03*
X023980Y009329D03*
X023980Y009339D03*
X023980Y009349D03*
X023980Y009359D03*
X023980Y009369D03*
X023980Y009229D03*
X023980Y009219D03*
X023980Y009209D03*
X023980Y009199D03*
X023980Y009189D03*
X023980Y009179D03*
X023980Y009169D03*
X024090Y009229D03*
X024100Y009219D03*
X024100Y009209D03*
X024100Y009249D03*
X024100Y009259D03*
X024240Y009249D03*
X024240Y009239D03*
X024240Y009229D03*
X024240Y009219D03*
X024240Y009209D03*
X024360Y009189D03*
X024360Y009179D03*
X024360Y009169D03*
X023960Y008929D03*
X023840Y008929D03*
X024520Y009809D03*
X025670Y009599D03*
X025680Y009519D03*
X026040Y009619D03*
X026070Y009979D03*
X026080Y009989D03*
X026130Y010069D03*
D195*
X025865Y009809D03*
X025865Y009759D03*
X025675Y009609D03*
X025635Y009529D03*
X025635Y009469D03*
X025735Y009469D03*
X024525Y009319D03*
X024525Y009309D03*
X024525Y009299D03*
X024525Y009289D03*
X024525Y009279D03*
X024525Y009219D03*
X024525Y009209D03*
X024525Y009199D03*
X024525Y009189D03*
X024525Y009179D03*
X024525Y009169D03*
X024525Y009159D03*
X024525Y009049D03*
X024395Y009049D03*
X024395Y008939D03*
X024355Y009159D03*
X024365Y009199D03*
X024365Y009209D03*
X024365Y009279D03*
X024355Y009289D03*
X024355Y009299D03*
X024355Y009309D03*
X024235Y009259D03*
X024225Y009269D03*
X024235Y009199D03*
X024105Y009199D03*
X024095Y009239D03*
X024105Y009269D03*
X023975Y009239D03*
X023975Y009299D03*
X023975Y009159D03*
X023955Y009049D03*
X023975Y009019D03*
X023955Y008939D03*
X023835Y008939D03*
X023835Y009009D03*
X023835Y009039D03*
X023835Y009049D03*
X023835Y009059D03*
X023815Y009159D03*
X023815Y009169D03*
X023815Y009179D03*
X023815Y009189D03*
X023815Y009199D03*
X023815Y009209D03*
X023815Y009219D03*
X023815Y009229D03*
X023815Y009239D03*
X023815Y009299D03*
X023815Y009309D03*
X023815Y009319D03*
X023815Y009329D03*
X023815Y009339D03*
X023815Y009349D03*
X023815Y009359D03*
X023815Y009369D03*
X023675Y009319D03*
X023685Y009219D03*
X023595Y009149D03*
X023515Y009209D03*
X023515Y009219D03*
X023525Y009319D03*
X023515Y008929D03*
X024165Y009479D03*
X023705Y010079D03*
X023695Y010089D03*
X023685Y010099D03*
X023675Y010109D03*
D196*
X023870Y009899D03*
X023880Y009889D03*
X024170Y009519D03*
X024440Y009769D03*
X023550Y009239D03*
X023600Y009159D03*
X025840Y010229D03*
X025840Y010279D03*
X025840Y010289D03*
X027020Y009039D03*
X028070Y009039D03*
D197*
X028505Y009379D03*
X028515Y009399D03*
X028525Y009419D03*
X028535Y009819D03*
X028525Y009839D03*
X028515Y009859D03*
X028505Y009879D03*
X027475Y009849D03*
X027465Y009859D03*
X027465Y009869D03*
X027455Y009879D03*
X027475Y009409D03*
X027465Y009399D03*
X027465Y009389D03*
X027455Y009379D03*
X027045Y009049D03*
X025815Y009909D03*
X025665Y009489D03*
X024025Y009739D03*
X024015Y009749D03*
X024005Y009759D03*
D198*
X024175Y009569D03*
X024355Y009729D03*
X024445Y009339D03*
X024445Y009329D03*
X024445Y009229D03*
X023895Y009249D03*
X023895Y009259D03*
X023895Y009269D03*
X023895Y009279D03*
X023895Y009289D03*
X027065Y009059D03*
X027385Y009289D03*
X027395Y009299D03*
X027395Y009959D03*
X027385Y009969D03*
X028115Y010199D03*
X028445Y009959D03*
X028105Y009059D03*
D199*
X028120Y009069D03*
X028390Y009259D03*
X028130Y010189D03*
X027360Y009989D03*
X027350Y009999D03*
X027350Y009259D03*
X027080Y009069D03*
X024180Y009579D03*
D200*
X024180Y009589D03*
X027090Y009079D03*
X028140Y009079D03*
X028380Y009249D03*
X028380Y010009D03*
D201*
X025850Y009079D03*
D202*
X025900Y009399D03*
X028150Y009089D03*
D203*
X028345Y009229D03*
X028345Y010029D03*
X028155Y010169D03*
X027295Y010029D03*
X027105Y010169D03*
X027295Y009229D03*
X027105Y009089D03*
X025895Y009379D03*
X025895Y009389D03*
X024185Y009609D03*
D204*
X025880Y009369D03*
X028160Y009099D03*
D205*
X027115Y009099D03*
X027275Y010039D03*
X027115Y010159D03*
X028165Y010159D03*
X024185Y009619D03*
D206*
X027270Y009219D03*
X028170Y009109D03*
X028320Y009219D03*
X028320Y010039D03*
D207*
X028175Y010149D03*
X027125Y010149D03*
X027125Y009109D03*
X024185Y009629D03*
D208*
X024190Y009639D03*
X027130Y009119D03*
X028180Y009119D03*
D209*
X028190Y009129D03*
X028190Y010129D03*
X027140Y010129D03*
X027140Y009129D03*
X024190Y009649D03*
D210*
X028195Y009139D03*
D211*
X027230Y009209D03*
X027150Y009139D03*
X027150Y010119D03*
X028200Y010119D03*
X025860Y010249D03*
X024190Y009659D03*
D212*
X027155Y010109D03*
X027155Y009149D03*
X028205Y009149D03*
X028275Y009209D03*
X028205Y010109D03*
D213*
X028210Y010099D03*
X028210Y009159D03*
X027160Y009159D03*
X024190Y009669D03*
D214*
X024170Y009509D03*
X024170Y009159D03*
X024460Y009779D03*
X023830Y009949D03*
X023650Y009289D03*
X025600Y010009D03*
D215*
X027165Y010099D03*
X028215Y009169D03*
D216*
X028220Y010089D03*
X027170Y010089D03*
X027170Y009169D03*
X024190Y009679D03*
D217*
X023915Y009859D03*
X023905Y009869D03*
X023895Y009879D03*
X024165Y009169D03*
X025655Y009509D03*
X025685Y009349D03*
X028075Y010219D03*
D218*
X028520Y009849D03*
X028530Y009829D03*
X028540Y009809D03*
X028540Y009799D03*
X028550Y009779D03*
X028550Y009479D03*
X028540Y009459D03*
X028540Y009449D03*
X028530Y009439D03*
X028530Y009429D03*
X028520Y009409D03*
X027500Y009469D03*
X027490Y009449D03*
X027490Y009439D03*
X027480Y009429D03*
X027480Y009419D03*
X027500Y009789D03*
X027490Y009809D03*
X027490Y009819D03*
X027480Y009829D03*
X027480Y009839D03*
X025830Y010269D03*
X024400Y009749D03*
X024170Y009539D03*
X024170Y009279D03*
X024170Y009189D03*
X024000Y009769D03*
X023990Y009779D03*
X023980Y009789D03*
X023970Y009799D03*
X023600Y009349D03*
X023610Y009269D03*
X023590Y009259D03*
X023600Y009169D03*
D219*
X024195Y009689D03*
X027175Y010079D03*
X027175Y009179D03*
X028225Y009179D03*
D220*
X028545Y009469D03*
X028555Y009489D03*
X028555Y009499D03*
X028555Y009509D03*
X028565Y009519D03*
X028565Y009529D03*
X028565Y009539D03*
X028565Y009549D03*
X028565Y009559D03*
X028575Y009579D03*
X028575Y009609D03*
X028575Y009619D03*
X028575Y009629D03*
X028575Y009639D03*
X028575Y009649D03*
X028575Y009659D03*
X028575Y009679D03*
X028565Y009709D03*
X028565Y009719D03*
X028565Y009729D03*
X028565Y009739D03*
X028555Y009749D03*
X028555Y009759D03*
X028555Y009769D03*
X028545Y009789D03*
X027515Y009749D03*
X027515Y009739D03*
X027515Y009729D03*
X027505Y009759D03*
X027505Y009769D03*
X027505Y009779D03*
X027495Y009799D03*
X027515Y009539D03*
X027515Y009529D03*
X027515Y009519D03*
X027515Y009509D03*
X027505Y009499D03*
X027505Y009489D03*
X027505Y009479D03*
X027495Y009459D03*
X025805Y009979D03*
X025665Y009499D03*
X025685Y009359D03*
X024475Y009369D03*
X024165Y009179D03*
X023955Y009809D03*
X023575Y009249D03*
D221*
X023600Y009179D03*
X023600Y009339D03*
X024040Y009729D03*
X024170Y009549D03*
X024380Y009739D03*
X024460Y009359D03*
X024460Y009259D03*
X024460Y009249D03*
X025820Y009919D03*
X027050Y010209D03*
X027440Y009899D03*
X027450Y009889D03*
X027450Y009369D03*
X027440Y009359D03*
X028100Y010209D03*
X028490Y009899D03*
X028500Y009889D03*
X028510Y009869D03*
X028510Y009389D03*
X028500Y009369D03*
X028490Y009359D03*
D222*
X028230Y009189D03*
X028220Y010079D03*
X027180Y010069D03*
X027180Y009189D03*
D223*
X027400Y009309D03*
X027410Y009319D03*
X027420Y009329D03*
X027420Y009929D03*
X027410Y009939D03*
X027400Y009949D03*
X028450Y009949D03*
X028460Y009939D03*
X028460Y009319D03*
X028450Y009309D03*
X028440Y009299D03*
X024450Y009269D03*
X024450Y009239D03*
X024450Y009349D03*
X023600Y009189D03*
D224*
X024195Y009699D03*
X027185Y010059D03*
X027185Y009199D03*
X028235Y009199D03*
X028225Y010069D03*
D225*
X026060Y010219D03*
X025590Y010029D03*
X024480Y009789D03*
X023790Y009989D03*
X023780Y009999D03*
X023770Y010009D03*
X023760Y010019D03*
X023750Y010029D03*
X023530Y009229D03*
D226*
X024185Y009599D03*
X027095Y010179D03*
X027315Y010019D03*
X027315Y009239D03*
X028365Y009239D03*
X028365Y010019D03*
X028145Y010179D03*
D227*
X028395Y009999D03*
X027335Y010009D03*
X027085Y010189D03*
X027335Y009249D03*
D228*
X027355Y009269D03*
X028405Y009269D03*
X028405Y009989D03*
X025795Y009969D03*
X024335Y009719D03*
D229*
X025800Y009959D03*
X027070Y010199D03*
X027370Y009979D03*
X027370Y009279D03*
X028420Y009279D03*
X028430Y009289D03*
X028430Y009969D03*
X028420Y009979D03*
D230*
X028570Y009699D03*
X028570Y009689D03*
X028570Y009669D03*
X028570Y009599D03*
X028570Y009589D03*
X028570Y009569D03*
X027030Y010219D03*
X025840Y010239D03*
X024420Y009759D03*
X024170Y009529D03*
X024170Y009289D03*
X023950Y009819D03*
X023940Y009829D03*
X023930Y009839D03*
X023920Y009849D03*
X023600Y009359D03*
X023620Y009279D03*
D231*
X023865Y009909D03*
X023855Y009919D03*
X023845Y009929D03*
X023835Y009939D03*
X024165Y009299D03*
X025685Y009339D03*
X025615Y009989D03*
X025605Y009999D03*
X025615Y010229D03*
D232*
X025815Y009929D03*
X025665Y009479D03*
X024175Y009559D03*
X024045Y009719D03*
X023605Y009329D03*
X027425Y009339D03*
X027435Y009349D03*
X027435Y009909D03*
X027425Y009919D03*
X028465Y009929D03*
X028475Y009919D03*
X028485Y009909D03*
X028485Y009349D03*
X028475Y009339D03*
X028465Y009329D03*
D233*
X026065Y010209D03*
X026015Y010239D03*
X025595Y010219D03*
X025595Y010019D03*
X025685Y009329D03*
X024165Y009499D03*
X023815Y009959D03*
X023805Y009969D03*
X023795Y009979D03*
X023605Y009369D03*
D234*
X027335Y009549D03*
X027335Y009559D03*
X027335Y009699D03*
X027335Y009709D03*
D235*
X027340Y009689D03*
X027340Y009679D03*
X027340Y009669D03*
X027340Y009659D03*
X027340Y009649D03*
X027340Y009639D03*
X027340Y009629D03*
X027340Y009619D03*
X027340Y009609D03*
X027340Y009599D03*
X027340Y009589D03*
X027340Y009579D03*
X027340Y009569D03*
D236*
X024195Y009709D03*
D237*
X027340Y009719D03*
D238*
X027190Y010049D03*
X028230Y010059D03*
X028240Y010049D03*
D239*
X025900Y010129D03*
D240*
X025875Y010259D03*
X027135Y010139D03*
X028185Y010139D03*
D241*
X025840Y010139D03*
D242*
X025835Y010149D03*
D243*
X025855Y010159D03*
X025845Y010179D03*
D244*
X025850Y010169D03*
D245*
X026825Y027520D02*
X027625Y027520D01*
X026905Y028020D02*
X026907Y028055D01*
X026913Y028090D01*
X026922Y028124D01*
X026936Y028157D01*
X026952Y028188D01*
X026972Y028217D01*
X026996Y028243D01*
X027022Y028267D01*
X027050Y028288D01*
X027081Y028306D01*
X027113Y028320D01*
X027146Y028330D01*
X027181Y028337D01*
X027216Y028340D01*
X027251Y028339D01*
X027286Y028334D01*
X027321Y028325D01*
X027354Y028313D01*
X027385Y028297D01*
X027415Y028278D01*
X027442Y028255D01*
X027466Y028230D01*
X027488Y028202D01*
X027506Y028172D01*
X027521Y028140D01*
X027533Y028107D01*
X027541Y028073D01*
X027545Y028038D01*
X027545Y028002D01*
X027541Y027967D01*
X027533Y027933D01*
X027521Y027900D01*
X027506Y027868D01*
X027488Y027838D01*
X027466Y027810D01*
X027442Y027785D01*
X027415Y027762D01*
X027385Y027743D01*
X027354Y027727D01*
X027321Y027715D01*
X027286Y027706D01*
X027251Y027701D01*
X027216Y027700D01*
X027181Y027703D01*
X027146Y027710D01*
X027113Y027720D01*
X027081Y027734D01*
X027050Y027752D01*
X027022Y027773D01*
X026996Y027797D01*
X026972Y027823D01*
X026952Y027852D01*
X026936Y027883D01*
X026922Y027916D01*
X026913Y027950D01*
X026907Y027985D01*
X026905Y028020D01*
X026825Y028520D02*
X027625Y028520D01*
D246*
X027042Y027410D02*
X027078Y027373D01*
X027078Y027336D01*
X027042Y027300D01*
X026968Y027300D01*
X026932Y027263D01*
X026932Y027226D01*
X026968Y027190D01*
X027042Y027190D01*
X027078Y027226D01*
X027042Y027410D02*
X026968Y027410D01*
X026932Y027373D01*
X026857Y027410D02*
X026857Y027190D01*
X026784Y027263D01*
X026711Y027190D01*
X026711Y027410D01*
X026636Y027336D02*
X026563Y027410D01*
X026563Y027190D01*
X026636Y027190D02*
X026490Y027190D01*
D247*
X026650Y030205D02*
X026603Y030252D01*
X026603Y030345D01*
X026650Y030392D01*
X026696Y030392D01*
X026743Y030345D01*
X026743Y030252D01*
X026790Y030205D01*
X026836Y030205D01*
X026883Y030252D01*
X026883Y030345D01*
X026836Y030392D01*
X026836Y030500D02*
X026650Y030500D01*
X026603Y030546D01*
X026603Y030640D01*
X026650Y030687D01*
X026696Y030794D02*
X026883Y030981D01*
X026883Y030794D02*
X026603Y030794D01*
X026743Y030841D02*
X026603Y030981D01*
X026836Y030687D02*
X026883Y030640D01*
X026883Y030546D01*
X026836Y030500D01*
X027469Y030500D02*
X027469Y030687D01*
X027609Y030593D02*
X027609Y030500D01*
X027749Y030500D02*
X027469Y030500D01*
X027516Y030392D02*
X027469Y030345D01*
X027469Y030252D01*
X027516Y030205D01*
X027703Y030205D01*
X027749Y030252D01*
X027749Y030345D01*
X027703Y030392D01*
X027749Y030500D02*
X027749Y030687D01*
X026017Y030743D02*
X025970Y030696D01*
X025924Y030696D01*
X025877Y030743D01*
X025877Y030836D01*
X025830Y030883D01*
X025784Y030883D01*
X025737Y030836D01*
X025737Y030743D01*
X025784Y030696D01*
X025737Y030593D02*
X025737Y030500D01*
X025737Y030546D02*
X026017Y030546D01*
X026017Y030500D02*
X026017Y030593D01*
X026017Y030743D02*
X026017Y030836D01*
X025970Y030883D01*
X025970Y030991D02*
X025784Y030991D01*
X025737Y031037D01*
X025737Y031131D01*
X025784Y031178D01*
X025970Y031178D01*
X026017Y031131D01*
X026017Y031037D01*
X025970Y030991D01*
X026017Y030392D02*
X025737Y030392D01*
X025737Y030205D02*
X026017Y030205D01*
X025924Y030298D01*
X026017Y030392D01*
X025190Y030392D02*
X024910Y030392D01*
X024957Y030500D02*
X024910Y030546D01*
X024910Y030640D01*
X024957Y030687D01*
X025144Y030687D01*
X025190Y030640D01*
X025190Y030546D01*
X025144Y030500D01*
X024957Y030500D01*
X025097Y030298D02*
X025190Y030392D01*
X025097Y030298D02*
X025190Y030205D01*
X024910Y030205D01*
X024957Y030794D02*
X024910Y030841D01*
X024910Y030934D01*
X024957Y030981D01*
X025003Y030981D01*
X025050Y030934D01*
X025050Y030841D01*
X025097Y030794D01*
X025144Y030794D01*
X025190Y030841D01*
X025190Y030934D01*
X025144Y030981D01*
X025190Y031089D02*
X025190Y031182D01*
X025190Y031136D02*
X024910Y031136D01*
X024910Y031182D02*
X024910Y031089D01*
X016529Y026643D02*
X016529Y026503D01*
X016249Y026503D01*
X016249Y026643D01*
X016295Y026690D01*
X016482Y026690D01*
X016529Y026643D01*
X016529Y026395D02*
X016249Y026395D01*
X016529Y026208D01*
X016249Y026208D01*
X016295Y026101D02*
X016389Y026101D01*
X016389Y026007D01*
X016482Y025914D02*
X016295Y025914D01*
X016249Y025960D01*
X016249Y026054D01*
X016295Y026101D01*
X016482Y026101D02*
X016529Y026054D01*
X016529Y025960D01*
X016482Y025914D01*
X015741Y025960D02*
X015695Y025914D01*
X015648Y025914D01*
X015601Y025960D01*
X015601Y026054D01*
X015555Y026101D01*
X015508Y026101D01*
X015461Y026054D01*
X015461Y025960D01*
X015508Y025914D01*
X015741Y025960D02*
X015741Y026054D01*
X015695Y026101D01*
X015741Y026208D02*
X015741Y026348D01*
X015695Y026395D01*
X015508Y026395D01*
X015461Y026348D01*
X015461Y026208D01*
X015741Y026208D01*
X015648Y026503D02*
X015461Y026503D01*
X015601Y026503D02*
X015601Y026690D01*
X015648Y026690D02*
X015461Y026690D01*
X015648Y026690D02*
X015741Y026596D01*
X015648Y026503D01*
X015033Y026503D02*
X014753Y026503D01*
X014753Y026690D01*
X014799Y026395D02*
X014753Y026348D01*
X014753Y026255D01*
X014799Y026208D01*
X014986Y026208D01*
X015033Y026255D01*
X015033Y026348D01*
X014986Y026395D01*
X014986Y026101D02*
X015033Y026054D01*
X015033Y025960D01*
X014986Y025914D01*
X014939Y025914D01*
X014893Y025960D01*
X014893Y026054D01*
X014846Y026101D01*
X014799Y026101D01*
X014753Y026054D01*
X014753Y025960D01*
X014799Y025914D01*
M02*
