G75*
G70*
%OFA0B0*%
%FSLAX24Y24*%
%IPPOS*%
%LPD*%
%AMOC8*
5,1,8,0,0,1.08239X$1,22.5*
%
%ADD10C,0.0070*%
%ADD11R,0.0360X0.0020*%
%ADD12R,0.0040X0.0020*%
%ADD13R,0.0160X0.0020*%
%ADD14R,0.0080X0.0020*%
%ADD15R,0.0280X0.0020*%
%ADD16R,0.1060X0.0020*%
%ADD17R,0.0480X0.0020*%
%ADD18R,0.1140X0.0020*%
%ADD19R,0.1160X0.0020*%
%ADD20R,0.0600X0.0020*%
%ADD21R,0.1220X0.0020*%
%ADD22R,0.0020X0.0020*%
%ADD23R,0.0400X0.0020*%
%ADD24R,0.0700X0.0020*%
%ADD25R,0.1260X0.0020*%
%ADD26R,0.0440X0.0020*%
%ADD27R,0.0800X0.0020*%
%ADD28R,0.1300X0.0020*%
%ADD29R,0.1320X0.0020*%
%ADD30R,0.0500X0.0020*%
%ADD31R,0.0860X0.0020*%
%ADD32R,0.1340X0.0020*%
%ADD33R,0.0540X0.0020*%
%ADD34R,0.0940X0.0020*%
%ADD35R,0.1380X0.0020*%
%ADD36R,0.0200X0.0020*%
%ADD37R,0.1000X0.0020*%
%ADD38R,0.1400X0.0020*%
%ADD39R,0.1420X0.0020*%
%ADD40R,0.0180X0.0020*%
%ADD41R,0.0140X0.0020*%
%ADD42R,0.1440X0.0020*%
%ADD43R,0.0100X0.0020*%
%ADD44R,0.1120X0.0020*%
%ADD45R,0.1460X0.0020*%
%ADD46R,0.1480X0.0020*%
%ADD47R,0.0060X0.0020*%
%ADD48R,0.1500X0.0020*%
%ADD49R,0.1200X0.0020*%
%ADD50R,0.1520X0.0020*%
%ADD51R,0.1540X0.0020*%
%ADD52R,0.1560X0.0020*%
%ADD53R,0.1580X0.0020*%
%ADD54R,0.1360X0.0020*%
%ADD55R,0.1600X0.0020*%
%ADD56R,0.1620X0.0020*%
%ADD57R,0.1640X0.0020*%
%ADD58R,0.0620X0.0020*%
%ADD59R,0.0640X0.0020*%
%ADD60R,0.0380X0.0020*%
%ADD61R,0.0560X0.0020*%
%ADD62R,0.0580X0.0020*%
%ADD63R,0.0520X0.0020*%
%ADD64R,0.0460X0.0020*%
%ADD65R,0.0420X0.0020*%
%ADD66R,0.0220X0.0020*%
%ADD67R,0.1180X0.0020*%
%ADD68R,0.1100X0.0020*%
%ADD69R,0.1020X0.0020*%
%ADD70R,0.0780X0.0020*%
%ADD71R,0.0300X0.0020*%
%ADD72C,0.0050*%
%ADD73R,0.0220X0.0010*%
%ADD74C,0.0040*%
%ADD75C,0.0060*%
%ADD76C,0.0080*%
%ADD77R,0.0118X0.0059*%
%ADD78R,0.0118X0.0118*%
%ADD79C,0.0030*%
%ADD80C,0.0059*%
%ADD81C,0.0010*%
D10*
X015387Y038576D02*
X015387Y038907D01*
X015552Y038907D01*
X015608Y038852D01*
X015608Y038742D01*
X015552Y038686D01*
X015387Y038686D01*
X015239Y038742D02*
X015239Y038852D01*
X015184Y038907D01*
X015074Y038907D01*
X015019Y038852D01*
X015019Y038742D01*
X015074Y038686D01*
X015184Y038686D01*
X015239Y038742D01*
X014871Y038742D02*
X014816Y038686D01*
X014706Y038686D01*
X014651Y038742D01*
X014651Y038962D01*
X014706Y039017D01*
X014816Y039017D01*
X014871Y038962D01*
X015756Y038907D02*
X015756Y038742D01*
X015811Y038686D01*
X015976Y038686D01*
X015976Y038631D02*
X015921Y038576D01*
X015866Y038576D01*
X015976Y038631D02*
X015976Y038907D01*
X016124Y038907D02*
X016124Y038686D01*
X016124Y038797D02*
X016234Y038907D01*
X016289Y038907D01*
X016431Y038907D02*
X016486Y038907D01*
X016486Y038686D01*
X016431Y038686D02*
X016541Y038686D01*
X016676Y038742D02*
X016731Y038686D01*
X016897Y038686D01*
X016897Y038631D02*
X016897Y038907D01*
X016731Y038907D01*
X016676Y038852D01*
X016676Y038742D01*
X016787Y038576D02*
X016842Y038576D01*
X016897Y038631D01*
X017045Y038686D02*
X017045Y039017D01*
X017100Y038907D02*
X017210Y038907D01*
X017265Y038852D01*
X017265Y038686D01*
X017468Y038742D02*
X017523Y038686D01*
X017468Y038742D02*
X017468Y038962D01*
X017413Y038907D02*
X017523Y038907D01*
X017100Y038907D02*
X017045Y038852D01*
X016486Y039017D02*
X016486Y039072D01*
X018027Y038907D02*
X018137Y039017D01*
X018272Y038962D02*
X018272Y038742D01*
X018327Y038686D01*
X018438Y038686D01*
X018493Y038742D01*
X018641Y038686D02*
X018751Y038797D01*
X018751Y038907D01*
X018641Y039017D01*
X018493Y038962D02*
X018438Y039017D01*
X018327Y039017D01*
X018272Y038962D01*
X018027Y038907D02*
X018027Y038797D01*
X018137Y038686D01*
X019255Y038686D02*
X019475Y038907D01*
X019475Y038962D01*
X019420Y039017D01*
X019310Y039017D01*
X019255Y038962D01*
X019255Y038686D02*
X019475Y038686D01*
X019623Y038742D02*
X019843Y038962D01*
X019843Y038742D01*
X019788Y038686D01*
X019678Y038686D01*
X019623Y038742D01*
X019623Y038962D01*
X019678Y039017D01*
X019788Y039017D01*
X019843Y038962D01*
X019991Y038907D02*
X020101Y039017D01*
X020101Y038686D01*
X019991Y038686D02*
X020211Y038686D01*
X020360Y038742D02*
X020415Y038686D01*
X020525Y038686D01*
X020580Y038742D01*
X020580Y038852D01*
X020525Y038907D01*
X020470Y038907D01*
X020360Y038852D01*
X020360Y039017D01*
X020580Y039017D01*
X021096Y038907D02*
X021206Y039017D01*
X021316Y038907D01*
X021316Y038686D01*
X021465Y038686D02*
X021465Y038907D01*
X021630Y038907D01*
X021685Y038852D01*
X021685Y038686D01*
X021833Y038742D02*
X021833Y038852D01*
X021888Y038907D01*
X022053Y038907D01*
X022053Y039017D02*
X022053Y038686D01*
X021888Y038686D01*
X021833Y038742D01*
X022201Y038797D02*
X022311Y038907D01*
X022366Y038907D01*
X022508Y038852D02*
X022563Y038907D01*
X022673Y038907D01*
X022728Y038852D01*
X022728Y038797D01*
X022508Y038797D01*
X022508Y038742D02*
X022508Y038852D01*
X022508Y038742D02*
X022563Y038686D01*
X022673Y038686D01*
X022563Y039017D02*
X022673Y039072D01*
X022201Y038907D02*
X022201Y038686D01*
X021316Y038852D02*
X021096Y038852D01*
X021096Y038907D02*
X021096Y038686D01*
X023245Y038686D02*
X023245Y039017D01*
X023410Y039017D01*
X023465Y038962D01*
X023465Y038852D01*
X023410Y038797D01*
X023245Y038797D01*
X023613Y038797D02*
X023833Y038797D01*
X023833Y038852D01*
X023778Y038907D01*
X023668Y038907D01*
X023613Y038852D01*
X023613Y038742D01*
X023668Y038686D01*
X023778Y038686D01*
X023981Y038742D02*
X023981Y038852D01*
X024036Y038907D01*
X024202Y038907D01*
X024202Y039017D02*
X024202Y038686D01*
X024036Y038686D01*
X023981Y038742D01*
X024350Y038797D02*
X024460Y038907D01*
X024515Y038907D01*
X024657Y038852D02*
X024657Y038742D01*
X024712Y038686D01*
X024822Y038686D01*
X024877Y038742D01*
X024877Y038852D01*
X024822Y038907D01*
X024712Y038907D01*
X024657Y038852D01*
X024350Y038907D02*
X024350Y038686D01*
D11*
X023145Y039999D03*
X023145Y040579D03*
X022165Y040579D03*
X022165Y040559D03*
X022165Y040539D03*
X022165Y040519D03*
X022165Y040499D03*
X022165Y040479D03*
X022165Y040459D03*
X022165Y040439D03*
X022165Y040419D03*
X022165Y040399D03*
X022165Y040379D03*
X022165Y040359D03*
X022165Y040339D03*
X022165Y040599D03*
X022165Y040619D03*
X022165Y040639D03*
X022165Y040659D03*
X022165Y040679D03*
X022165Y040699D03*
X022165Y040719D03*
X022165Y040739D03*
X022165Y040759D03*
X022165Y040779D03*
X022165Y040799D03*
X022165Y040819D03*
X022165Y040839D03*
X022165Y040859D03*
X022165Y040879D03*
X022165Y040899D03*
X022165Y040919D03*
X022165Y040939D03*
X022165Y040959D03*
X022145Y041019D03*
X022145Y041039D03*
X022165Y039959D03*
X022165Y039939D03*
X022165Y039919D03*
X022165Y039899D03*
X022165Y039879D03*
X022165Y039859D03*
X022165Y039839D03*
X022165Y039819D03*
X022165Y039799D03*
X022165Y039779D03*
X022165Y039759D03*
X022165Y039739D03*
X022165Y039719D03*
X022165Y039699D03*
X022165Y039679D03*
X022165Y039659D03*
X022165Y039639D03*
X022165Y039619D03*
X022165Y039599D03*
X022165Y039579D03*
X022165Y039559D03*
X022165Y039539D03*
X022165Y039519D03*
X022165Y039499D03*
X022165Y039479D03*
X022165Y039459D03*
X022165Y039439D03*
X022165Y039419D03*
X022165Y039399D03*
X022165Y039379D03*
X022165Y039359D03*
X022165Y039339D03*
X022165Y039319D03*
X022165Y039299D03*
X022165Y039279D03*
X022165Y039259D03*
X022165Y039239D03*
X020725Y040719D03*
X020725Y040739D03*
X020725Y040759D03*
X020705Y040819D03*
X020705Y040839D03*
X020705Y040859D03*
X020705Y040879D03*
X020705Y040899D03*
X020705Y040919D03*
X020705Y040939D03*
X020725Y040999D03*
X020725Y041019D03*
X020725Y041039D03*
X020225Y041019D03*
X020225Y040999D03*
X020225Y040979D03*
X020225Y040959D03*
X020225Y040939D03*
X020205Y041079D03*
X018805Y041059D03*
X018785Y040999D03*
X018785Y040979D03*
X018785Y040959D03*
X018785Y040939D03*
X018785Y040919D03*
X018785Y040899D03*
X018785Y040879D03*
X018785Y040859D03*
X018785Y040839D03*
X018785Y040819D03*
X018785Y040799D03*
X018785Y040779D03*
X018785Y040759D03*
X018805Y040699D03*
X018305Y040799D03*
X018305Y040819D03*
X018305Y040839D03*
X018305Y040859D03*
X018305Y040879D03*
X018305Y040899D03*
X018305Y040919D03*
X018305Y040939D03*
X018305Y040959D03*
X018285Y041019D03*
X018285Y041039D03*
X018285Y040739D03*
X018285Y040719D03*
X016845Y040719D03*
X016845Y040699D03*
X016845Y040679D03*
X016845Y040659D03*
X016845Y040639D03*
X016845Y040619D03*
X016845Y040599D03*
X016845Y040579D03*
X016845Y040559D03*
X016845Y040539D03*
X016845Y040519D03*
X016845Y040499D03*
X016845Y040479D03*
X016845Y040459D03*
X016845Y040439D03*
X016845Y040419D03*
X016845Y040399D03*
X016845Y040379D03*
X016845Y040359D03*
X016845Y040339D03*
X016845Y039959D03*
X016845Y039939D03*
X016845Y039919D03*
X016845Y039899D03*
X016845Y039879D03*
X016845Y039859D03*
X016845Y039839D03*
X016845Y039819D03*
X016845Y039799D03*
X016845Y039779D03*
X016845Y039759D03*
X016845Y039739D03*
X016845Y039719D03*
X016845Y039699D03*
X016845Y039679D03*
X016845Y039659D03*
X016845Y039639D03*
X016845Y039619D03*
X016845Y039599D03*
X016845Y039579D03*
X016845Y039559D03*
X016845Y039539D03*
X016845Y039519D03*
X016845Y039499D03*
X016845Y039479D03*
X016845Y039459D03*
X016845Y039439D03*
X016845Y039419D03*
X016845Y039399D03*
X016845Y039379D03*
X016845Y039359D03*
X016845Y039339D03*
X016845Y039319D03*
X016845Y039299D03*
X016845Y039279D03*
X016845Y039259D03*
X016845Y039239D03*
X016845Y040739D03*
X016845Y040759D03*
X016845Y040779D03*
X016845Y040799D03*
X016845Y040819D03*
X016845Y040839D03*
X016845Y040859D03*
X016845Y040879D03*
X016845Y040899D03*
X016845Y040919D03*
X016845Y040939D03*
X016865Y040999D03*
X016865Y041019D03*
X016865Y041039D03*
X016365Y040919D03*
X016365Y040899D03*
X016365Y040879D03*
X016365Y040859D03*
X016365Y040839D03*
X016345Y040779D03*
X016345Y040759D03*
X016345Y040739D03*
X016345Y040979D03*
X016345Y040999D03*
X016345Y041019D03*
X016345Y041039D03*
X014925Y041039D03*
X014925Y041059D03*
X014905Y040999D03*
X014905Y040979D03*
X014905Y040959D03*
X014905Y040939D03*
X014905Y040919D03*
X014905Y040899D03*
X014905Y040879D03*
X014905Y040859D03*
X014905Y040839D03*
X014905Y040819D03*
X014905Y040799D03*
X014905Y040779D03*
X014925Y040719D03*
X014925Y040699D03*
D12*
X022485Y040079D03*
X022485Y040059D03*
X022505Y039999D03*
X022525Y039979D03*
X022605Y039939D03*
X022685Y039979D03*
X022705Y039999D03*
X022725Y040059D03*
X022725Y040079D03*
X022705Y040119D03*
X022705Y040139D03*
X022605Y040199D03*
X022505Y040139D03*
X023525Y040519D03*
D13*
X023145Y040619D03*
X022925Y040439D03*
X022905Y040419D03*
X022905Y040159D03*
X022925Y040139D03*
X023145Y039959D03*
X022605Y039959D03*
X022605Y040179D03*
D14*
X023545Y040539D03*
X023685Y040539D03*
X023685Y040519D03*
X023685Y040499D03*
X023685Y040479D03*
X023685Y040459D03*
X023685Y040439D03*
X023685Y040419D03*
X023685Y040399D03*
X023685Y040379D03*
X023685Y040359D03*
X023685Y040339D03*
X023685Y040319D03*
X023685Y040299D03*
X023685Y040279D03*
X023685Y040259D03*
X023685Y040239D03*
X023685Y040219D03*
X023685Y040199D03*
X023685Y040179D03*
X023685Y040159D03*
X023685Y040139D03*
X023685Y040119D03*
X023685Y040099D03*
X023685Y040079D03*
X023685Y040059D03*
X023685Y040039D03*
X023685Y040019D03*
X023685Y039999D03*
X023685Y039979D03*
X023685Y039959D03*
D15*
X023145Y039979D03*
X023145Y040599D03*
X019505Y041779D03*
X015625Y041779D03*
X015625Y039979D03*
D16*
X015635Y040139D03*
X015635Y041619D03*
X017195Y039979D03*
X017575Y041619D03*
X019515Y041619D03*
X019895Y039979D03*
X021435Y041619D03*
X021815Y039979D03*
D17*
X023145Y040539D03*
X020045Y041339D03*
X019505Y041759D03*
X018965Y041339D03*
X018945Y041319D03*
X018945Y040439D03*
X018965Y040419D03*
X016165Y040419D03*
X015625Y039999D03*
X015085Y040419D03*
X015085Y041339D03*
X015625Y041759D03*
D18*
X017235Y039999D03*
X021775Y039999D03*
D19*
X019845Y039999D03*
X019505Y041579D03*
X015625Y041579D03*
X015625Y040179D03*
D20*
X015625Y040019D03*
X015625Y041739D03*
X019505Y041739D03*
D21*
X019815Y040019D03*
X021435Y041559D03*
X021735Y040019D03*
X017575Y041559D03*
X017275Y040019D03*
X015635Y041559D03*
D22*
X022495Y040119D03*
X022495Y040099D03*
X022495Y040039D03*
X022495Y040019D03*
X022715Y040019D03*
X022715Y040039D03*
X022715Y040099D03*
X023335Y040179D03*
X023335Y040399D03*
D23*
X023145Y040559D03*
X023145Y040019D03*
X022105Y041159D03*
X022085Y041179D03*
X022085Y041199D03*
X020785Y041199D03*
X020785Y041179D03*
X020765Y041159D03*
X020745Y040659D03*
X020765Y040599D03*
X020785Y040579D03*
X020785Y040559D03*
X020185Y041139D03*
X020165Y041179D03*
X020145Y041219D03*
X018865Y041199D03*
X018845Y041179D03*
X018845Y041159D03*
X018825Y041119D03*
X018825Y040639D03*
X018845Y040599D03*
X018845Y040579D03*
X018865Y040559D03*
X018245Y040599D03*
X018225Y040579D03*
X018225Y040559D03*
X018245Y041159D03*
X018225Y041199D03*
X016925Y041199D03*
X016925Y041179D03*
X016905Y041159D03*
X016305Y041159D03*
X016305Y041139D03*
X016285Y041179D03*
X016285Y041199D03*
X016305Y040619D03*
X016305Y040599D03*
X016285Y040579D03*
X016285Y040559D03*
X016265Y040539D03*
X015005Y040519D03*
X014985Y040559D03*
X014965Y040579D03*
X014965Y040599D03*
X014945Y041119D03*
X014965Y041159D03*
X014965Y041179D03*
X014985Y041199D03*
X015005Y041239D03*
D24*
X015635Y041719D03*
X015635Y040039D03*
X017575Y041719D03*
X019515Y041719D03*
X021435Y041719D03*
D25*
X021435Y041539D03*
X021715Y040039D03*
X019795Y040039D03*
X019515Y041539D03*
X017575Y041539D03*
X017295Y040039D03*
X015635Y040219D03*
X015635Y041539D03*
D26*
X016225Y041279D03*
X016245Y041259D03*
X016245Y040499D03*
X016225Y040479D03*
X016965Y041259D03*
X016985Y041279D03*
X018165Y041279D03*
X018185Y041259D03*
X018905Y041279D03*
X018905Y040479D03*
X018185Y040499D03*
X018165Y040479D03*
X020105Y041279D03*
X020825Y041259D03*
X020845Y041279D03*
X020825Y040499D03*
X020845Y040479D03*
X022025Y041279D03*
X022045Y041259D03*
X023145Y040039D03*
X015025Y041279D03*
D27*
X015625Y041699D03*
X015625Y040059D03*
X019505Y041699D03*
D28*
X019515Y041519D03*
X021435Y041519D03*
X021695Y040059D03*
X017575Y041519D03*
X017315Y040059D03*
X015635Y040239D03*
X015635Y041519D03*
D29*
X019505Y041499D03*
X019765Y040059D03*
D30*
X018995Y040399D03*
X018115Y040419D03*
X018095Y040399D03*
X018115Y041339D03*
X018095Y041359D03*
X017055Y041359D03*
X017035Y041339D03*
X016175Y041339D03*
X016155Y041359D03*
X015115Y041359D03*
X015115Y040399D03*
X016155Y040399D03*
X020895Y040419D03*
X020915Y040399D03*
X020895Y041339D03*
X020915Y041359D03*
X021955Y041359D03*
X021975Y041339D03*
X023155Y040059D03*
D31*
X021435Y041679D03*
X019515Y041679D03*
X017575Y041679D03*
X015635Y041679D03*
X015635Y040079D03*
D32*
X015635Y040259D03*
X015635Y041499D03*
X017575Y041499D03*
X017335Y040079D03*
X019755Y040079D03*
X021435Y041499D03*
X021675Y040079D03*
D33*
X021935Y041379D03*
X023155Y040499D03*
X023155Y040079D03*
X019995Y041379D03*
X019015Y041379D03*
X018075Y041379D03*
X019015Y040379D03*
X015135Y040379D03*
X015135Y041379D03*
D34*
X015635Y041659D03*
X015635Y040099D03*
X017575Y041659D03*
X019515Y041659D03*
X021435Y041659D03*
D35*
X021435Y041479D03*
X021655Y040099D03*
X019735Y040099D03*
X017355Y040099D03*
X017575Y041479D03*
X015635Y041479D03*
D36*
X022965Y040479D03*
X023325Y040479D03*
X023625Y040579D03*
X023325Y040099D03*
X022965Y040099D03*
D37*
X021425Y041639D03*
X019505Y041639D03*
X015625Y041639D03*
X015625Y040119D03*
D38*
X015625Y040299D03*
X015625Y041459D03*
X017365Y040119D03*
X019505Y041459D03*
D39*
X019715Y040119D03*
X021435Y041439D03*
X021435Y041459D03*
X021635Y040119D03*
X017575Y041439D03*
X017575Y041459D03*
X015635Y040319D03*
D40*
X022935Y040459D03*
X022935Y040119D03*
X023635Y040599D03*
D41*
X023655Y040619D03*
X023335Y040459D03*
X023335Y040119D03*
X022895Y040179D03*
X022895Y040199D03*
X022875Y040219D03*
X022875Y040239D03*
X022875Y040259D03*
X022875Y040279D03*
X022875Y040299D03*
X022875Y040319D03*
X022875Y040339D03*
X022875Y040359D03*
X022895Y040379D03*
X022895Y040399D03*
D42*
X021625Y040139D03*
X019705Y040139D03*
X019505Y041439D03*
X017385Y040139D03*
X015625Y041439D03*
D43*
X023335Y040439D03*
X023335Y040139D03*
X023675Y040639D03*
D44*
X019505Y041599D03*
X015625Y041599D03*
X015625Y040159D03*
D45*
X017395Y040159D03*
X021615Y040159D03*
D46*
X019685Y040159D03*
X017405Y040179D03*
D47*
X022535Y040159D03*
X022675Y040159D03*
X023335Y040159D03*
X023335Y040419D03*
D48*
X021595Y040179D03*
X019675Y040179D03*
D49*
X019505Y041559D03*
X015625Y040199D03*
D50*
X017425Y040199D03*
X019665Y040199D03*
X021585Y040199D03*
D51*
X021575Y040219D03*
X019655Y040219D03*
X017435Y040219D03*
D52*
X017445Y040239D03*
X019645Y040239D03*
X021565Y040239D03*
D53*
X021555Y040259D03*
X019635Y040259D03*
X017455Y040259D03*
D54*
X015625Y040279D03*
X019505Y041479D03*
D55*
X019625Y040279D03*
X021545Y040279D03*
X021545Y040299D03*
X017465Y040299D03*
X017465Y040279D03*
D56*
X017475Y040319D03*
X019615Y040299D03*
X021535Y040319D03*
D57*
X019605Y040319D03*
D58*
X019095Y040339D03*
X019095Y041419D03*
X017575Y041739D03*
X017155Y041419D03*
X015215Y041419D03*
X015215Y040339D03*
X021015Y040339D03*
X021015Y041419D03*
X021435Y041739D03*
D59*
X021845Y041419D03*
X019925Y041419D03*
X017985Y041419D03*
X017985Y040339D03*
X016045Y040339D03*
X016045Y041419D03*
D60*
X016315Y041119D03*
X016315Y041099D03*
X016335Y041079D03*
X016335Y041059D03*
X016355Y040959D03*
X016355Y040939D03*
X016355Y040819D03*
X016355Y040799D03*
X016335Y040719D03*
X016335Y040699D03*
X016335Y040679D03*
X016315Y040659D03*
X016315Y040639D03*
X016855Y040959D03*
X016855Y040979D03*
X016875Y041059D03*
X016875Y041079D03*
X016875Y041099D03*
X016895Y041119D03*
X016895Y041139D03*
X018255Y041139D03*
X018255Y041119D03*
X018275Y041099D03*
X018275Y041079D03*
X018275Y041059D03*
X018295Y040999D03*
X018295Y040979D03*
X018295Y040779D03*
X018295Y040759D03*
X018275Y040699D03*
X018275Y040679D03*
X018275Y040659D03*
X018255Y040639D03*
X018255Y040619D03*
X018795Y040719D03*
X018795Y040739D03*
X018815Y040679D03*
X018815Y040659D03*
X018835Y040619D03*
X018795Y041019D03*
X018795Y041039D03*
X018815Y041079D03*
X018815Y041099D03*
X018835Y041139D03*
X020175Y041159D03*
X020195Y041119D03*
X020195Y041099D03*
X020215Y041059D03*
X020215Y041039D03*
X020235Y040919D03*
X020235Y040899D03*
X020235Y040879D03*
X020235Y040859D03*
X020235Y040839D03*
X020235Y040819D03*
X020235Y040799D03*
X020235Y040779D03*
X020235Y040759D03*
X020235Y040739D03*
X020235Y040719D03*
X020235Y040699D03*
X020235Y040679D03*
X020235Y040659D03*
X020235Y040639D03*
X020235Y040619D03*
X020235Y040599D03*
X020235Y040579D03*
X020235Y040559D03*
X020235Y040539D03*
X020235Y040519D03*
X020235Y040499D03*
X020235Y040479D03*
X020235Y040459D03*
X020235Y040439D03*
X020235Y040419D03*
X020235Y040399D03*
X020235Y040379D03*
X020235Y040359D03*
X020235Y040339D03*
X020755Y040619D03*
X020755Y040639D03*
X020735Y040679D03*
X020735Y040699D03*
X020715Y040779D03*
X020715Y040799D03*
X020715Y040959D03*
X020715Y040979D03*
X020735Y041059D03*
X020735Y041079D03*
X020735Y041099D03*
X020755Y041119D03*
X020755Y041139D03*
X022115Y041139D03*
X022115Y041119D03*
X022135Y041099D03*
X022135Y041079D03*
X022135Y041059D03*
X022155Y040999D03*
X022155Y040979D03*
X014955Y041139D03*
X014935Y041099D03*
X014935Y041079D03*
X014915Y041019D03*
X014915Y040759D03*
X014915Y040739D03*
X014935Y040679D03*
X014935Y040659D03*
X014955Y040639D03*
X014955Y040619D03*
D61*
X015165Y040359D03*
X015165Y041399D03*
X019045Y041399D03*
X019045Y040359D03*
D62*
X018035Y040359D03*
X018035Y041399D03*
X017115Y041399D03*
X016095Y041399D03*
X016095Y040359D03*
X019975Y041399D03*
X020975Y041399D03*
X021895Y041399D03*
X020975Y040359D03*
D63*
X020945Y040379D03*
X020945Y041379D03*
X020025Y041359D03*
X018985Y041359D03*
X018065Y040379D03*
X017085Y041379D03*
X016125Y041379D03*
X016125Y040379D03*
X023145Y040519D03*
D64*
X022015Y041299D03*
X021995Y041319D03*
X021435Y041759D03*
X020875Y041319D03*
X020855Y041299D03*
X020855Y040459D03*
X020875Y040439D03*
X020095Y041299D03*
X020075Y041319D03*
X018935Y041299D03*
X018935Y040459D03*
X018155Y040459D03*
X018135Y040439D03*
X018155Y041299D03*
X018135Y041319D03*
X017575Y041759D03*
X017015Y041319D03*
X016995Y041299D03*
X016215Y041299D03*
X016195Y041319D03*
X016215Y040459D03*
X016195Y040439D03*
X015075Y040439D03*
X015055Y040459D03*
X015055Y041299D03*
X015075Y041319D03*
D65*
X015015Y041259D03*
X014995Y041219D03*
X014995Y040539D03*
X015015Y040499D03*
X015035Y040479D03*
X016255Y040519D03*
X016275Y041219D03*
X016255Y041239D03*
X016935Y041219D03*
X016955Y041239D03*
X018195Y041239D03*
X018215Y041219D03*
X018235Y041179D03*
X018215Y040539D03*
X018195Y040519D03*
X018875Y040519D03*
X018875Y040539D03*
X018895Y040499D03*
X018875Y041219D03*
X018875Y041239D03*
X018895Y041259D03*
X020115Y041259D03*
X020135Y041239D03*
X020155Y041199D03*
X020795Y041219D03*
X020815Y041239D03*
X020795Y040539D03*
X020815Y040519D03*
X022055Y041239D03*
X022075Y041219D03*
D66*
X023615Y040559D03*
D67*
X021435Y041579D03*
X017575Y041579D03*
D68*
X017575Y041599D03*
X021435Y041599D03*
D69*
X017575Y041639D03*
D70*
X017575Y041699D03*
X021435Y041699D03*
D71*
X021435Y041779D03*
X017575Y041779D03*
D72*
X017014Y038295D02*
X017014Y038250D01*
X017014Y038160D02*
X017014Y037980D01*
X016969Y037980D02*
X017059Y037980D01*
X017210Y038025D02*
X017210Y038205D01*
X017165Y038160D02*
X017255Y038160D01*
X017362Y038115D02*
X017407Y038160D01*
X017497Y038160D01*
X017542Y038115D01*
X017542Y037980D01*
X017656Y038025D02*
X017702Y037980D01*
X017837Y037980D01*
X017837Y038160D01*
X017951Y038160D02*
X018086Y038160D01*
X018131Y038115D01*
X018131Y038025D01*
X018086Y037980D01*
X017951Y037980D01*
X017951Y038250D01*
X017656Y038160D02*
X017656Y038025D01*
X017362Y037980D02*
X017362Y038250D01*
X017210Y038025D02*
X017255Y037980D01*
X017014Y038160D02*
X016969Y038160D01*
X016854Y038160D02*
X016719Y038160D01*
X016674Y038115D01*
X016674Y038025D01*
X016719Y037980D01*
X016854Y037980D01*
X016854Y037935D02*
X016854Y038160D01*
X016854Y037935D02*
X016809Y037890D01*
X016764Y037890D01*
X016380Y037980D02*
X016560Y038250D01*
X016265Y038250D02*
X016085Y037980D01*
X015983Y037980D02*
X015938Y037980D01*
X015938Y038025D01*
X015983Y038025D01*
X015983Y037980D01*
X015983Y038115D02*
X015938Y038115D01*
X015938Y038160D01*
X015983Y038160D01*
X015983Y038115D01*
X015823Y038160D02*
X015688Y038160D01*
X015643Y038115D01*
X015688Y038070D01*
X015778Y038070D01*
X015823Y038025D01*
X015778Y037980D01*
X015643Y037980D01*
X015529Y038025D02*
X015483Y037980D01*
X015348Y037980D01*
X015348Y037890D02*
X015348Y038160D01*
X015483Y038160D01*
X015529Y038115D01*
X015529Y038025D01*
X015242Y037980D02*
X015197Y038025D01*
X015197Y038205D01*
X015152Y038160D02*
X015242Y038160D01*
X015046Y038160D02*
X014956Y038160D01*
X015001Y038205D02*
X015001Y038025D01*
X015046Y037980D01*
X014841Y037980D02*
X014841Y038115D01*
X014796Y038160D01*
X014706Y038160D01*
X014661Y038115D01*
X014661Y038250D02*
X014661Y037980D01*
X016701Y037303D02*
X016701Y032949D01*
X016717Y032949D02*
X022630Y032949D01*
X022630Y037303D01*
X016717Y037303D01*
X018246Y037980D02*
X018291Y037980D01*
X018291Y038025D01*
X018246Y038025D01*
X018246Y037980D01*
X018393Y038025D02*
X018438Y037980D01*
X018573Y037980D01*
X018688Y038025D02*
X018733Y037980D01*
X018823Y037980D01*
X018868Y038025D01*
X018868Y038115D01*
X018823Y038160D01*
X018733Y038160D01*
X018688Y038115D01*
X018688Y038025D01*
X018573Y038160D02*
X018438Y038160D01*
X018393Y038115D01*
X018393Y038025D01*
X018982Y037980D02*
X018982Y038160D01*
X019027Y038160D01*
X019072Y038115D01*
X019118Y038160D01*
X019163Y038115D01*
X019163Y037980D01*
X019072Y037980D02*
X019072Y038115D01*
X019277Y037980D02*
X019457Y038250D01*
X019617Y038160D02*
X019707Y038160D01*
X019752Y038115D01*
X019752Y037980D01*
X019617Y037980D01*
X019572Y038025D01*
X019617Y038070D01*
X019752Y038070D01*
X019866Y038160D02*
X020001Y038160D01*
X020047Y038115D01*
X020047Y037980D01*
X020161Y037980D02*
X020161Y038160D01*
X020206Y038160D01*
X020251Y038115D01*
X020296Y038160D01*
X020341Y038115D01*
X020341Y037980D01*
X020251Y037980D02*
X020251Y038115D01*
X020456Y038025D02*
X020501Y038070D01*
X020636Y038070D01*
X020636Y038115D02*
X020636Y037980D01*
X020501Y037980D01*
X020456Y038025D01*
X020501Y038160D02*
X020591Y038160D01*
X020636Y038115D01*
X020750Y038160D02*
X020885Y038160D01*
X020930Y038115D01*
X020930Y038025D01*
X020885Y037980D01*
X020750Y037980D01*
X020750Y037890D02*
X020750Y038160D01*
X021045Y038115D02*
X021090Y038160D01*
X021180Y038160D01*
X021225Y038115D01*
X021225Y038070D01*
X021045Y038070D01*
X021045Y038025D02*
X021045Y038115D01*
X021045Y038025D02*
X021090Y037980D01*
X021180Y037980D01*
X021340Y038025D02*
X021340Y038115D01*
X021385Y038160D01*
X021520Y038160D01*
X021520Y038250D02*
X021520Y037980D01*
X021385Y037980D01*
X021340Y038025D01*
X021634Y037980D02*
X021814Y038250D01*
X021929Y038115D02*
X021929Y038025D01*
X021974Y037980D01*
X022064Y037980D01*
X022109Y038025D01*
X022109Y038115D01*
X022064Y038160D01*
X021974Y038160D01*
X021929Y038115D01*
X022224Y038160D02*
X022359Y038160D01*
X022404Y038115D01*
X022404Y038025D01*
X022359Y037980D01*
X022224Y037980D01*
X022224Y037890D02*
X022224Y038160D01*
X022518Y038025D02*
X022563Y038070D01*
X022698Y038070D01*
X022698Y038115D02*
X022698Y037980D01*
X022563Y037980D01*
X022518Y038025D01*
X022563Y038160D02*
X022653Y038160D01*
X022698Y038115D01*
X022813Y038115D02*
X022813Y038025D01*
X022858Y037980D01*
X022993Y037980D01*
X022993Y037890D02*
X022993Y038160D01*
X022858Y038160D01*
X022813Y038115D01*
X020838Y036999D02*
X020838Y036954D01*
X020793Y036909D01*
X020838Y036864D01*
X020838Y036819D01*
X020793Y036774D01*
X020703Y036774D01*
X020658Y036819D01*
X020543Y036774D02*
X020363Y036774D01*
X020363Y037044D01*
X020543Y037044D01*
X020658Y036999D02*
X020703Y037044D01*
X020793Y037044D01*
X020838Y036999D01*
X020793Y036909D02*
X020748Y036909D01*
X020453Y036909D02*
X020363Y036909D01*
X020248Y036774D02*
X020068Y036774D01*
X020068Y037044D01*
X019954Y037044D02*
X019954Y036819D01*
X019909Y036774D01*
X019819Y036774D01*
X019774Y036819D01*
X019774Y037044D01*
X019659Y036999D02*
X019614Y037044D01*
X019479Y037044D01*
X019479Y036774D01*
X019614Y036774D01*
X019659Y036819D01*
X019659Y036999D01*
X019364Y036999D02*
X019319Y037044D01*
X019229Y037044D01*
X019184Y036999D01*
X019184Y036819D01*
X019229Y036774D01*
X019319Y036774D01*
X019364Y036819D01*
X019364Y036999D01*
X019070Y037044D02*
X019070Y036774D01*
X018890Y036774D02*
X018890Y037044D01*
X018980Y036954D01*
X019070Y037044D01*
X019866Y037980D02*
X019866Y038160D01*
X022201Y032508D02*
X031689Y032508D01*
X031689Y026130D01*
X022201Y026130D01*
X022201Y032508D01*
X018079Y030303D02*
X018079Y027350D01*
X018334Y027783D02*
X018336Y027857D01*
X018342Y027930D01*
X018352Y028004D01*
X018366Y028076D01*
X018383Y028148D01*
X018405Y028218D01*
X018430Y028288D01*
X018459Y028356D01*
X018491Y028422D01*
X018528Y028486D01*
X018567Y028549D01*
X018610Y028609D01*
X018656Y028667D01*
X018705Y028722D01*
X018757Y028775D01*
X018811Y028824D01*
X018868Y028871D01*
X018928Y028915D01*
X018990Y028955D01*
X019054Y028992D01*
X019120Y029025D01*
X019187Y029055D01*
X019256Y029081D01*
X019326Y029104D01*
X019398Y029122D01*
X019470Y029137D01*
X019543Y029148D01*
X019617Y029155D01*
X019691Y029158D01*
X019764Y029157D01*
X019838Y029152D01*
X019911Y029143D01*
X019984Y029130D01*
X020056Y029114D01*
X020127Y029093D01*
X020197Y029069D01*
X020265Y029041D01*
X020332Y029009D01*
X020397Y028974D01*
X020459Y028935D01*
X020520Y028893D01*
X020579Y028848D01*
X020635Y028800D01*
X020688Y028749D01*
X020738Y028695D01*
X020786Y028638D01*
X020830Y028579D01*
X020871Y028518D01*
X020909Y028454D01*
X020943Y028389D01*
X020974Y028322D01*
X021001Y028253D01*
X021024Y028183D01*
X021044Y028112D01*
X021060Y028040D01*
X021072Y027967D01*
X021080Y027894D01*
X021084Y027820D01*
X021084Y027746D01*
X021080Y027672D01*
X021072Y027599D01*
X021060Y027526D01*
X021044Y027454D01*
X021024Y027383D01*
X021001Y027313D01*
X020974Y027244D01*
X020943Y027177D01*
X020909Y027112D01*
X020871Y027048D01*
X020830Y026987D01*
X020786Y026928D01*
X020738Y026871D01*
X020688Y026817D01*
X020635Y026766D01*
X020579Y026718D01*
X020520Y026673D01*
X020459Y026631D01*
X020396Y026592D01*
X020332Y026557D01*
X020265Y026525D01*
X020197Y026497D01*
X020127Y026473D01*
X020056Y026452D01*
X019984Y026436D01*
X019911Y026423D01*
X019838Y026414D01*
X019764Y026409D01*
X019691Y026408D01*
X019617Y026411D01*
X019543Y026418D01*
X019470Y026429D01*
X019398Y026444D01*
X019326Y026462D01*
X019256Y026485D01*
X019187Y026511D01*
X019120Y026541D01*
X019054Y026574D01*
X018990Y026611D01*
X018928Y026651D01*
X018868Y026695D01*
X018811Y026742D01*
X018757Y026791D01*
X018705Y026844D01*
X018656Y026899D01*
X018610Y026957D01*
X018567Y027017D01*
X018528Y027080D01*
X018491Y027144D01*
X018459Y027210D01*
X018430Y027278D01*
X018405Y027348D01*
X018383Y027418D01*
X018366Y027490D01*
X018352Y027562D01*
X018342Y027636D01*
X018336Y027709D01*
X018334Y027783D01*
X017379Y029803D02*
X017381Y029831D01*
X017387Y029858D01*
X017396Y029884D01*
X017409Y029909D01*
X017426Y029932D01*
X017445Y029952D01*
X017467Y029969D01*
X017491Y029983D01*
X017517Y029993D01*
X017544Y030000D01*
X017572Y030003D01*
X017600Y030002D01*
X017627Y029997D01*
X017654Y029988D01*
X017679Y029976D01*
X017702Y029961D01*
X017723Y029942D01*
X017741Y029921D01*
X017756Y029897D01*
X017767Y029871D01*
X017775Y029845D01*
X017779Y029817D01*
X017779Y029789D01*
X017775Y029761D01*
X017767Y029735D01*
X017756Y029709D01*
X017741Y029685D01*
X017723Y029664D01*
X017702Y029645D01*
X017679Y029630D01*
X017654Y029618D01*
X017627Y029609D01*
X017600Y029604D01*
X017572Y029603D01*
X017544Y029606D01*
X017517Y029613D01*
X017491Y029623D01*
X017467Y029637D01*
X017445Y029654D01*
X017426Y029674D01*
X017409Y029697D01*
X017396Y029722D01*
X017387Y029748D01*
X017381Y029775D01*
X017379Y029803D01*
X014024Y030303D02*
X014024Y027350D01*
X013524Y021449D02*
X020610Y021449D01*
X020610Y021087D01*
X019801Y017271D02*
X019801Y017000D01*
X019711Y017000D02*
X019891Y017000D01*
X019711Y017180D02*
X019801Y017271D01*
X019596Y017271D02*
X019416Y017271D01*
X019416Y017000D01*
X019596Y017000D01*
X019506Y017135D02*
X019416Y017135D01*
X019302Y017000D02*
X019122Y017000D01*
X019122Y017271D01*
X019007Y017271D02*
X019007Y017045D01*
X018962Y017000D01*
X018872Y017000D01*
X018827Y017045D01*
X018827Y017271D01*
X018712Y017225D02*
X018667Y017271D01*
X018532Y017271D01*
X018532Y017000D01*
X018667Y017000D01*
X018712Y017045D01*
X018712Y017225D01*
X018418Y017225D02*
X018373Y017271D01*
X018283Y017271D01*
X018238Y017225D01*
X018238Y017045D01*
X018283Y017000D01*
X018373Y017000D01*
X018418Y017045D01*
X018418Y017225D01*
X018123Y017271D02*
X018123Y017000D01*
X017943Y017000D02*
X017943Y017271D01*
X018033Y017180D01*
X018123Y017271D01*
X020610Y017087D02*
X020610Y016724D01*
X013524Y016724D01*
X013524Y021449D01*
X022474Y026706D02*
X022474Y026976D01*
X022564Y026886D01*
X022654Y026976D01*
X022654Y026706D01*
X022769Y026751D02*
X022814Y026706D01*
X022904Y026706D01*
X022949Y026751D01*
X022949Y026931D01*
X022904Y026976D01*
X022814Y026976D01*
X022769Y026931D01*
X022769Y026751D01*
X023063Y026706D02*
X023063Y026976D01*
X023199Y026976D01*
X023244Y026931D01*
X023244Y026751D01*
X023199Y026706D01*
X023063Y026706D01*
X023358Y026751D02*
X023358Y026976D01*
X023538Y026976D02*
X023538Y026751D01*
X023493Y026706D01*
X023403Y026706D01*
X023358Y026751D01*
X023653Y026706D02*
X023833Y026706D01*
X023947Y026706D02*
X024128Y026706D01*
X024242Y026706D02*
X024422Y026886D01*
X024422Y026931D01*
X024377Y026976D01*
X024287Y026976D01*
X024242Y026931D01*
X024128Y026976D02*
X023947Y026976D01*
X023947Y026706D01*
X023947Y026841D02*
X024037Y026841D01*
X024242Y026706D02*
X024422Y026706D01*
X023653Y026706D02*
X023653Y026976D01*
X028158Y013610D02*
X030914Y013610D01*
X030914Y013138D01*
X030914Y011602D02*
X030914Y011130D01*
X028158Y011130D01*
X028158Y011602D01*
X028158Y013138D02*
X028158Y013610D01*
X024107Y008965D02*
X024103Y008965D01*
X023303Y008965D01*
X024103Y008965D02*
X024103Y008283D01*
X024103Y007402D02*
X024103Y006996D01*
X024107Y006998D01*
X024103Y006996D02*
X023866Y006996D01*
X023866Y006837D01*
X023867Y006836D02*
X023861Y006818D01*
X023853Y006802D01*
X023841Y006787D01*
X023827Y006775D01*
X023811Y006766D01*
X023793Y006760D01*
X023775Y006758D01*
X023756Y006759D01*
X023756Y006760D02*
X022646Y006760D01*
X021536Y006760D01*
X021521Y006761D01*
X021506Y006766D01*
X021493Y006773D01*
X021482Y006783D01*
X021473Y006796D01*
X021467Y006810D01*
X021465Y006825D01*
X021465Y006996D01*
X021189Y006996D01*
X021189Y007402D01*
X021195Y007010D02*
X021071Y006762D01*
X021465Y006996D02*
X023866Y006996D01*
X024099Y007006D02*
X024219Y006762D01*
X022656Y006762D02*
X022653Y006760D01*
X022650Y006759D01*
X022646Y006760D01*
X021189Y008281D02*
X021189Y008965D01*
X021988Y008965D01*
D73*
X028090Y009049D03*
D74*
X014007Y013330D02*
X013960Y013376D01*
X013960Y013470D01*
X014007Y013517D01*
X014100Y013517D02*
X014100Y013423D01*
X014100Y013517D02*
X014194Y013517D01*
X014240Y013470D01*
X014240Y013376D01*
X014194Y013330D01*
X014007Y013330D01*
X013960Y013624D02*
X014240Y013811D01*
X013960Y013811D01*
X013960Y013919D02*
X013960Y014059D01*
X014007Y014106D01*
X014194Y014106D01*
X014240Y014059D01*
X014240Y013919D01*
X013960Y013919D01*
X013960Y013624D02*
X014240Y013624D01*
X014194Y014214D02*
X014007Y014401D01*
X014194Y014401D01*
X014240Y014354D01*
X014240Y014260D01*
X014194Y014214D01*
X014007Y014214D01*
X013960Y014260D01*
X013960Y014354D01*
X014007Y014401D01*
X015226Y013164D02*
X015413Y013164D01*
X015506Y013071D01*
X015413Y012977D01*
X015226Y012977D01*
X015273Y012869D02*
X015319Y012869D01*
X015366Y012823D01*
X015413Y012869D01*
X015460Y012869D01*
X015506Y012823D01*
X015506Y012729D01*
X015460Y012683D01*
X015460Y012582D02*
X015506Y012582D01*
X015506Y012535D01*
X015460Y012535D01*
X015460Y012582D01*
X015460Y012427D02*
X015506Y012381D01*
X015506Y012287D01*
X015460Y012241D01*
X015366Y012334D02*
X015366Y012381D01*
X015413Y012427D01*
X015460Y012427D01*
X015366Y012381D02*
X015319Y012427D01*
X015273Y012427D01*
X015226Y012381D01*
X015226Y012287D01*
X015273Y012241D01*
X015273Y012683D02*
X015226Y012729D01*
X015226Y012823D01*
X015273Y012869D01*
X015366Y012823D02*
X015366Y012776D01*
X016401Y012694D02*
X016588Y012694D01*
X016681Y012601D01*
X016588Y012508D01*
X016401Y012508D01*
X016401Y012400D02*
X016401Y012213D01*
X016541Y012213D01*
X016494Y012306D01*
X016494Y012353D01*
X016541Y012400D01*
X016634Y012400D01*
X016681Y012353D01*
X016681Y012260D01*
X016634Y012213D01*
X017166Y013463D02*
X017259Y013463D01*
X017213Y013463D02*
X017213Y013743D01*
X017259Y013743D02*
X017166Y013743D01*
X017362Y013696D02*
X017362Y013510D01*
X017409Y013463D01*
X017502Y013463D01*
X017549Y013510D01*
X017657Y013463D02*
X017844Y013650D01*
X017844Y013696D01*
X017797Y013743D01*
X017704Y013743D01*
X017657Y013696D01*
X017549Y013696D02*
X017502Y013743D01*
X017409Y013743D01*
X017362Y013696D01*
X017657Y013463D02*
X017844Y013463D01*
X015192Y011304D02*
X015145Y011351D01*
X015051Y011351D01*
X015005Y011304D01*
X014897Y011304D02*
X014897Y011211D01*
X014850Y011164D01*
X014710Y011164D01*
X014804Y011164D02*
X014897Y011070D01*
X015005Y011070D02*
X015192Y011257D01*
X015192Y011304D01*
X015192Y011070D02*
X015005Y011070D01*
X014897Y011304D02*
X014850Y011351D01*
X014710Y011351D01*
X014710Y011070D01*
X018517Y009810D02*
X018517Y009717D01*
X018564Y009670D01*
X018564Y009562D02*
X018517Y009515D01*
X018517Y009422D01*
X018564Y009375D01*
X018750Y009375D01*
X018797Y009422D01*
X018797Y009515D01*
X018750Y009562D01*
X018797Y009670D02*
X018610Y009857D01*
X018564Y009857D01*
X018517Y009810D01*
X018797Y009857D02*
X018797Y009670D01*
X019107Y009763D02*
X019388Y009763D01*
X019388Y009670D02*
X019388Y009857D01*
X019201Y009670D02*
X019107Y009763D01*
X019154Y009562D02*
X019107Y009515D01*
X019107Y009422D01*
X019154Y009375D01*
X019341Y009375D01*
X019388Y009422D01*
X019388Y009515D01*
X019341Y009562D01*
X020851Y009373D02*
X020851Y009140D01*
X020898Y009093D01*
X020991Y009093D01*
X021038Y009140D01*
X021038Y009373D01*
X021146Y009326D02*
X021146Y009280D01*
X021192Y009233D01*
X021286Y009233D01*
X021332Y009186D01*
X021332Y009140D01*
X021286Y009093D01*
X021192Y009093D01*
X021146Y009140D01*
X021146Y009326D02*
X021192Y009373D01*
X021286Y009373D01*
X021332Y009326D01*
X021440Y009373D02*
X021580Y009373D01*
X021627Y009326D01*
X021627Y009280D01*
X021580Y009233D01*
X021440Y009233D01*
X021440Y009093D02*
X021440Y009373D01*
X021580Y009233D02*
X021627Y009186D01*
X021627Y009140D01*
X021580Y009093D01*
X021440Y009093D01*
X021735Y009093D02*
X021922Y009093D01*
X021828Y009093D02*
X021828Y009373D01*
X021735Y009280D01*
X022107Y010065D02*
X022294Y010065D01*
X022340Y010111D01*
X022340Y010205D01*
X022294Y010252D01*
X022340Y010359D02*
X022340Y010546D01*
X022340Y010453D02*
X022060Y010453D01*
X022154Y010359D01*
X022107Y010252D02*
X022060Y010205D01*
X022060Y010111D01*
X022107Y010065D01*
X022651Y010111D02*
X022697Y010065D01*
X022884Y010065D01*
X022931Y010111D01*
X022931Y010205D01*
X022884Y010252D01*
X022931Y010359D02*
X022931Y010546D01*
X022931Y010453D02*
X022651Y010453D01*
X022744Y010359D01*
X022697Y010252D02*
X022651Y010205D01*
X022651Y010111D01*
X022744Y010654D02*
X022651Y010748D01*
X022931Y010748D01*
X022931Y010841D02*
X022931Y010654D01*
X022340Y010701D02*
X022294Y010654D01*
X022107Y010841D01*
X022294Y010841D01*
X022340Y010794D01*
X022340Y010701D01*
X022294Y010654D02*
X022107Y010654D01*
X022060Y010701D01*
X022060Y010794D01*
X022107Y010841D01*
X021806Y012370D02*
X021619Y012370D01*
X021806Y012557D01*
X021806Y012603D01*
X021759Y012650D01*
X021666Y012650D01*
X021619Y012603D01*
X021511Y012603D02*
X021464Y012650D01*
X021371Y012650D01*
X021324Y012603D01*
X021216Y012603D02*
X021216Y012510D01*
X021170Y012463D01*
X021030Y012463D01*
X021123Y012463D02*
X021216Y012370D01*
X021324Y012370D02*
X021511Y012557D01*
X021511Y012603D01*
X021511Y012370D02*
X021324Y012370D01*
X021216Y012603D02*
X021170Y012650D01*
X021030Y012650D01*
X021030Y012370D01*
X023119Y013075D02*
X023119Y013215D01*
X023166Y013262D01*
X023352Y013262D01*
X023399Y013215D01*
X023399Y013075D01*
X023119Y013075D01*
X023212Y013369D02*
X023119Y013463D01*
X023399Y013463D01*
X023399Y013556D02*
X023399Y013369D01*
X024174Y014142D02*
X024267Y014142D01*
X024221Y014142D02*
X024221Y014422D01*
X024267Y014422D02*
X024174Y014422D01*
X024370Y014376D02*
X024370Y014189D01*
X024417Y014142D01*
X024510Y014142D01*
X024557Y014189D01*
X024665Y014282D02*
X024852Y014282D01*
X024805Y014142D02*
X024805Y014422D01*
X024665Y014282D01*
X024557Y014376D02*
X024510Y014422D01*
X024417Y014422D01*
X024370Y014376D01*
X023627Y014861D02*
X023627Y014907D01*
X023814Y015094D01*
X023814Y015141D01*
X023627Y015141D01*
X023519Y015094D02*
X023472Y015141D01*
X023379Y015141D01*
X023332Y015094D01*
X023332Y014907D01*
X023379Y014861D01*
X023472Y014861D01*
X023519Y014907D01*
X023292Y016452D02*
X023105Y016452D01*
X023199Y016452D02*
X023199Y016732D01*
X023105Y016639D01*
X022997Y016452D02*
X022811Y016452D01*
X022904Y016452D02*
X022904Y016732D01*
X022811Y016639D01*
X022703Y016685D02*
X022703Y016592D01*
X022656Y016545D01*
X022516Y016545D01*
X022609Y016545D02*
X022703Y016452D01*
X022516Y016452D02*
X022516Y016732D01*
X022656Y016732D01*
X022703Y016685D01*
X022713Y017089D02*
X022619Y017183D01*
X022666Y017183D02*
X022526Y017183D01*
X022526Y017089D02*
X022526Y017369D01*
X022666Y017369D01*
X022713Y017323D01*
X022713Y017229D01*
X022666Y017183D01*
X022821Y017276D02*
X022914Y017369D01*
X022914Y017089D01*
X022821Y017089D02*
X023007Y017089D01*
X021987Y017991D02*
X021987Y018037D01*
X021940Y018084D01*
X021800Y018084D01*
X021800Y017991D01*
X021847Y017944D01*
X021940Y017944D01*
X021987Y017991D01*
X021800Y018084D02*
X021893Y018178D01*
X021987Y018224D01*
X021692Y018178D02*
X021692Y018131D01*
X021505Y017944D01*
X021692Y017944D01*
X021692Y018178D02*
X021645Y018224D01*
X021552Y018224D01*
X021505Y018178D01*
X021397Y018178D02*
X021397Y018084D01*
X021351Y018037D01*
X021211Y018037D01*
X021211Y017944D02*
X021211Y018224D01*
X021351Y018224D01*
X021397Y018178D01*
X021304Y018037D02*
X021397Y017944D01*
X021397Y018894D02*
X021304Y018987D01*
X021351Y018987D02*
X021211Y018987D01*
X021211Y018894D02*
X021211Y019174D01*
X021351Y019174D01*
X021397Y019128D01*
X021397Y019034D01*
X021351Y018987D01*
X021505Y018894D02*
X021692Y019081D01*
X021692Y019128D01*
X021645Y019174D01*
X021552Y019174D01*
X021505Y019128D01*
X021505Y018894D02*
X021692Y018894D01*
X021800Y018894D02*
X021800Y018941D01*
X021987Y019128D01*
X021987Y019174D01*
X021800Y019174D01*
X025707Y017219D02*
X025707Y017126D01*
X025754Y017079D01*
X025801Y017079D01*
X025847Y017126D01*
X025847Y017266D01*
X025754Y017266D02*
X025941Y017266D01*
X025987Y017219D01*
X025987Y017126D01*
X025941Y017079D01*
X025941Y016971D02*
X025987Y016924D01*
X025987Y016831D01*
X025941Y016784D01*
X025754Y016784D01*
X025707Y016831D01*
X025707Y016924D01*
X025754Y016971D01*
X025707Y017219D02*
X025754Y017266D01*
X027275Y015723D02*
X027322Y015723D01*
X027368Y015676D01*
X027415Y015723D01*
X027462Y015723D01*
X027509Y015676D01*
X027509Y015583D01*
X027462Y015536D01*
X027509Y015428D02*
X027509Y015241D01*
X027322Y015428D01*
X027275Y015428D01*
X027228Y015381D01*
X027228Y015288D01*
X027275Y015241D01*
X027275Y015134D02*
X027368Y015134D01*
X027415Y015087D01*
X027415Y014947D01*
X027415Y015040D02*
X027509Y015134D01*
X027509Y014947D02*
X027228Y014947D01*
X027228Y015087D01*
X027275Y015134D01*
X027275Y015536D02*
X027228Y015583D01*
X027228Y015676D01*
X027275Y015723D01*
X027368Y015676D02*
X027368Y015629D01*
X027987Y016550D02*
X027987Y016690D01*
X028034Y016737D01*
X028127Y016737D01*
X028174Y016690D01*
X028174Y016550D01*
X028267Y016550D02*
X027987Y016550D01*
X028174Y016644D02*
X028267Y016737D01*
X028267Y016845D02*
X028267Y017032D01*
X028267Y016938D02*
X027987Y016938D01*
X028080Y016845D01*
X028080Y017140D02*
X028127Y017186D01*
X028127Y017326D01*
X028034Y017326D02*
X027987Y017280D01*
X027987Y017186D01*
X028034Y017140D01*
X028080Y017140D01*
X028220Y017140D02*
X028267Y017186D01*
X028267Y017280D01*
X028220Y017326D01*
X028034Y017326D01*
X027908Y019918D02*
X027908Y019965D01*
X028094Y020152D01*
X028094Y020198D01*
X027908Y020198D01*
X027706Y020198D02*
X027706Y019918D01*
X027613Y019918D02*
X027800Y019918D01*
X027613Y020105D02*
X027706Y020198D01*
X027505Y020152D02*
X027505Y020058D01*
X027458Y020012D01*
X027318Y020012D01*
X027412Y020012D02*
X027505Y019918D01*
X027318Y019918D02*
X027318Y020198D01*
X027458Y020198D01*
X027505Y020152D01*
X026671Y022199D02*
X026391Y022199D01*
X026391Y022339D01*
X026437Y022386D01*
X026531Y022386D01*
X026578Y022339D01*
X026578Y022199D01*
X026578Y022293D02*
X026671Y022386D01*
X026671Y022494D02*
X026671Y022681D01*
X026671Y022587D02*
X026391Y022587D01*
X026484Y022494D01*
X026531Y022788D02*
X026531Y022929D01*
X026578Y022975D01*
X026624Y022975D01*
X026671Y022929D01*
X026671Y022835D01*
X026624Y022788D01*
X026531Y022788D01*
X026437Y022882D01*
X026391Y022975D01*
X027484Y022535D02*
X027484Y022348D01*
X027531Y022302D01*
X027624Y022302D01*
X027671Y022348D01*
X027779Y022348D02*
X027825Y022302D01*
X027919Y022302D01*
X027966Y022348D01*
X027966Y022442D01*
X027919Y022489D01*
X027872Y022489D01*
X027779Y022442D01*
X027779Y022582D01*
X027966Y022582D01*
X027671Y022535D02*
X027624Y022582D01*
X027531Y022582D01*
X027484Y022535D01*
X029371Y020958D02*
X029464Y020958D01*
X029417Y020958D02*
X029417Y020677D01*
X029371Y020677D02*
X029464Y020677D01*
X029567Y020724D02*
X029614Y020677D01*
X029707Y020677D01*
X029754Y020724D01*
X029862Y020724D02*
X029908Y020677D01*
X030002Y020677D01*
X030049Y020724D01*
X030049Y020771D01*
X030002Y020818D01*
X029955Y020818D01*
X030002Y020818D02*
X030049Y020864D01*
X030049Y020911D01*
X030002Y020958D01*
X029908Y020958D01*
X029862Y020911D01*
X029754Y020911D02*
X029707Y020958D01*
X029614Y020958D01*
X029567Y020911D01*
X029567Y020724D01*
X027569Y011628D02*
X027523Y011628D01*
X027476Y011582D01*
X027476Y011488D01*
X027429Y011441D01*
X027382Y011441D01*
X027336Y011488D01*
X027336Y011582D01*
X027382Y011628D01*
X027429Y011628D01*
X027476Y011582D01*
X027476Y011488D02*
X027523Y011441D01*
X027569Y011441D01*
X027616Y011488D01*
X027616Y011582D01*
X027569Y011628D01*
X027569Y011334D02*
X027616Y011287D01*
X027616Y011194D01*
X027569Y011147D01*
X027382Y011147D01*
X027336Y011194D01*
X027336Y011287D01*
X027382Y011334D01*
X028152Y010988D02*
X028152Y010708D01*
X028339Y010708D01*
X028447Y010708D02*
X028634Y010708D01*
X028540Y010708D02*
X028540Y010988D01*
X028447Y010895D01*
X027942Y010361D02*
X027942Y010268D01*
X027895Y010221D01*
X027942Y010113D02*
X027942Y009926D01*
X027942Y010020D02*
X027661Y010020D01*
X027755Y009926D01*
X027801Y009819D02*
X027848Y009772D01*
X027848Y009632D01*
X027848Y009725D02*
X027942Y009819D01*
X027801Y009819D02*
X027708Y009819D01*
X027661Y009772D01*
X027661Y009632D01*
X027942Y009632D01*
X027383Y009657D02*
X027337Y009610D01*
X027243Y009610D01*
X027197Y009657D01*
X027383Y009844D01*
X027383Y009657D01*
X027197Y009657D02*
X027197Y009844D01*
X027243Y009890D01*
X027337Y009890D01*
X027383Y009844D01*
X027089Y009844D02*
X027042Y009890D01*
X026949Y009890D01*
X026902Y009844D01*
X026794Y009844D02*
X026794Y009750D01*
X026747Y009704D01*
X026607Y009704D01*
X026701Y009704D02*
X026794Y009610D01*
X026902Y009610D02*
X027089Y009797D01*
X027089Y009844D01*
X027089Y009610D02*
X026902Y009610D01*
X026794Y009844D02*
X026747Y009890D01*
X026607Y009890D01*
X026607Y009610D01*
X026045Y009610D02*
X025858Y009610D01*
X025951Y009610D02*
X025951Y009890D01*
X025858Y009797D01*
X025750Y009797D02*
X025750Y009844D01*
X025703Y009890D01*
X025610Y009890D01*
X025563Y009844D01*
X025456Y009844D02*
X025456Y009750D01*
X025409Y009704D01*
X025269Y009704D01*
X025362Y009704D02*
X025456Y009610D01*
X025563Y009610D02*
X025750Y009797D01*
X025750Y009610D02*
X025563Y009610D01*
X025456Y009844D02*
X025409Y009890D01*
X025269Y009890D01*
X025269Y009610D01*
X025413Y008839D02*
X025413Y008558D01*
X025599Y008558D01*
X025707Y008558D02*
X025894Y008558D01*
X026002Y008558D02*
X026142Y008558D01*
X026189Y008605D01*
X026189Y008792D01*
X026142Y008839D01*
X026002Y008839D01*
X026002Y008558D01*
X025801Y008698D02*
X025707Y008698D01*
X025707Y008558D02*
X025707Y008839D01*
X025894Y008839D01*
X026296Y008745D02*
X026390Y008839D01*
X026390Y008558D01*
X026483Y008558D02*
X026296Y008558D01*
X027708Y010221D02*
X027661Y010268D01*
X027661Y010361D01*
X027708Y010408D01*
X027755Y010408D01*
X027801Y010361D01*
X027848Y010408D01*
X027895Y010408D01*
X027942Y010361D01*
X027801Y010361D02*
X027801Y010314D01*
X024601Y011235D02*
X024554Y011189D01*
X024461Y011189D01*
X024414Y011235D01*
X024414Y011329D02*
X024508Y011375D01*
X024554Y011375D01*
X024601Y011329D01*
X024601Y011235D01*
X024414Y011329D02*
X024414Y011469D01*
X024601Y011469D01*
X024306Y011422D02*
X024260Y011469D01*
X024166Y011469D01*
X024120Y011422D01*
X024012Y011422D02*
X024012Y011329D01*
X023965Y011282D01*
X023825Y011282D01*
X023918Y011282D02*
X024012Y011189D01*
X024120Y011189D02*
X024306Y011375D01*
X024306Y011422D01*
X024306Y011189D02*
X024120Y011189D01*
X024012Y011422D02*
X023965Y011469D01*
X023825Y011469D01*
X023825Y011189D01*
X014895Y027516D02*
X014708Y027516D01*
X014802Y027516D02*
X014802Y027796D01*
X014708Y027703D01*
X014600Y027750D02*
X014554Y027796D01*
X014460Y027796D01*
X014414Y027750D01*
X014414Y027563D01*
X014460Y027516D01*
X014554Y027516D01*
X014600Y027563D01*
X014311Y027516D02*
X014217Y027516D01*
X014264Y027516D02*
X014264Y027796D01*
X014217Y027796D02*
X014311Y027796D01*
X018270Y031636D02*
X018270Y031916D01*
X018410Y031916D01*
X018457Y031869D01*
X018457Y031776D01*
X018410Y031729D01*
X018270Y031729D01*
X018364Y031729D02*
X018457Y031636D01*
X018565Y031636D02*
X018565Y031682D01*
X018752Y031869D01*
X018752Y031916D01*
X018565Y031916D01*
X018618Y032479D02*
X018712Y032479D01*
X018758Y032525D01*
X018866Y032525D02*
X018913Y032479D01*
X019006Y032479D01*
X019053Y032525D01*
X019053Y032572D01*
X019006Y032619D01*
X018960Y032619D01*
X019006Y032619D02*
X019053Y032665D01*
X019053Y032712D01*
X019006Y032759D01*
X018913Y032759D01*
X018866Y032712D01*
X018758Y032712D02*
X018712Y032759D01*
X018618Y032759D01*
X018571Y032712D01*
X018571Y032525D01*
X018618Y032479D01*
X019129Y031419D02*
X019269Y031419D01*
X019316Y031372D01*
X019316Y031279D01*
X019269Y031232D01*
X019129Y031232D01*
X019129Y031139D02*
X019129Y031419D01*
X019223Y031232D02*
X019316Y031139D01*
X019424Y031139D02*
X019611Y031139D01*
X019517Y031139D02*
X019517Y031419D01*
X019424Y031325D01*
X019719Y031325D02*
X019719Y031372D01*
X019765Y031419D01*
X019859Y031419D01*
X019905Y031372D01*
X019905Y031325D01*
X019859Y031279D01*
X019765Y031279D01*
X019719Y031325D01*
X019765Y031279D02*
X019719Y031232D01*
X019719Y031185D01*
X019765Y031139D01*
X019859Y031139D01*
X019905Y031185D01*
X019905Y031232D01*
X019859Y031279D01*
X021407Y032146D02*
X021407Y032333D01*
X021454Y032380D01*
X021547Y032380D01*
X021594Y032333D01*
X021702Y032240D02*
X021795Y032333D01*
X021889Y032380D01*
X021842Y032240D02*
X021702Y032240D01*
X021702Y032146D01*
X021749Y032100D01*
X021842Y032100D01*
X021889Y032146D01*
X021889Y032193D01*
X021842Y032240D01*
X021594Y032146D02*
X021547Y032100D01*
X021454Y032100D01*
X021407Y032146D01*
X025210Y035181D02*
X025210Y035321D01*
X025256Y035367D01*
X025350Y035367D01*
X025396Y035321D01*
X025396Y035181D01*
X025396Y035274D02*
X025490Y035367D01*
X025443Y035475D02*
X025396Y035475D01*
X025350Y035522D01*
X025350Y035615D01*
X025396Y035662D01*
X025443Y035662D01*
X025490Y035615D01*
X025490Y035522D01*
X025443Y035475D01*
X025350Y035522D02*
X025303Y035475D01*
X025256Y035475D01*
X025210Y035522D01*
X025210Y035615D01*
X025256Y035662D01*
X025303Y035662D01*
X025350Y035615D01*
X025490Y035181D02*
X025210Y035181D01*
X025514Y034610D02*
X025467Y034563D01*
X025467Y034470D01*
X025514Y034423D01*
X025514Y034610D02*
X025561Y034610D01*
X025748Y034423D01*
X025748Y034610D01*
X025748Y034315D02*
X025748Y034128D01*
X025748Y034222D02*
X025467Y034222D01*
X025561Y034128D01*
X025607Y034021D02*
X025654Y033974D01*
X025654Y033834D01*
X025654Y033927D02*
X025748Y034021D01*
X025607Y034021D02*
X025514Y034021D01*
X025467Y033974D01*
X025467Y033834D01*
X025748Y033834D01*
X026657Y034739D02*
X026657Y035019D01*
X026797Y035019D01*
X026844Y034972D01*
X026844Y034879D01*
X026797Y034832D01*
X026657Y034832D01*
X026751Y034832D02*
X026844Y034739D01*
X026952Y034739D02*
X027139Y034739D01*
X027045Y034739D02*
X027045Y035019D01*
X026952Y034926D01*
X027247Y034879D02*
X027247Y035019D01*
X027433Y035019D01*
X027387Y034926D02*
X027433Y034879D01*
X027433Y034786D01*
X027387Y034739D01*
X027293Y034739D01*
X027247Y034786D01*
X027247Y034879D02*
X027340Y034926D01*
X027387Y034926D01*
X027948Y034366D02*
X028088Y034226D01*
X028088Y034413D01*
X028228Y034366D02*
X027948Y034366D01*
X027948Y034025D02*
X028228Y034025D01*
X028228Y034118D02*
X028228Y033931D01*
X028228Y033824D02*
X028134Y033730D01*
X028134Y033777D02*
X028134Y033637D01*
X028228Y033637D02*
X027948Y033637D01*
X027948Y033777D01*
X027994Y033824D01*
X028088Y033824D01*
X028134Y033777D01*
X028041Y033931D02*
X027948Y034025D01*
X014787Y032829D02*
X014787Y032642D01*
X014741Y032595D01*
X014647Y032595D01*
X014600Y032642D01*
X014787Y032829D01*
X014741Y032876D01*
X014647Y032876D01*
X014600Y032829D01*
X014600Y032642D01*
X014493Y032595D02*
X014306Y032595D01*
X014399Y032595D02*
X014399Y032876D01*
X014306Y032782D01*
X014198Y032735D02*
X014151Y032689D01*
X014011Y032689D01*
X014105Y032689D02*
X014198Y032595D01*
X014198Y032735D02*
X014198Y032829D01*
X014151Y032876D01*
X014011Y032876D01*
X014011Y032595D01*
X014019Y033637D02*
X014019Y033917D01*
X014160Y033917D01*
X014206Y033870D01*
X014206Y033777D01*
X014160Y033730D01*
X014019Y033730D01*
X014113Y033730D02*
X014206Y033637D01*
X014314Y033683D02*
X014361Y033637D01*
X014454Y033637D01*
X014501Y033683D01*
X014501Y033870D01*
X014454Y033917D01*
X014361Y033917D01*
X014314Y033870D01*
X014314Y033823D01*
X014361Y033777D01*
X014501Y033777D01*
D75*
X014614Y033531D02*
X014378Y033531D01*
X014378Y033059D02*
X014614Y033059D01*
X014614Y032508D02*
X014378Y032508D01*
X014378Y032035D02*
X014614Y032035D01*
X017566Y032003D02*
X017802Y032003D01*
X017802Y031530D02*
X017566Y031530D01*
X020481Y031524D02*
X020717Y031524D01*
X020717Y031051D02*
X020481Y031051D01*
X025599Y035500D02*
X025599Y035736D01*
X026071Y035736D02*
X026071Y035500D01*
X025874Y034240D02*
X025874Y034004D01*
X026347Y034004D02*
X026347Y034240D01*
X026701Y034240D02*
X026701Y034004D01*
X027173Y034004D02*
X027173Y034240D01*
X027410Y034240D02*
X027410Y034004D01*
X027882Y034004D02*
X027882Y034240D01*
X027882Y022193D02*
X027646Y022193D01*
X027646Y021720D02*
X027882Y021720D01*
X028763Y021643D02*
X028763Y020223D01*
X027922Y020303D02*
X027685Y020303D01*
X027685Y020776D02*
X027922Y020776D01*
X026780Y021484D02*
X026780Y021720D01*
X026307Y021720D02*
X026307Y021484D01*
X022673Y019265D02*
X022436Y019265D01*
X022436Y018793D02*
X022673Y018793D01*
X022673Y018325D02*
X022436Y018325D01*
X022436Y017853D02*
X022673Y017853D01*
X021940Y017457D02*
X021703Y017457D01*
X021703Y016984D02*
X021940Y016984D01*
X021930Y016819D02*
X021693Y016819D01*
X021693Y016347D02*
X021930Y016347D01*
X024944Y013769D02*
X024944Y012349D01*
X026804Y012349D02*
X026804Y013769D01*
X027331Y016996D02*
X027331Y017232D01*
X027803Y017232D02*
X027803Y016996D01*
X030623Y020223D02*
X030623Y021643D01*
D76*
X028586Y020133D02*
X028588Y020148D01*
X028594Y020161D01*
X028603Y020173D01*
X028614Y020182D01*
X028628Y020188D01*
X028643Y020190D01*
X028658Y020188D01*
X028671Y020182D01*
X028683Y020173D01*
X028692Y020162D01*
X028698Y020148D01*
X028700Y020133D01*
X028698Y020118D01*
X028692Y020105D01*
X028683Y020093D01*
X028672Y020084D01*
X028658Y020078D01*
X028643Y020076D01*
X028628Y020078D01*
X028615Y020084D01*
X028603Y020093D01*
X028594Y020104D01*
X028588Y020118D01*
X028586Y020133D01*
X024673Y013610D02*
X024496Y013610D01*
X024673Y013610D02*
X024673Y011799D01*
X024496Y011799D01*
X023709Y011799D02*
X023532Y011799D01*
X023532Y013610D01*
X023709Y013610D01*
X023709Y012311D02*
X024496Y012311D01*
X025107Y012669D02*
X025109Y012684D01*
X025115Y012697D01*
X025124Y012709D01*
X025135Y012718D01*
X025149Y012724D01*
X025164Y012726D01*
X025179Y012724D01*
X025192Y012718D01*
X025204Y012709D01*
X025213Y012698D01*
X025219Y012684D01*
X025221Y012669D01*
X025219Y012654D01*
X025213Y012641D01*
X025204Y012629D01*
X025193Y012620D01*
X025179Y012614D01*
X025164Y012612D01*
X025149Y012614D01*
X025136Y012620D01*
X025124Y012629D01*
X025115Y012640D01*
X025109Y012654D01*
X025107Y012669D01*
X019654Y013138D02*
X019654Y013335D01*
X019457Y013335D01*
X019654Y011642D02*
X019654Y011445D01*
X019418Y011445D01*
X017961Y011445D02*
X017764Y011445D01*
X017764Y011642D01*
X026780Y035421D02*
X027095Y035421D01*
X026780Y035421D02*
X026780Y035657D01*
X026780Y036287D02*
X026780Y036524D01*
X027095Y036524D01*
D77*
X026445Y008453D03*
X026445Y007980D03*
D78*
X026445Y008217D03*
D79*
X024271Y036422D02*
X024077Y036422D01*
X024029Y036470D01*
X024029Y036567D01*
X024077Y036615D01*
X024174Y036716D02*
X024029Y036862D01*
X024319Y036862D01*
X024174Y036910D02*
X024174Y036716D01*
X024271Y036615D02*
X024319Y036567D01*
X024319Y036470D01*
X024271Y036422D01*
D80*
X027010Y039113D02*
X027247Y038875D01*
X027594Y039158D01*
X027662Y039119D01*
X027733Y039086D01*
X027931Y039563D01*
X027866Y039597D01*
X027809Y039640D01*
X027759Y039693D01*
X027719Y039753D01*
X027689Y039819D01*
X027671Y039889D01*
X027665Y039961D01*
X027672Y040042D01*
X027695Y040119D01*
X027731Y040191D01*
X027781Y040255D01*
X027841Y040309D01*
X027911Y040350D01*
X027986Y040378D01*
X028066Y040391D01*
X028147Y040389D01*
X028226Y040372D01*
X028300Y040340D01*
X028367Y040295D01*
X028425Y040239D01*
X028471Y040172D01*
X028504Y040099D01*
X028522Y040020D01*
X028526Y039939D01*
X028514Y039859D01*
X028488Y039783D01*
X028447Y039713D01*
X028395Y039652D01*
X028332Y039601D01*
X028260Y039563D01*
X028458Y039086D01*
X028529Y039119D01*
X028598Y039158D01*
X028944Y038875D01*
X029181Y039113D01*
X028899Y039459D01*
X028949Y039551D01*
X028989Y039648D01*
X029019Y039748D01*
X029463Y039793D01*
X029463Y040129D01*
X029019Y040174D01*
X028989Y040275D01*
X028388Y040275D01*
X028440Y040218D02*
X029006Y040218D01*
X028989Y040275D02*
X028949Y040372D01*
X028899Y040463D01*
X029181Y040810D01*
X028944Y041047D01*
X028598Y040765D01*
X028506Y040815D01*
X028409Y040855D01*
X028309Y040884D01*
X028263Y041329D01*
X027928Y041329D01*
X027882Y040884D01*
X027782Y040855D01*
X027685Y040815D01*
X027594Y040765D01*
X027247Y041047D01*
X027010Y040810D01*
X027292Y040463D01*
X027242Y040372D01*
X027202Y040275D01*
X027803Y040275D01*
X027752Y040218D02*
X027185Y040218D01*
X027172Y040174D02*
X026728Y040129D01*
X026728Y039793D01*
X027172Y039748D01*
X027202Y039648D01*
X027242Y039551D01*
X027292Y039459D01*
X027010Y039113D01*
X027019Y039124D02*
X027552Y039124D01*
X027481Y039066D02*
X027056Y039066D01*
X027114Y039009D02*
X027411Y039009D01*
X027340Y038951D02*
X027171Y038951D01*
X027229Y038894D02*
X027270Y038894D01*
X027066Y039182D02*
X027773Y039182D01*
X027796Y039239D02*
X027113Y039239D01*
X027160Y039297D02*
X027820Y039297D01*
X027844Y039354D02*
X027206Y039354D01*
X027253Y039412D02*
X027868Y039412D01*
X027892Y039469D02*
X027287Y039469D01*
X027255Y039527D02*
X027916Y039527D01*
X027890Y039584D02*
X027228Y039584D01*
X027204Y039642D02*
X027807Y039642D01*
X027754Y039700D02*
X027187Y039700D01*
X027085Y039757D02*
X027717Y039757D01*
X027691Y039815D02*
X026728Y039815D01*
X026728Y039872D02*
X027675Y039872D01*
X027668Y039930D02*
X026728Y039930D01*
X026728Y039987D02*
X027667Y039987D01*
X027673Y040045D02*
X026728Y040045D01*
X026728Y040102D02*
X027690Y040102D01*
X027716Y040160D02*
X027031Y040160D01*
X027172Y040174D02*
X027202Y040275D01*
X027226Y040333D02*
X027881Y040333D01*
X028062Y040390D02*
X027252Y040390D01*
X027284Y040448D02*
X028908Y040448D01*
X028933Y040505D02*
X027258Y040505D01*
X027211Y040563D02*
X028980Y040563D01*
X029027Y040620D02*
X027164Y040620D01*
X027117Y040678D02*
X029074Y040678D01*
X029121Y040736D02*
X027070Y040736D01*
X027023Y040793D02*
X027559Y040793D01*
X027645Y040793D02*
X028546Y040793D01*
X028632Y040793D02*
X029168Y040793D01*
X029140Y040851D02*
X028703Y040851D01*
X028774Y040908D02*
X029083Y040908D01*
X029025Y040966D02*
X028844Y040966D01*
X028915Y041023D02*
X028968Y041023D01*
X028420Y040851D02*
X027771Y040851D01*
X027885Y040908D02*
X028306Y040908D01*
X028300Y040966D02*
X027891Y040966D01*
X027897Y041023D02*
X028295Y041023D01*
X028289Y041081D02*
X027902Y041081D01*
X027908Y041138D02*
X028283Y041138D01*
X028277Y041196D02*
X027914Y041196D01*
X027920Y041254D02*
X028271Y041254D01*
X028265Y041311D02*
X027926Y041311D01*
X027488Y040851D02*
X027051Y040851D01*
X027108Y040908D02*
X027418Y040908D01*
X027347Y040966D02*
X027166Y040966D01*
X027223Y041023D02*
X027276Y041023D01*
X028094Y040390D02*
X028939Y040390D01*
X028966Y040333D02*
X028311Y040333D01*
X028476Y040160D02*
X029160Y040160D01*
X029463Y040102D02*
X028502Y040102D01*
X028516Y040045D02*
X029463Y040045D01*
X029463Y039987D02*
X028524Y039987D01*
X028524Y039930D02*
X029463Y039930D01*
X029463Y039872D02*
X028516Y039872D01*
X028498Y039815D02*
X029463Y039815D01*
X029106Y039757D02*
X028473Y039757D01*
X028436Y039700D02*
X029005Y039700D01*
X028987Y039642D02*
X028383Y039642D01*
X028300Y039584D02*
X028963Y039584D01*
X028936Y039527D02*
X028275Y039527D01*
X028299Y039469D02*
X028904Y039469D01*
X028938Y039412D02*
X028323Y039412D01*
X028347Y039354D02*
X028985Y039354D01*
X029032Y039297D02*
X028371Y039297D01*
X028395Y039239D02*
X029079Y039239D01*
X029125Y039182D02*
X028419Y039182D01*
X028442Y039124D02*
X028538Y039124D01*
X028639Y039124D02*
X029172Y039124D01*
X029135Y039066D02*
X028710Y039066D01*
X028780Y039009D02*
X029077Y039009D01*
X029020Y038951D02*
X028851Y038951D01*
X028921Y038894D02*
X028962Y038894D01*
X027749Y039124D02*
X027653Y039124D01*
D81*
X026350Y035900D02*
X026350Y035800D01*
X026350Y035753D02*
X026300Y035702D01*
X026350Y035677D02*
X026325Y035652D01*
X026225Y035652D01*
X026200Y035677D01*
X026200Y035728D01*
X026225Y035753D01*
X026325Y035753D01*
X026350Y035728D01*
X026350Y035677D01*
X026250Y035800D02*
X026200Y035850D01*
X026350Y035850D01*
M02*
