G75*
G70*
%OFA0B0*%
%FSLAX24Y24*%
%IPPOS*%
%LPD*%
%AMOC8*
5,1,8,0,0,1.08239X$1,22.5*
%
%ADD10R,0.0472X0.0787*%
%ADD11C,0.0055*%
%ADD12R,0.0250X0.1000*%
%ADD13R,0.0197X0.0709*%
%ADD14R,0.0160X0.0320*%
%ADD15R,0.0315X0.0472*%
%ADD16R,0.0157X0.0787*%
%ADD17R,0.0709X0.0748*%
%ADD18R,0.0394X0.0433*%
%ADD19R,0.0394X0.0118*%
%ADD20R,0.1063X0.1063*%
%ADD21R,0.0171X0.0171*%
%ADD22R,0.0118X0.0394*%
%ADD23R,0.1181X0.0394*%
%ADD24R,0.0472X0.0315*%
%ADD25R,0.0630X0.0512*%
%ADD26R,0.0472X0.0472*%
%ADD27R,0.0500X0.1000*%
%ADD28R,0.0240X0.0870*%
%ADD29R,0.0512X0.0630*%
%ADD30R,0.0240X0.0810*%
%ADD31R,0.0900X0.0900*%
%ADD32R,0.0579X0.0500*%
%ADD33R,0.1350X0.0720*%
%ADD34R,0.0433X0.0394*%
%ADD35C,0.0396*%
%ADD36C,0.0160*%
%ADD37C,0.0320*%
%ADD38C,0.0240*%
%ADD39C,0.0120*%
%ADD40C,0.1384*%
%ADD41C,0.2290*%
%ADD42C,0.0787*%
%ADD43C,0.0394*%
D10*
X022988Y025768D03*
X023776Y025768D03*
X024563Y025768D03*
X025351Y025768D03*
X026138Y025768D03*
X026925Y025768D03*
X027713Y025768D03*
X028500Y025768D03*
X028500Y032146D03*
X027713Y032146D03*
X026925Y032146D03*
X026138Y032146D03*
X025351Y032146D03*
X024563Y032146D03*
X023776Y032146D03*
X022988Y032146D03*
D11*
X020937Y020948D02*
X020937Y020726D01*
X020283Y020726D01*
X020283Y020948D01*
X020937Y020948D01*
X020937Y020780D02*
X020283Y020780D01*
X020283Y020834D02*
X020937Y020834D01*
X020937Y020888D02*
X020283Y020888D01*
X020283Y020942D02*
X020937Y020942D01*
X020937Y020448D02*
X020937Y020226D01*
X020283Y020226D01*
X020283Y020448D01*
X020937Y020448D01*
X020937Y020280D02*
X020283Y020280D01*
X020283Y020334D02*
X020937Y020334D01*
X020937Y020388D02*
X020283Y020388D01*
X020283Y020442D02*
X020937Y020442D01*
X020937Y019948D02*
X020937Y019726D01*
X020283Y019726D01*
X020283Y019948D01*
X020937Y019948D01*
X020937Y019780D02*
X020283Y019780D01*
X020283Y019834D02*
X020937Y019834D01*
X020937Y019888D02*
X020283Y019888D01*
X020283Y019942D02*
X020937Y019942D01*
X020937Y019448D02*
X020937Y019226D01*
X020283Y019226D01*
X020283Y019448D01*
X020937Y019448D01*
X020937Y019280D02*
X020283Y019280D01*
X020283Y019334D02*
X020937Y019334D01*
X020937Y019388D02*
X020283Y019388D01*
X020283Y019442D02*
X020937Y019442D01*
X020937Y018948D02*
X020937Y018726D01*
X020283Y018726D01*
X020283Y018948D01*
X020937Y018948D01*
X020937Y018780D02*
X020283Y018780D01*
X020283Y018834D02*
X020937Y018834D01*
X020937Y018888D02*
X020283Y018888D01*
X020283Y018942D02*
X020937Y018942D01*
X020937Y018448D02*
X020937Y018226D01*
X020283Y018226D01*
X020283Y018448D01*
X020937Y018448D01*
X020937Y018280D02*
X020283Y018280D01*
X020283Y018334D02*
X020937Y018334D01*
X020937Y018388D02*
X020283Y018388D01*
X020283Y018442D02*
X020937Y018442D01*
X020937Y017948D02*
X020937Y017726D01*
X020283Y017726D01*
X020283Y017948D01*
X020937Y017948D01*
X020937Y017780D02*
X020283Y017780D01*
X020283Y017834D02*
X020937Y017834D01*
X020937Y017888D02*
X020283Y017888D01*
X020283Y017942D02*
X020937Y017942D01*
X020937Y017448D02*
X020937Y017226D01*
X020283Y017226D01*
X020283Y017448D01*
X020937Y017448D01*
X020937Y017280D02*
X020283Y017280D01*
X020283Y017334D02*
X020937Y017334D01*
X020937Y017388D02*
X020283Y017388D01*
X020283Y017442D02*
X020937Y017442D01*
D12*
X018026Y025346D03*
X017526Y025346D03*
X017026Y025346D03*
X016526Y025346D03*
X016026Y025346D03*
X015526Y025346D03*
X015026Y025346D03*
X014526Y025346D03*
X014526Y029346D03*
X015026Y029346D03*
X015526Y029346D03*
X016026Y029346D03*
X016526Y029346D03*
X017026Y029346D03*
X017526Y029346D03*
X018026Y029346D03*
D13*
X019673Y025776D03*
X020264Y025776D03*
D14*
X020264Y025772D03*
X019673Y025744D03*
D15*
X018985Y024161D03*
X018276Y024161D03*
X018276Y023256D03*
X018985Y023256D03*
X021487Y021023D03*
X021487Y020355D03*
X021487Y019698D03*
X022196Y019698D03*
X022196Y020355D03*
X022196Y021023D03*
X022200Y019029D03*
X022909Y019029D03*
X022909Y018089D03*
X022200Y018089D03*
X022176Y017220D03*
X022166Y016583D03*
X021457Y016583D03*
X021467Y017220D03*
X027449Y020539D03*
X028158Y020539D03*
X028118Y021957D03*
X027410Y021957D03*
X020953Y031287D03*
X020244Y031287D03*
X016583Y031012D03*
X015874Y031012D03*
X015087Y031012D03*
X014378Y031012D03*
X026701Y034752D03*
X027410Y034752D03*
X027410Y035618D03*
X026701Y035618D03*
D16*
X023158Y009004D03*
X022902Y009004D03*
X022646Y009004D03*
X022390Y009004D03*
X022134Y009004D03*
D17*
X021071Y007843D03*
X024221Y007843D03*
D18*
X023925Y010224D03*
X023925Y010894D03*
X024595Y010894D03*
X024595Y010224D03*
X025303Y010224D03*
X025973Y010224D03*
X026642Y010224D03*
X027311Y010224D03*
X027626Y008846D03*
X026957Y008846D03*
X022803Y011228D03*
X022173Y011228D03*
X022173Y011898D03*
X022154Y012547D03*
X022823Y012547D03*
X022803Y011898D03*
X026071Y015205D03*
X026071Y015874D03*
X019496Y009929D03*
X019496Y009260D03*
X018197Y009260D03*
X018197Y009929D03*
D19*
X017725Y011799D03*
X017725Y011996D03*
X017725Y012193D03*
X017725Y012390D03*
X017725Y012587D03*
X017725Y012783D03*
X017725Y012980D03*
X019693Y012980D03*
X019693Y012783D03*
X019693Y012587D03*
X019693Y012390D03*
X019693Y012193D03*
X019693Y011996D03*
X019693Y011799D03*
D20*
X018709Y012390D03*
D21*
X017881Y013218D03*
D22*
X018118Y013374D03*
X018315Y013374D03*
X018512Y013374D03*
X018709Y013374D03*
X018906Y013374D03*
X019103Y013374D03*
X019299Y013374D03*
X019299Y011406D03*
X019103Y011406D03*
X018906Y011406D03*
X018709Y011406D03*
X018512Y011406D03*
X018315Y011406D03*
X018118Y011406D03*
D23*
X024418Y033606D03*
X024418Y034606D03*
X024418Y035606D03*
X024418Y036606D03*
D24*
X026937Y033689D03*
X026937Y032980D03*
X028433Y032980D03*
X028433Y033689D03*
X018788Y032547D03*
X018788Y031839D03*
X026544Y021957D03*
X026544Y021248D03*
X027567Y017469D03*
X027567Y016760D03*
D25*
X017528Y031760D03*
X017528Y032547D03*
X024418Y037587D03*
X024418Y038374D03*
D26*
X026091Y008217D03*
X026918Y008217D03*
D27*
X014890Y012390D03*
X016071Y012390D03*
D28*
X028943Y019903D03*
X029443Y019903D03*
X029943Y019903D03*
X030443Y019903D03*
X030443Y021963D03*
X029943Y021963D03*
X029443Y021963D03*
X028943Y021963D03*
D29*
X021071Y032272D03*
X020284Y032272D03*
D30*
X025124Y014119D03*
X025624Y014119D03*
X026124Y014119D03*
X026624Y014119D03*
X026624Y011999D03*
X026124Y011999D03*
X025624Y011999D03*
X025124Y011999D03*
D31*
X025874Y013059D03*
D32*
X024103Y013551D03*
X024103Y011858D03*
D33*
X028512Y011142D03*
X028512Y013322D03*
D34*
X026740Y015165D03*
X026740Y015835D03*
X025028Y014752D03*
X024359Y014752D03*
X027902Y010224D03*
X028571Y010224D03*
D35*
X028394Y009437D03*
X027331Y009437D03*
X026268Y009437D03*
X025441Y008217D03*
X025166Y009437D03*
X024024Y009437D03*
X024024Y008650D03*
X023118Y010185D03*
X022252Y009870D03*
X020717Y010933D03*
X019969Y011169D03*
X019585Y010769D03*
X018709Y012390D03*
X017635Y010769D03*
X017016Y010185D03*
X017410Y009870D03*
X017449Y008217D03*
X015914Y011130D03*
X016662Y012823D03*
X016307Y013217D03*
X017292Y014870D03*
X019339Y015776D03*
X018945Y016406D03*
X019733Y018531D03*
X019733Y019319D03*
X018985Y021051D03*
X018433Y021484D03*
X018433Y022429D03*
X019103Y022469D03*
X019890Y023256D03*
X019890Y023965D03*
X019299Y024161D03*
X018866Y024831D03*
X019654Y026760D03*
X019811Y027587D03*
X018591Y028059D03*
X017843Y027626D03*
X017922Y026878D03*
X017528Y026445D03*
X016229Y027232D03*
X014929Y027232D03*
X017488Y030657D03*
X017528Y031287D03*
X018866Y029201D03*
X019929Y029240D03*
X022495Y028279D03*
X022961Y027469D03*
X022095Y026760D03*
X022922Y024988D03*
X022922Y024516D03*
X024063Y024476D03*
X025796Y022547D03*
X026032Y021563D03*
X027410Y021366D03*
X028591Y021209D03*
X028551Y022193D03*
X026937Y025185D03*
X025796Y026720D03*
X026032Y027429D03*
X025953Y028059D03*
X024563Y030803D03*
X025351Y031012D03*
X026150Y031366D03*
X027843Y031169D03*
X025599Y033610D03*
X025599Y034791D03*
X027961Y035618D03*
X028315Y034516D03*
X023308Y030989D03*
X023005Y030139D03*
X022803Y033571D03*
X021071Y033531D03*
X019103Y033571D03*
X019181Y034752D03*
X019260Y036012D03*
X021032Y036012D03*
X022803Y036012D03*
X017449Y035972D03*
X017410Y034752D03*
X015481Y030933D03*
X020559Y022114D03*
X021625Y018699D03*
X023535Y018679D03*
X023945Y017980D03*
X025048Y016406D03*
X025441Y015736D03*
X025815Y014811D03*
X027252Y013886D03*
X027685Y014831D03*
X028433Y014358D03*
X029520Y013295D03*
X028512Y012232D03*
X029521Y011169D03*
X027213Y011406D03*
X027213Y012508D03*
X026110Y012783D03*
X025677Y012783D03*
X026071Y011366D03*
X024142Y012665D03*
X023433Y012508D03*
X022764Y013138D03*
X022055Y013610D03*
X022803Y014122D03*
X023512Y014358D03*
X024142Y013886D03*
X023315Y011524D03*
X021859Y014870D03*
X020796Y014870D03*
X027488Y018295D03*
X027685Y016091D03*
D36*
X027567Y016422D02*
X027827Y016422D01*
X027873Y016435D01*
X027914Y016458D01*
X027947Y016492D01*
X027971Y016533D01*
X027983Y016579D01*
X027983Y016760D01*
X027983Y016941D01*
X027971Y016987D01*
X027947Y017028D01*
X027914Y017061D01*
X027878Y017082D01*
X027939Y017108D01*
X028007Y017175D01*
X028043Y017263D01*
X028043Y017674D01*
X028007Y017762D01*
X027939Y017829D01*
X027887Y017851D01*
X027887Y018113D01*
X027927Y018208D01*
X027927Y018382D01*
X027860Y018543D01*
X027848Y018555D01*
X027848Y019461D01*
X027799Y019579D01*
X027709Y019669D01*
X027315Y020063D01*
X027654Y020063D01*
X027743Y020100D01*
X027803Y020161D01*
X027864Y020100D01*
X027953Y020063D01*
X028363Y020063D01*
X028451Y020100D01*
X028519Y020167D01*
X028555Y020255D01*
X028555Y020749D01*
X028577Y020771D01*
X028678Y020771D01*
X028839Y020837D01*
X028910Y020909D01*
X029832Y020909D01*
X029942Y020954D01*
X030139Y021151D01*
X030223Y021236D01*
X030249Y021299D01*
X030275Y021288D01*
X030611Y021288D01*
X030699Y021325D01*
X030767Y021392D01*
X030803Y021480D01*
X030803Y022446D01*
X030767Y022534D01*
X030699Y022602D01*
X030622Y022634D01*
X030521Y022734D01*
X030572Y022731D01*
X030749Y022683D01*
X030907Y022592D01*
X031037Y022462D01*
X031128Y022304D01*
X031176Y022127D01*
X031182Y022035D01*
X031182Y015185D01*
X031102Y015483D01*
X030919Y015799D01*
X030662Y016057D01*
X030346Y016239D01*
X029994Y016334D01*
X029629Y016334D01*
X029277Y016239D01*
X028961Y016057D01*
X028703Y015799D01*
X028521Y015483D01*
X028426Y015131D01*
X028426Y014796D01*
X028346Y014796D01*
X028185Y014730D01*
X028062Y014606D01*
X027995Y014445D01*
X027995Y014271D01*
X028062Y014110D01*
X028185Y013987D01*
X028192Y013984D01*
X028192Y013922D01*
X027789Y013922D01*
X027701Y013886D01*
X027634Y013818D01*
X027597Y013730D01*
X027597Y012915D01*
X027634Y012826D01*
X027701Y012759D01*
X027789Y012722D01*
X029235Y012722D01*
X029323Y012759D01*
X029391Y012826D01*
X029408Y012868D01*
X029433Y012857D01*
X029607Y012857D01*
X029768Y012924D01*
X029891Y013047D01*
X029958Y013208D01*
X029958Y013382D01*
X029891Y013543D01*
X029871Y013564D01*
X029994Y013564D01*
X030346Y013658D01*
X030662Y013841D01*
X030919Y014098D01*
X031102Y014414D01*
X031182Y014712D01*
X031182Y009043D01*
X031172Y008900D01*
X031098Y008624D01*
X030955Y008377D01*
X030753Y008175D01*
X030506Y008032D01*
X030230Y007958D01*
X030087Y007949D01*
X027394Y007949D01*
X027394Y008390D01*
X027871Y008390D01*
X027959Y008426D01*
X028027Y008494D01*
X028063Y008582D01*
X028063Y009111D01*
X028039Y009169D01*
X028052Y009183D01*
X028136Y009267D01*
X028182Y009377D01*
X028182Y009794D01*
X028254Y009824D01*
X028289Y009859D01*
X028331Y009848D01*
X028553Y009848D01*
X028553Y010206D01*
X028590Y010206D01*
X028590Y010243D01*
X028968Y010243D01*
X028968Y010445D01*
X028955Y010491D01*
X028932Y010532D01*
X028921Y010542D01*
X029235Y010542D01*
X029323Y010579D01*
X029391Y010646D01*
X029427Y010734D01*
X029434Y010731D01*
X029608Y010731D01*
X029769Y010798D01*
X029892Y010921D01*
X029959Y011082D01*
X029959Y011256D01*
X029892Y011417D01*
X029769Y011541D01*
X029608Y011607D01*
X029434Y011607D01*
X029408Y011597D01*
X029391Y011638D01*
X029323Y011706D01*
X029235Y011742D01*
X027789Y011742D01*
X027701Y011706D01*
X027634Y011638D01*
X027597Y011550D01*
X027597Y010735D01*
X027629Y010658D01*
X027620Y010654D01*
X027556Y010681D01*
X027067Y010681D01*
X026978Y010644D01*
X026977Y010643D01*
X026975Y010644D01*
X026942Y010658D01*
X026942Y010973D01*
X026922Y011021D01*
X026922Y011433D01*
X026948Y011458D01*
X026984Y011546D01*
X027597Y011546D01*
X027597Y011388D02*
X026922Y011388D01*
X026922Y011229D02*
X027597Y011229D01*
X027597Y011071D02*
X026922Y011071D01*
X026942Y010912D02*
X027597Y010912D01*
X027597Y010754D02*
X026942Y010754D01*
X026342Y010754D02*
X025032Y010754D01*
X025032Y010629D02*
X025032Y010926D01*
X025093Y010987D01*
X025540Y010987D01*
X025651Y011033D01*
X025718Y011100D01*
X025823Y010995D01*
X025984Y010928D01*
X026158Y010928D01*
X026319Y010995D01*
X026322Y010998D01*
X026322Y010873D01*
X026342Y010826D01*
X026342Y010658D01*
X026309Y010644D01*
X026307Y010643D01*
X026306Y010644D01*
X026217Y010681D01*
X025728Y010681D01*
X025640Y010644D01*
X025592Y010596D01*
X025570Y010609D01*
X025524Y010621D01*
X025322Y010621D01*
X025322Y010243D01*
X025285Y010243D01*
X025285Y010621D01*
X025083Y010621D01*
X025037Y010609D01*
X025019Y010598D01*
X025032Y010629D01*
X025285Y010595D02*
X025322Y010595D01*
X025322Y010437D02*
X025285Y010437D01*
X025285Y010278D02*
X025322Y010278D01*
X025322Y010206D02*
X025322Y009828D01*
X025524Y009828D01*
X025570Y009840D01*
X025592Y009853D01*
X025640Y009804D01*
X025728Y009768D01*
X026217Y009768D01*
X026306Y009804D01*
X026307Y009806D01*
X026309Y009804D01*
X026397Y009768D01*
X026887Y009768D01*
X026975Y009804D01*
X026977Y009806D01*
X026978Y009804D01*
X027067Y009768D01*
X027556Y009768D01*
X027582Y009779D01*
X027582Y009561D01*
X027372Y009351D01*
X027346Y009288D01*
X027293Y009266D01*
X027292Y009265D01*
X027290Y009266D01*
X027202Y009303D01*
X026712Y009303D01*
X026624Y009266D01*
X026557Y009199D01*
X026520Y009111D01*
X026520Y008631D01*
X026504Y008615D01*
X026463Y008656D01*
X026375Y008693D01*
X025807Y008693D01*
X025719Y008656D01*
X025662Y008599D01*
X025528Y008655D01*
X025354Y008655D01*
X025193Y008588D01*
X025070Y008465D01*
X025003Y008304D01*
X025003Y008129D01*
X025070Y007968D01*
X025090Y007949D01*
X024815Y007949D01*
X024815Y008264D01*
X024779Y008352D01*
X024711Y008420D01*
X024623Y008457D01*
X023819Y008457D01*
X023730Y008420D01*
X023663Y008352D01*
X023626Y008264D01*
X023626Y007949D01*
X021665Y007949D01*
X021665Y008264D01*
X021629Y008352D01*
X021561Y008420D01*
X021473Y008457D01*
X020669Y008457D01*
X020581Y008420D01*
X020513Y008352D01*
X020477Y008264D01*
X020477Y007949D01*
X017801Y007949D01*
X017820Y007968D01*
X017887Y008129D01*
X017887Y008304D01*
X017820Y008465D01*
X017697Y008588D01*
X017536Y008655D01*
X017362Y008655D01*
X017219Y008595D01*
X016529Y009286D01*
X016529Y010169D01*
X016578Y010120D01*
X016578Y010098D01*
X016645Y009937D01*
X016768Y009814D01*
X016929Y009747D01*
X016987Y009747D01*
X017038Y009622D01*
X017162Y009499D01*
X017323Y009432D01*
X017497Y009432D01*
X017658Y009499D01*
X017779Y009620D01*
X017797Y009577D01*
X017831Y009542D01*
X017820Y009500D01*
X017820Y009278D01*
X018179Y009278D01*
X018179Y009241D01*
X018216Y009241D01*
X018216Y009278D01*
X018574Y009278D01*
X018574Y009500D01*
X018563Y009542D01*
X018597Y009577D01*
X018634Y009665D01*
X018634Y010193D01*
X018631Y010200D01*
X019062Y010200D01*
X019059Y010193D01*
X019059Y009665D01*
X019096Y009577D01*
X019131Y009542D01*
X019119Y009500D01*
X019119Y009278D01*
X019478Y009278D01*
X019478Y009241D01*
X019515Y009241D01*
X019515Y008863D01*
X019717Y008863D01*
X019763Y008876D01*
X019804Y008899D01*
X019837Y008933D01*
X019861Y008974D01*
X019873Y009020D01*
X019873Y009241D01*
X019515Y009241D01*
X019515Y009278D01*
X019873Y009278D01*
X019873Y009500D01*
X019862Y009542D01*
X019897Y009577D01*
X019910Y009609D01*
X020947Y009609D01*
X021184Y009373D01*
X021184Y009169D01*
X019873Y009169D01*
X019873Y009327D02*
X021184Y009327D01*
X021184Y009169D02*
X021238Y009036D01*
X021340Y008935D01*
X021436Y008895D01*
X021599Y008733D01*
X021716Y008684D01*
X021815Y008684D01*
X021815Y008562D01*
X021852Y008474D01*
X021919Y008407D01*
X022008Y008370D01*
X022261Y008370D01*
X022262Y008371D01*
X022264Y008370D01*
X022517Y008370D01*
X022518Y008371D01*
X022519Y008370D01*
X022772Y008370D01*
X022774Y008371D01*
X022775Y008370D01*
X023028Y008370D01*
X023117Y008407D01*
X023140Y008430D01*
X023158Y008430D01*
X023260Y008430D01*
X023306Y008443D01*
X023347Y008466D01*
X023381Y008500D01*
X023404Y008541D01*
X023416Y008587D01*
X023416Y009004D01*
X023416Y009421D01*
X023404Y009467D01*
X023381Y009508D01*
X023347Y009542D01*
X023306Y009565D01*
X023260Y009578D01*
X023158Y009578D01*
X023158Y009560D01*
X023158Y009560D01*
X023158Y009578D01*
X023140Y009578D01*
X023136Y009582D01*
X023249Y009694D01*
X023333Y009779D01*
X023344Y009804D01*
X023367Y009814D01*
X023490Y009937D01*
X023549Y010079D01*
X023549Y009984D01*
X023561Y009938D01*
X023585Y009897D01*
X023618Y009864D01*
X023659Y009840D01*
X023705Y009828D01*
X023907Y009828D01*
X023907Y010206D01*
X023944Y010206D01*
X023944Y009828D01*
X024146Y009828D01*
X024192Y009840D01*
X024214Y009853D01*
X024262Y009804D01*
X024350Y009768D01*
X024839Y009768D01*
X024928Y009804D01*
X024992Y009868D01*
X024996Y009864D01*
X025037Y009840D01*
X025083Y009828D01*
X025285Y009828D01*
X025285Y010206D01*
X025322Y010206D01*
X025322Y010120D02*
X025285Y010120D01*
X025285Y009961D02*
X025322Y009961D01*
X025644Y009803D02*
X024923Y009803D01*
X024595Y010224D02*
X024595Y010894D01*
X025032Y010912D02*
X026322Y010912D01*
X026984Y011546D02*
X026984Y012452D01*
X026948Y012540D01*
X026880Y012608D01*
X026792Y012644D01*
X026564Y012644D01*
X026564Y013534D01*
X026624Y013534D01*
X026624Y014119D01*
X026624Y014119D01*
X026624Y013534D01*
X026768Y013534D01*
X026814Y013546D01*
X026855Y013570D01*
X026888Y013604D01*
X026912Y013645D01*
X026924Y013690D01*
X026924Y014119D01*
X026624Y014119D01*
X026624Y014119D01*
X026924Y014119D01*
X026924Y014548D01*
X026921Y014559D01*
X026922Y014559D01*
X027012Y014649D01*
X027053Y014748D01*
X027093Y014765D01*
X027160Y014833D01*
X027197Y014921D01*
X027197Y015410D01*
X027160Y015498D01*
X027112Y015546D01*
X027125Y015568D01*
X027137Y015614D01*
X027137Y015816D01*
X026759Y015816D01*
X026759Y015853D01*
X027137Y015853D01*
X027137Y016055D01*
X027125Y016101D01*
X027101Y016142D01*
X027067Y016176D01*
X027026Y016199D01*
X026981Y016211D01*
X026759Y016211D01*
X026759Y015853D01*
X026722Y015853D01*
X026722Y016211D01*
X026500Y016211D01*
X026454Y016199D01*
X026423Y016181D01*
X026412Y016201D01*
X026379Y016235D01*
X026337Y016258D01*
X026292Y016271D01*
X026090Y016271D01*
X026090Y015892D01*
X026053Y015892D01*
X026053Y016271D01*
X025851Y016271D01*
X025805Y016258D01*
X025764Y016235D01*
X025761Y016232D01*
X025761Y016864D01*
X026933Y018035D01*
X026982Y018153D01*
X026982Y019491D01*
X027208Y019265D01*
X027208Y018634D01*
X027117Y018543D01*
X027050Y018382D01*
X027050Y018208D01*
X027117Y018047D01*
X027240Y017924D01*
X027247Y017921D01*
X027247Y017851D01*
X027195Y017829D01*
X027128Y017762D01*
X027091Y017674D01*
X027091Y017263D01*
X027128Y017175D01*
X027195Y017108D01*
X027256Y017082D01*
X027220Y017061D01*
X027187Y017028D01*
X027163Y016987D01*
X027151Y016941D01*
X027151Y016760D01*
X027567Y016760D01*
X027567Y016760D01*
X027151Y016760D01*
X027151Y016579D01*
X027163Y016533D01*
X027187Y016492D01*
X027220Y016458D01*
X027261Y016435D01*
X027307Y016422D01*
X027567Y016422D01*
X027567Y016760D01*
X027567Y016760D01*
X027983Y016760D01*
X027567Y016760D01*
X027567Y016760D01*
X027567Y016422D01*
X027567Y016460D02*
X027567Y016460D01*
X027567Y016618D02*
X027567Y016618D01*
X027219Y016460D02*
X025761Y016460D01*
X025761Y016618D02*
X027151Y016618D01*
X027151Y016777D02*
X025761Y016777D01*
X025833Y016935D02*
X027151Y016935D01*
X027229Y017094D02*
X025991Y017094D01*
X026150Y017252D02*
X027096Y017252D01*
X027091Y017411D02*
X026308Y017411D01*
X026467Y017569D02*
X027091Y017569D01*
X027113Y017728D02*
X026625Y017728D01*
X026784Y017886D02*
X027247Y017886D01*
X027120Y018045D02*
X026937Y018045D01*
X026982Y018203D02*
X027052Y018203D01*
X027050Y018362D02*
X026982Y018362D01*
X026982Y018520D02*
X027107Y018520D01*
X027208Y018679D02*
X026982Y018679D01*
X026982Y018837D02*
X027208Y018837D01*
X027208Y018996D02*
X026982Y018996D01*
X026982Y019154D02*
X027208Y019154D01*
X027160Y019313D02*
X026982Y019313D01*
X026982Y019471D02*
X027002Y019471D01*
X026662Y019673D02*
X026662Y018217D01*
X025441Y016996D01*
X025441Y015736D01*
X025634Y015342D02*
X025634Y015210D01*
X025567Y015182D01*
X025454Y015070D01*
X025448Y015085D01*
X025380Y015152D01*
X025292Y015189D01*
X024764Y015189D01*
X024693Y015160D01*
X024623Y015189D01*
X024094Y015189D01*
X024006Y015152D01*
X023939Y015085D01*
X023933Y015072D01*
X023881Y015072D01*
X023764Y015023D01*
X023674Y014933D01*
X023537Y014796D01*
X023425Y014796D01*
X023264Y014730D01*
X023141Y014606D01*
X023074Y014445D01*
X023074Y014271D01*
X023141Y014110D01*
X023264Y013987D01*
X023425Y013920D01*
X023599Y013920D01*
X023760Y013987D01*
X023883Y014110D01*
X023950Y014271D01*
X023950Y014304D01*
X024002Y014356D01*
X024006Y014352D01*
X024094Y014315D01*
X024623Y014315D01*
X024693Y014344D01*
X024764Y014315D01*
X024764Y013666D01*
X024801Y013578D01*
X024868Y013511D01*
X024957Y013474D01*
X025184Y013474D01*
X025184Y012644D01*
X024957Y012644D01*
X024868Y012608D01*
X024801Y012540D01*
X024764Y012452D01*
X024764Y012335D01*
X024689Y012304D01*
X024605Y012220D01*
X024595Y012244D01*
X024542Y012298D01*
X024542Y012486D01*
X024580Y012578D01*
X024580Y012753D01*
X024513Y012914D01*
X024390Y013037D01*
X024229Y013103D01*
X024055Y013103D01*
X023894Y013037D01*
X023771Y012914D01*
X023704Y012753D01*
X023704Y012578D01*
X023742Y012486D01*
X023742Y012339D01*
X023200Y012339D01*
X023200Y012307D02*
X023200Y012529D01*
X022842Y012529D01*
X022842Y012566D01*
X023200Y012566D01*
X023200Y012787D01*
X023188Y012833D01*
X023164Y012874D01*
X023130Y012908D01*
X023089Y012932D01*
X023044Y012944D01*
X022842Y012944D01*
X022842Y012566D01*
X022805Y012566D01*
X022805Y012944D01*
X022603Y012944D01*
X022557Y012932D01*
X022535Y012919D01*
X022487Y012967D01*
X022398Y013004D01*
X022236Y013004D01*
X022259Y013058D01*
X022259Y013220D01*
X022304Y013239D01*
X022427Y013362D01*
X022493Y013523D01*
X022493Y013697D01*
X022427Y013858D01*
X022304Y013982D01*
X022259Y014000D01*
X022259Y014691D01*
X022297Y014783D01*
X022297Y014957D01*
X022230Y015118D01*
X022107Y015241D01*
X021946Y015308D01*
X021771Y015308D01*
X021610Y015241D01*
X021487Y015118D01*
X021432Y014985D01*
X021432Y016107D01*
X021662Y016107D01*
X021751Y016143D01*
X021818Y016211D01*
X021844Y016272D01*
X021864Y016236D01*
X021898Y016203D01*
X021939Y016179D01*
X021985Y016167D01*
X022166Y016167D01*
X022347Y016167D01*
X022393Y016179D01*
X022434Y016203D01*
X022467Y016236D01*
X022491Y016277D01*
X022503Y016323D01*
X022503Y016583D01*
X022503Y016815D01*
X022537Y016848D01*
X022567Y016920D01*
X023266Y016920D01*
X023376Y016966D01*
X023605Y017195D01*
X023689Y017279D01*
X023735Y017389D01*
X023735Y017593D01*
X023858Y017542D01*
X024032Y017542D01*
X024193Y017609D01*
X024317Y017732D01*
X024383Y017893D01*
X024383Y018067D01*
X024317Y018228D01*
X024193Y018352D01*
X024032Y018418D01*
X023894Y018418D01*
X023906Y018431D01*
X023973Y018592D01*
X023973Y018766D01*
X023906Y018927D01*
X023783Y019050D01*
X023622Y019117D01*
X023447Y019117D01*
X023306Y019059D01*
X023306Y019313D01*
X023276Y019386D01*
X023849Y019959D01*
X023895Y020069D01*
X023895Y021437D01*
X025948Y019383D01*
X025948Y018625D01*
X024776Y017453D01*
X024728Y017335D01*
X024728Y016705D01*
X024676Y016654D01*
X024609Y016493D01*
X024609Y016318D01*
X024676Y016157D01*
X024799Y016034D01*
X024960Y015967D01*
X025063Y015967D01*
X025003Y015823D01*
X025003Y015649D01*
X025070Y015488D01*
X025193Y015365D01*
X025354Y015298D01*
X025528Y015298D01*
X025634Y015342D01*
X025589Y015192D02*
X022157Y015192D01*
X022265Y015033D02*
X023788Y015033D01*
X023615Y014875D02*
X022297Y014875D01*
X022269Y014716D02*
X023250Y014716D01*
X023120Y014558D02*
X022259Y014558D01*
X022259Y014399D02*
X023074Y014399D01*
X023087Y014241D02*
X022259Y014241D01*
X022259Y014082D02*
X023169Y014082D01*
X023417Y013924D02*
X022362Y013924D01*
X022465Y013765D02*
X023633Y013765D01*
X023633Y013825D02*
X023633Y013596D01*
X024058Y013596D01*
X024058Y013981D01*
X023790Y013981D01*
X023744Y013969D01*
X023703Y013945D01*
X023669Y013912D01*
X023646Y013871D01*
X023633Y013825D01*
X023607Y013924D02*
X023681Y013924D01*
X023855Y014082D02*
X024764Y014082D01*
X024764Y013924D02*
X024524Y013924D01*
X024536Y013912D02*
X024503Y013945D01*
X024461Y013969D01*
X024416Y013981D01*
X024148Y013981D01*
X024148Y013596D01*
X024572Y013596D01*
X024572Y013825D01*
X024560Y013871D01*
X024536Y013912D01*
X024572Y013765D02*
X024764Y013765D01*
X024789Y013607D02*
X024572Y013607D01*
X024572Y013506D02*
X024148Y013506D01*
X024148Y013596D01*
X024058Y013596D01*
X024058Y013506D01*
X024148Y013506D01*
X024148Y013121D01*
X024416Y013121D01*
X024461Y013133D01*
X024503Y013157D01*
X024536Y013191D01*
X024560Y013232D01*
X024572Y013277D01*
X024572Y013506D01*
X024572Y013448D02*
X025184Y013448D01*
X025184Y013290D02*
X024572Y013290D01*
X024453Y013131D02*
X025184Y013131D01*
X025184Y012973D02*
X024454Y012973D01*
X024555Y012814D02*
X025184Y012814D01*
X025184Y012656D02*
X024580Y012656D01*
X024546Y012497D02*
X024783Y012497D01*
X024764Y012339D02*
X024542Y012339D01*
X024103Y011858D02*
X024119Y011842D01*
X023742Y012339D02*
X023677Y012312D01*
X023610Y012244D01*
X023573Y012156D01*
X023573Y011885D01*
X023563Y011895D01*
X023402Y011962D01*
X023228Y011962D01*
X023180Y011942D01*
X023180Y012138D01*
X023168Y012184D01*
X023153Y012209D01*
X023164Y012220D01*
X023188Y012261D01*
X023200Y012307D01*
X023169Y012180D02*
X023583Y012180D01*
X023573Y012022D02*
X023180Y012022D01*
X022822Y012022D02*
X022785Y012022D01*
X022785Y011916D02*
X022785Y012151D01*
X022805Y012151D01*
X022805Y012529D01*
X022842Y012529D01*
X022842Y012294D01*
X022822Y012294D01*
X022822Y011916D01*
X022785Y011916D01*
X022805Y012180D02*
X022822Y012180D01*
X022805Y012339D02*
X022842Y012339D01*
X022842Y012497D02*
X022805Y012497D01*
X022805Y012656D02*
X022842Y012656D01*
X022842Y012814D02*
X022805Y012814D01*
X022474Y012973D02*
X023830Y012973D01*
X023790Y013121D02*
X024058Y013121D01*
X024058Y013506D01*
X023633Y013506D01*
X023633Y013277D01*
X023646Y013232D01*
X023669Y013191D01*
X023703Y013157D01*
X023744Y013133D01*
X023790Y013121D01*
X023753Y013131D02*
X022259Y013131D01*
X022354Y013290D02*
X023633Y013290D01*
X023633Y013448D02*
X022462Y013448D01*
X022493Y013607D02*
X023633Y013607D01*
X024058Y013607D02*
X024148Y013607D01*
X024148Y013765D02*
X024058Y013765D01*
X024058Y013924D02*
X024148Y013924D01*
X023938Y014241D02*
X024764Y014241D01*
X024764Y014315D02*
X024764Y014315D01*
X025124Y014119D02*
X025124Y014656D01*
X025028Y014752D01*
X025638Y014634D02*
X025638Y013975D01*
X025624Y014119D01*
X026124Y014119D02*
X026124Y014490D01*
X026347Y014713D01*
X026622Y014713D01*
X026740Y014831D01*
X026740Y015165D01*
X027197Y015192D02*
X028443Y015192D01*
X028426Y015033D02*
X027197Y015033D01*
X027178Y014875D02*
X028426Y014875D01*
X028172Y014716D02*
X027039Y014716D01*
X026922Y014558D02*
X028042Y014558D01*
X027995Y014399D02*
X026924Y014399D01*
X026924Y014241D02*
X028008Y014241D01*
X028090Y014082D02*
X026924Y014082D01*
X026924Y013924D02*
X028192Y013924D01*
X028512Y014280D02*
X028512Y013322D01*
X028485Y013295D01*
X027597Y013290D02*
X026564Y013290D01*
X026564Y013448D02*
X027597Y013448D01*
X027597Y013607D02*
X026890Y013607D01*
X026924Y013765D02*
X027612Y013765D01*
X027597Y013131D02*
X026564Y013131D01*
X026564Y012973D02*
X027597Y012973D01*
X027646Y012814D02*
X026564Y012814D01*
X026564Y012656D02*
X031182Y012656D01*
X031182Y012814D02*
X029378Y012814D01*
X029817Y012973D02*
X031182Y012973D01*
X031182Y013131D02*
X029926Y013131D01*
X029958Y013290D02*
X031182Y013290D01*
X031182Y013448D02*
X029931Y013448D01*
X030153Y013607D02*
X031182Y013607D01*
X031182Y013765D02*
X030531Y013765D01*
X030745Y013924D02*
X031182Y013924D01*
X031182Y014082D02*
X030903Y014082D01*
X031001Y014241D02*
X031182Y014241D01*
X031182Y014399D02*
X031093Y014399D01*
X031140Y014558D02*
X031182Y014558D01*
X031180Y015192D02*
X031182Y015192D01*
X031182Y015350D02*
X031138Y015350D01*
X031182Y015509D02*
X031087Y015509D01*
X030996Y015667D02*
X031182Y015667D01*
X031182Y015826D02*
X030893Y015826D01*
X030735Y015984D02*
X031182Y015984D01*
X031182Y016143D02*
X030513Y016143D01*
X030115Y016301D02*
X031182Y016301D01*
X031182Y016460D02*
X027915Y016460D01*
X027983Y016618D02*
X031182Y016618D01*
X031182Y016777D02*
X027983Y016777D01*
X027983Y016935D02*
X031182Y016935D01*
X031182Y017094D02*
X027906Y017094D01*
X028039Y017252D02*
X028631Y017252D01*
X028496Y017308D02*
X028234Y017570D01*
X028092Y017913D01*
X028092Y018284D01*
X028234Y018626D01*
X028496Y018889D01*
X028838Y019031D01*
X029209Y019031D01*
X029552Y018889D01*
X029814Y018626D01*
X029956Y018284D01*
X029956Y017913D01*
X029814Y017570D01*
X029552Y017308D01*
X029209Y017166D01*
X028838Y017166D01*
X028496Y017308D01*
X028394Y017411D02*
X028043Y017411D01*
X028043Y017569D02*
X028235Y017569D01*
X028169Y017728D02*
X028021Y017728D01*
X028103Y017886D02*
X027887Y017886D01*
X027887Y018045D02*
X028092Y018045D01*
X028092Y018203D02*
X027924Y018203D01*
X027927Y018362D02*
X028124Y018362D01*
X028190Y018520D02*
X027870Y018520D01*
X027848Y018679D02*
X028286Y018679D01*
X028444Y018837D02*
X027848Y018837D01*
X027848Y018996D02*
X028754Y018996D01*
X028775Y019228D02*
X029111Y019228D01*
X029193Y019262D01*
X029275Y019228D01*
X029611Y019228D01*
X029693Y019262D01*
X029775Y019228D01*
X030111Y019228D01*
X030199Y019265D01*
X030242Y019307D01*
X030254Y019300D01*
X030299Y019288D01*
X030443Y019288D01*
X030443Y019903D01*
X030303Y019903D01*
X030303Y019903D01*
X030443Y019903D01*
X030443Y019903D01*
X030443Y019903D01*
X030443Y020518D01*
X030299Y020518D01*
X030254Y020506D01*
X030242Y020499D01*
X030199Y020542D01*
X030111Y020578D01*
X029775Y020578D01*
X029693Y020544D01*
X029611Y020578D01*
X029275Y020578D01*
X029193Y020544D01*
X029111Y020578D01*
X028775Y020578D01*
X028687Y020542D01*
X028620Y020474D01*
X028583Y020386D01*
X028583Y019420D01*
X028620Y019332D01*
X028687Y019265D01*
X028775Y019228D01*
X028639Y019313D02*
X027848Y019313D01*
X027844Y019471D02*
X028583Y019471D01*
X028583Y019630D02*
X027748Y019630D01*
X027590Y019788D02*
X028583Y019788D01*
X028583Y019947D02*
X027431Y019947D01*
X027748Y020105D02*
X027859Y020105D01*
X028457Y020105D02*
X028583Y020105D01*
X028583Y020264D02*
X028555Y020264D01*
X028555Y020422D02*
X028598Y020422D01*
X028555Y020581D02*
X031182Y020581D01*
X031182Y020739D02*
X028555Y020739D01*
X028899Y020898D02*
X031182Y020898D01*
X031182Y021056D02*
X030044Y021056D01*
X030202Y021215D02*
X031182Y021215D01*
X031182Y021373D02*
X030748Y021373D01*
X030803Y021532D02*
X031182Y021532D01*
X031182Y021690D02*
X030803Y021690D01*
X030803Y021849D02*
X031182Y021849D01*
X031182Y022007D02*
X030803Y022007D01*
X030803Y022166D02*
X031165Y022166D01*
X031117Y022324D02*
X030803Y022324D01*
X030788Y022483D02*
X031016Y022483D01*
X030822Y022641D02*
X030614Y022641D01*
X030587Y020518D02*
X030443Y020518D01*
X030443Y019903D01*
X030443Y019903D01*
X030443Y019288D01*
X030587Y019288D01*
X030633Y019300D01*
X030674Y019324D01*
X030707Y019358D01*
X030731Y019399D01*
X030743Y019444D01*
X030743Y019903D01*
X030443Y019903D01*
X030443Y019903D01*
X030743Y019903D01*
X030743Y020362D01*
X030731Y020408D01*
X030707Y020449D01*
X030674Y020482D01*
X030633Y020506D01*
X030587Y020518D01*
X030723Y020422D02*
X031182Y020422D01*
X031182Y020264D02*
X030743Y020264D01*
X030743Y020105D02*
X031182Y020105D01*
X031182Y019947D02*
X030743Y019947D01*
X030743Y019788D02*
X031182Y019788D01*
X031182Y019630D02*
X030743Y019630D01*
X030743Y019471D02*
X031182Y019471D01*
X031182Y019313D02*
X030654Y019313D01*
X030443Y019313D02*
X030443Y019313D01*
X030443Y019471D02*
X030443Y019471D01*
X030443Y019630D02*
X030443Y019630D01*
X030443Y019788D02*
X030443Y019788D01*
X030443Y019947D02*
X030443Y019947D01*
X030443Y020105D02*
X030443Y020105D01*
X030443Y020264D02*
X030443Y020264D01*
X030443Y020422D02*
X030443Y020422D01*
X031182Y019154D02*
X027848Y019154D01*
X027528Y019398D02*
X027528Y018335D01*
X027488Y018295D01*
X027567Y018217D01*
X027567Y017469D01*
X027100Y016143D02*
X029109Y016143D01*
X028888Y015984D02*
X027137Y015984D01*
X027137Y015667D02*
X028627Y015667D01*
X028535Y015509D02*
X027150Y015509D01*
X027197Y015350D02*
X028485Y015350D01*
X028730Y015826D02*
X026759Y015826D01*
X026759Y015984D02*
X026722Y015984D01*
X026722Y016143D02*
X026759Y016143D01*
X026090Y016143D02*
X026053Y016143D01*
X026053Y015984D02*
X026090Y015984D01*
X025761Y016301D02*
X029507Y016301D01*
X029416Y017252D02*
X031182Y017252D01*
X031182Y017411D02*
X029654Y017411D01*
X029813Y017569D02*
X031182Y017569D01*
X031182Y017728D02*
X029879Y017728D01*
X029945Y017886D02*
X031182Y017886D01*
X031182Y018045D02*
X029956Y018045D01*
X029956Y018203D02*
X031182Y018203D01*
X031182Y018362D02*
X029924Y018362D01*
X029858Y018520D02*
X031182Y018520D01*
X031182Y018679D02*
X029762Y018679D01*
X029603Y018837D02*
X031182Y018837D01*
X031182Y018996D02*
X029294Y018996D01*
X027528Y019398D02*
X023433Y023492D01*
X023433Y024476D01*
X023776Y024819D01*
X023776Y025768D01*
X023340Y026301D02*
X023335Y026305D01*
X023294Y026329D01*
X023248Y026341D01*
X023027Y026341D01*
X023027Y025806D01*
X022950Y025806D01*
X022950Y026341D01*
X022838Y026341D01*
X023232Y026736D01*
X023281Y026854D01*
X023281Y027169D01*
X023332Y027220D01*
X023399Y027381D01*
X023399Y027556D01*
X023332Y027717D01*
X023209Y027840D01*
X023048Y027907D01*
X022874Y027907D01*
X022713Y027840D01*
X022589Y027717D01*
X022523Y027556D01*
X022523Y027381D01*
X022589Y027220D01*
X022641Y027169D01*
X022641Y027050D01*
X022505Y026914D01*
X022466Y027008D01*
X022343Y027131D01*
X022182Y027198D01*
X022008Y027198D01*
X021975Y027184D01*
X021975Y027565D01*
X022297Y027887D01*
X022407Y027841D01*
X022582Y027841D01*
X022743Y027908D01*
X022866Y028031D01*
X022933Y028192D01*
X022933Y028366D01*
X022866Y028527D01*
X022743Y028650D01*
X022582Y028717D01*
X022407Y028717D01*
X022246Y028650D01*
X022154Y028558D01*
X022095Y028533D01*
X022010Y028449D01*
X021672Y028111D01*
X021672Y028240D01*
X022845Y029413D01*
X022849Y029413D01*
X022897Y029393D01*
X024993Y029393D01*
X025111Y029441D01*
X025201Y029531D01*
X025622Y029953D01*
X025671Y030070D01*
X025671Y030712D01*
X025722Y030764D01*
X025789Y030925D01*
X025789Y031099D01*
X025783Y031114D01*
X025902Y030995D01*
X026063Y030928D01*
X026237Y030928D01*
X026398Y030995D01*
X026521Y031118D01*
X026588Y031279D01*
X026588Y031453D01*
X026545Y031557D01*
X026553Y031549D01*
X026641Y031512D01*
X027209Y031512D01*
X027298Y031549D01*
X027319Y031570D01*
X027341Y031549D01*
X027429Y031512D01*
X027566Y031512D01*
X027543Y031489D01*
X027425Y031441D01*
X027335Y031351D01*
X024304Y028319D01*
X024255Y028201D01*
X024255Y026391D01*
X024191Y026365D01*
X024170Y026343D01*
X024148Y026365D01*
X024060Y026401D01*
X023492Y026401D01*
X023404Y026365D01*
X023340Y026301D01*
X023027Y026287D02*
X022950Y026287D01*
X022941Y026445D02*
X024255Y026445D01*
X024255Y026604D02*
X023100Y026604D01*
X023243Y026762D02*
X024255Y026762D01*
X024255Y026921D02*
X023281Y026921D01*
X023281Y027079D02*
X024255Y027079D01*
X024255Y027238D02*
X023339Y027238D01*
X023399Y027396D02*
X024255Y027396D01*
X024255Y027555D02*
X023399Y027555D01*
X023334Y027713D02*
X024255Y027713D01*
X024255Y027872D02*
X023133Y027872D01*
X022865Y028030D02*
X024255Y028030D01*
X024255Y028189D02*
X022931Y028189D01*
X022933Y028347D02*
X024332Y028347D01*
X024490Y028506D02*
X022875Y028506D01*
X022710Y028664D02*
X024649Y028664D01*
X024807Y028823D02*
X022255Y028823D01*
X022279Y028664D02*
X022097Y028664D01*
X022067Y028506D02*
X021938Y028506D01*
X021908Y028347D02*
X021780Y028347D01*
X021750Y028189D02*
X021672Y028189D01*
X022123Y027713D02*
X022588Y027713D01*
X022523Y027555D02*
X021975Y027555D01*
X021975Y027396D02*
X022523Y027396D01*
X022582Y027238D02*
X021975Y027238D01*
X022395Y027079D02*
X022641Y027079D01*
X022512Y026921D02*
X022502Y026921D01*
X022095Y026760D02*
X022016Y026681D01*
X022016Y023768D01*
X026268Y019516D01*
X026268Y018492D01*
X025048Y017272D01*
X025048Y016406D01*
X024920Y015984D02*
X021432Y015984D01*
X021432Y015826D02*
X025004Y015826D01*
X025003Y015667D02*
X021432Y015667D01*
X021432Y015509D02*
X025061Y015509D01*
X025229Y015350D02*
X021432Y015350D01*
X021432Y015192D02*
X021560Y015192D01*
X021452Y015033D02*
X021432Y015033D01*
X021032Y014831D02*
X020992Y014870D01*
X020796Y014870D01*
X021859Y013728D02*
X021977Y013610D01*
X022055Y013610D01*
X023193Y012814D02*
X023729Y012814D01*
X023704Y012656D02*
X023200Y012656D01*
X023200Y012497D02*
X023737Y012497D01*
X024058Y013131D02*
X024148Y013131D01*
X024148Y013290D02*
X024058Y013290D01*
X024058Y013448D02*
X024148Y013448D01*
X023551Y014358D02*
X023945Y014752D01*
X024359Y014752D01*
X023551Y014358D02*
X023512Y014358D01*
X024691Y016143D02*
X021749Y016143D01*
X022166Y016167D02*
X022166Y016583D01*
X022503Y016583D01*
X022166Y016583D01*
X022166Y016583D01*
X022166Y016167D01*
X022166Y016301D02*
X022166Y016301D01*
X022166Y016460D02*
X022166Y016460D01*
X022166Y016583D02*
X022166Y016583D01*
X022503Y016618D02*
X024661Y016618D01*
X024609Y016460D02*
X022503Y016460D01*
X022498Y016301D02*
X024617Y016301D01*
X024728Y016777D02*
X022503Y016777D01*
X023301Y016935D02*
X024728Y016935D01*
X024728Y017094D02*
X023503Y017094D01*
X023662Y017252D02*
X024728Y017252D01*
X024759Y017411D02*
X023735Y017411D01*
X023735Y017569D02*
X023793Y017569D01*
X024097Y017569D02*
X024892Y017569D01*
X025051Y017728D02*
X024312Y017728D01*
X024380Y017886D02*
X025209Y017886D01*
X025368Y018045D02*
X024383Y018045D01*
X024327Y018203D02*
X025526Y018203D01*
X025685Y018362D02*
X024170Y018362D01*
X023943Y018520D02*
X025843Y018520D01*
X025948Y018679D02*
X023973Y018679D01*
X023943Y018837D02*
X025948Y018837D01*
X025948Y018996D02*
X023838Y018996D01*
X023306Y019154D02*
X025948Y019154D01*
X025948Y019313D02*
X023306Y019313D01*
X023361Y019471D02*
X025860Y019471D01*
X025702Y019630D02*
X023519Y019630D01*
X023678Y019788D02*
X025543Y019788D01*
X025385Y019947D02*
X023836Y019947D01*
X023895Y020105D02*
X025226Y020105D01*
X025068Y020264D02*
X023895Y020264D01*
X023895Y020422D02*
X024909Y020422D01*
X024751Y020581D02*
X023895Y020581D01*
X023895Y020739D02*
X024592Y020739D01*
X024434Y020898D02*
X023895Y020898D01*
X023895Y021056D02*
X024275Y021056D01*
X024117Y021215D02*
X023895Y021215D01*
X023895Y021373D02*
X023958Y021373D01*
X026032Y021563D02*
X026229Y021563D01*
X026922Y021602D02*
X026983Y021663D01*
X027020Y021751D01*
X027020Y022162D01*
X026983Y022250D01*
X026925Y022308D01*
X027022Y022405D01*
X027845Y022405D01*
X027825Y022396D01*
X027757Y022329D01*
X027732Y022267D01*
X027711Y022303D01*
X027678Y022337D01*
X027637Y022361D01*
X027591Y022373D01*
X027410Y022373D01*
X027410Y021957D01*
X027410Y021957D01*
X027410Y022373D01*
X027229Y022373D01*
X027183Y022361D01*
X027142Y022337D01*
X027108Y022303D01*
X027084Y022262D01*
X027072Y022217D01*
X027072Y021957D01*
X027410Y021957D01*
X027410Y021957D01*
X027410Y021540D01*
X027591Y021540D01*
X027637Y021553D01*
X027678Y021576D01*
X027711Y021610D01*
X027732Y021646D01*
X027757Y021585D01*
X027818Y021524D01*
X027818Y021412D01*
X027422Y021016D01*
X027244Y021016D01*
X027156Y020979D01*
X027098Y020921D01*
X027007Y021012D01*
X027020Y021043D01*
X027020Y021453D01*
X026983Y021541D01*
X026922Y021602D01*
X026987Y021532D02*
X027810Y021532D01*
X027780Y021373D02*
X027020Y021373D01*
X027020Y021215D02*
X027621Y021215D01*
X027463Y021056D02*
X027020Y021056D01*
X027183Y021553D02*
X027229Y021540D01*
X027410Y021540D01*
X027410Y021957D01*
X027410Y021957D01*
X027072Y021957D01*
X027072Y021697D01*
X027084Y021651D01*
X027108Y021610D01*
X027142Y021576D01*
X027183Y021553D01*
X027074Y021690D02*
X026994Y021690D01*
X027020Y021849D02*
X027072Y021849D01*
X027072Y022007D02*
X027020Y022007D01*
X027018Y022166D02*
X027072Y022166D01*
X027129Y022324D02*
X026942Y022324D01*
X027410Y022324D02*
X027410Y022324D01*
X027410Y022166D02*
X027410Y022166D01*
X027410Y022007D02*
X027410Y022007D01*
X027410Y021849D02*
X027410Y021849D01*
X027410Y021690D02*
X027410Y021690D01*
X027691Y022324D02*
X027755Y022324D01*
X025874Y024909D02*
X024496Y024909D01*
X024063Y024476D01*
X023456Y024951D02*
X023252Y024748D01*
X023162Y024658D01*
X023113Y024540D01*
X023113Y023674D01*
X022730Y024058D01*
X022730Y025194D01*
X022950Y025194D01*
X022950Y025730D01*
X023027Y025730D01*
X023027Y025194D01*
X023248Y025194D01*
X023294Y025206D01*
X023335Y025230D01*
X023340Y025235D01*
X023404Y025171D01*
X023456Y025149D01*
X023456Y024951D01*
X023456Y025019D02*
X022730Y025019D01*
X022730Y025177D02*
X023397Y025177D01*
X023364Y024860D02*
X022730Y024860D01*
X022730Y024702D02*
X023206Y024702D01*
X023115Y024543D02*
X022730Y024543D01*
X022730Y024385D02*
X023113Y024385D01*
X023113Y024226D02*
X022730Y024226D01*
X022730Y024068D02*
X023113Y024068D01*
X023113Y023909D02*
X022878Y023909D01*
X023037Y023751D02*
X023113Y023751D01*
X022410Y023925D02*
X026662Y019673D01*
X022410Y023925D02*
X022410Y026366D01*
X022961Y026917D01*
X022961Y027469D01*
X022789Y027872D02*
X022656Y027872D01*
X022333Y027872D02*
X022281Y027872D01*
X022414Y028981D02*
X024966Y028981D01*
X025124Y029140D02*
X022572Y029140D01*
X022731Y029298D02*
X025283Y029298D01*
X025126Y029457D02*
X025441Y029457D01*
X025284Y029615D02*
X025600Y029615D01*
X025443Y029774D02*
X025758Y029774D01*
X025601Y029932D02*
X025917Y029932D01*
X026075Y030091D02*
X025671Y030091D01*
X025671Y030249D02*
X026234Y030249D01*
X026392Y030408D02*
X025671Y030408D01*
X025671Y030566D02*
X026551Y030566D01*
X026709Y030725D02*
X025683Y030725D01*
X025772Y030883D02*
X026868Y030883D01*
X027026Y031042D02*
X026445Y031042D01*
X026555Y031200D02*
X027185Y031200D01*
X027343Y031359D02*
X026588Y031359D01*
X026562Y031517D02*
X026629Y031517D01*
X026150Y031366D02*
X026150Y032134D01*
X026138Y032146D01*
X025351Y032146D02*
X025351Y031012D01*
X025351Y030134D01*
X024929Y029713D01*
X022961Y029713D01*
X024563Y030803D02*
X024563Y032146D01*
X025789Y031042D02*
X025855Y031042D01*
X026925Y032146D02*
X026925Y032988D01*
X026937Y032980D01*
X026382Y033578D02*
X025188Y033578D01*
X025188Y033588D02*
X024436Y033588D01*
X024436Y033625D01*
X024399Y033625D01*
X024399Y033983D01*
X023803Y033983D01*
X023758Y033971D01*
X023717Y033947D01*
X023683Y033914D01*
X023659Y033873D01*
X023647Y033827D01*
X023647Y033625D01*
X024399Y033625D01*
X024399Y033588D01*
X023647Y033588D01*
X023647Y033386D01*
X023659Y033340D01*
X023683Y033299D01*
X023717Y033265D01*
X023724Y033261D01*
X023055Y033261D01*
X022937Y033212D01*
X022847Y033122D01*
X022717Y032992D01*
X022668Y032875D01*
X022668Y032764D01*
X022616Y032743D01*
X022549Y032675D01*
X022512Y032587D01*
X022512Y032513D01*
X022109Y032513D01*
X022079Y032543D01*
X021962Y032592D01*
X021567Y032592D01*
X021567Y032634D01*
X021530Y032723D01*
X021463Y032790D01*
X021375Y032827D01*
X020767Y032827D01*
X020679Y032790D01*
X020631Y032742D01*
X020609Y032754D01*
X020563Y032767D01*
X020332Y032767D01*
X020332Y032320D01*
X020236Y032320D01*
X020236Y032767D01*
X020011Y032767D01*
X021530Y034286D01*
X023618Y034286D01*
X023624Y034273D01*
X023691Y034206D01*
X023779Y034169D01*
X025056Y034169D01*
X025144Y034206D01*
X025212Y034273D01*
X025248Y034362D01*
X025248Y034851D01*
X025212Y034939D01*
X025144Y035007D01*
X025056Y035043D01*
X023779Y035043D01*
X023691Y035007D01*
X023624Y034939D01*
X023618Y034926D01*
X021334Y034926D01*
X021217Y034878D01*
X019473Y033133D01*
X019383Y033043D01*
X019334Y032926D01*
X019334Y030121D01*
X018852Y029639D01*
X018779Y029639D01*
X018765Y029633D01*
X018969Y029837D01*
X019059Y029927D01*
X019108Y030045D01*
X019108Y031456D01*
X019160Y031478D01*
X019227Y031545D01*
X019264Y031633D01*
X019264Y032044D01*
X019227Y032132D01*
X019166Y032193D01*
X019227Y032254D01*
X019264Y032342D01*
X019264Y032752D01*
X019227Y032841D01*
X019160Y032908D01*
X019072Y032945D01*
X018504Y032945D01*
X018415Y032908D01*
X018356Y032849D01*
X018328Y032848D01*
X018271Y032848D01*
X018265Y032845D01*
X018257Y032844D01*
X018206Y032821D01*
X018159Y032801D01*
X018142Y032819D01*
X018083Y032843D01*
X018083Y032851D01*
X018046Y032939D01*
X017979Y033007D01*
X017891Y033043D01*
X017165Y033043D01*
X017077Y033007D01*
X017009Y032939D01*
X016973Y032851D01*
X016973Y032244D01*
X017009Y032155D01*
X017058Y032107D01*
X017045Y032085D01*
X017033Y032039D01*
X017033Y031808D01*
X017480Y031808D01*
X017480Y031712D01*
X017576Y031712D01*
X017576Y031324D01*
X017838Y031324D01*
X017838Y030928D01*
X017737Y031029D01*
X017576Y031096D01*
X017401Y031096D01*
X017240Y031029D01*
X017122Y030911D01*
X016980Y031059D01*
X016980Y031296D01*
X016944Y031384D01*
X016876Y031451D01*
X016788Y031488D01*
X016566Y031488D01*
X016822Y031744D01*
X016964Y032086D01*
X016964Y032457D01*
X016822Y032800D01*
X016560Y033062D01*
X016217Y033204D01*
X015846Y033204D01*
X015504Y033062D01*
X015242Y032800D01*
X015100Y032457D01*
X015100Y032086D01*
X015242Y031744D01*
X015504Y031481D01*
X015579Y031450D01*
X015513Y031384D01*
X015508Y031371D01*
X015453Y031371D01*
X015448Y031384D01*
X015380Y031451D01*
X015292Y031488D01*
X014882Y031488D01*
X014793Y031451D01*
X014733Y031391D01*
X014672Y031451D01*
X014583Y031488D01*
X014173Y031488D01*
X014085Y031451D01*
X014017Y031384D01*
X013981Y031296D01*
X013981Y030728D01*
X014017Y030640D01*
X014085Y030572D01*
X014098Y030567D01*
X014098Y030515D01*
X014146Y030397D01*
X014236Y030307D01*
X014394Y030150D01*
X014511Y030101D01*
X015978Y030101D01*
X015993Y030086D01*
X015853Y030086D01*
X015776Y030054D01*
X015699Y030086D01*
X015353Y030086D01*
X015276Y030054D01*
X015199Y030086D01*
X014853Y030086D01*
X014776Y030054D01*
X014699Y030086D01*
X014353Y030086D01*
X014265Y030050D01*
X014197Y029982D01*
X014161Y029894D01*
X014161Y028799D01*
X014197Y028711D01*
X014265Y028643D01*
X014353Y028606D01*
X014699Y028606D01*
X014776Y028638D01*
X014853Y028606D01*
X015199Y028606D01*
X015276Y028638D01*
X015353Y028606D01*
X015699Y028606D01*
X015776Y028638D01*
X015853Y028606D01*
X016199Y028606D01*
X016276Y028638D01*
X016353Y028606D01*
X016699Y028606D01*
X016776Y028638D01*
X016853Y028606D01*
X017167Y028606D01*
X017168Y028531D01*
X017168Y028460D01*
X017168Y028459D01*
X017168Y028458D01*
X017196Y028393D01*
X017223Y028328D01*
X017223Y028327D01*
X017224Y028326D01*
X017274Y028276D01*
X017324Y028226D01*
X017325Y028226D01*
X017326Y028225D01*
X017391Y028199D01*
X017456Y028171D01*
X017457Y028171D01*
X017458Y028171D01*
X017529Y028171D01*
X018163Y028171D01*
X018153Y028146D01*
X018153Y027972D01*
X018178Y027910D01*
X018091Y027997D01*
X017930Y028064D01*
X017756Y028064D01*
X017595Y027997D01*
X017471Y027874D01*
X017465Y027858D01*
X016784Y027177D01*
X016735Y027060D01*
X016735Y026020D01*
X016726Y026011D01*
X016720Y026014D01*
X016675Y026026D01*
X016526Y026026D01*
X016526Y025346D01*
X016526Y025346D01*
X016526Y026026D01*
X016377Y026026D01*
X016331Y026014D01*
X016326Y026011D01*
X016287Y026050D01*
X016199Y026086D01*
X015853Y026086D01*
X015776Y026054D01*
X015699Y026086D01*
X015353Y026086D01*
X015276Y026054D01*
X015199Y026086D01*
X014853Y026086D01*
X014776Y026054D01*
X014699Y026086D01*
X014353Y026086D01*
X014265Y026050D01*
X014197Y025982D01*
X014161Y025894D01*
X014161Y025032D01*
X014109Y025062D01*
X013979Y025191D01*
X013888Y025350D01*
X013841Y025527D01*
X013835Y025618D01*
X013835Y036914D01*
X023613Y036914D01*
X023587Y036851D01*
X023587Y036362D01*
X023624Y036273D01*
X023691Y036206D01*
X023779Y036169D01*
X025056Y036169D01*
X025144Y036206D01*
X025212Y036273D01*
X025248Y036362D01*
X025248Y036851D01*
X025222Y036914D01*
X031221Y036914D01*
X031221Y033535D01*
X028937Y033535D01*
X028910Y033524D01*
X028910Y033894D01*
X028873Y033982D01*
X028806Y034050D01*
X028717Y034086D01*
X028424Y034086D01*
X028563Y034144D01*
X028687Y034268D01*
X028753Y034429D01*
X028753Y034521D01*
X028961Y034313D01*
X029277Y034131D01*
X029629Y034036D01*
X029994Y034036D01*
X030346Y034131D01*
X030662Y034313D01*
X030919Y034571D01*
X031102Y034887D01*
X031196Y035239D01*
X031196Y035604D01*
X031102Y035956D01*
X030919Y036272D01*
X031221Y036272D01*
X031221Y036114D02*
X031011Y036114D01*
X030919Y036272D02*
X030662Y036529D01*
X030346Y036712D01*
X029994Y036806D01*
X029629Y036806D01*
X029277Y036712D01*
X028961Y036529D01*
X028703Y036272D01*
X028521Y035956D01*
X028426Y035604D01*
X028426Y035239D01*
X028515Y034907D01*
X028402Y034954D01*
X028330Y034954D01*
X028260Y035023D01*
X028143Y035072D01*
X027792Y035072D01*
X027771Y035124D01*
X027710Y035185D01*
X027754Y035230D01*
X027874Y035180D01*
X028048Y035180D01*
X028209Y035247D01*
X028332Y035370D01*
X028399Y035531D01*
X028399Y035705D01*
X028332Y035866D01*
X028209Y035990D01*
X028048Y036056D01*
X027874Y036056D01*
X027754Y036007D01*
X027703Y036058D01*
X027615Y036094D01*
X027204Y036094D01*
X027116Y036058D01*
X027055Y035997D01*
X026994Y036058D01*
X026906Y036094D01*
X026496Y036094D01*
X026408Y036058D01*
X026340Y035990D01*
X026318Y035938D01*
X025212Y035938D01*
X025212Y035939D01*
X025144Y036007D01*
X025056Y036043D01*
X023779Y036043D01*
X023691Y036007D01*
X023624Y035939D01*
X023587Y035851D01*
X023587Y035362D01*
X023624Y035273D01*
X023691Y035206D01*
X023779Y035169D01*
X025056Y035169D01*
X025144Y035206D01*
X025212Y035273D01*
X025222Y035298D01*
X026318Y035298D01*
X026340Y035246D01*
X026408Y035178D01*
X026469Y035153D01*
X026433Y035132D01*
X026400Y035099D01*
X026376Y035058D01*
X026364Y035012D01*
X026364Y034752D01*
X026364Y034492D01*
X026376Y034446D01*
X026400Y034405D01*
X026433Y034372D01*
X026474Y034348D01*
X026520Y034336D01*
X026701Y034336D01*
X026701Y034752D01*
X026701Y034752D01*
X026364Y034752D01*
X026701Y034752D01*
X026701Y034752D01*
X026701Y034336D01*
X026882Y034336D01*
X026928Y034348D01*
X026969Y034372D01*
X027003Y034405D01*
X027023Y034441D01*
X027049Y034380D01*
X027116Y034312D01*
X027204Y034276D01*
X027615Y034276D01*
X027703Y034312D01*
X027771Y034380D01*
X027792Y034432D01*
X027877Y034432D01*
X027877Y034429D01*
X027944Y034268D01*
X028067Y034144D01*
X028207Y034086D01*
X028149Y034086D01*
X028061Y034050D01*
X028020Y034009D01*
X027350Y034009D01*
X027309Y034050D01*
X027221Y034086D01*
X026653Y034086D01*
X026565Y034050D01*
X026498Y033982D01*
X026461Y033894D01*
X026461Y033659D01*
X026074Y033261D01*
X025111Y033261D01*
X025119Y033265D01*
X025152Y033299D01*
X025176Y033340D01*
X025188Y033386D01*
X025188Y033588D01*
X025188Y033625D02*
X025188Y033827D01*
X025176Y033873D01*
X025152Y033914D01*
X025119Y033947D01*
X025078Y033971D01*
X025032Y033983D01*
X024436Y033983D01*
X024436Y033625D01*
X025188Y033625D01*
X025188Y033736D02*
X026461Y033736D01*
X026461Y033895D02*
X025163Y033895D01*
X025150Y034212D02*
X028000Y034212D01*
X028069Y034053D02*
X027302Y034053D01*
X027058Y034370D02*
X026966Y034370D01*
X026701Y034370D02*
X026701Y034370D01*
X026701Y034529D02*
X026701Y034529D01*
X026701Y034687D02*
X026701Y034687D01*
X026364Y034687D02*
X025248Y034687D01*
X025248Y034529D02*
X026364Y034529D01*
X026436Y034370D02*
X025248Y034370D01*
X025248Y034846D02*
X026364Y034846D01*
X026364Y035004D02*
X025147Y035004D01*
X024418Y034606D02*
X021398Y034606D01*
X019654Y032862D01*
X019654Y029988D01*
X018866Y029201D01*
X018906Y029774D02*
X018987Y029774D01*
X019061Y029932D02*
X019145Y029932D01*
X019108Y030091D02*
X019304Y030091D01*
X019334Y030249D02*
X019108Y030249D01*
X019108Y030408D02*
X019334Y030408D01*
X019334Y030566D02*
X019108Y030566D01*
X019108Y030725D02*
X019334Y030725D01*
X019334Y030883D02*
X019108Y030883D01*
X019108Y031042D02*
X019334Y031042D01*
X019334Y031200D02*
X019108Y031200D01*
X019108Y031359D02*
X019334Y031359D01*
X019334Y031517D02*
X019199Y031517D01*
X019264Y031676D02*
X019334Y031676D01*
X019334Y031834D02*
X019264Y031834D01*
X019264Y031993D02*
X019334Y031993D01*
X019334Y032151D02*
X019208Y032151D01*
X019250Y032310D02*
X019334Y032310D01*
X019334Y032468D02*
X019264Y032468D01*
X019264Y032627D02*
X019334Y032627D01*
X019334Y032785D02*
X019250Y032785D01*
X019341Y032944D02*
X019074Y032944D01*
X019441Y033102D02*
X016463Y033102D01*
X016678Y032944D02*
X017014Y032944D01*
X016973Y032785D02*
X016828Y032785D01*
X016894Y032627D02*
X016973Y032627D01*
X016959Y032468D02*
X016973Y032468D01*
X016964Y032310D02*
X016973Y032310D01*
X016964Y032151D02*
X017014Y032151D01*
X017033Y031993D02*
X016925Y031993D01*
X016859Y031834D02*
X017033Y031834D01*
X017033Y031712D02*
X017033Y031480D01*
X017045Y031434D01*
X017069Y031393D01*
X017102Y031360D01*
X017143Y031336D01*
X017189Y031324D01*
X017480Y031324D01*
X017480Y031712D01*
X017033Y031712D01*
X017033Y031676D02*
X016754Y031676D01*
X016595Y031517D02*
X017033Y031517D01*
X017105Y031359D02*
X016954Y031359D01*
X016980Y031200D02*
X017838Y031200D01*
X017838Y031042D02*
X017706Y031042D01*
X017576Y031359D02*
X017480Y031359D01*
X017480Y031517D02*
X017576Y031517D01*
X017576Y031676D02*
X017480Y031676D01*
X017271Y031042D02*
X016997Y031042D01*
X016583Y031012D02*
X017026Y030549D01*
X017026Y029346D01*
X017526Y029346D02*
X017526Y028888D01*
X017526Y029346D02*
X017526Y030026D01*
X017526Y030620D01*
X017488Y030657D01*
X017526Y030026D02*
X018158Y030657D01*
X018158Y032350D01*
X018335Y032528D01*
X018788Y032547D01*
X018501Y032944D02*
X018042Y032944D01*
X017961Y032547D02*
X017528Y032547D01*
X017961Y032547D02*
X018158Y032350D01*
X018788Y031839D02*
X018788Y030108D01*
X018026Y029346D01*
X017168Y028506D02*
X013835Y028506D01*
X013835Y028664D02*
X014244Y028664D01*
X014161Y028823D02*
X013835Y028823D01*
X013835Y028981D02*
X014161Y028981D01*
X014161Y029140D02*
X013835Y029140D01*
X013835Y029298D02*
X014161Y029298D01*
X014161Y029457D02*
X013835Y029457D01*
X013835Y029615D02*
X014161Y029615D01*
X014161Y029774D02*
X013835Y029774D01*
X013835Y029932D02*
X014177Y029932D01*
X014295Y030249D02*
X013835Y030249D01*
X013835Y030091D02*
X015989Y030091D01*
X016110Y030421D02*
X014575Y030421D01*
X014418Y030579D01*
X014418Y030992D01*
X014378Y031012D01*
X013981Y031042D02*
X013835Y031042D01*
X013835Y031200D02*
X013981Y031200D01*
X014007Y031359D02*
X013835Y031359D01*
X013835Y031517D02*
X015468Y031517D01*
X015310Y031676D02*
X013835Y031676D01*
X013835Y031834D02*
X015204Y031834D01*
X015138Y031993D02*
X013835Y031993D01*
X013835Y032151D02*
X015100Y032151D01*
X015100Y032310D02*
X013835Y032310D01*
X013835Y032468D02*
X015104Y032468D01*
X015170Y032627D02*
X013835Y032627D01*
X013835Y032785D02*
X015236Y032785D01*
X015385Y032944D02*
X013835Y032944D01*
X013835Y033102D02*
X015601Y033102D01*
X015427Y034036D02*
X015779Y034131D01*
X016095Y034313D01*
X016353Y034571D01*
X016535Y034887D01*
X016629Y035239D01*
X016629Y035604D01*
X016535Y035956D01*
X016353Y036272D01*
X016095Y036529D01*
X015779Y036712D01*
X015427Y036806D01*
X015062Y036806D01*
X014710Y036712D01*
X014394Y036529D01*
X014136Y036272D01*
X013954Y035956D01*
X013859Y035604D01*
X013859Y035239D01*
X013954Y034887D01*
X014136Y034571D01*
X014394Y034313D01*
X014710Y034131D01*
X015062Y034036D01*
X015427Y034036D01*
X015489Y034053D02*
X020392Y034053D01*
X020234Y033895D02*
X013835Y033895D01*
X013835Y034053D02*
X015000Y034053D01*
X014570Y034212D02*
X013835Y034212D01*
X013835Y034370D02*
X014337Y034370D01*
X014179Y034529D02*
X013835Y034529D01*
X013835Y034687D02*
X014069Y034687D01*
X013978Y034846D02*
X013835Y034846D01*
X013835Y035004D02*
X013922Y035004D01*
X013880Y035163D02*
X013835Y035163D01*
X013835Y035321D02*
X013859Y035321D01*
X013859Y035480D02*
X013835Y035480D01*
X013835Y035638D02*
X013869Y035638D01*
X013835Y035797D02*
X013911Y035797D01*
X013954Y035955D02*
X013835Y035955D01*
X013835Y036114D02*
X014045Y036114D01*
X014137Y036272D02*
X013835Y036272D01*
X013835Y036431D02*
X014295Y036431D01*
X014497Y036589D02*
X013835Y036589D01*
X013835Y036748D02*
X014844Y036748D01*
X015645Y036748D02*
X023587Y036748D01*
X023587Y036589D02*
X015991Y036589D01*
X016194Y036431D02*
X023587Y036431D01*
X023625Y036272D02*
X016352Y036272D01*
X016444Y036114D02*
X028612Y036114D01*
X028704Y036272D02*
X025210Y036272D01*
X025248Y036431D02*
X028862Y036431D01*
X029064Y036589D02*
X025248Y036589D01*
X025248Y036748D02*
X029410Y036748D01*
X030212Y036748D02*
X031221Y036748D01*
X031221Y036906D02*
X025225Y036906D01*
X025196Y035955D02*
X026326Y035955D01*
X026701Y035618D02*
X024429Y035618D01*
X024418Y035606D01*
X023689Y035004D02*
X016566Y035004D01*
X016609Y035163D02*
X026446Y035163D01*
X027410Y034752D02*
X028079Y034752D01*
X028315Y034516D01*
X028631Y034212D02*
X029137Y034212D01*
X028904Y034370D02*
X028729Y034370D01*
X028798Y034053D02*
X029567Y034053D01*
X030056Y034053D02*
X031221Y034053D01*
X031221Y033895D02*
X028909Y033895D01*
X028910Y033736D02*
X031221Y033736D01*
X031221Y033578D02*
X028910Y033578D01*
X028433Y033689D02*
X026937Y033689D01*
X026209Y032941D01*
X023118Y032941D01*
X022988Y032811D01*
X022988Y032146D01*
X022941Y032193D01*
X021977Y032193D01*
X021898Y032272D01*
X021071Y032272D01*
X021071Y031839D01*
X020953Y031720D01*
X020953Y031287D01*
X020599Y031666D02*
X020538Y031727D01*
X020450Y031764D01*
X020039Y031764D01*
X019974Y031737D01*
X019974Y031785D01*
X020004Y031777D01*
X020236Y031777D01*
X020236Y032224D01*
X020332Y032224D01*
X020332Y031777D01*
X020563Y031777D01*
X020609Y031789D01*
X020631Y031802D01*
X020638Y031795D01*
X020633Y031784D01*
X020633Y031701D01*
X020599Y031666D01*
X020608Y031676D02*
X020589Y031676D01*
X020332Y031834D02*
X020236Y031834D01*
X020236Y031993D02*
X020332Y031993D01*
X020332Y032151D02*
X020236Y032151D01*
X020236Y032468D02*
X020332Y032468D01*
X020332Y032627D02*
X020236Y032627D01*
X020029Y032785D02*
X020674Y032785D01*
X020346Y033102D02*
X022827Y033102D01*
X022847Y033122D02*
X022847Y033122D01*
X022697Y032944D02*
X020188Y032944D01*
X020505Y033261D02*
X023054Y033261D01*
X022668Y032785D02*
X021468Y032785D01*
X021567Y032627D02*
X022529Y032627D01*
X022988Y032146D02*
X023000Y032134D01*
X023647Y033419D02*
X020663Y033419D01*
X020822Y033578D02*
X023647Y033578D01*
X023647Y033736D02*
X020980Y033736D01*
X021139Y033895D02*
X023672Y033895D01*
X023685Y034212D02*
X021456Y034212D01*
X021297Y034053D02*
X026573Y034053D01*
X026228Y033419D02*
X025188Y033419D01*
X024436Y033736D02*
X024399Y033736D01*
X024399Y033895D02*
X024436Y033895D01*
X023604Y035321D02*
X016629Y035321D01*
X016629Y035480D02*
X023587Y035480D01*
X023587Y035638D02*
X016620Y035638D01*
X016578Y035797D02*
X023587Y035797D01*
X023640Y035955D02*
X016535Y035955D01*
X016511Y034846D02*
X021185Y034846D01*
X021026Y034687D02*
X016420Y034687D01*
X016310Y034529D02*
X020868Y034529D01*
X020709Y034370D02*
X016152Y034370D01*
X015919Y034212D02*
X020551Y034212D01*
X020075Y033736D02*
X013835Y033736D01*
X013835Y033578D02*
X019917Y033578D01*
X019758Y033419D02*
X013835Y033419D01*
X013835Y033261D02*
X019600Y033261D01*
X020244Y031287D02*
X020264Y029575D01*
X019929Y029240D01*
X018591Y028059D02*
X018591Y025106D01*
X018866Y024831D01*
X018985Y024161D02*
X019299Y024161D01*
X019693Y024161D01*
X019890Y023965D01*
X019890Y023256D02*
X018985Y023256D01*
X018276Y023256D02*
X018040Y023256D01*
X017725Y023571D01*
X017725Y024358D01*
X017526Y024557D01*
X017526Y025346D01*
X017526Y025344D01*
X017528Y025343D01*
X017528Y025303D01*
X017528Y025343D02*
X017528Y026445D01*
X017922Y026878D02*
X018040Y026760D01*
X018040Y025303D01*
X018026Y025317D01*
X018026Y025346D01*
X018026Y024431D01*
X018276Y024161D01*
X018040Y025264D02*
X018040Y025303D01*
X017055Y025376D02*
X017026Y025346D01*
X017055Y025376D02*
X017055Y026996D01*
X017685Y027626D01*
X017843Y027626D01*
X018012Y028030D02*
X018153Y028030D01*
X017674Y028030D02*
X013835Y028030D01*
X013835Y027872D02*
X017470Y027872D01*
X017320Y027713D02*
X013835Y027713D01*
X013835Y027555D02*
X017161Y027555D01*
X017003Y027396D02*
X013835Y027396D01*
X013835Y027238D02*
X016844Y027238D01*
X016743Y027079D02*
X013835Y027079D01*
X013835Y026921D02*
X016735Y026921D01*
X016735Y026762D02*
X013835Y026762D01*
X013835Y026604D02*
X016735Y026604D01*
X016735Y026445D02*
X013835Y026445D01*
X013835Y026287D02*
X016735Y026287D01*
X016735Y026128D02*
X013835Y026128D01*
X013835Y025970D02*
X014192Y025970D01*
X014161Y025811D02*
X013835Y025811D01*
X013835Y025653D02*
X014161Y025653D01*
X014161Y025494D02*
X013849Y025494D01*
X013896Y025336D02*
X014161Y025336D01*
X014161Y025177D02*
X013994Y025177D01*
X016526Y025494D02*
X016526Y025494D01*
X016526Y025653D02*
X016526Y025653D01*
X016526Y025811D02*
X016526Y025811D01*
X016526Y025970D02*
X016526Y025970D01*
X017415Y028189D02*
X013835Y028189D01*
X013835Y028347D02*
X017215Y028347D01*
X016526Y029346D02*
X016526Y030006D01*
X016110Y030421D01*
X015874Y031012D02*
X015559Y031012D01*
X015481Y030933D01*
X015402Y031012D01*
X015087Y031012D01*
X014098Y030566D02*
X013835Y030566D01*
X013835Y030408D02*
X014142Y030408D01*
X013982Y030725D02*
X013835Y030725D01*
X013835Y030883D02*
X013981Y030883D01*
X019502Y027276D02*
X019502Y026359D01*
X019527Y026370D01*
X019820Y026370D01*
X019908Y026333D01*
X019944Y026297D01*
X019944Y027001D01*
X019797Y027149D01*
X019724Y027149D01*
X019563Y027215D01*
X019502Y027276D01*
X019502Y027238D02*
X019541Y027238D01*
X019502Y027079D02*
X019866Y027079D01*
X019944Y026921D02*
X019502Y026921D01*
X019502Y026762D02*
X019944Y026762D01*
X019944Y026604D02*
X019502Y026604D01*
X019502Y026445D02*
X019944Y026445D01*
X019693Y026642D02*
X019673Y026622D01*
X019673Y025744D01*
X020264Y025772D02*
X020264Y027134D01*
X019811Y027587D01*
X022950Y026128D02*
X023027Y026128D01*
X023027Y025970D02*
X022950Y025970D01*
X022950Y025811D02*
X023027Y025811D01*
X023027Y025653D02*
X022950Y025653D01*
X022950Y025494D02*
X023027Y025494D01*
X023027Y025336D02*
X022950Y025336D01*
X024563Y025768D02*
X024575Y025780D01*
X024575Y028138D01*
X027607Y031169D01*
X027843Y031169D01*
X027543Y031489D02*
X027543Y031489D01*
X027417Y031517D02*
X027222Y031517D01*
X028500Y032146D02*
X028500Y032933D01*
X028433Y032980D01*
X027901Y034370D02*
X027761Y034370D01*
X027732Y035163D02*
X028447Y035163D01*
X028426Y035321D02*
X028283Y035321D01*
X028378Y035480D02*
X028426Y035480D01*
X028436Y035638D02*
X028399Y035638D01*
X028361Y035797D02*
X028478Y035797D01*
X028521Y035955D02*
X028243Y035955D01*
X027961Y035618D02*
X027410Y035618D01*
X028279Y035004D02*
X028489Y035004D01*
X030486Y034212D02*
X031221Y034212D01*
X031221Y034370D02*
X030719Y034370D01*
X030877Y034529D02*
X031221Y034529D01*
X031221Y034687D02*
X030987Y034687D01*
X031078Y034846D02*
X031221Y034846D01*
X031221Y035004D02*
X031133Y035004D01*
X031176Y035163D02*
X031221Y035163D01*
X031221Y035321D02*
X031196Y035321D01*
X031196Y035480D02*
X031221Y035480D01*
X031221Y035638D02*
X031187Y035638D01*
X031221Y035797D02*
X031144Y035797D01*
X031102Y035955D02*
X031221Y035955D01*
X031221Y036431D02*
X030760Y036431D01*
X030558Y036589D02*
X031221Y036589D01*
X023610Y036906D02*
X013835Y036906D01*
X025362Y027469D02*
X025362Y027350D01*
X025351Y027339D01*
X025351Y025768D01*
X026110Y025583D02*
X026110Y025146D01*
X025874Y024909D01*
X026110Y025583D02*
X026138Y025768D01*
X026925Y025768D02*
X026937Y025598D01*
X026937Y025185D01*
X027713Y025768D02*
X027713Y026220D01*
X027213Y026720D01*
X025796Y026720D01*
X026071Y027390D02*
X026032Y027429D01*
X026071Y027390D02*
X027252Y027390D01*
X028500Y026142D01*
X028500Y025768D01*
X025953Y028059D02*
X025362Y027469D01*
X019103Y022469D02*
X018985Y022350D01*
X018985Y021051D01*
X018433Y021484D02*
X018433Y015343D01*
X016307Y013217D01*
X016150Y013059D01*
X016150Y012469D01*
X016071Y012390D01*
X016561Y012556D02*
X016561Y012851D01*
X016679Y012968D01*
X016745Y013129D01*
X016745Y013202D01*
X018645Y015102D01*
X018645Y014325D01*
X018342Y014022D01*
X018258Y013938D01*
X018212Y013827D01*
X018212Y013811D01*
X018012Y013811D01*
X017923Y013774D01*
X017856Y013707D01*
X017819Y013619D01*
X017819Y013483D01*
X017772Y013483D01*
X017726Y013471D01*
X017685Y013447D01*
X017652Y013414D01*
X017628Y013373D01*
X017616Y013327D01*
X017616Y013279D01*
X017480Y013279D01*
X017392Y013243D01*
X017324Y013175D01*
X017288Y013087D01*
X017288Y012690D01*
X016759Y012690D01*
X016649Y012644D01*
X016565Y012560D01*
X016561Y012556D01*
X016561Y012656D02*
X016677Y012656D01*
X016561Y012814D02*
X017288Y012814D01*
X017288Y012973D02*
X016680Y012973D01*
X016745Y013131D02*
X017306Y013131D01*
X017616Y013290D02*
X016833Y013290D01*
X016991Y013448D02*
X017687Y013448D01*
X017819Y013607D02*
X017150Y013607D01*
X017308Y013765D02*
X017914Y013765D01*
X018252Y013924D02*
X017467Y013924D01*
X017625Y014082D02*
X018402Y014082D01*
X018561Y014241D02*
X017784Y014241D01*
X017942Y014399D02*
X018645Y014399D01*
X018645Y014558D02*
X018101Y014558D01*
X018259Y014716D02*
X018645Y014716D01*
X018645Y014875D02*
X018418Y014875D01*
X018576Y015033D02*
X018645Y015033D01*
X017292Y014870D02*
X014890Y012469D01*
X014890Y012390D01*
X016529Y010120D02*
X016578Y010120D01*
X016529Y009961D02*
X016635Y009961D01*
X016529Y009803D02*
X016795Y009803D01*
X017029Y009644D02*
X016529Y009644D01*
X016529Y009486D02*
X017193Y009486D01*
X017626Y009486D02*
X017820Y009486D01*
X017820Y009327D02*
X016529Y009327D01*
X016646Y009169D02*
X017820Y009169D01*
X017820Y009241D02*
X017820Y009020D01*
X017833Y008974D01*
X017856Y008933D01*
X017890Y008899D01*
X017931Y008876D01*
X017977Y008863D01*
X018179Y008863D01*
X018179Y009241D01*
X017820Y009241D01*
X017823Y009010D02*
X016804Y009010D01*
X016963Y008852D02*
X021480Y008852D01*
X021694Y008693D02*
X017121Y008693D01*
X017751Y008535D02*
X021827Y008535D01*
X021994Y008376D02*
X021605Y008376D01*
X021665Y008218D02*
X023626Y008218D01*
X023626Y008059D02*
X021665Y008059D01*
X021780Y009004D02*
X021544Y009240D01*
X021780Y009004D02*
X022134Y009004D01*
X021265Y009010D02*
X019871Y009010D01*
X019515Y009010D02*
X019478Y009010D01*
X019478Y008863D02*
X019478Y009241D01*
X019119Y009241D01*
X019119Y009020D01*
X019132Y008974D01*
X019155Y008933D01*
X019189Y008899D01*
X019230Y008876D01*
X019276Y008863D01*
X019478Y008863D01*
X019478Y009169D02*
X019515Y009169D01*
X019119Y009169D02*
X018574Y009169D01*
X018574Y009241D02*
X018216Y009241D01*
X018216Y008863D01*
X018418Y008863D01*
X018463Y008876D01*
X018504Y008899D01*
X018538Y008933D01*
X018562Y008974D01*
X018574Y009020D01*
X018574Y009241D01*
X018574Y009327D02*
X019119Y009327D01*
X019119Y009486D02*
X018574Y009486D01*
X018625Y009644D02*
X019068Y009644D01*
X019059Y009803D02*
X018634Y009803D01*
X018634Y009961D02*
X019059Y009961D01*
X019059Y010120D02*
X018634Y010120D01*
X018216Y009169D02*
X018179Y009169D01*
X018179Y009010D02*
X018216Y009010D01*
X018571Y009010D02*
X019122Y009010D01*
X019873Y009486D02*
X021071Y009486D01*
X020537Y008376D02*
X017857Y008376D01*
X017887Y008218D02*
X020477Y008218D01*
X020477Y008059D02*
X017858Y008059D01*
X018629Y011842D02*
X018629Y012310D01*
X018162Y012310D01*
X018162Y012470D01*
X018629Y012470D01*
X018629Y012937D01*
X018789Y012937D01*
X018789Y012470D01*
X018629Y012470D01*
X018629Y012310D01*
X018789Y012310D01*
X019256Y012310D01*
X019256Y012470D01*
X018789Y012470D01*
X018789Y012310D01*
X018789Y011842D01*
X018629Y011842D01*
X018629Y011863D02*
X018789Y011863D01*
X018789Y012022D02*
X018629Y012022D01*
X018629Y012180D02*
X018789Y012180D01*
X018789Y012339D02*
X019256Y012339D01*
X018789Y012497D02*
X018629Y012497D01*
X018629Y012339D02*
X018162Y012339D01*
X018629Y012656D02*
X018789Y012656D01*
X018789Y012814D02*
X018629Y012814D01*
X019962Y017697D02*
X019916Y017716D01*
X019266Y018366D01*
X019266Y020033D01*
X020016Y020763D01*
X020016Y020673D01*
X020052Y020587D01*
X020016Y020500D01*
X020016Y020173D01*
X020052Y020087D01*
X020016Y020000D01*
X020016Y019673D01*
X020052Y019587D01*
X020016Y019500D01*
X020016Y019173D01*
X020052Y019087D01*
X020016Y019000D01*
X020016Y018673D01*
X020052Y018587D01*
X020016Y018500D01*
X020016Y018173D01*
X020057Y018075D01*
X020096Y018036D01*
X020090Y018027D01*
X020076Y017974D01*
X020076Y017837D01*
X020610Y017837D01*
X020610Y017837D01*
X020076Y017837D01*
X020076Y017699D01*
X020077Y017697D01*
X019962Y017697D01*
X019904Y017728D02*
X020076Y017728D01*
X020076Y017886D02*
X019745Y017886D01*
X019587Y018045D02*
X020087Y018045D01*
X020016Y018203D02*
X019428Y018203D01*
X019270Y018362D02*
X020016Y018362D01*
X020024Y018520D02*
X019266Y018520D01*
X019266Y018679D02*
X020016Y018679D01*
X020016Y018837D02*
X019266Y018837D01*
X019266Y018996D02*
X020016Y018996D01*
X020024Y019154D02*
X019266Y019154D01*
X019266Y019313D02*
X020016Y019313D01*
X020016Y019471D02*
X019266Y019471D01*
X019266Y019630D02*
X020034Y019630D01*
X020016Y019788D02*
X019266Y019788D01*
X019266Y019947D02*
X020016Y019947D01*
X020044Y020105D02*
X019340Y020105D01*
X019503Y020264D02*
X020016Y020264D01*
X020016Y020422D02*
X019666Y020422D01*
X019829Y020581D02*
X020050Y020581D01*
X020016Y020739D02*
X019991Y020739D01*
X020610Y020337D02*
X020616Y020343D01*
X021126Y018037D02*
X021173Y018037D01*
X021290Y017919D01*
X021355Y017854D01*
X021315Y017813D01*
X021230Y017729D01*
X021207Y017674D01*
X021174Y017660D01*
X021138Y017624D01*
X021125Y017637D01*
X021131Y017646D01*
X021145Y017699D01*
X021145Y017837D01*
X021145Y017974D01*
X021131Y018027D01*
X021125Y018036D01*
X021126Y018037D01*
X021145Y017886D02*
X021323Y017886D01*
X021230Y017728D02*
X021145Y017728D01*
X021145Y017837D02*
X020611Y017837D01*
X021145Y017837D01*
X020611Y017837D02*
X020611Y017837D01*
X018433Y021484D02*
X018433Y022429D01*
X025815Y014811D02*
X025638Y014634D01*
X025815Y014811D02*
X026071Y015067D01*
X026071Y015205D01*
X026624Y014082D02*
X026624Y014082D01*
X026624Y013924D02*
X026624Y013924D01*
X026624Y013765D02*
X026624Y013765D01*
X026624Y013607D02*
X026624Y013607D01*
X026966Y012497D02*
X031182Y012497D01*
X031182Y012339D02*
X026984Y012339D01*
X026984Y012180D02*
X031182Y012180D01*
X031182Y012022D02*
X026984Y012022D01*
X026984Y011863D02*
X031182Y011863D01*
X031182Y011705D02*
X029324Y011705D01*
X029756Y011546D02*
X031182Y011546D01*
X031182Y011388D02*
X029904Y011388D01*
X029959Y011229D02*
X031182Y011229D01*
X031182Y011071D02*
X029954Y011071D01*
X029883Y010912D02*
X031182Y010912D01*
X031182Y010754D02*
X029662Y010754D01*
X029626Y010566D02*
X029283Y010424D01*
X029021Y010162D01*
X028968Y010033D01*
X028968Y010206D01*
X028590Y010206D01*
X028590Y009848D01*
X028811Y009848D01*
X028857Y009860D01*
X028898Y009884D01*
X028911Y009896D01*
X028879Y009819D01*
X028879Y009448D01*
X029021Y009106D01*
X029283Y008844D01*
X029626Y008702D01*
X029997Y008702D01*
X030339Y008844D01*
X030602Y009106D01*
X030743Y009448D01*
X030743Y009819D01*
X030602Y010162D01*
X030339Y010424D01*
X029997Y010566D01*
X029626Y010566D01*
X029339Y010595D02*
X031182Y010595D01*
X031182Y010437D02*
X030309Y010437D01*
X030485Y010278D02*
X031182Y010278D01*
X031182Y010120D02*
X030619Y010120D01*
X030685Y009961D02*
X031182Y009961D01*
X031182Y009803D02*
X030743Y009803D01*
X030743Y009644D02*
X031182Y009644D01*
X031182Y009486D02*
X030743Y009486D01*
X030693Y009327D02*
X031182Y009327D01*
X031182Y009169D02*
X030627Y009169D01*
X030506Y009010D02*
X031180Y009010D01*
X031159Y008852D02*
X030347Y008852D01*
X030955Y008376D02*
X027394Y008376D01*
X027394Y008218D02*
X030796Y008218D01*
X030553Y008059D02*
X027394Y008059D01*
X028043Y008535D02*
X031047Y008535D01*
X031098Y008624D02*
X031098Y008624D01*
X031117Y008693D02*
X028063Y008693D01*
X028063Y008852D02*
X029275Y008852D01*
X029117Y009010D02*
X028063Y009010D01*
X028039Y009169D02*
X028995Y009169D01*
X028929Y009327D02*
X028161Y009327D01*
X028182Y009486D02*
X028879Y009486D01*
X028879Y009644D02*
X028182Y009644D01*
X028202Y009803D02*
X028879Y009803D01*
X028968Y010120D02*
X029004Y010120D01*
X028968Y010278D02*
X029137Y010278D01*
X028968Y010437D02*
X029313Y010437D01*
X028590Y010120D02*
X028553Y010120D01*
X028553Y009961D02*
X028590Y009961D01*
X027582Y009644D02*
X023199Y009644D01*
X023343Y009803D02*
X024266Y009803D01*
X023944Y009961D02*
X023907Y009961D01*
X023907Y010120D02*
X023944Y010120D01*
X023555Y009961D02*
X023500Y009961D01*
X023394Y009486D02*
X027506Y009486D01*
X027362Y009327D02*
X023416Y009327D01*
X023416Y009169D02*
X026544Y009169D01*
X026520Y009010D02*
X023416Y009010D01*
X023416Y009004D02*
X023221Y009004D01*
X023221Y009004D01*
X023416Y009004D01*
X023433Y009004D02*
X023158Y009004D01*
X023416Y008852D02*
X026520Y008852D01*
X026520Y008693D02*
X023416Y008693D01*
X023401Y008535D02*
X025140Y008535D01*
X025033Y008376D02*
X024755Y008376D01*
X024815Y008218D02*
X025003Y008218D01*
X025032Y008059D02*
X024815Y008059D01*
X023687Y008376D02*
X023042Y008376D01*
X023158Y008430D02*
X023158Y008448D01*
X023158Y008430D01*
X023158Y008448D02*
X023158Y008448D01*
X025688Y011071D02*
X025747Y011071D01*
X026301Y009803D02*
X026314Y009803D01*
X026970Y009803D02*
X026983Y009803D01*
X026984Y011705D02*
X027700Y011705D01*
X028512Y014280D02*
X028433Y014358D01*
D37*
X028485Y013295D02*
X029520Y013295D01*
X029521Y011169D02*
X028539Y011169D01*
X028512Y011142D01*
X024142Y011898D02*
X024103Y011858D01*
X024142Y011898D02*
X024142Y012665D01*
X021859Y013138D02*
X021544Y012823D01*
X021544Y010303D01*
X021544Y010028D01*
X020717Y010933D02*
X020717Y011327D01*
X021032Y011642D01*
X021032Y014831D01*
X021032Y016091D01*
X019786Y017337D01*
X021859Y014870D02*
X021859Y013728D01*
X021859Y013138D01*
D38*
X024103Y011858D02*
X024122Y011839D01*
X024733Y011839D01*
X024893Y011999D01*
X025124Y011999D01*
X021544Y010028D02*
X021544Y009437D01*
X021544Y009240D01*
X020610Y017337D02*
X019786Y017337D01*
X018906Y018217D01*
X018906Y020185D01*
X020362Y021602D01*
X020362Y024437D01*
X019811Y024988D01*
X019457Y024988D01*
X019142Y025382D01*
X019142Y027626D01*
X020048Y028531D01*
X023000Y031484D01*
X023000Y032134D01*
X020048Y028531D02*
X017528Y028531D01*
X017526Y028888D01*
D39*
X020765Y028619D02*
X022735Y030589D01*
X024349Y030589D01*
X024563Y030803D01*
X023776Y031457D02*
X023308Y030989D01*
X023776Y031457D02*
X023776Y032146D01*
X023005Y030139D02*
X022725Y030139D01*
X021075Y028489D01*
X021075Y022909D01*
X022805Y021179D01*
X022805Y020649D01*
X022815Y020639D01*
X022535Y020359D01*
X022200Y020359D01*
X022196Y020355D01*
X022212Y020339D01*
X022197Y019699D02*
X022196Y019698D01*
X022197Y019699D02*
X022575Y019699D01*
X023225Y020349D01*
X023225Y021419D01*
X021382Y023261D01*
X021372Y023261D01*
X021372Y028364D01*
X022721Y029713D01*
X022961Y029713D01*
X023005Y030139D02*
X022825Y030139D01*
X022495Y028279D02*
X022265Y028279D01*
X021675Y027689D01*
X021675Y023509D01*
X021685Y023509D01*
X023595Y021599D01*
X023595Y020129D01*
X022905Y019439D01*
X022905Y019033D01*
X022909Y019029D01*
X022919Y019039D01*
X023535Y018679D02*
X022945Y018089D01*
X022909Y018089D01*
X022895Y018075D01*
X022895Y017769D01*
X022745Y017619D01*
X021545Y017619D01*
X021485Y017559D01*
X021485Y017238D01*
X021467Y017220D01*
X021457Y017270D01*
X021457Y016583D01*
X022176Y017220D02*
X023206Y017220D01*
X023435Y017449D01*
X023435Y017819D01*
X023615Y017999D01*
X023926Y017999D01*
X023945Y017980D01*
X022200Y018089D02*
X022200Y019029D01*
X021625Y018699D02*
X021487Y018837D01*
X020610Y018837D01*
X020610Y019337D02*
X021126Y019337D01*
X021487Y019698D01*
X020969Y019837D02*
X021487Y020355D01*
X021135Y020509D02*
X021135Y020670D01*
X021487Y021023D01*
X021135Y020509D02*
X020968Y020343D01*
X020616Y020343D01*
X020610Y019837D02*
X020969Y019837D01*
X021297Y018337D02*
X020610Y018337D01*
X021297Y018337D02*
X021545Y018089D01*
X022200Y018089D01*
X022196Y021023D02*
X022195Y021024D01*
X022195Y021289D01*
X020765Y022719D01*
X020765Y028619D01*
X025106Y025768D02*
X025351Y025768D01*
X025796Y022547D02*
X026386Y021957D01*
X026544Y021957D01*
X026544Y022350D01*
X026898Y022705D01*
X030126Y022705D01*
X030443Y022388D01*
X030443Y021963D01*
X029969Y021937D02*
X029969Y021406D01*
X029772Y021209D01*
X028591Y021209D01*
X028256Y020874D01*
X028158Y020539D01*
X027587Y020756D02*
X028118Y021287D01*
X028118Y021957D01*
X028125Y021963D01*
X028591Y021963D01*
X028551Y022002D01*
X028551Y022193D01*
X028591Y021963D02*
X028943Y021963D01*
X029943Y021963D02*
X029969Y021937D01*
X027587Y020756D02*
X027449Y020539D01*
X027055Y020539D01*
X026544Y021051D01*
X026544Y021248D01*
X020559Y022114D02*
X020362Y021839D01*
X020362Y021602D01*
X018945Y016406D02*
X018945Y014201D01*
X018512Y013768D01*
X018512Y013374D01*
X018709Y013374D02*
X018709Y013610D01*
X019339Y014240D01*
X020362Y013217D01*
X020362Y011602D01*
X019969Y011209D01*
X019969Y011169D01*
X019585Y010769D02*
X018645Y010769D01*
X018315Y011099D01*
X018315Y011406D01*
X018315Y011406D01*
X018118Y011406D02*
X018118Y010972D01*
X018591Y010500D01*
X019299Y010500D01*
X019496Y010303D01*
X019496Y009929D01*
X019516Y009909D01*
X021071Y009909D01*
X021544Y009437D01*
X022252Y009870D02*
X022390Y009732D01*
X022390Y009004D01*
X022646Y009004D02*
X022646Y009516D01*
X023079Y009949D01*
X023079Y010146D01*
X023118Y010185D01*
X023118Y010618D02*
X021859Y010618D01*
X021544Y010303D01*
X021544Y010028D02*
X021465Y010028D01*
X022173Y011228D02*
X022803Y011228D01*
X022823Y011209D01*
X023000Y011209D01*
X023315Y011524D01*
X023394Y010894D02*
X023118Y010618D01*
X023394Y010894D02*
X023925Y010894D01*
X024595Y010894D02*
X024595Y010913D01*
X024969Y011287D01*
X025481Y011287D01*
X025638Y011445D01*
X025638Y011985D01*
X025624Y011999D01*
X026110Y011985D02*
X026110Y011406D01*
X026071Y011366D01*
X026032Y011327D01*
X026110Y011406D02*
X026150Y011445D01*
X026110Y011985D02*
X026124Y011999D01*
X026624Y011999D02*
X026622Y011840D01*
X026622Y010933D01*
X026642Y010913D01*
X026642Y010224D01*
X025973Y010224D01*
X027311Y010224D02*
X027902Y010224D01*
X027882Y010205D01*
X027882Y009437D01*
X027626Y009181D01*
X027626Y008846D01*
X026957Y008846D02*
X026918Y008807D01*
X026918Y008217D01*
X026091Y008217D02*
X025441Y008217D01*
X027902Y010224D02*
X027902Y010480D01*
X028040Y010618D01*
X028355Y010618D01*
X028512Y010776D01*
X028512Y011142D01*
X023158Y008965D02*
X023158Y008374D01*
X022173Y011898D02*
X022173Y012547D01*
X022154Y012547D01*
X019339Y014240D02*
X019339Y015776D01*
X016662Y012823D02*
X016898Y012587D01*
X017725Y012587D01*
X017725Y012390D02*
X016819Y012390D01*
X016583Y012154D01*
X016583Y010539D01*
X016937Y010185D01*
X017016Y010185D01*
X017410Y010421D02*
X017410Y009870D01*
X017410Y010421D02*
X016859Y010972D01*
X016859Y011996D01*
X017055Y012193D01*
X017725Y012193D01*
X017725Y011996D02*
X017370Y011996D01*
X017252Y011878D01*
X017252Y011366D01*
X017742Y010876D01*
X017635Y010769D01*
X017742Y010876D02*
X018197Y010421D01*
X018197Y009929D01*
X017449Y008217D02*
X017173Y008217D01*
X016229Y009161D01*
X016229Y010815D01*
X015914Y011130D01*
X017725Y011799D02*
X018118Y011406D01*
D40*
X015244Y009634D03*
X029024Y018098D03*
X029811Y009634D03*
X016032Y032272D03*
D41*
X015244Y035421D03*
X029811Y035421D03*
X029811Y014949D03*
D42*
X024221Y039083D02*
X014181Y039083D01*
X014181Y041051D01*
X030874Y041051D01*
D43*
X024418Y039083D02*
X024418Y038413D01*
X024418Y037587D02*
X024418Y036606D01*
M02*
