G75*
G70*
%OFA0B0*%
%FSLAX24Y24*%
%IPPOS*%
%LPD*%
%AMOC8*
5,1,8,0,0,1.08239X$1,22.5*
%
%ADD10C,0.1970*%
%ADD11R,0.0480X0.0860*%
%ADD12R,0.0580X0.1080*%
%ADD13C,0.0476*%
%ADD14C,0.1464*%
%ADD15C,0.2370*%
D10*
X015244Y014949D03*
D11*
X026425Y028020D03*
X028000Y028020D03*
D12*
X027607Y029594D03*
X026740Y029594D03*
X025874Y029594D03*
X025008Y029594D03*
X016347Y025343D03*
X015599Y025343D03*
X014851Y025343D03*
D13*
X014929Y027232D03*
X016229Y027232D03*
X017528Y026445D03*
X017922Y026878D03*
X017843Y027626D03*
X018591Y028059D03*
X018866Y029201D03*
X019929Y029240D03*
X019811Y027587D03*
X019654Y026760D03*
X018866Y024831D03*
X019299Y024161D03*
X019890Y023965D03*
X019890Y023256D03*
X019103Y022469D03*
X018433Y022429D03*
X018433Y021484D03*
X018985Y021051D03*
X020559Y022114D03*
X019733Y019319D03*
X019733Y018531D03*
X018945Y016406D03*
X019339Y015776D03*
X020796Y014870D03*
X021859Y014870D03*
X022803Y014122D03*
X023512Y014358D03*
X024142Y013886D03*
X024142Y012665D03*
X023433Y012508D03*
X022764Y013138D03*
X022055Y013610D03*
X023315Y011524D03*
X023118Y010185D03*
X022252Y009870D03*
X020717Y010933D03*
X019969Y011169D03*
X018709Y012390D03*
X016662Y012823D03*
X016307Y013217D03*
X017292Y014870D03*
X015914Y011130D03*
X017016Y010185D03*
X017410Y009870D03*
X017449Y008217D03*
X024024Y008650D03*
X024024Y009437D03*
X025166Y009437D03*
X025441Y008217D03*
X026268Y009437D03*
X027331Y009437D03*
X028394Y009437D03*
X029521Y011169D03*
X028512Y012232D03*
X027213Y012508D03*
X027213Y011406D03*
X026071Y011366D03*
X026110Y012783D03*
X025677Y012783D03*
X027252Y013886D03*
X027685Y014831D03*
X028433Y014358D03*
X029520Y013295D03*
X027685Y016091D03*
X025815Y014811D03*
X025441Y015736D03*
X025048Y016406D03*
X023945Y017980D03*
X023906Y018768D03*
X024260Y020067D03*
X023197Y020067D03*
X025677Y019083D03*
X027488Y018295D03*
X028591Y021209D03*
X028551Y022193D03*
X027410Y021366D03*
X026032Y021563D03*
X025796Y022547D03*
X024063Y024476D03*
X022922Y024516D03*
X022922Y024988D03*
X022095Y026760D03*
X022961Y027469D03*
X025796Y026720D03*
X026032Y027429D03*
X025953Y028059D03*
X026937Y025185D03*
X024563Y030803D03*
X025351Y031012D03*
X026150Y031366D03*
X027843Y031169D03*
X025599Y033610D03*
X025599Y034791D03*
X027961Y035618D03*
X028315Y034516D03*
X022803Y033571D03*
X021071Y033531D03*
X019103Y033571D03*
X019181Y034752D03*
X019260Y036012D03*
X021032Y036012D03*
X022803Y036012D03*
X023158Y030539D03*
X017488Y030657D03*
X017528Y031287D03*
X015481Y030933D03*
X017410Y034752D03*
X017449Y035972D03*
D14*
X015244Y009634D03*
X029024Y018098D03*
X029811Y009634D03*
X016032Y032272D03*
D15*
X015244Y035421D03*
X029811Y035421D03*
X029811Y014949D03*
M02*
